<svg xmlns="http://www.w3.org/2000/svg" viewBox="0 0 96 96"><g fill="#fff" fill-opacity=".7" transform="translate(231.75 75.622)"><path d="M-186.3-63.5c5 0 9.2 3 11.3 7 1.3-.3 2.6-.5 4-.5 7 0 12.6 5.5 12.6 12.4 5.4 1.5 9.4 6.4 9.4 12.2 0 7-5.7 12.7-12.7 12.7-1 0-2-.2-3-.4-2.3 2-5.6 4-9.4 4-4 0-8-2-10-4-2 1-5 2-8 2-1 0-2 0-3-.5-2 4.3-6.3 7.3-11.4 7.3-7 0-12.6-5.7-12.6-12.6 0-5.5 3.4-10 8-12-2-2-3.2-5-3.2-8.4 0-7 5.6-12.4 12.6-12.4 1 0 2 .2 3 .4 1.7-4.6 6.3-8 11.6-8z"/><path stroke-width="20" d="M-164.2 3.3l-5.3 2.7-6.3-12.2 5.3-2.7zm-17 5.3l-6-.3.7-13.8 6 .3zm29-18.3l-3.2 5-11.6-7.5 3.2-5z" overflow="visible" color="#000"/></g></svg>