<svg xmlns="http://www.w3.org/2000/svg" viewBox="0 0 25.4 25.4"><g fill="#fff" fill-opacity=".7"><path d="M7.3 3.2c-.8 0-1.5.7-1.5 1.5v16c0 .8.7 1.5 1.5 1.5H18c1 0 1.6-.7 1.6-1.5v-16c0-.8-.7-1.5-1.5-1.5zm0 1.5H18v8.8H7.4zm0 9.8H18v6.2H7.4z" style="line-height:normal;-inkscape-font-specification:Sans;text-indent:0;text-align:start;text-decoration-line:none;text-transform:none" color="#000" font-family="Sans" overflow="visible"/><g transform="translate(-71.91 -69.896) scale(.1422)"><circle cx="95.8" cy="185.1" r="6" transform="translate(502.205 361.42) scale(.9684)"/><circle cx="95.8" cy="185.1" r="6" transform="translate(516.62 371.865) scale(.9684)"/><circle cx="95.8" cy="185.1" r="6" transform="translate(511.14 388.802) scale(.9684)"/><circle cx="95.8" cy="185.1" r="6" transform="translate(493.34 388.825) scale(.9684)"/><circle cx="95.8" cy="185.1" r="6" transform="translate(487.817 371.902) scale(.9684)"/></g></g></svg>