<svg xmlns="http://www.w3.org/2000/svg" viewBox="0 0 96 96"><g fill-opacity=".5" transform="translate(231.6 239.5)" font-family="Sans"><path d="m -196.52139,-217.51566 c -2.00812,0 -3.69831,1.66662 -3.69831,3.67475 v 38.60843 c 0,2.00813 1.69019,3.67475 3.69831,3.67475 h 9.13976 l -6.52503,-3.76897 h -2.54406 v -1.5547 c -2.08901,-1.68648 -2.72899,-4.71281 -1.3427,-7.11394 l 1.3427,-2.33206 v -27.41929 h 15.82969 l 2.12005,-3.67475 c 0.0199,-0.0345 0.0501,-0.0604 0.0706,-0.0942 h -18.09108 z" style="line-height:normal;-inkscape-font-specification:Sans;text-indent:0;text-align:start;text-decoration-line:none;text-transform:none" color="#000" overflow="visible"/><path d="m -202.10408,-213.94791 -15.68835,9.04554 c -1.73909,1.00406 -2.34676,3.27836 -1.3427,5.01744 l 19.29244,33.44965 c 1.00406,1.73909 3.30192,2.32321 5.041,1.31915 l 7.91485,-4.56989 h -7.51439 l -2.21428,1.27203 -0.77735,-1.34269 c -2.6439,-0.42314 -4.71122,-2.72255 -4.71122,-5.48857 v -2.66184 l -13.7332,-23.7681 13.7332,-7.9384 v -4.2401 c 0,-0.0319 -5.4e-4,-0.0625 0,-0.0942 z" style="line-height:normal;-inkscape-font-specification:Sans;text-indent:0;text-align:start;text-decoration-line:none;text-transform:none" color="#000" overflow="visible"/><path d="m -176.39062,-186.99262 c 0.17794,-0.32959 0.31376,-0.5754 0.40737,-0.73753 0.55118,-0.95469 1.16525,-1.69896 1.84222,-2.23281 0.5044,-0.40527 1.13585,-0.74322 1.89437,-1.01382 0.55546,-0.19568 1.47866,-0.41622 2.76961,-0.66163 1.29091,-0.2454 2.19284,-0.51424 2.70577,-0.80654 0.5129,-0.2923 0.92016,-0.69964 1.22177,-1.22203 0.54598,-0.94569 0.64771,-1.99476 0.30521,-3.14722 -0.34254,-1.15245 -1.06231,-2.04535 -2.15931,-2.67872 -1.06015,-0.61207 -2.13233,-0.79877 -3.21654,-0.56013 -1.08424,0.23866 -2.13477,0.98313 -3.1516,2.23339 l -2.38655,-1.77417 c 1.29644,-1.71328 2.79731,-2.73213 4.50262,-3.05656 1.70527,-0.32439 3.49359,0.0536 5.36498,1.13404 1.98198,1.14432 3.25876,2.584 3.83037,4.31901 0.57155,1.73504 0.42575,3.3501 -0.43742,4.84519 -0.49923,0.86464 -1.16683,1.54197 -2.00285,2.032 -0.83605,0.49003 -2.15948,0.90881 -3.97029,1.25634 -1.21684,0.23416 -2.04591,0.44601 -2.48719,0.63553 -0.44132,0.18955 -0.84669,0.46588 -1.21611,0.82901 -0.36945,0.36313 -0.84419,1.02571 -1.42421,1.98779 z m -2.96788,4.78925 1.59898,-2.76953 2.83472,1.63662 -1.59899,2.76953 z" style="line-height:125%" font-size="42.9" letter-spacing="0" word-spacing="0"/><path d="m -171.82302,-217.81542 c -1.73909,-1.00406 -4.03614,-0.40581 -5.0402,1.33328 l -19.30422,33.43588 c -1.00406,1.73908 -0.37363,4.02752 1.36545,5.03158 l 22.35859,12.90874 c 1.73909,1.00406 4.03614,0.40581 5.0402,-1.33328 l 19.30423,-33.43588 c 1.00406,-1.73908 0.37363,-4.02752 -1.36546,-5.03158 z m -1.82332,3.29934 22.23619,12.83807 -19.20999,33.27269 -22.23619,-12.83807 z" style="line-height:normal;-inkscape-font-specification:Sans;text-indent:0;text-align:start;text-decoration-line:none;text-transform:none" color="#000" overflow="visible"/></g></svg>