<svg xmlns="http://www.w3.org/2000/svg" viewBox="0 0 25.4 25.4"><g fill="#fff" fill-opacity=".7" transform="translate(39.587 41.66) scale(.2646)" color="#000"><path d="m -101.33738,-128.38569 c -4.91876,0 -9.8178,1.47022 -13.995,4.4325 l -2.295,-2.295 -0.9,-0.8775 -0.315,1.215 -3.01501,11.1825 -0.315,1.215 1.21501,-0.315 11.205,-2.9925 1.215,-0.3375 -0.9,-0.8775 -1.7325,-1.7325 c 5.99423,-3.80446 13.668872,-3.8002 19.664996,0 l -1.7325,1.7325 -0.8775,0.8775 1.215,0.3375 11.205,2.9925 1.1925,0.315 -0.315,-1.215 -2.9925,-11.1825 -0.315,-1.215 -0.9,0.8775 -2.295,2.295 c -4.17721,-2.96228 -9.098741,-4.4325 -14.017496,-4.4325 z" style="line-height:normal;-inkscape-font-specification:Sans;text-indent:0;text-align:start;text-decoration-line:none;text-transform:none" font-family="Sans" overflow="visible"/><path d="m 328.78886,648.8296 -79.16439,0 39.5822,-68.55837 z" transform="translate(-210.05 -278.794) scale(.2902)" overflow="visible"/><circle cx="472" cy="619.3" r="26.5" transform="translate(-246.82 -325.57) scale(.3635)" overflow="visible"/></g></svg>