<svg xmlns="http://www.w3.org/2000/svg" viewBox="0 0 96 96"><path fill-opacity=".5" d="M20.2 41c-3.7 0-7 6.6-8 10.3-.8 4 1.2 8.7 3.5 12 1.6 2 6.6 3 8.3 3.3 2.5 1 5 2 7.3 2.3l-3 4.5v1c0 .7.5 1.3 1.2 1.4h20.7c.7 0 1.5-.4 1.5-1l-.2-.8-3.6-6c11.3-3.8 22-13 34-16.6 2-.5-4 0-6-1-17.5 7-35.3-3-52 0 0 0 0-9.5-3.8-9.7H20zm-1 6c1.5 0 1.6 5 1.6 5l.6 8.7s-3-.5-3.8-2c-1-1.6-1.8-4.2-1.5-6.3.8-2 2-5.4 3.8-5.5zm60.2 3.3s6-7.4 4.4-11c-4.2-9-26.2 2-29.2-7.7-1.4-5 10-11.8 10-11.8l-15.8 5.5s-10 4-7.6 8.2c6.2 10.3 25.8 1 35 8.7 2.2 2 3.5 7.6 3.5 7.6z"/></svg>