<?xml version="1.0" encoding="UTF-8" standalone="no"?>
<!-- Created with Inkscape (http://www.inkscape.org/) -->

<svg
   xmlns:dc="http://purl.org/dc/elements/1.1/"
   xmlns:cc="http://creativecommons.org/ns#"
   xmlns:rdf="http://www.w3.org/1999/02/22-rdf-syntax-ns#"
   xmlns:svg="http://www.w3.org/2000/svg"
   xmlns="http://www.w3.org/2000/svg"
   xmlns:sodipodi="http://sodipodi.sourceforge.net/DTD/sodipodi-0.dtd"
   xmlns:inkscape="http://www.inkscape.org/namespaces/inkscape"
   width="98"
   height="84"
   viewBox="0 0 25.9291674 22.22500063"
   version="1.1"
   id="svg7348"
   inkscape:version="0.92.1 r15371"
   sodipodi:docname="die_100.svg">
  <defs
     id="defs7342" />
  <sodipodi:namedview
     id="base"
     pagecolor="#ffffff"
     bordercolor="#666666"
     borderopacity="1.0"
     inkscape:pageopacity="0.0"
     inkscape:pageshadow="2"
     inkscape:zoom="0.35"
     inkscape:cx="-292.8571429"
     inkscape:cy="560"
     inkscape:document-units="mm"
     inkscape:current-layer="layer1"
     showgrid="false"
     units="px"
     inkscape:window-width="1858"
     inkscape:window-height="1177"
     inkscape:window-x="54"
     inkscape:window-y="-8"
     inkscape:window-maximized="1" />
  <metadata
     id="metadata7345">
    <rdf:RDF>
      <cc:Work
         rdf:about="">
        <dc:format>image/svg+xml</dc:format>
        <dc:type
           rdf:resource="http://purl.org/dc/dcmitype/StillImage" />
        <dc:title></dc:title>
      </cc:Work>
    </rdf:RDF>
  </metadata>
  <g
     inkscape:label="Layer 1"
     inkscape:groupmode="layer"
     id="layer1"
     transform="translate(0,-274.7749832)">
    <g
       transform="matrix(0.2645833333,0,0,0.2645833333,-4.810460444,116.8357838)"
       id="g5543">
      <path
         inkscape:connector-curvature="0"
         inkscape:export-ydpi="99.310349"
         inkscape:export-xdpi="99.310349"
         inkscape:export-filename="/home/mfshick/Documents/Code/Android/mtg-familiar/MTGFamiliar/res/drawable/d2.png"
         id="path2985-9"
         d="M 108.6355318,638.9355659 C 108.6355318,661.8301177 90.07585412,680.3898249 67.18126949,680.3898249 44.28675694,680.3898249 25.72700386,661.8301177 25.72700386,638.9355659 25.72700386,616.0409969 44.28675694,597.4812891 67.18126949,597.4812891 90.07585412,597.4812891 108.6355318,616.0409969 108.6355318,638.9355659 Z"
         style="fill:#ffffff;fill-opacity:1;stroke:#000000;stroke-width:0.9831050634;stroke-linecap:round;stroke-linejoin:bevel;stroke-miterlimit:4;stroke-dashoffset:0" />
      <g
         id="text3135"
         style="font-style:normal;font-variant:normal;font-weight:normal;font-stretch:normal;font-size:3.9324204922px;line-height:0%;font-family:Roboto;-inkscape-font-specification:Roboto;letter-spacing:0px;word-spacing:0px;fill:#000000;fill-opacity:1;stroke:none;stroke-width:0.3277017176"
         aria-label="1">
        <path
           inkscape:connector-curvature="0"
           id="path5455"
           style="font-size:48.2376899719px;line-height:1.25;stroke-width:0.3277017176"
           d="M 45.9125474,656.0825195 H 41.53158533 V 627.0409806 L 32.74610761,630.2678183 V 626.3108203 L 45.22949418,621.6236619 H 45.9125474 Z" />
      </g>
      <g
         id="text3139"
         style="font-style:normal;font-variant:normal;font-weight:normal;font-stretch:normal;font-size:3.9324204922px;line-height:0%;font-family:Roboto;-inkscape-font-specification:Roboto;letter-spacing:0px;word-spacing:0px;fill:#000000;fill-opacity:1;stroke:none;stroke-width:0.3277017176"
         aria-label="00">
        <path
           inkscape:connector-curvature="0"
           id="path5458"
           style="font-size:48.2376899719px;line-height:1.25;stroke-width:0.3277017176"
           d="M 72.85753915,641.455759 Q 72.85753915,649.1106659 70.24309404,652.8321283 67.62864893,656.5535907 62.07000887,656.5535907 56.5820295,656.5535907 53.94403083,652.9263426 51.30603216,649.2755408 51.21181792,642.044598 V 636.2268688 Q 51.21181792,628.6661762 53.82626303,624.9918209 56.44070814,621.3174656 62.02290175,621.3174656 67.55798825,621.3174656 70.17243336,624.8740531 72.78687847,628.4070871 72.85753915,635.8029048 Z M 68.50013063,635.4967085 Q 68.50013063,629.961622 66.9455957,627.4413911 65.39106077,624.8976067 62.02290175,624.8976067 58.6782963,624.8976067 57.14731493,627.4178376 55.61633356,629.9380684 55.56922644,635.1669586 V 642.1388123 Q 55.56922644,647.6974523 57.17086849,650.3590046 58.7960641,652.9970032 62.07000887,652.9970032 65.29684653,652.9970032 66.85138146,650.5003259 68.42946995,648.0036486 68.50013063,642.633437 Z" />
        <path
           inkscape:connector-curvature="0"
           id="path5460"
           style="font-size:48.2376899719px;line-height:1.25;stroke-width:0.3277017176"
           d="M 99.99124048,641.455759 Q 99.99124048,649.1106659 97.37679536,652.8321283 94.76235025,656.5535907 89.2037102,656.5535907 83.71573082,656.5535907 81.07773215,652.9263426 78.43973348,649.2755408 78.34551924,642.044598 V 636.2268688 Q 78.34551924,628.6661762 80.95996435,624.9918209 83.57440946,621.3174656 89.15660308,621.3174656 94.69168958,621.3174656 97.30613469,624.8740531 99.9205798,628.4070871 99.99124048,635.8029048 Z M 95.63383196,635.4967085 Q 95.63383196,629.961622 94.07929703,627.4413911 92.5247621,624.8976067 89.15660308,624.8976067 85.81199762,624.8976067 84.28101625,627.4178376 82.75003488,629.9380684 82.70292776,635.1669586 V 642.1388123 Q 82.70292776,647.6974523 84.30456981,650.3590046 85.92976542,652.9970032 89.2037102,652.9970032 92.43054786,652.9970032 93.98508279,650.5003259 95.56317128,648.0036486 95.63383196,642.633437 Z" />
      </g>
    </g>
  </g>
</svg>
