<?xml version="1.0" encoding="UTF-8" standalone="no"?>
<!-- Created with Inkscape (http://www.inkscape.org/) -->

<svg
   xmlns:dc="http://purl.org/dc/elements/1.1/"
   xmlns:cc="http://creativecommons.org/ns#"
   xmlns:rdf="http://www.w3.org/1999/02/22-rdf-syntax-ns#"
   xmlns:svg="http://www.w3.org/2000/svg"
   xmlns="http://www.w3.org/2000/svg"
   xmlns:sodipodi="http://sodipodi.sourceforge.net/DTD/sodipodi-0.dtd"
   xmlns:inkscape="http://www.inkscape.org/namespaces/inkscape"
   width="98"
   height="84"
   viewBox="0 0 25.92916621 22.22499992"
   version="1.1"
   id="svg4722"
   inkscape:version="0.92.1 r15371"
   sodipodi:docname="coin.svg">
  <defs
     id="defs4716" />
  <sodipodi:namedview
     id="base"
     pagecolor="#ffffff"
     bordercolor="#666666"
     borderopacity="1.0"
     inkscape:pageopacity="0.0"
     inkscape:pageshadow="2"
     inkscape:zoom="3.959797967"
     inkscape:cx="13.52491119"
     inkscape:cy="68.01251041"
     inkscape:document-units="mm"
     inkscape:current-layer="layer1"
     showgrid="false"
     units="px"
     inkscape:window-width="1440"
     inkscape:window-height="877"
     inkscape:window-x="1912"
     inkscape:window-y="-8"
     inkscape:window-maximized="1" />
  <metadata
     id="metadata4719">
    <rdf:RDF>
      <cc:Work
         rdf:about="">
        <dc:format>image/svg+xml</dc:format>
        <dc:type
           rdf:resource="http://purl.org/dc/dcmitype/StillImage" />
        <dc:title></dc:title>
      </cc:Work>
    </rdf:RDF>
  </metadata>
  <g
     inkscape:label="Layer 1"
     inkscape:groupmode="layer"
     id="layer1"
     transform="translate(0,-274.7750006)">
    <g
       transform="matrix(0.2645833333,0,0,0.2645833333,21.15617236,139.0321286)"
       id="g5490">
      <path
         inkscape:export-ydpi="88.448273"
         inkscape:export-xdpi="88.448273"
         inkscape:export-filename="/home/mfshick/Documents/Code/Android/mtg-familiar/MTGFamiliar/res/drawable/dcoin.png"
         id="path2985-3"
         d="M 10.493927,555.0439263 C 10.493927,577.9384847 -8.065776926,596.4981942 -30.96033601,596.4981942 -53.8548952,596.4981942 -72.41459998,577.9384847 -72.41459998,555.0439263 -72.41459998,532.1493646 -53.8548952,513.5896574 -30.96033601,513.5896574 -8.065776926,513.5896574 10.493927,532.1493646 10.493927,555.0439263 Z"
         style="fill:#ffffff;fill-opacity:1;stroke:#000000;stroke-width:0.9831051826;stroke-linecap:round;stroke-linejoin:bevel;stroke-miterlimit:4;stroke-dashoffset:0"
         inkscape:connector-curvature="0" />
      <g
         id="text3048"
         style="font-style:normal;font-variant:normal;font-weight:normal;font-stretch:normal;font-size:3.9324204922px;line-height:0%;font-family:Roboto;-inkscape-font-specification:Roboto;letter-spacing:0px;word-spacing:0px;fill:#000000;fill-opacity:1;stroke:none;stroke-width:0.3277017176"
         aria-label="coin ">
        <path
           inkscape:connector-curvature="0"
           id="path5475"
           style="font-size:40.0413894653px;line-height:1.25;stroke-width:0.3277017176"
           d="M -59.0655557,562.5848769 Q -57.12996119,562.5848769 -55.68315317,561.4117894 -54.23634515,560.2387018 -54.07993348,558.4790704 H -50.65842803 Q -50.75618533,560.2973562 -51.90972145,561.9396788 -53.06325757,563.5820014 -54.99885208,564.5595744 -56.91489513,565.5371474 -59.0655557,565.5371474 -63.38642829,565.5371474 -65.94766951,562.6630828 -68.48935927,559.7694667 -68.48935927,554.7642931 V 554.1581978 Q -68.48935927,551.0690672 -67.35537461,548.6642376 -66.22138995,546.2594081 -64.1098323,544.9299088 -61.97872319,543.6004096 -59.08510716,543.6004096 -55.52674149,543.6004096 -53.18056633,545.7315187 -50.81483971,547.8626278 -50.65842803,551.2645818 H -54.07993348 Q -54.23634515,549.2116785 -55.64405025,547.9017307 -57.03220389,546.5722314 -59.08510716,546.5722314 -61.84186298,546.5722314 -63.36687683,548.5664803 -64.87233923,550.5411778 -64.87233923,554.295058 V 554.9793591 Q -64.87233923,558.6354821 -63.36687683,560.6101795 -61.86141444,562.5848769 -59.0655557,562.5848769 Z" />
        <path
           inkscape:connector-curvature="0"
           id="path5477"
           style="font-size:40.0413894653px;line-height:1.25;stroke-width:0.3277017176"
           d="M -47.54974516,554.3732639 Q -47.54974516,551.2645818 -46.33755466,548.7815464 -45.1058127,546.298511 -42.93560067,544.9494603 -40.74583719,543.6004096 -37.94997845,543.6004096 -33.62910585,543.6004096 -30.97010734,546.5917829 -28.29155736,549.5831562 -28.29155736,554.549227 V 554.803396 Q -28.29155736,557.8925266 -29.4841964,560.3560105 -30.65728398,562.799943 -32.86659893,564.1685452 -35.05636241,565.5371474 -37.91087553,565.5371474 -42.21219666,565.5371474 -44.89074664,562.545774 -47.54974516,559.5544007 -47.54974516,554.6274328 Z M -43.91317366,554.803396 Q -43.91317366,558.3226587 -42.2904025,560.4537678 -40.64807989,562.5848769 -37.91087553,562.5848769 -35.15411971,562.5848769 -33.53134856,560.4342164 -31.9085774,558.2640043 -31.9085774,554.3732639 -31.9085774,550.893104 -33.57045148,548.7424435 -35.21277409,546.5722314 -37.94997845,546.5722314 -40.62852843,546.5722314 -42.27085104,548.7033406 -43.91317366,550.8344497 -43.91317366,554.803396 Z" />
        <path
           inkscape:connector-curvature="0"
           id="path5479"
           style="font-size:40.0413894653px;line-height:1.25;stroke-width:0.3277017176"
           d="M -19.82577298,565.1461182 H -23.44279303 V 543.9914388 H -19.82577298 Z M -23.73606492,538.3801698 Q -23.73606492,537.5003541 -23.20817551,536.8942589 -22.66073464,536.2881636 -21.60495581,536.2881636 -20.54917699,536.2881636 -20.00173612,536.8942589 -19.45429525,537.5003541 -19.45429525,538.3801698 -19.45429525,539.2599855 -20.00173612,539.8465293 -20.54917699,540.4330731 -21.60495581,540.4330731 -22.66073464,540.4330731 -23.20817551,539.8465293 -23.73606492,539.2599855 -23.73606492,538.3801698 Z" />
        <path
           inkscape:connector-curvature="0"
           id="path5481"
           style="font-size:40.0413894653px;line-height:1.25;stroke-width:0.3277017176"
           d="M -10.63658972,543.9914388 -10.51928097,546.6504373 Q -8.094899964,543.6004096 -4.184608024,543.6004096 2.521542653,543.6004096 2.580197033,551.1668245 V 565.1461182 H -1.036823012 V 551.147273 Q -1.056374472,548.8597522 -2.092601836,547.7648705 -3.10927774,546.6699887 -5.279489767,546.6699887 -7.03912114,546.6699887 -8.368620399,547.6084588 -9.698119659,548.5469289 -10.44107513,550.0719427 V 565.1461182 H -14.05809517 V 543.9914388 Z" />
      </g>
    </g>
  </g>
</svg>
