<?xml version="1.0" encoding="UTF-8" standalone="no"?>
<!-- Created with Inkscape (http://www.inkscape.org/) -->

<svg
   xmlns:dc="http://purl.org/dc/elements/1.1/"
   xmlns:cc="http://creativecommons.org/ns#"
   xmlns:rdf="http://www.w3.org/1999/02/22-rdf-syntax-ns#"
   xmlns:svg="http://www.w3.org/2000/svg"
   xmlns="http://www.w3.org/2000/svg"
   xmlns:xlink="http://www.w3.org/1999/xlink"
   xmlns:sodipodi="http://sodipodi.sourceforge.net/DTD/sodipodi-0.dtd"
   xmlns:inkscape="http://www.inkscape.org/namespaces/inkscape"
   width="294"
   height="336"
   id="svg2"
   version="1.1"
   inkscape:version="0.92.1 r15371"
   sodipodi:docname="die_glyphs.svg"
   inkscape:export-filename="C:\Users\Adam Feinstein\Desktop\die\die.png"
   inkscape:export-xdpi="90"
   inkscape:export-ydpi="90">
  <defs
     id="defs4">
    <linearGradient
       id="linearGradient3906">
      <stop
         style="stop-color:#ff0000;stop-opacity:1;"
         offset="0"
         id="stop3908" />
      <stop
         style="stop-color:#be0000;stop-opacity:1;"
         offset="1"
         id="stop3910" />
    </linearGradient>
    <linearGradient
       id="linearGradient3898">
      <stop
         style="stop-color:#ffff00;stop-opacity:1;"
         offset="0"
         id="stop3900" />
      <stop
         style="stop-color:#bebe00;stop-opacity:1;"
         offset="1"
         id="stop3902" />
    </linearGradient>
    <linearGradient
       id="linearGradient3890">
      <stop
         style="stop-color:#ff8500;stop-opacity:1;"
         offset="0"
         id="stop3892" />
      <stop
         style="stop-color:#e67800;stop-opacity:1;"
         offset="1"
         id="stop3894" />
    </linearGradient>
    <linearGradient
       id="linearGradient3882">
      <stop
         style="stop-color:#ffde00;stop-opacity:1;"
         offset="0"
         id="stop3884" />
      <stop
         style="stop-color:#dcc000;stop-opacity:1;"
         offset="1"
         id="stop3886" />
    </linearGradient>
    <linearGradient
       id="linearGradient3870">
      <stop
         style="stop-color:#00bf32;stop-opacity:1;"
         offset="0"
         id="stop3872" />
      <stop
         style="stop-color:#00a02a;stop-opacity:1;"
         offset="1"
         id="stop3874" />
    </linearGradient>
    <linearGradient
       inkscape:collect="always"
       xlink:href="#linearGradient3898"
       id="linearGradient3936"
       x1="315.2358093"
       y1="390.3645935"
       x2="315.2017517"
       y2="497.0263672"
       gradientUnits="userSpaceOnUse" />
    <linearGradient
       inkscape:collect="always"
       xlink:href="#linearGradient3870-5"
       id="linearGradient3876-9"
       x1="127.5"
       y1="68.36218262"
       x2="127.5"
       y2="180.8621826"
       gradientUnits="userSpaceOnUse" />
    <linearGradient
       id="linearGradient3870-5">
      <stop
         style="stop-color:#ff0000;stop-opacity:1;"
         offset="0"
         id="stop3872-2" />
      <stop
         style="stop-color:#be0000;stop-opacity:1;"
         offset="1"
         id="stop3874-1" />
    </linearGradient>
    <linearGradient
       inkscape:collect="always"
       xlink:href="#linearGradient3898"
       id="linearGradient5294"
       gradientUnits="userSpaceOnUse"
       x1="315.2358093"
       y1="390.3645935"
       x2="315.2017517"
       y2="497.0263672" />
    <linearGradient
       inkscape:collect="always"
       xlink:href="#linearGradient3898"
       id="linearGradient5296"
       gradientUnits="userSpaceOnUse"
       x1="315.2358093"
       y1="390.3645935"
       x2="315.2017517"
       y2="497.0263672" />
    <linearGradient
       inkscape:collect="always"
       xlink:href="#linearGradient3898"
       id="linearGradient5299"
       gradientUnits="userSpaceOnUse"
       x1="315.2358093"
       y1="390.3645935"
       x2="315.2017517"
       y2="497.0263672"
       gradientTransform="matrix(1,0,0,-1,157.91325,863.33368)" />
    <linearGradient
       inkscape:collect="always"
       xlink:href="#linearGradient3870-7"
       id="linearGradient3876-1"
       x1="127.5"
       y1="68.36218262"
       x2="127.5"
       y2="180.8621826"
       gradientUnits="userSpaceOnUse"
       gradientTransform="translate(3.6225232,-7.245047)" />
    <linearGradient
       id="linearGradient3870-7">
      <stop
         style="stop-color:#00bf32;stop-opacity:1;"
         offset="0"
         id="stop3872-4" />
      <stop
         style="stop-color:#00a02a;stop-opacity:1;"
         offset="1"
         id="stop3874-0" />
    </linearGradient>
  </defs>
  <sodipodi:namedview
     id="base"
     pagecolor="#ffffff"
     bordercolor="#666666"
     borderopacity="1.0"
     inkscape:pageopacity="0.0"
     inkscape:pageshadow="2"
     inkscape:zoom="1.810193352"
     inkscape:cx="119.9444935"
     inkscape:cy="140.5051416"
     inkscape:document-units="px"
     inkscape:current-layer="layer1"
     showgrid="false"
     inkscape:window-width="1858"
     inkscape:window-height="1177"
     inkscape:window-x="54"
     inkscape:window-y="-8"
     inkscape:window-maximized="1"
     fit-margin-top="0"
     fit-margin-left="0"
     fit-margin-right="0"
     fit-margin-bottom="0" />
  <metadata
     id="metadata7">
    <rdf:RDF>
      <cc:Work
         rdf:about="">
        <dc:format>image/svg+xml</dc:format>
        <dc:type
           rdf:resource="http://purl.org/dc/dcmitype/StillImage" />
        <dc:title></dc:title>
      </cc:Work>
    </rdf:RDF>
  </metadata>
  <g
     inkscape:label="Layer 1"
     inkscape:groupmode="layer"
     id="layer1"
     transform="translate(79.82617811,-512.6636842)">
    <path
       sodipodi:type="star"
       style="fill:#ffffff;fill-opacity:1;stroke:#000000;stroke-width:1.2313101292;stroke-miterlimit:4;stroke-dasharray:none"
       id="path2987-2-2"
       sodipodi:sides="3"
       sodipodi:cx="251"
       sodipodi:cy="93.86218262"
       sodipodi:r1="69.32712555"
       sodipodi:r2="34.66356277"
       sodipodi:arg1="0.52359878"
       sodipodi:arg2="1.5707963"
       inkscape:flatsided="true"
       inkscape:rounded="0"
       inkscape:randomized="0"
       d="M 311.0390517,128.5257457 190.960948,128.5257451 251.0000003,24.53505707 Z"
       inkscape:transform-center-y="-19.5555488"
       transform="matrix(0.7995769533,0,0,0.7972686554,-35.37860178,661.8119139)"
       inkscape:export-filename="/home/mfshick/Documents/Code/Android/mtg-familiar/MTGFamiliar/res/drawable/d20.png"
       inkscape:export-xdpi="92.07373"
       inkscape:export-ydpi="92.07373" />
    <g
       aria-label="20"
       transform="scale(1.001549313,0.9984530836)"
       style="font-style:normal;font-variant:normal;font-weight:normal;font-stretch:normal;font-size:3.9324204922px;line-height:0%;font-family:Roboto;-inkscape-font-specification:Roboto;letter-spacing:0px;word-spacing:0px;fill:#000000;fill-opacity:1;stroke:none;stroke-width:0.3277016878"
       id="text3070">
      <path
         d="M 163.2430762,761.762207 H 140.7381697 V 758.6247305 L 152.6275543,745.4143032 Q 155.2696398,742.418367 156.2604218,740.5547532 157.2747939,738.6675493 157.2747939,736.6623951 157.2747939,733.9731296 155.6470805,732.251056 154.0193672,730.5289825 151.3065116,730.5289825 148.0510848,730.5289825 146.2346511,732.3925963 144.4418074,734.2326201 144.4418074,737.5352269 H 140.0776483 Q 140.0776483,732.7936271 143.1207646,729.8684611 146.187471,726.943295 151.3065116,726.943295 156.0952915,726.943295 158.8789172,729.4674303 161.662543,731.9679754 161.662543,736.1434141 161.662543,741.2152745 155.1988696,748.221519 L 145.9987506,758.2001097 H 163.2430762 Z"
         style="font-size:48.3124198914px;line-height:1.25;stroke-width:0.3277016878"
         id="path5438" />
      <path
         d="M 189.4516197,747.1127867 Q 189.4516197,754.7795526 186.8331243,758.5067803 184.2146289,762.234008 178.6473774,762.234008 173.150896,762.234008 170.5088105,758.6011405 167.8667251,754.9446829 167.7723649,747.702538 V 741.8757959 Q 167.7723649,734.3033903 170.3908603,730.6233426 173.0093557,726.943295 178.6001973,726.943295 184.1438587,726.943295 186.7623542,730.5053924 189.3808496,734.0438997 189.4516197,741.451175 Z M 185.0874607,741.1445044 Q 185.0874607,735.6008429 183.5305175,733.0767077 181.9735742,730.5289825 178.6001973,730.5289825 175.2504103,730.5289825 173.7170572,733.0531177 172.183704,735.5772529 172.1365239,740.8142437 V 747.7968982 Q 172.1365239,753.3641497 173.7406472,756.0298252 175.3683606,758.6719106 178.6473774,758.6719106 181.8792141,758.6719106 183.4361573,756.1713655 185.0166905,753.6708203 185.0874607,748.2922892 Z"
         style="font-size:48.3124198914px;line-height:1.25;stroke-width:0.3277016878"
         id="path5440" />
    </g>
    <path
       style="fill:#ffffff;fill-opacity:1;stroke:#000000;stroke-width:0.983105123;stroke-linecap:round;stroke-linejoin:bevel;stroke-miterlimit:4;stroke-dashoffset:0"
       d="M 206.7769221,555.0439263 C 206.7769221,577.9384863 188.2172149,596.4981948 165.3226532,596.4981948 142.428098,596.4981948 123.8683941,577.9384863 123.8683941,555.0439263 123.8683941,532.1493646 142.428098,513.5896574 165.3226532,513.5896574 188.2172149,513.5896574 206.7769221,532.1493646 206.7769221,555.0439263 Z"
       id="path2985"
       inkscape:export-filename="/home/mfshick/Documents/Code/Android/mtg-familiar/MTGFamiliar/res/drawable/d2.png"
       inkscape:export-xdpi="99.310349"
       inkscape:export-ydpi="99.310349"
       inkscape:connector-curvature="0" />
    <g
       aria-label="2"
       style="font-style:normal;font-variant:normal;font-weight:normal;font-stretch:normal;font-size:3.9324204922px;line-height:0%;font-family:Roboto;-inkscape-font-specification:Roboto;letter-spacing:0px;word-spacing:0px;fill:#000000;fill-opacity:1;stroke:none;stroke-width:0.3277017176"
       id="text3046">
      <path
         d="M 177.0170217,572.4382324 H 154.5469259 V 569.305609 L 166.4179199,556.1156156 Q 169.0559186,553.1243136 170.0451681,551.2635824 171.0579711,549.3792976 171.0579711,547.3772451 171.0579711,544.6921393 169.4327755,542.9727294 167.8075799,541.2533196 165.0989206,541.2533196 161.8485294,541.2533196 160.0349053,543.1140508 158.2448347,544.9512284 158.2448347,548.2487268 H 153.8874262 Q 153.8874262,543.5144613 156.9258354,540.5938199 159.9877982,537.6731785 165.0989206,537.6731785 169.8802932,537.6731785 172.6596132,540.1934094 175.4389332,542.6900867 175.4389332,546.8590667 175.4389332,551.923082 168.9852579,558.9184892 L 159.7993697,568.8816449 H 177.0170217 Z"
         style="font-size:48.2376899719px;line-height:1.25;stroke-width:0.3277017176"
         id="path5466" />
    </g>
    <path
       sodipodi:type="star"
       style="fill:#ffffff;fill-opacity:1;stroke:#000000;stroke-width:0.9831050634;stroke-miterlimit:4;stroke-dasharray:none"
       id="path2989"
       sodipodi:sides="4"
       sodipodi:cx="165.3226445"
       sodipodi:cy="638.9355469"
       sodipodi:r1="58.62518311"
       sodipodi:r2="41.45426559"
       sodipodi:arg1="0.78539816"
       sodipodi:arg2="1.5707963"
       inkscape:flatsided="true"
       inkscape:rounded="0"
       inkscape:randomized="0"
       d="M 206.7769118,680.3898113 123.8683827,680.3898115 123.8683824,597.4812825 206.7769115,597.4812822 Z"
       inkscape:export-filename="/home/mfshick/Documents/Code/Android/mtg-familiar/MTGFamiliar/res/drawable/d6.png"
       inkscape:export-xdpi="115.77889"
       inkscape:export-ydpi="115.77889" />
    <g
       aria-label="6"
       style="font-style:normal;font-variant:normal;font-weight:normal;font-stretch:normal;font-size:3.9324204922px;line-height:0%;font-family:Roboto;-inkscape-font-specification:Roboto;letter-spacing:0px;word-spacing:0px;fill:#000000;fill-opacity:1;stroke:none;stroke-width:0.3277017176"
       id="text3058">
      <path
         d="M 171.0226067,621.7649778 V 625.4628873 H 170.2217856 Q 165.1342159,625.5571015 162.1193598,628.4777434 159.1045037,631.3983852 158.6334325,636.697937 161.3420922,633.5888666 166.0292513,633.5888666 170.5044284,633.5888666 173.165981,636.7450441 175.8510872,639.9012216 175.8510872,644.894577 175.8510872,650.1941287 172.9539989,653.3738598 170.0804642,656.5535908 165.2284302,656.5535908 160.3057355,656.5535908 157.2437722,652.7850207 154.181809,648.992897 154.181809,643.0338455 V 641.3615425 Q 154.181809,631.89301 158.2094683,626.8996546 162.2606812,621.8827456 170.2453392,621.7649778 Z M 165.2990909,637.2161153 Q 163.0615024,637.2161153 161.1772173,638.5586684 159.2929322,639.9012216 158.5627718,641.926828 V 643.5284703 Q 158.5627718,647.7681117 160.4706104,650.3590037 162.378449,652.9498956 165.2284302,652.9498956 168.1726256,652.9498956 169.8449286,650.7829678 171.5407851,648.61604 171.5407851,645.106559 171.5407851,641.5735245 169.821375,639.4065967 168.1255185,637.2161153 165.2990909,637.2161153 Z"
         style="font-size:48.2376976013px;line-height:1.25;stroke-width:0.3277017176"
         id="path5463" />
    </g>
    <path
       sodipodi:type="star"
       style="fill:#ffffff;fill-opacity:1;stroke:#000000;stroke-width:1.2313102484;stroke-miterlimit:4;stroke-dasharray:none"
       id="path2987"
       sodipodi:sides="3"
       sodipodi:cx="251"
       sodipodi:cy="93.86218262"
       sodipodi:r1="69.32712555"
       sodipodi:r2="34.66356277"
       sodipodi:arg1="0.52359878"
       sodipodi:arg2="1.5707963"
       inkscape:flatsided="true"
       inkscape:rounded="0"
       inkscape:randomized="0"
       d="M 311.0390517,128.5257457 190.960948,128.5257451 251.0000003,24.53505707 Z"
       inkscape:transform-center-y="-19.5555552"
       transform="matrix(0.7995769533,0,0,0.7972686554,-133.5199933,661.8119106)"
       inkscape:export-filename="/home/mfshick/Documents/Code/Android/mtg-familiar/MTGFamiliar/res/drawable/d4.png"
       inkscape:export-xdpi="92.07373"
       inkscape:export-ydpi="92.07373" />
    <g
       aria-label="4"
       transform="scale(1.001549383,0.9984530138)"
       style="font-style:normal;font-variant:normal;font-weight:normal;font-stretch:normal;font-size:3.9324204922px;line-height:0%;font-family:Roboto;-inkscape-font-specification:Roboto;letter-spacing:0px;word-spacing:0px;fill:#000000;fill-opacity:1;stroke:none;stroke-width:0.3277017176"
       id="text3054">
      <path
         d="M 73.04999066,740.153492 H 77.81518051 V 743.7155894 H 73.04999066 V 751.6890259 H 68.66224159 V 743.7155894 H 53.02203925 V 741.1442741 L 68.40275105,717.3419149 H 73.04999066 Z M 57.97594949,740.153492 H 68.66224159 V 723.3101972 L 68.14326051,724.2537992 Z"
         style="font-size:48.3124198914px;line-height:1.25;stroke-width:0.3277017176"
         id="path5443" />
    </g>
    <path
       style="fill:#ffffff;fill-opacity:1;stroke:#000000;stroke-width:0.9831050634;stroke-linecap:round;stroke-linejoin:bevel;stroke-miterlimit:4;stroke-dashoffset:0"
       d="M 108.6355318,638.9355659 C 108.6355318,661.8301177 90.07585412,680.3898249 67.18126949,680.3898249 44.28675694,680.3898249 25.72700386,661.8301177 25.72700386,638.9355659 25.72700386,616.0409969 44.28675694,597.4812891 67.18126949,597.4812891 90.07585412,597.4812891 108.6355318,616.0409969 108.6355318,638.9355659 Z"
       id="path2985-9"
       inkscape:export-filename="/home/mfshick/Documents/Code/Android/mtg-familiar/MTGFamiliar/res/drawable/d2.png"
       inkscape:export-xdpi="99.310349"
       inkscape:export-ydpi="99.310349"
       inkscape:connector-curvature="0" />
    <g
       aria-label="1"
       style="font-style:normal;font-variant:normal;font-weight:normal;font-stretch:normal;font-size:3.9324204922px;line-height:0%;font-family:Roboto;-inkscape-font-specification:Roboto;letter-spacing:0px;word-spacing:0px;fill:#000000;fill-opacity:1;stroke:none;stroke-width:0.3277017176"
       id="text3135">
      <path
         d="M 45.9125474,656.0825195 H 41.53158533 V 627.0409806 L 32.74610761,630.2678183 V 626.3108203 L 45.22949418,621.6236619 H 45.9125474 Z"
         style="font-size:48.2376899719px;line-height:1.25;stroke-width:0.3277017176"
         id="path5455" />
    </g>
    <g
       aria-label="00"
       style="font-style:normal;font-variant:normal;font-weight:normal;font-stretch:normal;font-size:3.9324204922px;line-height:0%;font-family:Roboto;-inkscape-font-specification:Roboto;letter-spacing:0px;word-spacing:0px;fill:#000000;fill-opacity:1;stroke:none;stroke-width:0.3277017176"
       id="text3139">
      <path
         d="M 72.85753915,641.455759 Q 72.85753915,649.1106659 70.24309404,652.8321283 67.62864893,656.5535907 62.07000887,656.5535907 56.5820295,656.5535907 53.94403083,652.9263426 51.30603216,649.2755408 51.21181792,642.044598 V 636.2268688 Q 51.21181792,628.6661762 53.82626303,624.9918209 56.44070814,621.3174656 62.02290175,621.3174656 67.55798825,621.3174656 70.17243336,624.8740531 72.78687847,628.4070871 72.85753915,635.8029048 Z M 68.50013063,635.4967085 Q 68.50013063,629.961622 66.9455957,627.4413911 65.39106077,624.8976067 62.02290175,624.8976067 58.6782963,624.8976067 57.14731493,627.4178376 55.61633356,629.9380684 55.56922644,635.1669586 V 642.1388123 Q 55.56922644,647.6974523 57.17086849,650.3590046 58.7960641,652.9970032 62.07000887,652.9970032 65.29684653,652.9970032 66.85138146,650.5003259 68.42946995,648.0036486 68.50013063,642.633437 Z"
         style="font-size:48.2376899719px;line-height:1.25;stroke-width:0.3277017176"
         id="path5458" />
      <path
         d="M 99.99124048,641.455759 Q 99.99124048,649.1106659 97.37679536,652.8321283 94.76235025,656.5535907 89.2037102,656.5535907 83.71573082,656.5535907 81.07773215,652.9263426 78.43973348,649.2755408 78.34551924,642.044598 V 636.2268688 Q 78.34551924,628.6661762 80.95996435,624.9918209 83.57440946,621.3174656 89.15660308,621.3174656 94.69168958,621.3174656 97.30613469,624.8740531 99.9205798,628.4070871 99.99124048,635.8029048 Z M 95.63383196,635.4967085 Q 95.63383196,629.961622 94.07929703,627.4413911 92.5247621,624.8976067 89.15660308,624.8976067 85.81199762,624.8976067 84.28101625,627.4178376 82.75003488,629.9380684 82.70292776,635.1669586 V 642.1388123 Q 82.70292776,647.6974523 84.30456981,650.3590046 85.92976542,652.9970032 89.2037102,652.9970032 92.43054786,652.9970032 93.98508279,650.5003259 95.56317128,648.0036486 95.63383196,642.633437 Z"
         style="font-size:48.2376899719px;line-height:1.25;stroke-width:0.3277017176"
         id="path5460" />
    </g>
    <path
       style="fill:#ffffff;fill-opacity:1;stroke:#000000;stroke-width:0.9831051826;stroke-miterlimit:4;stroke-dasharray:none"
       d="M 66.80046373,513.5897393 27.50779063,576.3306641 C 41.10051981,582.2168985 54.37557495,589.737765 67.54711566,596.4982774 L 106.8397887,576.3306641 C 91.96464811,557.143904 79.75824461,534.2801892 66.80046373,513.5897393 Z"
       id="path2993"
       inkscape:connector-curvature="0"
       sodipodi:nodetypes="ccccc"
       inkscape:export-filename="/home/mfshick/Documents/Code/Android/mtg-familiar/MTGFamiliar/res/drawable/d10.png"
       inkscape:export-xdpi="110.96032"
       inkscape:export-ydpi="110.96032" />
    <g
       aria-label="1"
       style="font-style:normal;font-variant:normal;font-weight:normal;font-stretch:normal;font-size:3.9324204922px;line-height:0%;font-family:Roboto;-inkscape-font-specification:Roboto;letter-spacing:0px;word-spacing:0px;fill:#000000;fill-opacity:1;stroke:none;stroke-width:0.3277017176"
       id="text4011">
      <path
         d="M 59.38956472,582.4940796 H 55.0086068 V 553.4525682 L 46.22313743,556.6794028 V 552.7224086 L 58.70651215,548.0352547 H 59.38956472 Z"
         style="font-size:48.2376441956px;line-height:1.25;stroke-width:0.3277017176"
         id="path5469" />
    </g>
    <g
       aria-label="0"
       style="font-style:normal;font-variant:normal;font-weight:normal;font-stretch:normal;font-size:3.9324204922px;line-height:0%;font-family:Roboto;-inkscape-font-specification:Roboto;text-align:start;letter-spacing:0px;word-spacing:0px;writing-mode:lr-tb;text-anchor:start;fill:#000000;fill-opacity:1;stroke:none;stroke-width:0.3277017176"
       id="text4015">
      <path
         d="M 86.33462404,567.867333 Q 86.33462404,575.5222326 83.72018141,579.2436915 81.10573878,582.9651503 75.547104,582.9651503 70.05912983,582.9651503 67.42113367,579.3379056 64.7831375,575.6871073 64.68892335,568.4561714 V 562.6384477 Q 64.68892335,555.0777623 67.30336598,551.4034105 69.91780861,547.7290587 75.49999693,547.7290587 81.03507817,547.7290587 83.6495208,551.2856428 86.26396343,554.8186734 86.33462404,562.2144841 Z M 81.97721966,561.9082881 Q 81.97721966,556.3732068 80.4226862,553.8529783 78.86815275,551.3091963 75.49999693,551.3091963 72.15539464,551.3091963 70.62441473,553.8294248 69.09343481,556.3496533 69.04632773,561.5785386 V 568.5503856 Q 69.04632773,574.1090203 70.64796826,576.77057 72.27316233,579.4085662 75.547104,579.4085662 78.7739386,579.4085662 80.32847205,576.9118913 81.90655905,574.4152163 81.97721966,569.0450098 Z"
         style="font-size:48.2376441956px;line-height:1.25;stroke-width:0.3277017176"
         id="path5472" />
    </g>
    <path
       sodipodi:type="star"
       style="fill:#ffffff;fill-opacity:1;stroke:#000000;stroke-width:1.2305551767;stroke-miterlimit:4;stroke-dasharray:none"
       id="path2987-2"
       sodipodi:sides="3"
       sodipodi:cx="251"
       sodipodi:cy="93.86218262"
       sodipodi:r1="69.32712555"
       sodipodi:r2="34.66356277"
       sodipodi:arg1="0.52359878"
       sodipodi:arg2="1.5707963"
       inkscape:flatsided="true"
       inkscape:rounded="0"
       inkscape:randomized="0"
       d="M 311.0390517,128.5257457 190.960948,128.5257451 251.0000003,24.53505707 Z"
       inkscape:transform-center-y="-19.5555584"
       transform="matrix(0.80055842,0,0,0.7972686554,-231.8484241,745.7035404)"
       inkscape:export-filename="/home/mfshick/Documents/Code/Android/mtg-familiar/MTGFamiliar/res/drawable/d8.png"
       inkscape:export-xdpi="92.07373"
       inkscape:export-ydpi="92.07373" />
    <g
       aria-label="8"
       transform="scale(1.002163886,0.9978407863)"
       style="font-style:normal;font-variant:normal;font-weight:normal;font-stretch:normal;font-size:3.9324204922px;line-height:0%;font-family:Roboto;-inkscape-font-specification:Roboto;letter-spacing:0px;word-spacing:0px;fill:#000000;fill-opacity:1;stroke:none;stroke-width:0.3277017176"
       id="text3062">
      <path
         d="M -20.86861867,811.0848112 Q -20.86861867,813.657704 -22.23768092,815.6640884 -23.58313865,817.6704727 -25.89638176,818.8034897 -23.20546631,819.9601113 -21.64756788,822.1789363 -20.06606494,824.3977613 -20.06606494,827.2066994 -20.06606494,831.667954 -23.0874437,834.3116604 -26.08521793,836.9553668 -30.99495841,836.9553668 -35.95190793,836.9553668 -38.94968216,834.3116604 -41.92385188,831.6443495 -41.92385188,827.2066994 -41.92385188,824.4213659 -40.4131625,822.1789363 -38.8788686,819.9365068 -36.18795315,818.7798852 -38.47759173,817.6468682 -39.79944494,815.6404839 -41.12129815,813.6340995 -41.12129815,811.0848112 -41.12129815,806.7415792 -38.33596461,804.1922909 -35.55063106,801.6430026 -30.99495841,801.6430026 -26.46289028,801.6430026 -23.67755674,804.1922909 -20.86861867,806.7415792 -20.86861867,811.0848112 Z M -24.43290143,827.1122813 Q -24.43290143,824.2325297 -26.2740541,822.4149815 -28.09160226,820.5974334 -31.04216745,820.5974334 -33.99273264,820.5974334 -35.78667628,822.391377 -37.55701539,824.1853207 -37.55701539,827.1122813 -37.55701539,830.039242 -35.83388532,831.715163 -34.08715073,833.391084 -30.99495841,833.391084 -27.92637061,833.391084 -26.17963602,831.715163 -24.43290143,830.0156375 -24.43290143,827.1122813 Z M -30.99495841,805.2308899 Q -33.56785126,805.2308899 -35.17295872,806.8359973 -36.75446166,808.4175003 -36.75446166,811.1556248 -36.75446166,813.7757267 -35.19656324,815.4044386 -33.6150603,817.0095461 -30.99495841,817.0095461 -28.37485652,817.0095461 -26.8169581,815.4044386 -25.23545516,813.7757267 -25.23545516,811.1556248 -25.23545516,808.5355229 -26.86416714,806.8832064 -28.49287913,805.2308899 -30.99495841,805.2308899 Z"
         style="font-size:48.3420600891px;line-height:1.25;stroke-width:0.3277017176"
         id="path5435" />
    </g>
    <path
       sodipodi:type="star"
       style="fill:#ffffff;fill-opacity:1;stroke:#000000;stroke-width:1.3422763348;stroke-miterlimit:4;stroke-dasharray:none;stroke-opacity:1"
       id="path4141"
       sodipodi:sides="5"
       sodipodi:cx="969.7804565"
       sodipodi:cy="-137.2124939"
       sodipodi:r1="62.55150223"
       sodipodi:r2="50.60522842"
       sodipodi:arg1="-1.5707963"
       sodipodi:arg2="-0.9424778"
       inkscape:flatsided="true"
       inkscape:rounded="0"
       inkscape:randomized="0"
       d="M 969.7804582,-199.7639961 1029.270471,-156.5419695 1006.547306,-86.60726459 933.0136047,-86.60726656 910.2904433,-156.5419727 Z"
       transform="matrix(0.7321455116,0,0,0.732687137,-740.9882233,827.7374653)"
       inkscape:transform-center-y="-6.1936016" />
    <g
       aria-label="1"
       transform="scale(0.9996130548,1.000387095)"
       style="font-style:normal;font-variant:normal;font-weight:normal;font-stretch:normal;font-size:3.9324204922px;line-height:0%;font-family:Roboto;-inkscape-font-specification:Roboto;letter-spacing:0px;word-spacing:0px;fill:#000000;fill-opacity:1;stroke:none;stroke-width:0.3277017176"
       id="text3997">
      <path
         d="M -39.00836511,744.585083 H -43.38762957 V 715.5547976 L -52.16970293,718.7803849 V 714.8249202 L -39.69115365,710.1395781 H -39.00836511 Z"
         style="font-size:48.2189979553px;line-height:1.25;stroke-width:0.3277017176"
         id="path5446" />
    </g>
    <g
       aria-label="2"
       transform="scale(0.9996130548,1.000387095)"
       style="font-style:normal;font-variant:normal;font-weight:normal;font-stretch:normal;font-size:3.9324204922px;line-height:0%;font-family:Roboto;-inkscape-font-specification:Roboto;letter-spacing:0px;word-spacing:0px;fill:#000000;fill-opacity:1;stroke:none;stroke-width:0.3277017176"
       id="text4001">
      <path
         d="M -10.56687501,744.8322754 H -33.0282637 V 741.7008659 L -21.16186967,728.5159836 Q -18.52489322,725.5258407 -17.53602705,723.6658305 -16.52361645,721.7822759 -16.52361645,719.7809991 -16.52361645,717.0969338 -18.1481823,715.3781902 -19.77274815,713.6594466 -22.4803579,713.6594466 -25.7294896,713.6594466 -27.54241091,715.5194568 -29.33178778,717.3559226 -29.33178778,720.6521431 H -33.68750781 Q -33.68750781,715.9197122 -30.65027601,713.0002025 -27.58949977,710.0806929 -22.4803579,710.0806929 -17.70083808,710.0806929 -14.92259504,712.5999472 -12.14435199,715.095657 -12.14435199,719.2630216 -12.14435199,724.3250746 -18.59552652,731.3177711 L -27.77785523,741.2770661 H -10.56687501 Z"
         style="font-size:48.2189979553px;line-height:1.25;stroke-width:0.3277017176"
         id="path5449" />
    </g>
    <path
       inkscape:connector-curvature="0"
       style="fill:#ffffff;fill-opacity:1;stroke:#000000;stroke-width:0.9831051826;stroke-linecap:round;stroke-linejoin:bevel;stroke-miterlimit:4;stroke-dashoffset:0"
       d="M 10.493927,555.0439263 C 10.493927,577.9384847 -8.065776926,596.4981942 -30.96033601,596.4981942 -53.8548952,596.4981942 -72.41459998,577.9384847 -72.41459998,555.0439263 -72.41459998,532.1493646 -53.8548952,513.5896574 -30.96033601,513.5896574 -8.065776926,513.5896574 10.493927,532.1493646 10.493927,555.0439263 Z"
       id="path2985-3"
       inkscape:export-filename="/home/mfshick/Documents/Code/Android/mtg-familiar/MTGFamiliar/res/drawable/dcoin.png"
       inkscape:export-xdpi="88.448273"
       inkscape:export-ydpi="88.448273" />
    <g
       aria-label="coin
"
       style="font-style:normal;font-variant:normal;font-weight:normal;font-stretch:normal;font-size:3.9324204922px;line-height:0%;font-family:Roboto;-inkscape-font-specification:Roboto;letter-spacing:0px;word-spacing:0px;fill:#000000;fill-opacity:1;stroke:none;stroke-width:0.3277017176"
       id="text3048">
      <path
         d="M -59.0655557,562.5848769 Q -57.12996119,562.5848769 -55.68315317,561.4117894 -54.23634515,560.2387018 -54.07993348,558.4790704 H -50.65842803 Q -50.75618533,560.2973562 -51.90972145,561.9396788 -53.06325757,563.5820014 -54.99885208,564.5595744 -56.91489513,565.5371474 -59.0655557,565.5371474 -63.38642829,565.5371474 -65.94766951,562.6630828 -68.48935927,559.7694667 -68.48935927,554.7642931 V 554.1581978 Q -68.48935927,551.0690672 -67.35537461,548.6642376 -66.22138995,546.2594081 -64.1098323,544.9299088 -61.97872319,543.6004096 -59.08510716,543.6004096 -55.52674149,543.6004096 -53.18056633,545.7315187 -50.81483971,547.8626278 -50.65842803,551.2645818 H -54.07993348 Q -54.23634515,549.2116785 -55.64405025,547.9017307 -57.03220389,546.5722314 -59.08510716,546.5722314 -61.84186298,546.5722314 -63.36687683,548.5664803 -64.87233923,550.5411778 -64.87233923,554.295058 V 554.9793591 Q -64.87233923,558.6354821 -63.36687683,560.6101795 -61.86141444,562.5848769 -59.0655557,562.5848769 Z"
         style="font-size:40.0413894653px;line-height:1.25;stroke-width:0.3277017176"
         id="path5475" />
      <path
         d="M -47.54974516,554.3732639 Q -47.54974516,551.2645818 -46.33755466,548.7815464 -45.1058127,546.298511 -42.93560067,544.9494603 -40.74583719,543.6004096 -37.94997845,543.6004096 -33.62910585,543.6004096 -30.97010734,546.5917829 -28.29155736,549.5831562 -28.29155736,554.549227 V 554.803396 Q -28.29155736,557.8925266 -29.4841964,560.3560105 -30.65728398,562.799943 -32.86659893,564.1685452 -35.05636241,565.5371474 -37.91087553,565.5371474 -42.21219666,565.5371474 -44.89074664,562.545774 -47.54974516,559.5544007 -47.54974516,554.6274328 Z M -43.91317366,554.803396 Q -43.91317366,558.3226587 -42.2904025,560.4537678 -40.64807989,562.5848769 -37.91087553,562.5848769 -35.15411971,562.5848769 -33.53134856,560.4342164 -31.9085774,558.2640043 -31.9085774,554.3732639 -31.9085774,550.893104 -33.57045148,548.7424435 -35.21277409,546.5722314 -37.94997845,546.5722314 -40.62852843,546.5722314 -42.27085104,548.7033406 -43.91317366,550.8344497 -43.91317366,554.803396 Z"
         style="font-size:40.0413894653px;line-height:1.25;stroke-width:0.3277017176"
         id="path5477" />
      <path
         d="M -19.82577298,565.1461182 H -23.44279303 V 543.9914388 H -19.82577298 Z M -23.73606492,538.3801698 Q -23.73606492,537.5003541 -23.20817551,536.8942589 -22.66073464,536.2881636 -21.60495581,536.2881636 -20.54917699,536.2881636 -20.00173612,536.8942589 -19.45429525,537.5003541 -19.45429525,538.3801698 -19.45429525,539.2599855 -20.00173612,539.8465293 -20.54917699,540.4330731 -21.60495581,540.4330731 -22.66073464,540.4330731 -23.20817551,539.8465293 -23.73606492,539.2599855 -23.73606492,538.3801698 Z"
         style="font-size:40.0413894653px;line-height:1.25;stroke-width:0.3277017176"
         id="path5479" />
      <path
         d="M -10.63658972,543.9914388 -10.51928097,546.6504373 Q -8.094899964,543.6004096 -4.184608024,543.6004096 2.521542653,543.6004096 2.580197033,551.1668245 V 565.1461182 H -1.036823012 V 551.147273 Q -1.056374472,548.8597522 -2.092601836,547.7648705 -3.10927774,546.6699887 -5.279489767,546.6699887 -7.03912114,546.6699887 -8.368620399,547.6084588 -9.698119659,548.5469289 -10.44107513,550.0719427 V 565.1461182 H -14.05809517 V 543.9914388 Z"
         style="font-size:40.0413894653px;line-height:1.25;stroke-width:0.3277017176"
         id="path5481" />
    </g>
    <path
       style="fill:#ffffff;fill-opacity:1;stroke:#000000;stroke-width:0.9831050038;stroke-linecap:round;stroke-linejoin:bevel;stroke-miterlimit:4;stroke-dashoffset:0"
       d="M 10.49391388,638.9355659 C 10.49391388,661.8301177 -8.065763807,680.3898249 -30.96035108,680.3898249 -53.85486266,680.3898249 -72.41461505,661.8301177 -72.41461505,638.9355659 -72.41461505,616.0409973 -53.85486266,597.4812888 -30.96035108,597.4812888 -8.065763807,597.4812888 10.49391388,616.0409973 10.49391388,638.9355659 Z"
       id="path2985-9-7"
       inkscape:export-filename="/home/mfshick/Documents/Code/Android/mtg-familiar/MTGFamiliar/res/drawable/d2.png"
       inkscape:export-xdpi="99.310349"
       inkscape:export-ydpi="99.310349"
       inkscape:connector-curvature="0" />
    <g
       aria-label="X"
       style="font-style:normal;font-variant:normal;font-weight:normal;font-stretch:normal;font-size:3.9324204922px;line-height:0%;font-family:Roboto;-inkscape-font-specification:Roboto;letter-spacing:0px;word-spacing:0px;fill:#000000;fill-opacity:1;stroke:none;stroke-width:0.3277017176"
       id="text3107">
      <path
         d="M -31.1605558,634.931423 -22.94036352,621.7885368 H -17.61725906 L -28.45189645,638.7942068 -17.3581699,656.0825195 H -22.72838148 L -31.1605558,642.7040977 -39.63983724,656.0825195 H -44.98649526 L -33.86921515,638.7942068 -44.72740611,621.7885368 H -39.42785521 Z"
         style="font-size:48.2376899719px;line-height:1.25;stroke-width:0.3277017176"
         id="path5452" />
    </g>
  </g>
</svg>
