<?xml version="1.0" encoding="UTF-8" standalone="no"?>
<!-- Created with Inkscape (http://www.inkscape.org/) -->

<svg
   xmlns:dc="http://purl.org/dc/elements/1.1/"
   xmlns:cc="http://creativecommons.org/ns#"
   xmlns:rdf="http://www.w3.org/1999/02/22-rdf-syntax-ns#"
   xmlns:svg="http://www.w3.org/2000/svg"
   xmlns="http://www.w3.org/2000/svg"
   xmlns:sodipodi="http://sodipodi.sourceforge.net/DTD/sodipodi-0.dtd"
   xmlns:inkscape="http://www.inkscape.org/namespaces/inkscape"
   width="98"
   height="84"
   viewBox="0 0 25.92916621 22.22499992"
   version="1.1"
   id="svg10238"
   inkscape:version="0.92.1 r15371"
   sodipodi:docname="die_8.svg">
  <defs
     id="defs10232" />
  <sodipodi:namedview
     id="base"
     pagecolor="#ffffff"
     bordercolor="#666666"
     borderopacity="1.0"
     inkscape:pageopacity="0.0"
     inkscape:pageshadow="2"
     inkscape:zoom="0.35"
     inkscape:cx="-101.4285714"
     inkscape:cy="560"
     inkscape:document-units="mm"
     inkscape:current-layer="layer1"
     showgrid="false"
     units="px"
     inkscape:window-width="1858"
     inkscape:window-height="1177"
     inkscape:window-x="54"
     inkscape:window-y="-8"
     inkscape:window-maximized="1" />
  <metadata
     id="metadata10235">
    <rdf:RDF>
      <cc:Work
         rdf:about="">
        <dc:format>image/svg+xml</dc:format>
        <dc:type
           rdf:resource="http://purl.org/dc/dcmitype/StillImage" />
        <dc:title></dc:title>
      </cc:Work>
    </rdf:RDF>
  </metadata>
  <g
     inkscape:label="Layer 1"
     inkscape:groupmode="layer"
     id="layer1"
     transform="translate(0,-274.7750006)">
    <g
       transform="matrix(0.2645833333,0,0,0.2645833333,21.142394,72.50803792)"
       id="g5507">
      <path
         inkscape:export-ydpi="92.07373"
         inkscape:export-xdpi="92.07373"
         inkscape:export-filename="/home/mfshick/Documents/Code/Android/mtg-familiar/MTGFamiliar/res/drawable/d8.png"
         transform="matrix(0.80055842,0,0,0.7972686554,-231.8484241,745.7035404)"
         inkscape:transform-center-y="-19.5555584"
         d="M 311.0390517,128.5257457 190.960948,128.5257451 251.0000003,24.53505707 Z"
         inkscape:randomized="0"
         inkscape:rounded="0"
         inkscape:flatsided="true"
         sodipodi:arg2="1.5707963"
         sodipodi:arg1="0.52359878"
         sodipodi:r2="34.66356277"
         sodipodi:r1="69.32712555"
         sodipodi:cy="93.86218262"
         sodipodi:cx="251"
         sodipodi:sides="3"
         id="path2987-2"
         style="fill:#ffffff;fill-opacity:1;stroke:#000000;stroke-width:1.2305551767;stroke-miterlimit:4;stroke-dasharray:none"
         sodipodi:type="star" />
      <g
         id="text3062"
         style="font-style:normal;font-variant:normal;font-weight:normal;font-stretch:normal;font-size:3.9324204922px;line-height:0%;font-family:Roboto;-inkscape-font-specification:Roboto;letter-spacing:0px;word-spacing:0px;fill:#000000;fill-opacity:1;stroke:none;stroke-width:0.3277017176"
         transform="scale(1.002163886,0.9978407863)"
         aria-label="8">
        <path
           inkscape:connector-curvature="0"
           id="path5435"
           style="font-size:48.3420600891px;line-height:1.25;stroke-width:0.3277017176"
           d="M -20.86861867,811.0848112 Q -20.86861867,813.657704 -22.23768092,815.6640884 -23.58313865,817.6704727 -25.89638176,818.8034897 -23.20546631,819.9601113 -21.64756788,822.1789363 -20.06606494,824.3977613 -20.06606494,827.2066994 -20.06606494,831.667954 -23.0874437,834.3116604 -26.08521793,836.9553668 -30.99495841,836.9553668 -35.95190793,836.9553668 -38.94968216,834.3116604 -41.92385188,831.6443495 -41.92385188,827.2066994 -41.92385188,824.4213659 -40.4131625,822.1789363 -38.8788686,819.9365068 -36.18795315,818.7798852 -38.47759173,817.6468682 -39.79944494,815.6404839 -41.12129815,813.6340995 -41.12129815,811.0848112 -41.12129815,806.7415792 -38.33596461,804.1922909 -35.55063106,801.6430026 -30.99495841,801.6430026 -26.46289028,801.6430026 -23.67755674,804.1922909 -20.86861867,806.7415792 -20.86861867,811.0848112 Z M -24.43290143,827.1122813 Q -24.43290143,824.2325297 -26.2740541,822.4149815 -28.09160226,820.5974334 -31.04216745,820.5974334 -33.99273264,820.5974334 -35.78667628,822.391377 -37.55701539,824.1853207 -37.55701539,827.1122813 -37.55701539,830.039242 -35.83388532,831.715163 -34.08715073,833.391084 -30.99495841,833.391084 -27.92637061,833.391084 -26.17963602,831.715163 -24.43290143,830.0156375 -24.43290143,827.1122813 Z M -30.99495841,805.2308899 Q -33.56785126,805.2308899 -35.17295872,806.8359973 -36.75446166,808.4175003 -36.75446166,811.1556248 -36.75446166,813.7757267 -35.19656324,815.4044386 -33.6150603,817.0095461 -30.99495841,817.0095461 -28.37485652,817.0095461 -26.8169581,815.4044386 -25.23545516,813.7757267 -25.23545516,811.1556248 -25.23545516,808.5355229 -26.86416714,806.8832064 -28.49287913,805.2308899 -30.99495841,805.2308899 Z" />
      </g>
    </g>
  </g>
</svg>
