<?xml version="1.0" encoding="UTF-8" standalone="no"?>
<!-- Created with Inkscape (http://www.inkscape.org/) -->

<svg
   xmlns:dc="http://purl.org/dc/elements/1.1/"
   xmlns:cc="http://creativecommons.org/ns#"
   xmlns:rdf="http://www.w3.org/1999/02/22-rdf-syntax-ns#"
   xmlns:svg="http://www.w3.org/2000/svg"
   xmlns="http://www.w3.org/2000/svg"
   xmlns:sodipodi="http://sodipodi.sourceforge.net/DTD/sodipodi-0.dtd"
   xmlns:inkscape="http://www.inkscape.org/namespaces/inkscape"
   width="98"
   height="84"
   viewBox="0 0 25.92916607 22.22500063"
   version="1.1"
   id="svg9661"
   inkscape:version="0.92.1 r15371"
   sodipodi:docname="die_20.svg">
  <defs
     id="defs9655" />
  <sodipodi:namedview
     id="base"
     pagecolor="#ffffff"
     bordercolor="#666666"
     borderopacity="1.0"
     inkscape:pageopacity="0.0"
     inkscape:pageshadow="2"
     inkscape:zoom="0.35"
     inkscape:cx="-101.4285714"
     inkscape:cy="560"
     inkscape:document-units="mm"
     inkscape:current-layer="layer1"
     showgrid="false"
     units="px"
     inkscape:window-width="1858"
     inkscape:window-height="1177"
     inkscape:window-x="54"
     inkscape:window-y="-8"
     inkscape:window-maximized="1" />
  <metadata
     id="metadata9658">
    <rdf:RDF>
      <cc:Work
         rdf:about="">
        <dc:format>image/svg+xml</dc:format>
        <dc:type
           rdf:resource="http://purl.org/dc/dcmitype/StillImage" />
        <dc:title></dc:title>
      </cc:Work>
    </rdf:RDF>
  </metadata>
  <g
     inkscape:label="Layer 1"
     inkscape:groupmode="layer"
     id="layer1"
     transform="translate(0,-274.7749832)">
    <g
       transform="matrix(0.2645833333,0,0,0.2645833333,-30.77506687,94.70438651)"
       id="g5518">
      <path
         inkscape:export-ydpi="92.07373"
         inkscape:export-xdpi="92.07373"
         inkscape:export-filename="/home/mfshick/Documents/Code/Android/mtg-familiar/MTGFamiliar/res/drawable/d20.png"
         transform="matrix(0.7995769533,0,0,0.7972686554,-35.37860178,661.8119139)"
         inkscape:transform-center-y="-19.5555488"
         d="M 311.0390517,128.5257457 190.960948,128.5257451 251.0000003,24.53505707 Z"
         inkscape:randomized="0"
         inkscape:rounded="0"
         inkscape:flatsided="true"
         sodipodi:arg2="1.5707963"
         sodipodi:arg1="0.52359878"
         sodipodi:r2="34.66356277"
         sodipodi:r1="69.32712555"
         sodipodi:cy="93.86218262"
         sodipodi:cx="251"
         sodipodi:sides="3"
         id="path2987-2-2"
         style="fill:#ffffff;fill-opacity:1;stroke:#000000;stroke-width:1.2313101292;stroke-miterlimit:4;stroke-dasharray:none"
         sodipodi:type="star" />
      <g
         id="text3070"
         style="font-style:normal;font-variant:normal;font-weight:normal;font-stretch:normal;font-size:3.9324204922px;line-height:0%;font-family:Roboto;-inkscape-font-specification:Roboto;letter-spacing:0px;word-spacing:0px;fill:#000000;fill-opacity:1;stroke:none;stroke-width:0.3277016878"
         transform="scale(1.001549313,0.9984530836)"
         aria-label="20">
        <path
           inkscape:connector-curvature="0"
           id="path5438"
           style="font-size:48.3124198914px;line-height:1.25;stroke-width:0.3277016878"
           d="M 163.2430762,761.762207 H 140.7381697 V 758.6247305 L 152.6275543,745.4143032 Q 155.2696398,742.418367 156.2604218,740.5547532 157.2747939,738.6675493 157.2747939,736.6623951 157.2747939,733.9731296 155.6470805,732.251056 154.0193672,730.5289825 151.3065116,730.5289825 148.0510848,730.5289825 146.2346511,732.3925963 144.4418074,734.2326201 144.4418074,737.5352269 H 140.0776483 Q 140.0776483,732.7936271 143.1207646,729.8684611 146.187471,726.943295 151.3065116,726.943295 156.0952915,726.943295 158.8789172,729.4674303 161.662543,731.9679754 161.662543,736.1434141 161.662543,741.2152745 155.1988696,748.221519 L 145.9987506,758.2001097 H 163.2430762 Z" />
        <path
           inkscape:connector-curvature="0"
           id="path5440"
           style="font-size:48.3124198914px;line-height:1.25;stroke-width:0.3277016878"
           d="M 189.4516197,747.1127867 Q 189.4516197,754.7795526 186.8331243,758.5067803 184.2146289,762.234008 178.6473774,762.234008 173.150896,762.234008 170.5088105,758.6011405 167.8667251,754.9446829 167.7723649,747.702538 V 741.8757959 Q 167.7723649,734.3033903 170.3908603,730.6233426 173.0093557,726.943295 178.6001973,726.943295 184.1438587,726.943295 186.7623542,730.5053924 189.3808496,734.0438997 189.4516197,741.451175 Z M 185.0874607,741.1445044 Q 185.0874607,735.6008429 183.5305175,733.0767077 181.9735742,730.5289825 178.6001973,730.5289825 175.2504103,730.5289825 173.7170572,733.0531177 172.183704,735.5772529 172.1365239,740.8142437 V 747.7968982 Q 172.1365239,753.3641497 173.7406472,756.0298252 175.3683606,758.6719106 178.6473774,758.6719106 181.8792141,758.6719106 183.4361573,756.1713655 185.0166905,753.6708203 185.0874607,748.2922892 Z" />
      </g>
    </g>
  </g>
</svg>
