<?xml version="1.0" encoding="UTF-8" standalone="no"?>
<svg
   xmlns:dc="http://purl.org/dc/elements/1.1/"
   xmlns:cc="http://creativecommons.org/ns#"
   xmlns:rdf="http://www.w3.org/1999/02/22-rdf-syntax-ns#"
   xmlns:svg="http://www.w3.org/2000/svg"
   xmlns="http://www.w3.org/2000/svg"
   id="svg5445"
   version="1.1"
   viewBox="0 0 27.093335 27.093326"
   height="102.39997"
   width="102.4">
  <defs
     id="defs5439" />
  <metadata
     id="metadata5442">
    <rdf:RDF>
      <cc:Work
         rdf:about="">
        <dc:format>image/svg+xml</dc:format>
        <dc:type
           rdf:resource="http://purl.org/dc/dcmitype/StillImage" />
        <dc:title></dc:title>
      </cc:Work>
    </rdf:RDF>
  </metadata>
  <g
     transform="translate(13.304763,-141.84831)"
     id="layer1">
    <g
       transform="matrix(0.42333336,0,0,0.42333336,-93.73811,-273.69077)"
       id="g3183">
      <path
         id="path131-3"
         d="m 236.00002,1013.5878 c 0,7.7322 -6.2678,14.0005 -14.00056,14.0005 -7.73164,0 -13.99944,-6.2683 -13.99944,-14.0005 0,-7.7317 6.2678,-13.99948 13.99944,-13.99948 7.73276,0 14.00056,6.26778 14.00056,13.99948 z"
         style="fill:#a3c095" />
      <path
         style="fill:#0d0f0f"
         d="m 234.25338,1015.3313 c 0,0.4671 -0.1806,0.8859 -0.54208,1.2595 -0.36092,0.3729 -0.77559,0.5594 -1.24208,0.5594 -0.74536,0 -1.29444,-0.35 -1.64332,-1.0494 l -1.64388,-0.07 c -0.35056,0 -1.03852,0.152 -2.06388,0.455 -1.09592,0.3029 -1.72592,0.5479 -1.88888,0.7344 -0.25648,0.2794 -0.46592,0.933 -0.62944,1.9589 -0.14056,0.8394 -0.20944,1.4574 -0.20944,1.8539 0,0.6288 0.0986,1.09 0.29708,1.3815 0.19852,0.2915 0.60648,0.5365 1.22388,0.7344 0.6174,0.198 0.99708,0.3091 1.13708,0.3324 0.093,0 0.24444,-0.012 0.455,-0.035 h 0.41944 c 0.3024,0 0.6174,0.048 0.94444,0.14 0.46648,0.14 0.665,0.3265 0.595,0.56 -0.32704,-0.047 -0.89796,0.023 -1.71388,0.21 l 0.97888,0.4894 c 0,0.28 -0.39648,0.4195 -1.18887,0.4195 -0.21056,0 -0.49588,-0.047 -0.85764,-0.1395 -0.36149,-0.094 -0.60061,-0.14 -0.71653,-0.14 h -0.45499 c -0.023,0.233 -0.0935,0.5824 -0.21,1.0489 -0.39704,-0.024 -0.86241,-0.257 -1.39888,-0.6994 -0.53705,-0.4424 -0.87445,-0.6645 -1.01388,-0.6645 -0.14056,0 -0.33908,0.2221 -0.595,0.6645 -0.25705,0.4424 -0.385,0.7459 -0.385,0.9094 -0.30296,-0.1635 -0.55888,-0.467 -0.77,-0.9094 -0.093,-0.3036 -0.19796,-0.6065 -0.31388,-0.9095 -0.23296,0.024 -0.665,0.5135 -1.29388,1.4695 h -0.17556 c -0.0465,-0.071 -0.2226,-0.56 -0.52444,-1.4695 -0.72296,-0.2329 -1.39888,-0.3494 -2.02888,-0.3494 -0.30296,0 -0.76944,0.07 -1.39888,0.2094 l -0.97888,-0.069 c 0.13944,-0.14 0.5474,-0.408 1.22388,-0.8045 0.7924,-0.4664 1.39888,-0.7 1.81888,-0.7 0.0689,0 0.16184,0.012 0.28,0.035 0.11592,0.024 0.21,0.035 0.28,0.035 0.16184,0 0.42504,-0.087 0.78652,-0.2626 0.36148,-0.1744 0.57092,-0.3321 0.62888,-0.4715 0.0591,-0.1411 0.0885,-0.5021 0.0885,-1.085 0,-1.3289 -0.35,-2.3198 -1.05,-2.9728 -0.60704,-0.5829 -1.60888,-1.0024 -3.00832,-1.2594 -0.37296,1.3289 -1.4224,1.9944 -3.1472,1.9944 -0.56,0 -1.11945,-0.3379 -1.67888,-1.0144 -0.55888,-0.6765 -0.83888,-1.2945 -0.83888,-1.8539 0,-0.863 0.36036,-1.5739 1.08332,-2.1344 -0.5824,-0.6054 -0.87388,-1.2234 -0.87388,-1.8528 0,-0.5835 0.18004,-1.0959 0.54208,-1.54 0.36148,-0.4418 0.83356,-0.6989 1.41652,-0.7694 -0.0465,-0.7454 0.19796,-1.2589 0.73444,-1.5389 -0.25648,-0.2559 -0.38444,-0.7104 -0.38444,-1.3633 0,-0.7695 0.25648,-1.411 0.76944,-1.9239 0.5124,-0.513 1.15388,-0.77 1.92332,-0.77 0.84,0 1.52796,0.2926 2.06388,0.875 0.67648,-2.3083 2.13388,-3.4628 4.37164,-3.4628 1.16592,0 2.19184,0.4665 3.07832,1.3995 0.32648,0.3494 0.48944,0.5364 0.48944,0.5588 -0.28,0 -0.13944,-0.053 0.42,-0.157 0.55888,-0.105 0.96684,-0.1577 1.22444,-0.1577 0.90888,0 1.71332,0.338 2.41332,1.0145 0.60592,0.6064 1.02592,1.3753 1.25944,2.3083 0.1624,0.024 0.41944,0.093 0.76944,0.2094 0.5124,0.2576 0.76944,0.6995 0.76944,1.3295 0,0.117 -0.0941,0.3385 -0.28,0.6644 1.49184,0.8394 2.23832,2.0054 2.23832,3.4978 0,0.4194 -0.16296,1.0035 -0.48944,1.7491 0.60648,0.3492 0.90888,0.8627 0.90888,1.5386 z m -14.41076,1.5389 v -0.4544 c 0,-0.536 -0.26208,-1.026 -0.78652,-1.4689 -0.525,-0.443 -1.0556,-0.6645 -1.59151,-0.6645 -0.65352,0 -1.25888,0.1515 -1.81888,0.4539 1.23564,-0.069 2.63507,0.6421 4.19692,2.1339 z m -0.62887,-4.3369 c -0.35001,-0.3971 -0.65297,-0.805 -0.91001,-1.2245 -0.97944,0.2565 -1.46888,0.548 -1.46888,0.8739 0.28,-0.022 0.68796,0.029 1.22389,0.1579 0.53591,0.1286 0.92148,0.1927 1.155,0.1927 z m 2.13387,-1.0845 v -1.5388 c -0.56,-0.093 -0.89908,-0.14 -1.01444,-0.14 v 0.5244 z m 4.54664,-0.9794 c -0.28,-0.1165 -0.805,-0.35 -1.57388,-0.6994 v 3.0077 c 1.09536,-0.63 1.6198,-1.3994 1.57388,-2.3083 z m 1.92276,4.1275 -0.76888,-0.9445 c -0.46592,0.3268 -0.93856,0.6592 -1.41708,0.9971 -0.47852,0.338 -0.89208,0.7177 -1.24096,1.1368 1.04916,-0.5605 2.19212,-0.9559 3.42692,-1.1894 z"
         id="path133-8" />
      <path
         id="path3128-7"
         d="m 236.00002,999.58832 v 27.99998 h -28 v -27.99998 h 28 m 0,-4 h -28 c -2.21,0 -4,1.79 -4,4 v 27.99998 c 0,2.21 1.79,4 4,4 h 28 c 2.21,0 4,-1.79 4,-4 v -27.99998 c 0,-2.21 -1.79,-4 -4,-4 z"
         style="fill:#009688;fill-opacity:1" />
    </g>
  </g>
</svg>
