<?xml version="1.0" encoding="UTF-8" standalone="no"?>
<svg
   xmlns:dc="http://purl.org/dc/elements/1.1/"
   xmlns:cc="http://creativecommons.org/ns#"
   xmlns:rdf="http://www.w3.org/1999/02/22-rdf-syntax-ns#"
   xmlns:svg="http://www.w3.org/2000/svg"
   xmlns="http://www.w3.org/2000/svg"
   id="svg5445"
   version="1.1"
   viewBox="0 0 27.093331 27.093326"
   height="102.39997"
   width="102.39999">
  <defs
     id="defs5439" />
  <metadata
     id="metadata5442">
    <rdf:RDF>
      <cc:Work
         rdf:about="">
        <dc:format>image/svg+xml</dc:format>
        <dc:type
           rdf:resource="http://purl.org/dc/dcmitype/StillImage" />
        <dc:title></dc:title>
      </cc:Work>
    </rdf:RDF>
  </metadata>
  <g
     transform="translate(35.408809,-131.44642)"
     id="layer1">
    <g
       transform="matrix(0.42333336,0,0,0.42333336,-51.072148,-284.09266)"
       id="g3198">
      <circle
         id="circle149-4"
         r="50"
         cy="50"
         cx="-370"
         style="fill:#c1d7e9"
         transform="matrix(0.28,0,0,0.28,172.60001,999.58832)" />
      <path
         style="fill:#0d0f0f"
         d="m 73.896647,1023.0296 c -1.34036,1.3639 -2.99152,2.046 -4.95264,2.046 -2.20108,0 -3.94744,-0.7532 -5.23908,-2.2604 -1.22052,-1.4356 -1.83036,-3.2654 -1.83036,-5.4897 0,-2.3921 1.04076,-5.1201 3.122,-8.1827 1.69792,-2.5114 3.69572,-4.7124 5.99256,-6.6024 -0.33516,1.5313 -0.50204,2.6194 -0.50204,3.2653 0,1.4837 0.46592,2.9308 1.39888,4.3423 1.14856,1.6744 2.02132,2.9192 2.61996,3.7318 0.93296,1.412 1.39944,2.7874 1.39944,4.1264 5.6e-4,1.986 -0.66948,3.6607 -2.00872,5.0234 z m -0.03612,-7.6613 c -0.35868,-0.8011 -0.77756,-1.3334 -1.25608,-1.5969 0.07168,0.144 0.1078,0.3472 0.1078,0.6104 0,0.5026 -0.14336,1.22 -0.43092,2.153 l -0.46592,1.4355 c 0,0.8372 0.41776,1.2561 1.25552,1.2561 0.8848,0 1.32776,-0.5866 1.32776,-1.7587 0,-0.5975 -0.1792,-1.2969 -0.53816,-2.0994 z"
         id="path151-9" />
      <path
         id="path3128-4"
         d="m 83.000005,999.58832 v 27.99998 H 55.000009 v -27.99998 h 27.999996 m 0,-4 H 55.000009 c -2.21,0 -4,1.79 -4,4 v 27.99998 c 0,2.21 1.79,4 4,4 h 27.999996 c 2.21,0 4,-1.79 4,-4 v -27.99998 c 0,-2.21 -1.79,-4 -4,-4 z"
         style="fill:#009688;fill-opacity:1" />
    </g>
  </g>
</svg>
