<?xml version="1.0" encoding="UTF-8" standalone="no"?>
<svg
   xmlns:dc="http://purl.org/dc/elements/1.1/"
   xmlns:cc="http://creativecommons.org/ns#"
   xmlns:rdf="http://www.w3.org/1999/02/22-rdf-syntax-ns#"
   xmlns:svg="http://www.w3.org/2000/svg"
   xmlns="http://www.w3.org/2000/svg"
   id="svg5445"
   version="1.1"
   viewBox="0 0 27.093333 27.093326"
   height="102.39997"
   width="102.4">
  <defs
     id="defs5439" />
  <metadata
     id="metadata5442">
    <rdf:RDF>
      <cc:Work
         rdf:about="">
        <dc:format>image/svg+xml</dc:format>
        <dc:type
           rdf:resource="http://purl.org/dc/dcmitype/StillImage" />
        <dc:title></dc:title>
      </cc:Work>
    </rdf:RDF>
  </metadata>
  <g
     transform="translate(-51.465238,-121.67953)"
     id="layer1">
    <g
       transform="matrix(0.42333336,0,0,0.42333336,57.391904,-293.85955)"
       id="g3203">
      <path
         id="path3128"
         d="m 32.000001,999.58832 v 27.99998 H 4.0000009 V 999.58832 H 32.000001 m 0,-4 H 4.0000009 c -2.21,0 -3.99999997005065,1.79 -3.99999997005065,4 v 27.99998 c 0,2.21 1.78999997005065,4 3.99999997005065,4 H 32.000001 c 2.21,0 4,-1.79 4,-4 v -27.99998 c 0,-2.21 -1.79,-4 -4,-4 z"
         style="fill:#009688;fill-opacity:1" />
      <circle
         id="circle155-0"
         r="50"
         cy="50"
         cx="-475"
         style="fill:#f8f6d8"
         transform="matrix(0.28,0,0,0.28,151,999.58832)" />
      <path
         style="fill:#0d0f0f"
         d="m 31.35348,1015.5662 c -1.83708,-1.0357 -3.01504,-1.5542 -3.53276,-1.5542 -0.37632,0 -0.6706,0.2889 -0.88312,0.8657 -0.21224,0.5777 -0.6356,0.8652 -1.27148,0.8652 -0.25928,0 -0.78904,-0.094 -1.58984,-0.2822 -0.44744,0.6832 -0.67144,1.1189 -0.67144,1.307 0,0.2593 0.19292,0.5645 0.57792,0.9187 0.385,0.3534 0.7098,0.5295 0.97496,0.5295 0.16856,0 0.39648,-0.035 0.68572,-0.1061 0.28868,-0.07 0.48188,-0.1056 0.57792,-0.1056 0.28924,0 0.43316,0.53 0.43316,1.5898 0,1.0128 -0.2352,2.5671 -0.70644,4.6632 -0.61264,-2.4024 -1.26,-3.6039 -1.94264,-3.6039 -0.09464,0 -0.28868,0.071 -0.58296,0.2128 -0.29484,0.1405 -0.5124,0.2111 -0.65352,0.2111 -0.68264,0 -1.295,-0.6236 -1.83708,-1.8726 -1.08332,0.1652 -1.6254,0.7187 -1.6254,1.6615 0,0.4715 0.21756,0.8475 0.65408,1.1298 0.43484,0.2822 0.65352,0.4835 0.65352,0.6006 0,0.6364 -0.93072,1.6139 -2.79132,2.9324 -0.98868,0.7065 -1.67244,1.2009 -2.04848,1.4832 0.32872,-0.4234 0.65856,-0.9764 0.98924,-1.6599 0.37632,-0.777 0.56504,-1.3776 0.56504,-1.802 0,-0.2352 -0.27076,-0.5656 -0.81256,-0.9893 -0.54208,-0.4233 -0.812,-0.8711 -0.812,-1.342 0,-0.3999 0.14056,-0.8941 0.42336,-1.4837 -0.30632,-0.3534 -0.6706,-0.5306 -1.0948,-0.5306 -0.9422,0 -1.4126,0.3068 -1.4126,0.9184 0,-0.424 0,-0.1062 0,0.9536 0.02296,0.7773 -0.5656,1.166 -1.76708,1.166 -0.91812,0 -2.46148,-0.2126 -4.62756,-0.6359 2.44944,-0.6127 3.67388,-1.3191 3.67388,-2.1196 0,0.094 -0.04704,-0.1882 -0.14112,-0.8479 -0.09464,-0.7291 0.42392,-1.389 1.55428,-1.9776 -0.21224,-1.0828 -0.77644,-1.6257 -1.69596,-1.6257 -0.14112,0 -0.40096,0.2475 -0.777,0.7412 -0.37688,0.4959 -0.72996,0.7425 -1.05924,0.7425 -0.5656,0 -1.29612,-0.612 -2.19016,-1.8376 -0.42448,-0.6115 -1.0724,-1.5187 -1.94348,-2.7202 0.54152,0.2834 1.08332,0.5656 1.6254,0.8487 0.70644,0.3293 1.27148,0.4945 1.69596,0.4945 0.32984,0 0.65352,-0.2887 0.97132,-0.8658 0.3178,-0.5771 0.73612,-0.8658 1.25412,-0.8658 0.07112,0 0.54208,0.1412 1.41316,0.4245 0.44688,-0.6829 0.67144,-1.1894 0.67144,-1.5193 0,-0.2828 -0.17108,-0.6064 -0.5124,-0.9718 -0.34188,-0.3649 -0.65352,-0.5474 -0.93632,-0.5474 -0.11816,0 -0.30016,0.035 -0.54796,0.1061 -0.24668,0.07 -0.42924,0.1061 -0.54684,0.1061 -0.42448,0 -0.63644,-0.53 -0.63644,-1.5898 0,-0.2828 0.27132,-1.8956 0.81312,-4.8398 -0.02408,0.3528 0.12908,1.0127 0.45892,1.9779 0.4004,1.1779 0.87108,1.7665 1.41372,1.7665 0.09352,0 0.28224,-0.071 0.56504,-0.2122 0.28224,-0.1412 0.50596,-0.2112 0.67088,-0.2112 0.54152,0 0.98868,0.3064 1.3426,0.9176 l 0.53004,0.9537 c 0.49448,0 0.90664,-0.1761 1.23592,-0.5295 0.32984,-0.3534 0.49504,-0.7776 0.49504,-1.272 0,-0.518 -0.21756,-0.9128 -0.65352,-1.1836 -0.43652,-0.2708 -0.65408,-0.4768 -0.65408,-0.618 0,-0.495 0.77756,-1.3305 2.33184,-2.5082 1.24796,-0.9416 2.06052,-1.4952 2.43796,-1.6604 -1.01276,1.3661 -1.51928,2.3663 -1.51928,3.0027 0,0.3299 0.19964,0.6835 0.6006,1.0598 0.49448,0.4475 0.777,0.7655 0.84756,0.9537 0.2352,0.5426 0.21168,1.2841 -0.07056,2.2257 0.63588,0.448 1.11832,0.6709 1.44872,0.6709 0.68208,0 1.02424,-0.3539 1.02424,-1.0598 0,-0.071 -0.0294,-0.2943 -0.08792,-0.6709 -0.05964,-0.3763 -0.07644,-0.5885 -0.05348,-0.6359 0.09408,-0.3298 0.742,-0.495 1.94292,-0.495 0.75348,0 2.31924,0.2122 4.69868,0.6364 -0.51856,0.1412 -1.29556,0.3528 -2.33128,0.6356 -0.9422,0.2828 -1.41372,0.6006 -1.41372,0.9537 0,0.1652 0.05852,0.4475 0.17668,0.8476 0.1176,0.4009 0.17724,0.6944 0.17724,0.8837 0,0.3292 -0.21224,0.6356 -0.63588,0.9175 l -1.20148,0.8487 c 0.2828,0.5186 0.47096,0.8246 0.5656,0.9181 0.2352,0.2823 0.553,0.4239 0.95368,0.4239 0.2828,0 0.54152,-0.2472 0.777,-0.7414 0.2352,-0.495 0.61264,-0.742 1.13036,-0.742 0.6356,0 1.35464,0.5891 2.15516,1.7671 0.44604,0.6608 1.141,1.6612 2.0832,3.0035 z m -7.84196,-2.0484 c 0,-1.5067 -0.55412,-2.8143 -1.66096,-3.9217 -1.10684,-1.1069 -2.41388,-1.6604 -3.92112,-1.6604 -1.53132,0 -2.8504,0.5479 -3.95668,1.6433 -1.10684,1.0948 -1.67244,2.408 -1.6954,3.9385 -0.02408,1.5072 0.53536,2.8084 1.67776,3.9026 1.1424,1.0954 2.46708,1.6433 3.97404,1.6433 1.60132,0 2.93776,-0.5244 4.00904,-1.5722 1.0724,-1.0472 1.59628,-2.3716 1.57332,-3.9734 z m -0.53004,0 c 0,1.4366 -0.483,2.6266 -1.44872,3.5672 -0.96628,0.9427 -2.1672,1.4137 -3.60332,1.4137 -1.38964,0 -2.57908,-0.4825 -3.56776,-1.4487 -0.98868,-0.9646 -1.48372,-2.1426 -1.48372,-3.5322 0,-1.3656 0.4998,-2.538 1.50052,-3.5149 1.00184,-0.9772 2.18484,-1.4666 3.55096,-1.4666 1.36556,0 2.54912,0.4945 3.5504,1.4843 1.00072,0.9892 1.50164,2.1546 1.50164,3.4972 z"
         id="path157-9" />
    </g>
  </g>
</svg>
