<?xml version="1.0" encoding="UTF-8" standalone="no"?>
<svg
   xmlns:dc="http://purl.org/dc/elements/1.1/"
   xmlns:cc="http://creativecommons.org/ns#"
   xmlns:rdf="http://www.w3.org/1999/02/22-rdf-syntax-ns#"
   xmlns:svg="http://www.w3.org/2000/svg"
   xmlns="http://www.w3.org/2000/svg"
   id="svg5445"
   version="1.1"
   viewBox="0 0 27.093335 27.093326"
   height="102.39997"
   width="102.4">
  <defs
     id="defs5439" />
  <metadata
     id="metadata5442">
    <rdf:RDF>
      <cc:Work
         rdf:about="">
        <dc:format>image/svg+xml</dc:format>
        <dc:type
           rdf:resource="http://purl.org/dc/dcmitype/StillImage" />
        <dc:title></dc:title>
      </cc:Work>
    </rdf:RDF>
  </metadata>
  <g
     transform="translate(4.3542857,-148.01689)"
     id="layer1">
    <g
       transform="matrix(0.42333336,0,0,0.42333336,-41.607626,-267.52219)"
       id="g3193">
      <circle
         id="circle143-6"
         r="50"
         cy="49.998001"
         cx="-265"
         style="fill:#bab1ab"
         transform="matrix(0.28,0,0,0.28,194.20001,999.58886)" />
      <path
         style="fill:#0d0f0f"
         d="m 131.39461,1013.2022 c 0,1.545 -0.56224,2.5987 -1.6856,3.1603 -0.32816,0.1641 -1.358,0.3862 -3.09036,0.6673 -1.12336,0.1876 -1.68504,0.6207 -1.68504,1.2989 v 2.8442 c 0,0.1182 0.035,0.4802 0.105,1.089 l 0.10556,1.1239 c 0,0.3514 -0.082,0.9257 -0.24612,1.7209 -0.44464,0.093 -0.95984,0.1985 -1.54504,0.3169 -0.1876,-0.7031 -0.28112,-1.1827 -0.28112,-1.4409 0,-0.1164 0.0294,-0.2926 0.0876,-0.5269 0.058,-0.2335 0.0885,-0.4091 0.0885,-0.5273 0,-0.1624 -0.1456,-0.6196 -0.43652,-1.3683 h -0.5446 c -0.0722,0.117 -0.0963,0.2691 -0.0728,0.4561 0.0935,0.3982 0.12852,0.7372 0.10556,1.0184 -0.39816,0.2811 -0.94836,0.6554 -1.6506,1.1236 -0.16408,-0.047 -0.22204,-0.07 -0.17612,-0.07 v -2.4931 c -0.0459,-0.1165 -0.16352,-0.1627 -0.35112,-0.1406 h -0.42112 l -0.42112,3.3004 c -0.32872,0.023 -0.72576,0.023 -1.19392,0 -0.16464,-0.7723 -0.45668,-1.9189 -0.8778,-3.4409 h -0.28112 c -0.25816,0.8201 -0.39816,1.2653 -0.42168,1.3353 0,0.093 0.0291,0.2747 0.0879,0.5437 0.058,0.2694 0.0876,0.4506 0.0876,0.5441 0,0.07 -0.0235,0.2455 -0.07,0.5267 l -0.10556,0.8428 c -0.047,0.046 -0.10556,0.07 -0.17556,0.07 -0.70224,0 -1.17096,-0.1756 -1.40448,-0.5262 -0.23408,-0.3516 -0.32816,-0.8433 -0.28112,-1.4758 l 0.28112,-4.2132 c 0,-0.071 0.023,-0.1641 0.07,-0.2811 0.0459,-0.1171 0.07,-0.1991 0.07,-0.2456 0,-0.1876 -0.19908,-0.5622 -0.59668,-1.1239 -0.0694,-0.023 -0.43372,-0.1056 -1.08836,-0.2461 -0.39872,-0.093 -1.183,-0.2571 -2.35256,-0.4917 -1.61588,-0.3035 -2.42312,-1.603 -2.42312,-3.8976 0,-3.418 1.40504,-6.2622 4.21428,-8.533 0.11592,0.6322 0.31556,1.4745 0.59612,2.5281 0.21112,0.048 0.6678,0.1526 1.36948,0.3161 0.14112,0.047 0.85484,0.3047 2.14256,0.7728 -0.65632,-0.3981 -1.51004,-1.0413 -2.56368,-1.9314 -0.39816,-0.4682 -0.59724,-1.2519 -0.59724,-2.352 0,-0.2576 0.4452,-0.5622 1.33504,-0.9139 0.7952,-0.3276 1.393,-0.5141 1.79088,-0.5617 1.26392,-0.163 2.23552,-0.2461 2.9148,-0.2461 2.92572,0 5.28948,0.7498 7.09184,2.2481 -0.58464,0.6793 -1.59152,1.4039 -3.01924,2.1764 0.56224,0.024 1.38152,-0.1979 2.45812,-0.6672 1.07632,-0.4676 1.533,-0.7022 1.36948,-0.7022 0.18704,0 0.56224,0.3752 1.12392,1.1239 0.42112,0.5617 0.7602,1.0659 1.01836,1.5095 0.74872,1.335 1.25188,2.7742 1.51004,4.3192 0,0.5393 0.0115,0.9254 0.035,1.159 v 0.2811 h 5.6e-4 z m -13.44868,0.6322 c 0,-1.0063 -0.43904,-1.9605 -1.31684,-2.8624 -0.87836,-0.9013 -1.82056,-1.3513 -2.82688,-1.3513 -0.88984,0 -1.67356,0.3774 -2.35256,1.1309 -0.67928,0.7541 -1.01836,1.591 -1.01836,2.5097 0,0.8005 0.38612,1.3196 1.15892,1.5548 0.49168,0.1417 1.18132,0.2243 2.07144,0.2472 h 1.93144 c 1.56744,0.024 2.35284,-0.3861 2.35284,-1.2289 z m 3.82704,4.3549 v -1.089 c -0.16352,-0.304 -0.3276,-0.6202 -0.49112,-0.9483 -0.14056,-0.4687 -0.39816,-1.1239 -0.7728,-1.967 l -0.38668,4.1087 c 0,0.3282 -0.07,0.4917 -0.21056,0.4917 -0.0935,0 -0.16352,-0.023 -0.21056,-0.069 -0.16408,-2.4816 -0.24612,-3.5585 -0.24612,-3.2314 v -1.2284 c -0.047,-0.071 -0.105,-0.1061 -0.175,-0.1061 -0.79632,0.8204 -1.19392,2.1425 -1.19392,3.9681 0,1.0069 0.0924,1.6271 0.28056,1.8615 0.1876,-0.047 0.39816,-0.1285 0.63224,-0.2456 0.0935,-0.047 0.3626,-0.071 0.80836,-0.071 0.44352,0 0.9828,0.1405 1.61448,0.4211 0.23408,0 0.35112,-0.6317 0.35112,-1.8953 z m 7.93632,-4.893 c 0,-0.9428 -0.35112,-1.785 -1.05336,-2.527 -0.7028,-0.7415 -1.5106,-1.113 -2.42256,-1.113 -0.98336,0 -1.9026,0.4499 -2.75688,1.3512 -0.85484,0.9014 -1.28184,1.8436 -1.28184,2.8269 0,0.8199 0.3976,1.2289 1.19392,1.2289 h 4.03816 c 1.52124,-0.023 2.28256,-0.612 2.28256,-1.767 z"
         id="path145-6" />
      <path
         id="path3128-1"
         d="m 134.00001,999.58832 v 27.99998 h -28 v -27.99998 h 28 m 0,-4 h -28 c -2.21,0 -4,1.79 -4,4 v 27.99998 c 0,2.21 1.79,4 4,4 h 28 c 2.21,0 4,-1.79 4,-4 v -27.99998 c 0,-2.21 -1.79,-4 -4,-4 z"
         style="fill:#009688;fill-opacity:1" />
    </g>
  </g>
</svg>
