<?xml version="1.0" encoding="UTF-8" standalone="no"?>
<svg
   xmlns:dc="http://purl.org/dc/elements/1.1/"
   xmlns:cc="http://creativecommons.org/ns#"
   xmlns:rdf="http://www.w3.org/1999/02/22-rdf-syntax-ns#"
   xmlns:svg="http://www.w3.org/2000/svg"
   xmlns="http://www.w3.org/2000/svg"
   xmlns:sodipodi="http://sodipodi.sourceforge.net/DTD/sodipodi-0.dtd"
   xmlns:inkscape="http://www.inkscape.org/namespaces/inkscape"
   id="svg5445"
   version="1.1"
   viewBox="0 0 27.093335 27.093326"
   height="102.39997"
   width="102.4"
   sodipodi:docname="checkbox_unchecked_foil.svg"
   inkscape:version="0.92.1 r15371">
  <sodipodi:namedview
     pagecolor="#ffffff"
     bordercolor="#666666"
     borderopacity="1"
     objecttolerance="10"
     gridtolerance="10"
     guidetolerance="10"
     inkscape:pageopacity="0"
     inkscape:pageshadow="2"
     inkscape:window-width="1858"
     inkscape:window-height="1177"
     id="namedview10"
     showgrid="false"
     inkscape:zoom="6.518642479"
     inkscape:cx="23.5666248"
     inkscape:cy="65.69557378"
     inkscape:window-x="54"
     inkscape:window-y="-8"
     inkscape:window-maximized="1"
     inkscape:current-layer="svg5445" />
  <defs
     id="defs5439" />
  <metadata
     id="metadata5442">
    <rdf:RDF>
      <cc:Work
         rdf:about="">
        <dc:format>image/svg+xml</dc:format>
        <dc:type
           rdf:resource="http://purl.org/dc/dcmitype/StillImage" />
        <dc:title />
      </cc:Work>
    </rdf:RDF>
  </metadata>
  <g
     id="g4790"
     transform="matrix(-0.0452548346,0.045254835,-0.045254835,-0.0452548346,26.98735118,18.6057709)"
     style="stroke-width:15.6250009537">
    <path
       id="rect4485"
       transform="scale(0.2645833333)"
       d="M 350,422.5195312 A 349.9999904,349.9999904 0 0 0 0,772.5195312 349.9999904,349.9999904 0 0 0 350,1122.519531 349.9999904,349.9999904 0 0 0 700,772.5195312 349.9999904,349.9999904 0 0 0 350,422.5195312 Z"
       style="fill:#ff0000;fill-opacity:1;fill-rule:nonzero;stroke:none;stroke-width:750;stroke-linecap:round;stroke-linejoin:round;stroke-miterlimit:4;stroke-dasharray:none;stroke-dashoffset:0;stroke-opacity:1"
       inkscape:connector-curvature="0" />
    <path
       id="rect4485-7"
       transform="scale(0.2645833333)"
       d="M 350,422.5195312 A 349.9999904,349.9999904 0 0 0 100,528.0488281 V 1017.367188 A 349.9999904,349.9999904 0 0 0 350,1122.519531 349.9999904,349.9999904 0 0 0 700,772.5195312 349.9999904,349.9999904 0 0 0 350,422.5195312 Z"
       style="fill:#ff7f00;fill-opacity:1;fill-rule:nonzero;stroke:none;stroke-width:750;stroke-linecap:round;stroke-linejoin:round;stroke-miterlimit:4;stroke-dasharray:none;stroke-dashoffset:0;stroke-opacity:1"
       inkscape:connector-curvature="0" />
    <path
       id="rect4485-36"
       transform="scale(0.2645833333)"
       d="M 350,422.5195312 A 349.9999904,349.9999904 0 0 0 200,456.6777344 V 1088.271484 A 349.9999904,349.9999904 0 0 0 350,1122.519531 349.9999904,349.9999904 0 0 0 700,772.5195312 349.9999904,349.9999904 0 0 0 350,422.5195312 Z"
       style="fill:#ffff00;fill-opacity:1;fill-rule:nonzero;stroke:none;stroke-width:750;stroke-linecap:round;stroke-linejoin:round;stroke-miterlimit:4;stroke-dasharray:none;stroke-dashoffset:0;stroke-opacity:1"
       inkscape:connector-curvature="0" />
    <path
       id="rect4485-2"
       transform="scale(0.2645833333)"
       d="M 350,422.5195312 A 349.9999904,349.9999904 0 0 0 300,426.4609375 V 1118.496094 A 349.9999904,349.9999904 0 0 0 350,1122.519531 349.9999904,349.9999904 0 0 0 700,772.5195312 349.9999904,349.9999904 0 0 0 350,422.5195312 Z"
       style="fill:#00ff00;fill-opacity:1;fill-rule:nonzero;stroke:none;stroke-width:750;stroke-linecap:round;stroke-linejoin:round;stroke-miterlimit:4;stroke-dasharray:none;stroke-dashoffset:0;stroke-opacity:1"
       inkscape:connector-curvature="0" />
    <path
       id="rect4485-1"
       transform="scale(0.2645833333)"
       d="M 400,426.4609375 V 1118.496094 A 349.9999904,349.9999904 0 0 0 700,772.5195312 349.9999904,349.9999904 0 0 0 400,426.4609375 Z"
       style="fill:#0000ff;fill-opacity:1;fill-rule:nonzero;stroke:none;stroke-width:750;stroke-linecap:round;stroke-linejoin:round;stroke-miterlimit:4;stroke-dasharray:none;stroke-dashoffset:0;stroke-opacity:1"
       inkscape:connector-curvature="0" />
    <path
       id="rect4485-3"
       transform="scale(0.2645833333)"
       d="M 500,456.7675781 V 1088.361328 A 349.9999904,349.9999904 0 0 0 700,772.5195312 349.9999904,349.9999904 0 0 0 500,456.7675781 Z"
       style="fill:#4b0082;fill-opacity:1;fill-rule:nonzero;stroke:none;stroke-width:750;stroke-linecap:round;stroke-linejoin:round;stroke-miterlimit:4;stroke-dasharray:none;stroke-dashoffset:0;stroke-opacity:1"
       inkscape:connector-curvature="0" />
    <path
       id="rect4485-9"
       transform="scale(0.2645833333)"
       d="M 600,527.671875 V 1016.990234 A 349.9999904,349.9999904 0 0 0 700,772.5195312 349.9999904,349.9999904 0 0 0 600,527.671875 Z"
       style="fill:#8b00ff;fill-opacity:1;fill-rule:nonzero;stroke:none;stroke-width:750;stroke-linecap:round;stroke-linejoin:round;stroke-miterlimit:4;stroke-dasharray:none;stroke-dashoffset:0;stroke-opacity:1"
       inkscape:connector-curvature="0" />
  </g>
  <path
     id="path3128-1"
     d="M 19.47333417,7.620002122 V 19.47332774 H 7.620000093 V 7.620002122 H 19.47333417 M 19.47333417,5.926668682 H 7.620000093 C 6.684433368,5.926668682 5.926666653,6.684435397 5.926666653,7.620002122 V 19.47332774 C 5.926666653,20.40889446 6.684433368,21.16666118 7.620000093,21.16666118 H 19.47333417 C 20.4089009,21.16666118 21.16666761,20.40889446 21.16666761,19.47332774 V 7.620002122 C 21.16666761,6.684435397 20.4089009,5.926668682 19.47333417,5.926668682 Z"
     style="fill:#009688;fill-opacity:1;stroke-width:0.4233333468"
     inkscape:connector-curvature="0" />
</svg>
