<?xml version="1.0" encoding="UTF-8" standalone="no"?>
<svg
   xmlns:dc="http://purl.org/dc/elements/1.1/"
   xmlns:cc="http://creativecommons.org/ns#"
   xmlns:rdf="http://www.w3.org/1999/02/22-rdf-syntax-ns#"
   xmlns:svg="http://www.w3.org/2000/svg"
   xmlns="http://www.w3.org/2000/svg"
   id="svg5445"
   version="1.1"
   viewBox="0 0 27.093335 27.093326"
   height="102.39997"
   width="102.4">
  <defs
     id="defs5439" />
  <metadata
     id="metadata5442">
    <rdf:RDF>
      <cc:Work
         rdf:about="">
        <dc:format>image/svg+xml</dc:format>
        <dc:type
           rdf:resource="http://purl.org/dc/dcmitype/StillImage" />
        <dc:title></dc:title>
      </cc:Work>
    </rdf:RDF>
  </metadata>
  <g
     transform="translate(14.877143,-144.9326)"
     id="layer1">
    <g
       transform="matrix(0.42333336,0,0,0.42333336,-73.720489,-270.60648)"
       id="g3188">
      <circle
         id="circle137-4"
         r="50"
         cy="50"
         cx="-160"
         style="fill:#e49977"
         transform="matrix(0.28,0,0,0.28,215.80002,999.58832)" />
      <path
         style="fill:#0d0f0f"
         d="m 182.75022,1018.2411 c -1.04608,2.4953 -3.1248,3.7427 -6.237,3.7427 -0.57036,0 -1.18888,0.071 -1.85388,0.2134 -0.99792,0.2139 -1.49688,0.5118 -1.49688,0.8921 0,0.1187 0.0826,0.2548 0.24948,0.4096 0.16576,0.1549 0.30912,0.2313 0.42756,0.2313 -0.59444,0 -0.1904,0.018 1.21128,0.053 1.40224,0.036 2.28144,0.054 2.63816,0.054 -2.06724,1.2112 -5.52496,1.7693 -10.37204,1.6746 -1.59264,-0.024 -2.95848,-0.7246 -4.09892,-2.1028 -1.11776,-1.3073 -1.67552,-2.7686 -1.67552,-4.3842 0,-1.7102 0.57596,-3.1662 1.72928,-4.3666 1.15164,-1.199 2.58412,-1.7996 4.29464,-1.7996 0.37996,0 0.8848,0.083 1.5148,0.2495 0.62944,0.1663 1.05168,0.2495 1.26504,0.2495 0.87892,0 1.9726,-0.362 3.27964,-1.0872 1.30648,-0.7247 1.925,-1.0873 1.85388,-1.0873 -0.238,2.4954 -1.0696,4.1709 -2.49592,5.0255 -1.02144,0.5944 -1.53244,1.1762 -1.53244,1.746 0,0.3565 0.21392,0.6421 0.64148,0.856 0.33264,0.1666 0.70056,0.2498 1.1046,0.2498 0.61796,0 1.22388,-0.3797 1.81832,-1.1399 0.59332,-0.7611 0.8554,-1.4496 0.78428,-2.0681 -0.0711,-0.7126 -0.0235,-1.5688 0.1428,-2.5659 0.047,-0.2856 0.21924,-0.6356 0.51632,-1.0511 0.29708,-0.4161 0.56448,-0.6715 0.8022,-0.7667 0,0.2134 -0.077,0.5704 -0.23184,1.0691 -0.15484,0.4986 -0.23128,0.868 -0.23128,1.1051 0,0.5228 0.14224,0.9265 0.42756,1.2113 0.427,-0.1658 0.80724,-0.7006 1.14072,-1.6041 0.28448,-0.6885 0.45052,-1.3541 0.49868,-1.9956 -0.99848,-0.048 -1.95496,-0.4987 -2.86944,-1.3546 -0.91504,-0.856 -1.372,-1.7822 -1.372,-2.7799 0,-0.1663 0.023,-0.3326 0.0717,-0.4992 0.14224,0.2139 0.35588,0.5468 0.64092,0.9979 0.40404,0.5939 0.71316,0.891 0.92764,0.891 0.28448,0 0.427,-0.2971 0.427,-0.891 0,-0.7602 -0.20244,-1.4493 -0.60592,-2.0672 -0.45164,-0.7367 -1.03404,-1.1052 -1.74664,-1.1052 -0.33292,0 -0.83188,0.1784 -1.49632,0.5348 -0.66612,0.3559 -1.27204,0.5348 -1.81776,0.5348 -0.16688,0 -0.90412,-0.2145 -2.2106,-0.642 2.3044,-0.3794 3.45744,-0.7241 3.45744,-1.0335 0,-0.8078 -1.5806,-1.3546 -4.7404,-1.6394 -0.3094,-0.024 -0.87948,-0.071 -1.71108,-0.1428 0.0946,-0.1187 0.77224,-0.2495 2.03224,-0.392 1.06904,-0.1182 1.81776,-0.1784 2.24504,-0.1784 5.65516,0 9.24336,2.7454 10.76404,8.2343 0.26152,-0.2165 0.39256,-0.5785 0.39256,-1.0839 0,-0.6507 -0.1904,-1.47 -0.57036,-2.4576 -0.14336,-0.385 -0.36904,-0.9634 -0.6776,-1.734 1.94796,2.4828 2.92292,4.8356 2.92292,7.0557 0,1.1699 -0.27412,2.2325 -0.8204,3.1867 -0.3556,0.6448 -1.022,1.4683 -1.99556,2.4713 -0.9744,1.0024 -1.63996,1.7785 -1.99668,2.3276 1.30704,-0.3559 2.163,-0.6294 2.56704,-0.8198 0.90244,-0.4032 1.722,-1.0097 2.45924,-1.8178 0,0.3097 -0.13076,0.7734 -0.392,1.3908 z m -15.54056,-14.007 c 0,0.427 -0.238,0.7005 -0.7126,0.8193 l -0.92708,0.1428 c -0.33292,0.1663 -0.81984,0.8198 -1.46132,1.96 -0.0717,-0.3559 -0.17836,-0.8549 -0.32088,-1.4969 -0.21392,0.024 -0.5698,0.2139 -1.06904,0.5703 -0.21392,0.1664 -0.55888,0.4156 -1.03404,0.7482 0.14336,-0.8554 0.61796,-1.7214 1.42632,-2.602 0.8554,-0.9736 1.687,-1.4608 2.4948,-1.4608 1.06904,0 1.60384,0.4402 1.60384,1.3191 z m 6.202,3.2785 c 0,0.404 -0.2198,0.7431 -0.6594,1.0161 -0.4396,0.2736 -0.87332,0.4102 -1.30088,0.4102 -0.57036,0 -1.08164,-0.3209 -1.53244,-0.9626 -0.5474,-0.7843 -1.10516,-1.295 -1.67552,-1.5336 0.11872,-0.1181 0.26152,-0.1778 0.42812,-0.1778 0.21392,0 0.5754,0.1663 1.08668,0.4987 0.51072,0.3329 0.8372,0.4992 0.98056,0.4992 0.11872,0 0.31444,-0.1663 0.588,-0.4992 0.273,-0.3326 0.57596,-0.4987 0.90888,-0.4987 0.784,3e-4 1.176,0.4164 1.176,1.2477 z"
         id="path139-4" />
      <path
         id="path3128-2"
         d="m 185.00002,999.58832 v 27.99998 h -28 v -27.99998 h 28 m 0,-4 h -28 c -2.21,0 -4,1.79 -4,4 v 27.99998 c 0,2.21 1.79,4 4,4 h 28 c 2.21,0 4,-1.79 4,-4 v -27.99998 c 0,-2.21 -1.79,-4 -4,-4 z"
         style="fill:#009688;fill-opacity:1" />
    </g>
  </g>
</svg>
