<?xml version="1.0" encoding="UTF-8" standalone="no"?>
<svg
   xmlns:dc="http://purl.org/dc/elements/1.1/"
   xmlns:cc="http://creativecommons.org/ns#"
   xmlns:rdf="http://www.w3.org/1999/02/22-rdf-syntax-ns#"
   xmlns:svg="http://www.w3.org/2000/svg"
   xmlns="http://www.w3.org/2000/svg"
   xmlns:sodipodi="http://sodipodi.sourceforge.net/DTD/sodipodi-0.dtd"
   xmlns:inkscape="http://www.inkscape.org/namespaces/inkscape"
   viewBox="0 0 27.1 27.1"
   version="1.1"
   id="svg8"
   sodipodi:docname="checkbox_checked_foil.svg"
   inkscape:version="0.92.1 r15371">
  <metadata
     id="metadata14">
    <rdf:RDF>
      <cc:Work
         rdf:about="">
        <dc:format>image/svg+xml</dc:format>
        <dc:type
           rdf:resource="http://purl.org/dc/dcmitype/StillImage" />
      </cc:Work>
    </rdf:RDF>
  </metadata>
  <defs
     id="defs12" />
  <sodipodi:namedview
     pagecolor="#ffffff"
     bordercolor="#666666"
     borderopacity="1"
     objecttolerance="10"
     gridtolerance="10"
     guidetolerance="10"
     inkscape:pageopacity="0"
     inkscape:pageshadow="2"
     inkscape:window-width="1858"
     inkscape:window-height="1177"
     id="namedview10"
     showgrid="false"
     inkscape:zoom="17.41697392"
     inkscape:cx="30.14522927"
     inkscape:cy="19.15921375"
     inkscape:window-x="54"
     inkscape:window-y="-8"
     inkscape:window-maximized="1"
     inkscape:current-layer="svg8" />
  <g
     id="g4790"
     transform="matrix(-0.0534505905,0.053450591,-0.053450591,-0.0534505905,29.42482349,19.52532856)"
     style="stroke-width:50.0000038147">
    <path
       id="rect4485"
       transform="scale(0.2645833333)"
       d="M 350,422.5195312 A 349.9999904,349.9999904 0 0 0 0,772.5195312 349.9999904,349.9999904 0 0 0 350,1122.519531 349.9999904,349.9999904 0 0 0 700,772.5195312 349.9999904,349.9999904 0 0 0 350,422.5195312 Z"
       style="fill:#ff0000;fill-opacity:1;fill-rule:nonzero;stroke:none;stroke-width:2400;stroke-linecap:round;stroke-linejoin:round;stroke-miterlimit:4;stroke-dasharray:none;stroke-dashoffset:0;stroke-opacity:1"
       inkscape:connector-curvature="0" />
    <path
       id="rect4485-7"
       transform="scale(0.2645833333)"
       d="M 350,422.5195312 A 349.9999904,349.9999904 0 0 0 100,528.0488281 V 1017.367188 A 349.9999904,349.9999904 0 0 0 350,1122.519531 349.9999904,349.9999904 0 0 0 700,772.5195312 349.9999904,349.9999904 0 0 0 350,422.5195312 Z"
       style="fill:#ff7f00;fill-opacity:1;fill-rule:nonzero;stroke:none;stroke-width:2400;stroke-linecap:round;stroke-linejoin:round;stroke-miterlimit:4;stroke-dasharray:none;stroke-dashoffset:0;stroke-opacity:1"
       inkscape:connector-curvature="0" />
    <path
       id="rect4485-36"
       transform="scale(0.2645833333)"
       d="M 350,422.5195312 A 349.9999904,349.9999904 0 0 0 200,456.6777344 V 1088.271484 A 349.9999904,349.9999904 0 0 0 350,1122.519531 349.9999904,349.9999904 0 0 0 700,772.5195312 349.9999904,349.9999904 0 0 0 350,422.5195312 Z"
       style="fill:#ffff00;fill-opacity:1;fill-rule:nonzero;stroke:none;stroke-width:2400;stroke-linecap:round;stroke-linejoin:round;stroke-miterlimit:4;stroke-dasharray:none;stroke-dashoffset:0;stroke-opacity:1"
       inkscape:connector-curvature="0" />
    <path
       id="rect4485-2"
       transform="scale(0.2645833333)"
       d="M 350,422.5195312 A 349.9999904,349.9999904 0 0 0 300,426.4609375 V 1118.496094 A 349.9999904,349.9999904 0 0 0 350,1122.519531 349.9999904,349.9999904 0 0 0 700,772.5195312 349.9999904,349.9999904 0 0 0 350,422.5195312 Z"
       style="fill:#00ff00;fill-opacity:1;fill-rule:nonzero;stroke:none;stroke-width:2400;stroke-linecap:round;stroke-linejoin:round;stroke-miterlimit:4;stroke-dasharray:none;stroke-dashoffset:0;stroke-opacity:1"
       inkscape:connector-curvature="0" />
    <path
       id="rect4485-1"
       transform="scale(0.2645833333)"
       d="M 400,426.4609375 V 1118.496094 A 349.9999904,349.9999904 0 0 0 700,772.5195312 349.9999904,349.9999904 0 0 0 400,426.4609375 Z"
       style="fill:#0000ff;fill-opacity:1;fill-rule:nonzero;stroke:none;stroke-width:2400;stroke-linecap:round;stroke-linejoin:round;stroke-miterlimit:4;stroke-dasharray:none;stroke-dashoffset:0;stroke-opacity:1"
       inkscape:connector-curvature="0" />
    <path
       id="rect4485-3"
       transform="scale(0.2645833333)"
       d="M 500,456.7675781 V 1088.361328 A 349.9999904,349.9999904 0 0 0 700,772.5195312 349.9999904,349.9999904 0 0 0 500,456.7675781 Z"
       style="fill:#4b0082;fill-opacity:1;fill-rule:nonzero;stroke:none;stroke-width:2400;stroke-linecap:round;stroke-linejoin:round;stroke-miterlimit:4;stroke-dasharray:none;stroke-dashoffset:0;stroke-opacity:1"
       inkscape:connector-curvature="0" />
    <path
       id="rect4485-9"
       transform="scale(0.2645833333)"
       d="M 600,527.671875 V 1016.990234 A 349.9999904,349.9999904 0 0 0 700,772.5195312 349.9999904,349.9999904 0 0 0 600,527.671875 Z"
       style="fill:#8b00ff;fill-opacity:1;fill-rule:nonzero;stroke:none;stroke-width:2400;stroke-linecap:round;stroke-linejoin:round;stroke-miterlimit:4;stroke-dasharray:none;stroke-dashoffset:0;stroke-opacity:1"
       inkscape:connector-curvature="0" />
  </g>
  <path
     style="fill:#009688;stroke-width:0.423330009"
     inkscape:connector-curvature="0"
     id="path4"
     d="M 19.42804,5.933531 H 7.5748 C 6.72814,5.933531 5.88148,6.695525 5.88148,7.626851 V 19.480091 C 5.88148,20.411417 6.72814,21.173411 7.5748,21.173411 H 19.42804 C 20.401699,21.173411 21.12136,20.411417 21.12136,19.480091 V 7.626851 C 21.12136,6.695525 20.401699,5.933531 19.42804,5.933531 Z M 11.8081,17.786771 7.5748,13.553471 8.84479,12.283481 11.8081,15.37379 18.285049,8.939174 19.470373,10.209164 Z" />
</svg>
