<?xml version="1.0" encoding="UTF-8" standalone="no"?>
<svg
   xmlns:dc="http://purl.org/dc/elements/1.1/"
   xmlns:cc="http://creativecommons.org/ns#"
   xmlns:rdf="http://www.w3.org/1999/02/22-rdf-syntax-ns#"
   xmlns:svg="http://www.w3.org/2000/svg"
   xmlns="http://www.w3.org/2000/svg"
   xmlns:xlink="http://www.w3.org/1999/xlink"
   id="svg8"
   version="1.1"
   viewBox="0 0 31.6796 26.458332"
   height="26.458332mm"
   width="31.679604mm">
  <defs
     id="defs2">
    <linearGradient
       gradientUnits="userSpaceOnUse"
       xlink:href="#a"
       gradientTransform="matrix(1.4733394,0,0,1.5793349,-1202.8083,-227.62597)"
       y2="-43.950001"
       y1="-43.950001"
       x2="701.51001"
       x1="633.63"
       id="b" />
    <linearGradient
       id="a">
      <stop
         id="stop4"
         stop-color="red"
         offset="0" />
      <stop
         id="stop6"
         stop-color="#ff0"
         offset=".2" />
      <stop
         id="stop8"
         stop-color="#0f0"
         offset=".4" />
      <stop
         id="stop10"
         stop-color="#0ff"
         offset=".6" />
      <stop
         id="stop12"
         stop-color="#00f"
         offset=".8" />
      <stop
         id="stop14"
         stop-color="#f0f"
         offset="1" />
    </linearGradient>
  </defs>
  <metadata
     id="metadata5">
    <rdf:RDF>
      <cc:Work
         rdf:about="">
        <dc:format>image/svg+xml</dc:format>
        <dc:type
           rdf:resource="http://purl.org/dc/dcmitype/StillImage" />
        <dc:title></dc:title>
      </cc:Work>
    </rdf:RDF>
  </metadata>
  <g
     transform="translate(-102.59472,-105.44119)"
     id="layer1">
    <g
       id="g410"
       transform="matrix(0.26458333,0,0,0.26458333,165.89019,-5.6838066)">
      <path
         id="path408"
         d="m -162.86,420 c -36.77,1.68 4.26,33 -16.48,49.5 l -0.3,0.12 c -14.53,5.88 -30.7,-17.7 -31.17,7.08 7.6,-11.5 11.1,-0.27 23.7,-0.98 -6.1,8.1 -3.1,21.67 -13.4,23.88 -18.7,4.03 -32.3,-18.64 -31.2,-32.87 2.5,-31.6 27.3,-45.97 51.9,-44.5 -32.6,-6.5 -60.2,20.32 -59.4,48.15 0.9,31.9 17.8,47.52 43.8,49.62 36.7,-1.68 -4.3,-33 16.5,-49.5 l 0.3,-0.12 c 14.5,-5.88 30.7,17.7 31.1,-7.08 -7.7,11.5 -11.2,0.27 -23.8,0.98 6.1,-8.1 3.1,-21.67 13.3,-23.87 18.6,-4 32.3,18.7 31.1,32.9 -2.5,31.6 -27.3,46 -51.9,44.5 32.5,6.5 60.1,-20.3 59.3,-48.1 -0.9,-31.9 -17.9,-47.5 -43.9,-49.6 z" />
    </g>
  </g>
</svg>
