<svg xmlns="http://www.w3.org/2000/svg" viewBox="0 0 26.5 26.5"><g transform="translate(27.78 -27.78) scale(.2646)"><path fill="#f8f6d8" d="M -19.65,119.64 C -10.6,128.7 -5,141.2 -5,155 c 0,27.6 -22.4,50 -50,50 -13.8,0 -26.3,-5.6 -35.35,-14.65"/><path fill="#a3c095" d="M -90.35,190.35 C -99.4,181.3 -105,168.8 -105,155 c 0,-27.62 22.4,-50 50,-50 13.8,0 26.3,5.6 35.35,14.64"/><path fill="#0d0f0f" d="M-17 178.1c-2.44-2.25-4.05-3.48-4.85-3.67-.57-.14-1.13.2-1.67 1-.54.8-1.3 1.1-2.27.86-.3-.1-1.1-.5-2.3-1.1-.9.9-1.4 1.5-1.5 1.7-.1.4.1.9.6 1.6.5.7.9 1 1.3 1.1.3.1.6.1 1.1.1h.9c.5.1.5.9.1 2.6-.3 1.5-1.3 3.8-2.8 6.9 0-3.9-.6-6-1.6-6.3-.1-.1-.4 0-.9.1-.5.1-.8.1-1.1.1-1-.3-1.7-1.5-2.1-3.6-1.7-.2-2.7.5-3.1 1.9-.2.7 0 1.4.6 2 .6.6.8.9.8 1.1-.2 1-2 2.1-5.3 3.5-1.8.7-3 1.2-3.7 1.5.7-.6 1.4-1.3 2.2-2.2.9-1.1 1.4-1.9 1.6-2.6.1-.4-.2-1-.9-1.8-.6-.9-.9-1.6-.7-2.4.1-.6.5-1.3 1.2-2.1-.3-.7-.8-1.1-1.5-1.2-1.4-.3-2.3 0-2.5.9l-.3 1.5c-.2 1.2-1.3 1.5-3.1 1.1-1.4-.4-3.7-1.2-6.9-2.7 4 0 6.1-.7 6.4-1.9 0 .1 0-.3.1-1.4.2-1.2 1.2-2 3.1-2.5.1-1.7-.6-2.8-2-3.1-.2-.1-.7.2-1.4.8-.7.6-1.4.9-1.9.8-.8-.2-1.7-1.4-2.7-3.7-.4-1.1-1-2.7-1.9-4.9.7.7 1.5 1.3 2.2 1.9 1 .8 1.8 1.3 2.4 1.4.5.1 1.1-.2 1.8-1 .7-.8 1.4-1.1 2.2-.9.2 0 .8.4 2.1 1.2 1-.9 1.5-1.6 1.6-2.1.1-.4 0-1-.4-1.7-.4-.6-.8-1-1.2-1.1-.1-.1-.4-.1-.8-.1h-.9c-.6-.2-.8-1.1-.4-2.7.1-.5 1.1-2.8 3.1-7.2-.2.6-.2 1.6 0 3.2.2 2 .7 3.1 1.5 3.3.2.1.5 0 1-.1.5-.1.8-.1 1.1-.1.8.2 1.4.9 1.7 1.9l.5 1.7c.8.2 1.5.1 2.1-.3.7-.4 1.1-1 1.3-1.8.2-.8 0-1.5-.6-2.1-.6-.6-.8-1-.8-1.2.2-.7 1.7-1.7 4.5-3 2.3-1 3.7-1.5 4.4-1.6-2 1.7-3.2 3-3.4 4-.1.5.1 1.1.6 1.9.6.8.9 1.4.9 1.7.2.9-.1 2-.9 3.4.8.9 1.5 1.4 2 1.5 1.1.3 1.7-.2 2-1.2.1-.1.1-.5.1-1.1.1-.6.1-.9.2-1 .3-.5 1.3-.5 3.2 0 1.2.2 3.5 1.1 7 2.7l-3.8.1c-1.5.1-2.4.4-2.5.9 0 .2-.1.7 0 1.3 0 .7 0 1.2-.1 1.5-.2.5-.6.9-1.3 1.2l-2.2.8c.2.9.4 1.4.5 1.6.3.5.7.8 1.3 1 .4.1.9-.2 1.5-.9.5-.6 1.2-.9 2-.7 1 .2 1.8 1.4 2.6 3.5.4 1.2 1.1 3 2.1 5.4zm-11.27-6c.55-2.32.18-4.53-1.1-6.63-1.3-2.1-3.1-3.44-5.42-4-2.3-.55-4.5-.2-6.6 1.08-2.1 1.27-3.4 3.08-4 5.42-.6 2.3-.2 4.5 1.2 6.6 1.4 2.1 3.2 3.43 5.5 3.98 2.5.6 4.7.27 6.7-.94 2-1.2 3.3-3 3.9-5.5zm-.82-.2c-.5 2.2-1.7 3.85-3.5 4.93-1.8 1.1-3.8 1.38-6 .85-2.1-.5-3.8-1.7-4.9-3.53-1.1-1.84-1.5-3.83-.9-5.96.5-2.1 1.7-3.8 3.6-4.9 1.9-1.2 3.9-1.5 6-1 2.1.5 3.7 1.7 4.9 3.5 1.2 1.9 1.5 3.8 1 5.9zM-53.36 139.3c0 .77-.3 1.45-.88 2.06-.58.6-1.26.9-2 .9-1.22 0-2.1-.56-2.68-1.7l-2.66-.1c-.57 0-1.7.23-3.35.73-1.78.4-2.8.8-3.06 1.1-.4.4-.7 1.5-1 3.1-.2 1.3-.3 2.3-.3 3 0 1 .2 1.8.5 2.2.3.4 1 .8 2 1.2 1 .3 1.7.5 1.9.5.2 0 .4-.1.8-.1h.7c.5 0 1 .1 1.6.2.8.2 1.1.5 1 .9-.5-.1-1.4 0-2.7.3l1.6.8c0 .4-.6.6-1.9.6-.3 0-.8-.1-1.4-.2-.6-.2-.9-.3-1.1-.3h-.7c0 .4-.1.9-.3 1.7-.6-.1-1.4-.4-2.3-1.2-.9-.7-1.4-1.1-1.6-1.1-.2 0-.6.3-1 1.1-.4.7-.6 1.2-.6 1.5-.5-.3-.9-.8-1.2-1.5l-.6-1.3c-.4 0-1.1.8-2.1 2.4h-.3c-.1-.1-.3-.9-.8-2.4-1.1-.4-2.2-.6-3.3-.6-.5 0-1.2.1-2.3.3l-1.6-.1c.3-.2.9-.7 2-1.3 1.3-.8 2.3-1.1 3-1.1h.5c.2.1.3.1.4.1.3 0 .7-.1 1.3-.4.6-.2.9-.5 1-.7.1-.3.1-.8.1-1.8 0-2.2-.5-3.8-1.7-4.8-1-1-2.6-1.6-4.8-2.1-.6 2.1-2.3 3.2-5.1 3.2-.9 0-1.8-.6-2.7-1.7-.9-1.1-1.3-2.1-1.3-3 0-1.4.6-2.6 1.8-3.5-.9-1-1.4-2-1.4-3 0-1 .3-1.8.9-2.5.6-.8 1.4-1.2 2.3-1.3 0-1.2.4-2 1.2-2.5-.4-.4-.6-1.1-.6-2.2 0-1.2.4-2.3 1.3-3.1.8-.8 1.9-1.2 3.1-1.2 1.4 0 2.5.5 3.4 1.4 1.1-3.8 3.5-5.7 7.1-5.7 1.9 0 3.5.7 5 2.3l.8.9c-.5 0-.2-.1.7-.2.9-.1 1.6-.3 2-.3 1.5 0 2.8.5 3.9 1.6 1 .9 1.7 2.2 2.1 3.7.3 0 .7.1 1.2.3.9.4 1.3 1.1 1.3 2.1 0 .2-.1.5-.4 1.1 2.4 1.3 3.7 3.2 3.7 5.6 0 .7-.2 1.6-.8 2.8 1 .5 1.5 1.4 1.5 2.5zm-23.37 2.5v-.72c0-.87-.42-1.67-1.27-2.4-.85-.7-1.7-1.06-2.58-1.06-1.06 0-2.04.24-2.95.73 2-.1 4.27 1.04 6.8 3.46zm-1.02-7.02c-.56-.65-1.06-1.3-1.47-2-1.6.43-2.38.9-2.38 1.43.45 0 1.1.1 1.98.3.87.2 1.5.3 1.87.3zm3.46-1.76v-2.5c-.9-.14-1.4-.22-1.6-.22v.85zm7.4-1.6c-.4-.18-1.3-.55-2.5-1.12v4.88c1.8-1.03 2.7-2.27 2.6-3.75zm3.1 6.7l-1.2-1.52-2.3 1.6c-.7.54-1.4 1.15-2 1.83 1.7-.9 3.6-1.55 5.6-1.92z"/></g></svg>