<?xml version="1.0" encoding="UTF-8" standalone="no"?>
<svg
   xmlns:dc="http://purl.org/dc/elements/1.1/"
   xmlns:cc="http://creativecommons.org/ns#"
   xmlns:rdf="http://www.w3.org/1999/02/22-rdf-syntax-ns#"
   xmlns:svg="http://www.w3.org/2000/svg"
   xmlns="http://www.w3.org/2000/svg"
   xmlns:xlink="http://www.w3.org/1999/xlink"
   id="svg8"
   version="1.1"
   viewBox="0 0 26.458328 26.458332"
   height="26.458332mm"
   width="26.458332mm">
  <defs
     id="defs2">
    <linearGradient
       gradientUnits="userSpaceOnUse"
       xlink:href="#a"
       gradientTransform="matrix(1.4733394,0,0,1.5793349,-1202.8083,-227.62597)"
       y2="-43.950001"
       y1="-43.950001"
       x2="701.51001"
       x1="633.63"
       id="b" />
    <linearGradient
       id="a">
      <stop
         id="stop4"
         stop-color="red"
         offset="0" />
      <stop
         id="stop6"
         stop-color="#ff0"
         offset=".2" />
      <stop
         id="stop8"
         stop-color="#0f0"
         offset=".4" />
      <stop
         id="stop10"
         stop-color="#0ff"
         offset=".6" />
      <stop
         id="stop12"
         stop-color="#00f"
         offset=".8" />
      <stop
         id="stop14"
         stop-color="#f0f"
         offset="1" />
    </linearGradient>
  </defs>
  <metadata
     id="metadata5">
    <rdf:RDF>
      <cc:Work
         rdf:about="">
        <dc:format>image/svg+xml</dc:format>
        <dc:type
           rdf:resource="http://purl.org/dc/dcmitype/StillImage" />
        <dc:title></dc:title>
      </cc:Work>
    </rdf:RDF>
  </metadata>
  <g
     transform="translate(-111.73915,-107.55837)"
     id="layer1">
    <g
       id="g138"
       transform="matrix(0.26458333,0,0,0.26458333,361.7704,135.33962)">
      <circle
         style="fill:#cac5c0"
         id="circle134"
         r="50"
         cy="-55"
         cx="-895" />
      <path
         style="fill:#0d0f0f"
         id="path136"
         d="m -909.7,-86.37 v 50.44 c 0,6 2.57,9 7.7,9 h 1.3 v 3.42 h -26.86 V -27 h 1.72 c 4.94,0 7.4,-3 7.4,-9 v -33 c 0,-6.1 -2.15,-9.13 -6.46,-9.13 h -2.66 v -3.43 h 1 c 5.25,0 9.98,-1.6 14.2,-4.8 z m 9.77,33.33 c 0,-7.86 1.64,-15.08 4.94,-21.67 4.2,-8.2 9.8,-12.3 17,-12.3 7,0 12.4,3.5 16.5,10.5 3.3,5.7 5,12.4 5,19.9 0,7.8 -1.6,15 -4.9,21.5 -4.3,8.1 -9.9,12.1 -17,12.1 -6.8,0 -12.2,-3.5 -16.3,-10.4 -3.4,-5.9 -5.2,-12.4 -5.2,-19.7 z m 9.12,-3.68 c 0,6.68 0.7,12.68 2.1,18 2.2,8.2 5.8,12.3 10.7,12.3 8.1,0 12.1,-8.45 12.1,-25.35 0,-20.87 -4.4,-31.3 -13.2,-31.3 -8,0 -11.9,8.1 -11.9,24.33 z" />
    </g>
  </g>
</svg>
