<svg xmlns="http://www.w3.org/2000/svg" viewBox="0 0 26.4583 26.4583"><g transform="translate(-83.533 -113.682)"><path class="st6" d="M106.1017 117.5445c2.4077 2.4077 3.8894 5.715 3.8894 9.3662 0 7.3025-5.926 13.2292-13.229 13.2292-3.651 0-6.958-1.482-9.366-3.863" fill="#f8f6d8"/><path class="st3" d="M87.3957 136.277c-2.3813-2.3813-3.863-5.6886-3.863-9.3663 0-7.3025 5.9267-13.2292 13.2292-13.2292 3.651 0 6.958 1.4817 9.339 3.863" fill="#e49977"/><path d="M106.816 133.0226c-.395-.357-.7788-.7568-1.27-.979-.465.0533-.7297.8266-1.293.42-.4576-.484-1.066.427-.5635.7835.201.493 1.1678.018.897.775-.142.721-.4687 1.388-.7867 2.044-.0393-.521.006-1.107-.3025-1.557-.4252-.103-1.0794.064-1.1755-.587.0504-.684-.94-.303-.9182.204-.036.439.747.83.0728 1.145-.644.427-1.394.645-2.095.956.3912-.372.873-.8.9524-1.359-.2548-.42-.7166-.952-.2563-1.424.3622-.438-.7077-.714-.906-.315.0047.345-.3097 1.105-.928.77-.6364-.158-1.231-.444-1.8256-.715.538-.023 1.151.011 1.598-.338.159-.434.143-1.06.763-1.142.436-.136.011-.922-.405-.874-.357.311-.951.694-1.247.083-.361-.597-.551-1.277-.842-1.909.425.308.81.875 1.377.857.361-.351.87-.746 1.315-.243.446.097.752-.791.311-1.106-.195-.344-.865.11-.836-.447.029-.644.415-1.199.63-1.792.127-.253.261-.724.178-.182.055.465-.033 1.118.436 1.379.472-.177.978.059 1.021.593-.012.376.399.425.645.201.454-.287.409-.932-.007-1.23-.047-.503.7-.664 1.076-.8833.34-.1383.987-.44 1.155-.437-.35.344-.97.729-.812 1.296.291.427.537.958.195 1.438-.165.483 1.001.885.998.145-.16-.756.697-.5667 1.122-.398.558.188 1.1.423 1.642.653-.5176.049-1.0625-.049-1.5576.138-.307.315.145 1.04-.4794 1.185l-.582.238c-.001.6553.723.896 1.042.296.574-.235.922.455 1.074.894.196.475.3836.9547.582 1.4285zm-2.9897-1.5875c.3796-1.358-.7783-2.845-2.1754-2.874-1.318-.069-2.544 1.135-2.444 2.463.075 1.301 1.354 2.339 2.639 2.203.962-.073 1.82-.835 1.98-1.791zm-.2117-.052c-.1916 1.111-1.4458 1.851-2.5135 1.508-1.132-.228-1.905-1.512-1.534-2.616.324-1.231 1.901-1.839 2.996-1.227.821.428 1.295 1.434 1.052 2.336zm-6.35-7.62c-.3357.921-1.252 1.526-2.2138 1.589-.6227.039-1.2894.016-1.8425.349-.2427.28.1637.568.346.482.5045.021 1.0092.044 1.5143.042-1.2232.662-2.6597.708-4.0187.742-.66.049-1.369-.06-1.871-.526-.762-.666-1.26-1.687-1.097-2.712.135-1.266 1.303-2.35 2.594-2.293.566-.005 1.111.358 1.678.145.631-.183 1.225-.535 1.761-.885-.071.885-.411 1.856-1.243 2.294-.39.161-.774.845-.213 1.04.421.24.956.052 1.22-.334.337-.337.446-.813.383-1.275.007-.501.034-1.048.414-1.424.428-.405 0 .46-.002.696-.085.305.184.883.441.394.261-.396.418-.862.453-1.336-.816-.069-1.577-.688-1.813-1.471-.072-.248-.064-.742.142-.303.14.268.649.919.715.28.03-.564-.23-1.243-.802-1.439-.67-.17-1.193.638-1.873.404-.209-.094-1.076-.253-.493-.293.39-.13 1.055-.0663 1.23-.4683-.269-.4513-.892-.4567-1.354-.5654-.477-.08-.961-.098-1.442-.139.539-.1782 1.125-.1732 1.688-.2332 1.447-.068 3.008.4107 3.905 1.6077.4504.576.747 1.259.9414 1.96.304-.369.1124-.895.0015-1.3047-.073-.2753-.3417-.8406-.3328-.92.814 1.0453 1.4796 2.395 1.138 3.746-.2704 1.1567-1.3657 1.803-1.9977 2.7384.688-.179 1.409-.3704 1.926-.8944.159-.221.35-.288.225.0417-.031.0935-.071.1836-.114.271zm-6.747-6.085c-.0047.373-.445.355-.7142.397-.2848.162-.4975.734-.646.785-.0603-.291-.0665-.81-.4376-.454-.216.08-.771.678-.5407.132.262-.614.72-1.215 1.362-1.454.404-.128 1.021.089.977.596zm2.699 1.429c-.0546.477-.6933.744-1.112.578-.4334-.228-.5736-.784-1.039-.983-.1896-.231.4385-.05.5634.088.3192.346.6212.126.8665-.155.357-.185.7748.046.721.473z" fill="#0d0f0f"/></g></svg>