<svg xmlns="http://www.w3.org/2000/svg" viewBox="0 0 26.5 26.5"><g transform="translate(194.47) scale(.2646)"><path fill="#c9c4be" d="m -635,50 c 0,27.6 -22.38,50 -50,50 -27.6,0 -50,-22.4 -50,-50 0,-27.62 22.4,-50 50,-50 27.62,0 50,22.38 50,50 z"/><path fill="#0d0f0f" d="m -680.1,65.7 c 0,3.98 0.66,6.8 1.97,8.4 1.3,1.63 3.52,2.44 6.64,2.44 l 0.8,-0.1 V 80 h -28.8 v -3.55 h 1 c 3.1,0.06 5.4,-0.72 6.7,-2.34 1.3,-1.6 2,-4.3 2,-8.3 V 53.3 l -18.3,-26.83 -1.9,-2.62 c -0.5,-0.73 -1.1,-1.32 -1.6,-1.76 -0.8,-0.7 -1.6,-1.2 -2.5,-1.5 -0.9,-0.3 -2.1,-0.5 -3.5,-0.7 v -3.6 h 27.9 v 3.5 c -2.8,0.2 -4.7,0.6 -5.7,1.1 -1,0.5 -1.5,1.5 -1.5,2.9 0,0.6 0.1,1.2 0.4,1.8 0.2,0.6 0.6,1.3 1,1.9 l 14.2,20.6 10.4,-15.3 c 1,-1.4 1.7,-2.6 2.2,-3.6 0.5,-1 0.7,-1.9 0.9,-2.8 V 26 c 0,-1.94 -0.5,-3.38 -1.6,-4.3 -1,-0.95 -2.9,-1.54 -5.5,-1.8 v -3.7 h 23.1 v 3.58 c -0.8,0.1 -1.4,0.27 -2.1,0.5 -0.6,0.2 -1.2,0.5 -1.7,0.9 -1,0.54 -2,1.43 -3.1,2.65 -1,1.2 -2.3,2.9 -3.8,5.1 l -17.1,24.3 V 65.7 Z"/></g></svg>