<svg xmlns="http://www.w3.org/2000/svg" viewBox="0 0 26.5 26.5"><g transform="translate(194.47 55.562) scale(.26458)"><circle cx="-685" cy="-160" r="50" fill="#cac5c0"/><path fill="#0d0f0f" d="m -657.56,-139.9 -5.9,19.9 h -48.98 v -4.25 c 2.38,-2.66 7.6,-8 15.64,-16.06 4.85,-4.9 9.65,-10 14.4,-15.4 2.4,-2.7 4.22,-5 5.5,-6.9 2.83,-4.1 4.25,-8.3 4.25,-12.6 0,-4.2 -1.3,-7.9 -3.9,-11.1 -2.62,-3.2 -5.98,-4.8 -10.1,-4.8 -8.87,0 -15.82,6 -20.85,18 l -4.4,-1.7 c 5.95,-16.9 15.32,-25.3 28.13,-25.3 6.32,0 11.7,2.1 16.13,6.4 4.44,4.3 6.65,9.6 6.65,15.9 0,8 -4.6,15.9 -13.8,23.6 l -9.6,7.9 c -6.1,5.1 -11.2,9.9 -15.2,14.4 -0.3,0.3 -0.8,0.9 -1.6,1.9 h 25.5 c 4,0 6.9,-0.8 8.9,-2.4 1.8,-1.4 3.5,-4 5.1,-7.8 z"/></g></svg>