<svg xmlns="http://www.w3.org/2000/svg" viewBox="0 0 26.5 26.5"><g transform="translate(138.906 -27.78) scale(.26458)"><path fill="#e49977" d="m -439.65,119.64 c 9.05,9.06 14.65,21.56 14.65,35.36 0,27.6 -22.4,50 -50,50 -13.8,0 -26.3,-5.6 -35.35,-14.65"/><path fill="#bab1ab" d="M -510.35,190.35 C -519.4,181.3 -525,168.8 -525,155 c 0,-27.62 22.4,-50 50,-50 13.8,0 26.3,5.6 35.35,14.64"/><path fill="#0d0f0f" d="M-436.7 179.44c-1.72 4.1-5.13 6.14-10.24 6.14-.94 0-1.95.12-3.04.35-1.64.36-2.46.84-2.46 1.47 0 .2.13.42.4.67.28.26.52.38.7.38-.97 0-.3.03 2 .1 2.3.05 3.74.08 4.33.08-3.4 2-9.1 2.9-17.1 2.75-2.6-.04-4.9-1.2-6.8-3.45-1.9-2.15-2.8-4.55-2.8-7.2 0-2.8.9-5.2 2.8-7.17 1.9-1.97 4.2-2.95 7-2.95.6 0 1.4.2 2.5.5 1.1.3 1.7.4 2 .4 1.4 0 3.2-.6 5.3-1.8 2.2-1.2 3.2-1.8 3-1.8-.4 4.1-1.7 6.9-4.1 8.3-1.7 1-2.5 2-2.5 2.9 0 .6.3 1.1 1 1.4.5.3 1.1.4 1.8.4 1 0 2-.6 3-1.9 1-1.2 1.4-2.3 1.3-3.3-.1-1.1-.1-2.6.2-4.2.1-.5.4-1 .9-1.7.5-.7.9-1.1 1.3-1.2 0 .4-.2 1-.4 1.8-.3.9-.4 1.5-.4 1.9 0 .8.2 1.5.7 2 .7-.3 1.3-1.2 1.9-2.6.4-1.1.7-2.2.8-3.2-1.7 0-3.2-.8-4.7-2.2-1.5-1.4-2.3-2.9-2.3-4.5 0-.3 0-.6.1-.8l1 1.7c.6 1 1.2 1.5 1.5 1.5.5 0 .7-.5.7-1.5 0-1.3-.3-2.4-1-3.4-.7-1.2-1.7-1.8-2.8-1.8-.6 0-1.4.3-2.5.9-1.1.6-2.1.9-3 .9-.3 0-1.5-.3-3.6-1 3.7-.7 5.6-1.2 5.6-1.7 0-1.4-2.6-2.3-7.8-2.7-.5-.1-1.4-.1-2.8-.3.2-.2 1.3-.4 3.3-.6 1.7-.2 3-.3 3.7-.3 9.3 0 15.1 4.5 17.6 13.5.4-.3.6-.9.6-1.7 0-1.1-.3-2.4-.9-4.1-.2-.6-.6-1.6-1.1-2.8 3.2 4.1 4.8 7.9 4.8 11.6 0 2-.4 3.7-1.3 5.3-.6 1-1.7 2.4-3.3 4-1.6 1.6-2.7 3-3.3 3.9 2.1-.6 3.5-1.1 4.2-1.4 1.5-.7 2.8-1.7 4-3 0 .5-.2 1.3-.6 2.3zm-25.5-23c0 .7-.4 1.15-1.18 1.35l-1.53.2c-.6.2-1.4 1.3-2.4 3.2l-.6-2.5c-.4 0-1 .3-1.8.9-.4.2-.9.7-1.7 1.2.2-1.4 1-2.9 2.3-4.3 1.4-1.6 2.7-2.4 4.1-2.4 1.7 0 2.6.7 2.6 2.1zm10.17 5.4c0 .65-.36 1.2-1.1 1.66-.7.44-1.42.67-2.12.67-.94 0-1.78-.53-2.52-1.58-.9-1.3-1.8-2.2-2.75-2.6.2-.2.43-.3.7-.3.36 0 .95.3 1.8.8.83.5 1.37.8 1.6.8.2 0 .52-.3.96-.8.45-.6.95-.9 1.5-.9 1.3 0 1.93.7 1.93 2zM-471.74 133.1c0 2.7-.98 4.55-2.95 5.54-.5.28-2.3.67-5.4 1.16-1.9.33-2.9 1.1-2.9 2.27v4.98c0 .2.1.84.2 1.9l.2 1.97c0 .6-.1 1.6-.4 3l-2.7.56c-.3-1.23-.5-2.07-.5-2.52 0-.2.1-.5.2-.92.1-.4.2-.72.2-.92 0-.3-.2-1.1-.7-2.4h-.9c-.1.2-.1.47-.1.8.2.7.3 1.3.2 1.78-.7.5-1.6 1.15-2.9 1.97-.3-.1-.4-.13-.3-.13v-4.36c-.1-.2-.3-.28-.6-.24h-.7l-.7 5.77c-.6.1-1.2.1-2.1 0-.3-1.3-.8-3.3-1.5-6h-.5l-.7 2.4c0 .2.1.5.2 1 .1.5.2.8.2 1 0 .1 0 .5-.1.9l-.2 1.5c-.1.1-.2.1-.3.1-1.2 0-2-.3-2.4-.9-.4-.6-.5-1.5-.5-2.6l.5-7.4c0-.1.1-.3.2-.5.1-.2.1-.3.1-.4 0-.3-.3-1-1-2-.1-.1-.7-.2-1.9-.4l-4.1-.8c-2.8-.5-4.2-2.8-4.2-6.8 0-6 2.5-10.9 7.4-14.9.2 1.1.6 2.6 1.1 4.4l2.4.6 3.7 1.4c-1.2-.7-2.7-1.8-4.5-3.4-.7-.8-1-2.2-1-4.1 0-.5.8-1 2.4-1.6 1.4-.6 2.5-.9 3.2-1 2.2-.3 3.9-.4 5.1-.4 5.1 0 9.3 1.3 12.4 3.9-1 1.2-2.8 2.5-5.3 3.8 1 .1 2.4-.3 4.3-1.1 1.9-.8 2.7-1.2 2.4-1.2.4 0 1 .7 2 2 .7 1 1.3 1.9 1.8 2.7 1.3 2.4 2.2 4.9 2.6 7.6 0 1 0 1.6.1 2zm-23.52 1.12c0-1.76-.77-3.43-2.3-5-1.54-1.58-3.18-2.37-4.94-2.37-1.56 0-2.93.66-4.12 1.98-1.18 1.32-1.78 2.78-1.78 4.4 0 1.4.68 2.3 2.03 2.7.86.26 2.07.4 3.62.44h3.38c2.74.04 4.1-.68 4.1-2.15zm6.7 7.6v-1.9c-.3-.52-.58-1.08-.87-1.65-.24-.82-.7-1.96-1.35-3.44l-.67 7.2c0 .56-.12.85-.37.85-.16 0-.3-.04-.37-.13-.2-4.34-.4-6.22-.4-5.64V135c-.1-.13-.2-.2-.3-.2-1.4 1.45-2.1 3.76-2.1 6.95 0 1.77.2 2.85.5 3.27.4-.1.7-.24 1.1-.44.2-.1.7-.13 1.4-.13.8 0 1.8.26 2.9.75.4 0 .6-1.1.6-3.32zm13.87-8.55c0-1.64-.6-3.1-1.8-4.4-1.2-1.3-2.6-1.96-4.2-1.96-1.7 0-3.3.8-4.8 2.4-1.5 1.6-2.2 3.3-2.2 5 0 1.5.7 2.2 2.1 2.2h7.1c2.7 0 4-1 4-3.1z"/></g></svg>