<?xml version="1.0" encoding="UTF-8" standalone="no"?>
<svg
   xmlns:dc="http://purl.org/dc/elements/1.1/"
   xmlns:cc="http://creativecommons.org/ns#"
   xmlns:rdf="http://www.w3.org/1999/02/22-rdf-syntax-ns#"
   xmlns:svg="http://www.w3.org/2000/svg"
   xmlns="http://www.w3.org/2000/svg"
   xmlns:xlink="http://www.w3.org/1999/xlink"
   id="svg8"
   version="1.1"
   viewBox="0 0 26.458328 26.458332"
   height="26.458332mm"
   width="26.458332mm">
  <defs
     id="defs2">
    <linearGradient
       gradientUnits="userSpaceOnUse"
       xlink:href="#a"
       gradientTransform="matrix(1.4733394,0,0,1.5793349,-1202.8083,-227.62597)"
       y2="-43.950001"
       y1="-43.950001"
       x2="701.51001"
       x1="633.63"
       id="b" />
    <linearGradient
       id="a">
      <stop
         id="stop4"
         stop-color="red"
         offset="0" />
      <stop
         id="stop6"
         stop-color="#ff0"
         offset=".2" />
      <stop
         id="stop8"
         stop-color="#0f0"
         offset=".4" />
      <stop
         id="stop10"
         stop-color="#0ff"
         offset=".6" />
      <stop
         id="stop12"
         stop-color="#00f"
         offset=".8" />
      <stop
         id="stop14"
         stop-color="#f0f"
         offset="1" />
    </linearGradient>
  </defs>
  <metadata
     id="metadata5">
    <rdf:RDF>
      <cc:Work
         rdf:about="">
        <dc:format>image/svg+xml</dc:format>
        <dc:type
           rdf:resource="http://purl.org/dc/dcmitype/StillImage" />
        <dc:title></dc:title>
      </cc:Work>
    </rdf:RDF>
  </metadata>
  <g
     transform="translate(-90.278633,-114.3191)"
     id="layer1">
    <g
       id="g290"
       transform="matrix(0.26458333,0,0,0.26458333,340.30988,58.756601)">
      <path
         style="fill:#f8f6d8"
         id="path282"
         d="m -859.65,224.64 c 9.05,9.06 14.65,21.56 14.65,35.36 0,27.6 -22.4,50 -50,50 -13.8,0 -26.3,-5.6 -35.35,-14.65" />
      <path
         style="fill:#cac5c0"
         id="path284"
         d="M -930.35,295.35 C -939.4,286.3 -945,273.8 -945,260 c 0,-27.62 22.4,-50 50,-50 13.8,0 26.3,5.6 35.35,14.64" />
      <path
         style="fill:#0d0f0f"
         id="path286"
         d="m -901.35,251.6 -2.87,9.67 h -23.82 v -2.07 c 1.16,-1.3 3.7,-3.9 7.6,-7.8 2.36,-2.36 4.7,-4.86 7,-7.48 1.17,-1.3 2.06,-2.4 2.68,-3.34 1.38,-2 2.07,-4.04 2.07,-6.14 0,-2.04 -0.6,-3.84 -1.9,-5.4 -1.2,-1.56 -2.9,-2.34 -4.9,-2.34 -4.3,0 -7.7,2.92 -10.1,8.75 l -2.1,-0.8 c 2.9,-8.2 7.5,-12.28 13.7,-12.28 3.1,0 5.7,1.04 7.9,3.13 2.2,2.1 3.3,4.67 3.3,7.74 0,3.92 -2.2,7.74 -6.7,11.48 l -4.7,3.87 c -3,2.4 -5.4,4.8 -7.4,7 -0.1,0.1 -0.4,0.4 -0.8,0.9 h 12.4 c 1.9,0 3.4,-0.4 4.4,-1.2 0.9,-0.7 1.7,-2 2.5,-3.8 z" />
      <path
         style="fill:#0d0f0f"
         id="path288"
         d="m -857,283.1 c -2.44,-2.25 -4.05,-3.48 -4.85,-3.67 -0.57,-0.14 -1.13,0.2 -1.67,1 -0.54,0.8 -1.3,1.1 -2.27,0.86 -0.3,-0.1 -1.1,-0.5 -2.3,-1.1 -0.9,0.9 -1.4,1.4 -1.5,1.7 -0.1,0.4 0.1,0.9 0.6,1.6 0.5,0.7 0.9,1 1.3,1.1 0.3,0.1 0.6,0.1 1.1,0.1 h 0.9 c 0.5,0.1 0.5,0.9 0.1,2.6 -0.3,1.5 -1.3,3.8 -2.8,6.9 0,-3.9 -0.6,-6 -1.6,-6.3 -0.1,-0.1 -0.4,0 -0.9,0.1 -0.5,0.1 -0.8,0.1 -1.1,0.1 -1,-0.3 -1.7,-1.5 -2.1,-3.6 -1.7,-0.2 -2.7,0.5 -3.1,1.9 -0.2,0.7 0,1.4 0.6,2 0.6,0.6 0.8,1 0.8,1.1 -0.2,1 -2,2.1 -5.3,3.5 l -3.7,1.5 c 0.7,-0.5 1.4,-1.3 2.2,-2.2 0.9,-1.1 1.4,-1.9 1.5,-2.6 0.1,-0.4 -0.2,-1 -0.8,-1.8 -0.7,-0.9 -0.9,-1.6 -0.7,-2.4 0.2,-0.6 0.6,-1.3 1.2,-2.1 -0.3,-0.6 -0.8,-1 -1.5,-1.2 -1.4,-0.3 -2.2,0 -2.5,0.9 l -0.3,1.5 c -0.2,1.2 -1.3,1.6 -3.1,1.1 -1.4,-0.3 -3.7,-1.2 -6.9,-2.6 4,-0.1 6.1,-0.7 6.4,-1.9 0,0.1 0,-0.3 0.1,-1.4 0.2,-1.2 1.2,-2 3.1,-2.5 0.1,-1.8 -0.6,-2.8 -2,-3.1 -0.2,-0.1 -0.7,0.2 -1.4,0.8 -0.7,0.6 -1.4,0.9 -1.9,0.7 -0.8,-0.2 -1.7,-1.4 -2.6,-3.6 l -2,-4.9 2.2,1.8 c 0.9,0.8 1.7,1.3 2.4,1.4 0.5,0.1 1.1,-0.2 1.8,-1 0.7,-0.7 1.4,-1 2.2,-0.8 0.1,0.1 0.8,0.4 2,1.2 0.9,-0.9 1.5,-1.6 1.6,-2.1 0.1,-0.4 0,-1 -0.4,-1.7 -0.4,-0.7 -0.8,-1.1 -1.2,-1.2 -0.2,-0.1 -0.5,-0.1 -0.9,0 -0.4,0.1 -0.7,0 -0.9,-0.1 -0.7,-0.2 -0.8,-1 -0.4,-2.7 0.1,-0.4 1.1,-2.8 3,-7.1 -0.2,0.6 -0.2,1.6 0,3.2 0.2,2 0.7,3.1 1.6,3.3 0.1,0 0.4,0 0.9,-0.1 0.5,-0.2 0.9,-0.2 1.1,-0.1 0.8,0.2 1.4,0.8 1.7,1.9 l 0.5,1.6 c 0.7,0.2 1.4,0.1 2.1,-0.3 0.6,-0.4 1,-1 1.2,-1.8 0.2,-0.8 0,-1.5 -0.6,-2.1 -0.6,-0.6 -0.8,-1 -0.8,-1.2 0.2,-0.8 1.7,-1.8 4.5,-3 2.2,-1 3.7,-1.6 4.3,-1.7 -2,1.7 -3.2,3.1 -3.4,4 -0.1,0.5 0.1,1.1 0.5,1.9 0.6,0.9 0.9,1.5 1,1.8 0.2,0.9 -0.1,2.1 -0.9,3.4 0.8,0.9 1.5,1.4 2,1.6 1.1,0.2 1.7,-0.2 2,-1.3 0.1,-0.1 0.1,-0.4 0.1,-1 0.1,-0.6 0.1,-0.93 0.2,-1 0.2,-0.5 1.3,-0.5 3.1,-0.04 1.2,0.3 3.5,1.2 7,2.7 l -3.8,0.1 c -1.6,0.1 -2.4,0.4 -2.6,1 v 1.4 c 0.1,0.66 0.1,1.1 0,1.4 -0.1,0.5 -0.6,0.9 -1.3,1.2 l -2.2,0.9 c 0.3,0.9 0.5,1.4 0.6,1.6 0.3,0.5 0.7,0.8 1.3,1 0.5,0.1 0.9,-0.2 1.5,-0.9 0.6,-0.7 1.2,-0.9 2,-0.7 1,0.3 1.9,1.4 2.7,3.5 l 2.1,5.4 z m -11.28,-6 c 0.56,-2.32 0.2,-4.53 -1.1,-6.63 -1.3,-2.1 -3.1,-3.43 -5.4,-4 -2.35,-0.55 -4.58,-0.2 -6.68,1.08 -2.1,1.27 -3.45,3.08 -4.04,5.42 -0.6,2.3 -0.2,4.5 1.14,6.6 1.35,2.1 3.18,3.43 5.5,3.98 2.44,0.6 4.7,0.27 6.7,-0.94 2.04,-1.2 3.33,-3 3.9,-5.5 z m -0.8,-0.2 c -0.53,2.2 -1.7,3.85 -3.54,4.93 -1.82,1.1 -3.84,1.38 -6.04,0.85 -2.13,-0.5 -3.78,-1.7 -4.94,-3.53 -1.17,-1.84 -1.5,-3.83 -0.98,-5.96 0.5,-2.1 1.7,-3.8 3.6,-4.9 1.9,-1.2 3.88,-1.5 5.97,-1 2.1,0.5 3.7,1.7 4.9,3.5 1.1,1.9 1.5,3.8 1,5.9 z" />
    </g>
  </g>
</svg>
