<svg xmlns="http://www.w3.org/2000/svg" viewBox="0 0 26.5 26.5"><g transform="translate(250.03 -27.78) scale(.2646)"><path fill="#c1d7e9" d="m -859.65,119.64 c 9.05,9.06 14.65,21.56 14.65,35.36 0,27.6 -22.4,50 -50,50 -13.8,0 -26.3,-5.6 -35.35,-14.65"/><path fill="#f8f6d8" d="M -930.35,190.35 C -939.4,181.3 -945,168.8 -945,155 c 0,-27.62 22.4,-50 50,-50 13.8,0 26.3,5.6 35.35,14.64"/><path fill="#0d0f0f" d="M-868.28 188.68c-2.7 2.73-6 4.1-9.94 4.1-4.43 0-7.93-1.5-10.53-4.54-2.45-2.88-3.68-6.55-3.68-11.02 0-4.8 2.1-10.3 6.28-16.44 3.4-5.05 7.42-9.47 12.03-13.26-.67 3.07-1 5.26-1 6.56 0 2.98.93 5.88 2.8 8.72 2.3 3.36 4.07 5.86 5.27 7.5 1.87 2.83 2.8 5.6 2.8 8.28 0 4-1.34 7.36-4.03 10.1zm-.07-15.4c-.72-1.6-1.56-2.67-2.52-3.2.14.3.2.7.2 1.22 0 1-.27 2.46-.85 4.33l-.94 2.88c0 1.7.84 2.6 2.52 2.6 1.78 0 2.67-1.2 2.67-3.5 0-1.2-.36-2.6-1.08-4.2zM-890.33 143.26c-2.44-2.26-4.06-3.5-4.85-3.68-.58-.14-1.14.2-1.67 1-.54.82-1.3 1.1-2.27.87-.4-.1-1.18-.44-2.33-1.02-.94.88-1.44 1.47-1.5 1.76-.1.3.07.9.54 1.6.4.7.8 1 1.3 1.1.2 0 .6.1 1 .1h.9c.4.1.4.9 0 2.6-.4 1.5-1.3 3.8-2.8 6.9-.1-3.9-.6-6-1.7-6.3-.2-.1-.5 0-1 .1-.5.1-.9.1-1.1.1-1.1-.3-1.8-1.5-2.2-3.6-1.7-.1-2.8.5-3.1 1.9-.2.7 0 1.3.6 1.9.5.6.8 1 .8 1.1-.3.9-2 2.1-5.4 3.4-1.8.7-3 1.2-3.7 1.5.6-.6 1.3-1.3 2.1-2.2.8-1.1 1.3-1.9 1.5-2.6.1-.4-.2-1-.9-1.9-.7-.9-1-1.6-.8-2.4.1-.6.5-1.4 1.2-2.2-.4-.6-.9-1-1.5-1.2-1.5-.3-2.3 0-2.5.9l-.4 1.5c-.3 1.2-1.3 1.6-3.2 1.1-1.4-.4-3.7-1.2-6.9-2.7 4-.1 6.1-.7 6.4-1.9 0 .1 0-.3.1-1.4.1-1.2 1.2-2 3.1-2.5.1-1.7-.6-2.8-2-3.1-.2 0-.7.2-1.4.9-.8.6-1.4.9-1.9.7-.9-.2-1.8-1.4-2.7-3.6-.4-1.1-1.1-2.7-2-4.9l2.2 1.9c.9.8 1.7 1.2 2.4 1.4.5.1 1.1-.2 1.8-1 .7-.8 1.4-1 2.2-.8.1 0 .8.4 2 1.2.9-.9 1.5-1.6 1.6-2.1.1-.4-.1-1-.4-1.7-.4-.7-.8-1-1.2-1.2-.2-.1-.5-.1-.9-.1-.4 0-.7 0-.9-.1-.7-.2-.8-1.1-.4-2.7.1-.5 1.1-2.8 3-7.2-.2.5-.2 1.6 0 3.2.2 1.9.7 3 1.5 3.2.1 0 .4 0 .9-.1.5-.1.8-.2 1.1-.1.8.2 1.4.8 1.7 1.9l.5 1.7c.7.2 1.4.1 2.1-.4.6-.4 1-1 1.2-1.8.2-.8 0-1.5-.6-2.1-.6-.6-.9-1-.8-1.2.1-.8 1.6-1.8 4.5-3 2.2-1 3.7-1.6 4.3-1.7-2.1 1.7-3.2 3.1-3.5 4.1-.1.5 0 1.1.5 1.8.6.9.9 1.5.9 1.8.2.9-.1 2-.9 3.4.8.9 1.4 1.4 2 1.5 1.1.3 1.7-.1 2-1.2l.1-1c0-.6.1-.9.1-1 .2-.5 1.3-.5 3.1 0 1.1.3 3.5 1.2 7 2.7l-3.8.1c-1.6.1-2.4.4-2.6.9-.1.3-.1.7 0 1.4 0 .6 0 1.1-.1 1.4-.1.5-.6.9-1.3 1.2l-2.1.8c.2.9.4 1.4.5 1.6.2.53.7.9 1.3 1 .4.1.9-.17 1.5-.8.5-.7 1.2-.9 2-.7.9.2 1.8 1.4 2.6 3.5l2.1 5.3zm-11.28-6.02c.5-2.3.1-4.52-1.2-6.62-1.3-2.1-3.1-3.43-5.4-4-2.4-.55-4.6-.2-6.7 1.08-2.1 1.27-3.5 3.08-4.1 5.42-.6 2.3-.2 4.5 1.1 6.6 1.3 2.1 3.2 3.43 5.5 3.98 2.4.6 4.7.28 6.7-.94 2-1.2 3.3-3.05 3.8-5.52zm-.9-.2c-.6 2.2-1.7 3.86-3.6 4.95-1.9 1-3.9 1.3-6.1.8-2.2-.5-3.8-1.7-5-3.6-1.2-1.9-1.5-3.9-1-6 .5-2.1 1.7-3.7 3.6-4.9 1.9-1.2 3.9-1.5 6-1 2.1.5 3.7 1.7 4.9 3.5 1.2 1.9 1.5 3.8 1 5.9z"/></g></svg>