<?xml version="1.0" encoding="UTF-8" standalone="no"?>
<svg
   xmlns:dc="http://purl.org/dc/elements/1.1/"
   xmlns:cc="http://creativecommons.org/ns#"
   xmlns:rdf="http://www.w3.org/1999/02/22-rdf-syntax-ns#"
   xmlns:svg="http://www.w3.org/2000/svg"
   xmlns="http://www.w3.org/2000/svg"
   xmlns:xlink="http://www.w3.org/1999/xlink"
   id="svg8"
   version="1.1"
   viewBox="0 0 134.40831 26.458332"
   height="26.458332mm"
   width="134.40833mm">
  <defs
     id="defs2">
    <linearGradient
       gradientUnits="userSpaceOnUse"
       xlink:href="#a"
       gradientTransform="matrix(1.4733394,0,0,1.5793349,-1202.8083,-227.62597)"
       y2="-43.950001"
       y1="-43.950001"
       x2="701.51001"
       x1="633.63"
       id="b" />
    <linearGradient
       id="a">
      <stop
         id="stop4"
         stop-color="red"
         offset="0" />
      <stop
         id="stop6"
         stop-color="#ff0"
         offset=".2" />
      <stop
         id="stop8"
         stop-color="#0f0"
         offset=".4" />
      <stop
         id="stop10"
         stop-color="#0ff"
         offset=".6" />
      <stop
         id="stop12"
         stop-color="#00f"
         offset=".8" />
      <stop
         id="stop14"
         stop-color="#f0f"
         offset="1" />
    </linearGradient>
  </defs>
  <metadata
     id="metadata5">
    <rdf:RDF>
      <cc:Work
         rdf:about="">
        <dc:format>image/svg+xml</dc:format>
        <dc:type
           rdf:resource="http://purl.org/dc/dcmitype/StillImage" />
        <dc:title></dc:title>
      </cc:Work>
    </rdf:RDF>
  </metadata>
  <g
     transform="translate(-39.265963,-102.16646)"
     id="layer1">
    <g
       id="g406"
       transform="matrix(0.26458333,0,0,0.26458333,289.29721,-8.9585364)">
      <path
         style="fill:#cac5c0"
         id="path386"
         d="m -487,420 h -408 c -27.6,0 -50,22.4 -50,50 0,27.6 22.4,50 50,50 h 408 c 27.6,0 50,-22.4 50,-50 0,-27.62 -22.4,-50 -50,-50 z" />
      <path
         style="fill:#0d0f0f"
         id="path388"
         d="m -860.86,505.53 v -2.62 c 6.9,-0.7 10.33,-3.2 10.33,-7.5 0,-2.5 -0.97,-3.9 -2.92,-4 h -0.97 c -2.8,-0.2 -4.2,-1.5 -4.2,-4.1 0,-1.4 0.44,-2.5 1.32,-3.4 0.87,-0.8 2.03,-1.2 3.48,-1.2 2.44,0 4.37,1.3 5.76,3.7 1.2,2.1 1.8,4.4 1.8,7.1 0,4.2 -1.45,7.3 -4.34,9.5 -2.55,1.9 -5.97,2.9 -10.26,3 z" />
      <path
         style="fill:#0d0f0f"
         id="path390"
         d="m -658.4,505.53 v -2.62 c 6.9,-0.7 10.34,-3.2 10.34,-7.5 0,-2.5 -0.97,-3.9 -2.92,-4 h -0.97 c -2.8,-0.2 -4.2,-1.5 -4.2,-4.1 0,-1.4 0.45,-2.5 1.32,-3.4 0.88,-0.8 2.04,-1.2 3.48,-1.2 2.45,0 4.37,1.3 5.77,3.7 1.2,2.1 1.8,4.4 1.8,7.1 0,4.2 -1.45,7.3 -4.35,9.5 -2.54,1.9 -5.96,2.9 -10.25,3 z" />
      <path
         style="fill:#0d0f0f"
         id="path392"
         d="m -514.47,470.37 c 0,-9.55 2.02,-18.35 6.08,-26.4 5.1,-9.97 11.9,-14.97 20.7,-14.97 8.7,0 15.4,4.25 20.3,12.73 4.1,7 6.1,15.15 6.1,24.43 0,9.64 -2,18.34 -6,26.14 -4.9,9.8 -11.8,14.7 -20.6,14.7 -8.3,0 -15,-4.2 -19.9,-12.6 -4.3,-7.18 -6.4,-15.2 -6.4,-24.03 z m 11.1,-4.34 c 0,12.6 1.9,22.4 5.7,29.42 2.63,4.9 6.02,7.35 10.17,7.35 9.95,0 14.93,-10.24 14.93,-30.73 0,-9 -0.8,-16.63 -2.37,-22.85 -2.73,-10.24 -7.36,-15.36 -13.9,-15.36 -9.68,0 -14.53,9.9 -14.53,29.68 z" />
      <path
         style="fill:#0d0f0f"
         id="path394"
         d="m -575.47,470.37 c 0,-9.55 2.02,-18.35 6.08,-26.4 5.1,-9.97 11.9,-14.97 20.7,-14.97 8.7,0 15.4,4.25 20.3,12.73 4.1,7 6.1,15.15 6.1,24.43 0,9.64 -2,18.34 -6,26.14 -4.9,9.8 -11.8,14.7 -20.6,14.7 -8.3,0 -15,-4.2 -19.9,-12.6 -4.3,-7.18 -6.4,-15.2 -6.4,-24.03 z m 11.1,-4.34 c 0,12.6 1.9,22.4 5.7,29.42 2.63,4.9 6.02,7.35 10.16,7.35 9.9,0 14.9,-10.24 14.9,-30.73 0,-9 -0.8,-16.63 -2.4,-22.85 -2.8,-10.24 -7.4,-15.36 -13.9,-15.36 -9.7,0 -14.6,9.9 -14.6,29.68 z" />
      <path
         style="fill:#0d0f0f"
         id="path396"
         d="m -636.8,470.37 c 0,-9.55 2.04,-18.35 6.1,-26.4 5,-9.97 11.9,-14.97 20.6,-14.97 8.63,0 15.38,4.25 20.22,12.73 4.05,7 6.08,15.15 6.08,24.43 0,9.64 -2.03,18.34 -6.08,26.14 -4.94,9.8 -11.8,14.7 -20.62,14.7 -8.37,0 -15.03,-4.2 -19.96,-12.6 -4.23,-7.18 -6.35,-15.2 -6.35,-24.03 z m 11.1,-4.34 c 0,12.6 1.9,22.4 5.7,29.42 2.65,4.9 6.04,7.35 10.18,7.35 9.96,0 14.94,-10.24 14.94,-30.73 0,-9 -0.8,-16.63 -2.38,-22.85 -2.73,-10.24 -7.35,-15.36 -13.88,-15.36 -9.7,0 -14.55,9.9 -14.55,29.68 z" />
      <path
         style="fill:#0d0f0f"
         id="path398"
         d="m -718.14,470.37 c 0,-9.55 2.03,-18.35 6.08,-26.4 5.02,-9.98 11.9,-14.97 20.63,-14.97 8.63,0 15.37,4.25 20.22,12.73 4,7 6,15.15 6,24.43 0,9.64 -2.1,18.34 -6.1,26.14 -5,9.8 -11.8,14.7 -20.7,14.7 -8.4,0 -15.1,-4.2 -20,-12.6 -4.2,-7.18 -6.4,-15.2 -6.4,-24.03 z m 11.1,-4.34 c 0,12.6 1.9,22.4 5.7,29.42 2.64,4.9 6.03,7.35 10.17,7.35 9.96,0 14.94,-10.24 14.94,-30.73 0,-9 -0.8,-16.63 -2.38,-22.85 -2.8,-10.24 -7.4,-15.36 -13.9,-15.36 -9.7,0 -14.6,9.9 -14.6,29.68 z" />
      <path
         style="fill:#0d0f0f"
         id="path400"
         d="m -779.14,470.37 c 0,-9.55 2.03,-18.35 6.08,-26.4 5.02,-9.98 11.9,-14.97 20.63,-14.97 8.63,0 15.37,4.25 20.22,12.73 4,7 6,15.15 6,24.43 0,9.64 -2.1,18.34 -6.1,26.14 -5,9.8 -11.8,14.7 -20.7,14.7 -8.4,0 -15.1,-4.2 -20,-12.6 -4.3,-7.18 -6.4,-15.2 -6.4,-24.03 z m 11.1,-4.34 c 0,12.6 1.9,22.4 5.7,29.42 2.63,4.9 6.02,7.35 10.17,7.35 9.96,0 14.94,-10.24 14.94,-30.73 0,-9 -0.8,-16.63 -2.38,-22.85 -2.8,-10.24 -7.4,-15.36 -13.9,-15.36 -9.7,0 -14.6,9.9 -14.6,29.68 z" />
      <path
         style="fill:#0d0f0f"
         id="path402"
         d="m -840.45,470.37 c 0,-9.55 2.02,-18.35 6.08,-26.4 5.02,-9.98 11.9,-14.97 20.62,-14.97 8.64,0 15.38,4.25 20.23,12.73 4.05,7 6.08,15.15 6.08,24.43 0,9.64 -2.03,18.34 -6.08,26.14 -4.94,9.8 -11.82,14.7 -20.63,14.7 -8.37,0 -15.02,-4.2 -19.96,-12.6 -4.3,-7.18 -6.4,-15.2 -6.4,-24.03 z m 11.1,-4.34 c 0,12.6 1.9,22.4 5.7,29.42 2.63,4.9 6.02,7.35 10.16,7.35 10,0 15,-10.24 15,-30.73 0,-9 -0.8,-16.63 -2.3,-22.85 -2.7,-10.24 -7.3,-15.36 -13.9,-15.36 -9.7,0 -14.5,9.9 -14.5,29.68 z" />
      <path
         style="fill:#0d0f0f"
         id="path404"
         d="m -883.2,429 v 62.5 c 0,7.5 3.22,11.22 9.68,11.22 h 1.68 V 507 h -34.1 v -4.28 h 2.14 c 6.24,0 9.36,-3.73 9.36,-11.2 V 450.5 c 0,-7.56 -2.7,-11.35 -8.08,-11.35 h -3.43 V 435 h 1.24 c 6.6,0 12.6,-2 18,-6 h 3.4 z" />
    </g>
  </g>
</svg>
