<?xml version="1.0" encoding="UTF-8" standalone="no"?>
<svg
   xmlns:dc="http://purl.org/dc/elements/1.1/"
   xmlns:cc="http://creativecommons.org/ns#"
   xmlns:rdf="http://www.w3.org/1999/02/22-rdf-syntax-ns#"
   xmlns:svg="http://www.w3.org/2000/svg"
   xmlns="http://www.w3.org/2000/svg"
   xmlns:xlink="http://www.w3.org/1999/xlink"
   id="svg8"
   version="1.1"
   viewBox="0 0 26.458328 26.458332"
   height="26.458332mm"
   width="26.458332mm">
  <defs
     id="defs2">
    <linearGradient
       gradientUnits="userSpaceOnUse"
       xlink:href="#a"
       gradientTransform="matrix(1.4733394,0,0,1.5793349,-1202.8083,-227.62597)"
       y2="-43.950001"
       y1="-43.950001"
       x2="701.51001"
       x1="633.63"
       id="b" />
    <linearGradient
       id="a">
      <stop
         id="stop4"
         stop-color="red"
         offset="0" />
      <stop
         id="stop6"
         stop-color="#ff0"
         offset=".2" />
      <stop
         id="stop8"
         stop-color="#0f0"
         offset=".4" />
      <stop
         id="stop10"
         stop-color="#0ff"
         offset=".6" />
      <stop
         id="stop12"
         stop-color="#00f"
         offset=".8" />
      <stop
         id="stop14"
         stop-color="#f0f"
         offset="1" />
    </linearGradient>
  </defs>
  <metadata
     id="metadata5">
    <rdf:RDF>
      <cc:Work
         rdf:about="">
        <dc:format>image/svg+xml</dc:format>
        <dc:type
           rdf:resource="http://purl.org/dc/dcmitype/StillImage" />
        <dc:title></dc:title>
      </cc:Work>
    </rdf:RDF>
  </metadata>
  <g
     transform="translate(-92.15087,-103.22606)"
     id="layer1">
    <g
       id="g270"
       transform="matrix(0.26458333,0,0,0.26458333,119.93212,75.444813)">
      <path
         style="fill:#f8f6d8"
         id="path262"
         d="M -19.65,119.64 C -10.6,128.7 -5,141.2 -5,155 c 0,27.6 -22.4,50 -50,50 -13.8,0 -26.3,-5.6 -35.35,-14.65" />
      <path
         style="fill:#a3c095"
         id="path264"
         d="M -90.35,190.35 C -99.4,181.3 -105,168.8 -105,155 c 0,-27.62 22.4,-50 50,-50 13.8,0 26.3,5.6 35.35,14.64" />
      <path
         style="fill:#0d0f0f"
         id="path266"
         d="m -17,178.1 c -2.44,-2.25 -4.05,-3.48 -4.85,-3.67 -0.57,-0.14 -1.13,0.2 -1.67,1 -0.54,0.8 -1.3,1.1 -2.27,0.86 -0.3,-0.1 -1.1,-0.5 -2.3,-1.1 -0.9,0.9 -1.4,1.5 -1.5,1.7 -0.1,0.4 0.1,0.9 0.6,1.6 0.5,0.7 0.9,1 1.3,1.1 0.3,0.1 0.6,0.1 1.1,0.1 h 0.9 c 0.5,0.1 0.5,0.9 0.1,2.6 -0.3,1.5 -1.3,3.8 -2.8,6.9 0,-3.9 -0.6,-6 -1.6,-6.3 -0.1,-0.1 -0.4,0 -0.9,0.1 -0.5,0.1 -0.8,0.1 -1.1,0.1 -1,-0.3 -1.7,-1.5 -2.1,-3.6 -1.7,-0.2 -2.7,0.5 -3.1,1.9 -0.2,0.7 0,1.4 0.6,2 0.6,0.6 0.8,0.9 0.8,1.1 -0.2,1 -2,2.1 -5.3,3.5 -1.8,0.7 -3,1.2 -3.7,1.5 0.7,-0.6 1.4,-1.3 2.2,-2.2 0.9,-1.1 1.4,-1.9 1.6,-2.6 0.1,-0.4 -0.2,-1 -0.9,-1.8 -0.6,-0.9 -0.9,-1.6 -0.7,-2.4 0.1,-0.6 0.5,-1.3 1.2,-2.1 -0.3,-0.7 -0.8,-1.1 -1.5,-1.2 -1.4,-0.3 -2.3,0 -2.5,0.9 l -0.3,1.5 c -0.2,1.2 -1.3,1.5 -3.1,1.1 -1.4,-0.4 -3.7,-1.2 -6.9,-2.7 4,0 6.1,-0.7 6.4,-1.9 0,0.1 0,-0.3 0.1,-1.4 0.2,-1.2 1.2,-2 3.1,-2.5 0.1,-1.7 -0.6,-2.8 -2,-3.1 -0.2,-0.1 -0.7,0.2 -1.4,0.8 -0.7,0.6 -1.4,0.9 -1.9,0.8 -0.8,-0.2 -1.7,-1.4 -2.7,-3.7 -0.4,-1.1 -1,-2.7 -1.9,-4.9 0.7,0.7 1.5,1.3 2.2,1.9 1,0.8 1.8,1.3 2.4,1.4 0.5,0.1 1.1,-0.2 1.8,-1 0.7,-0.8 1.4,-1.1 2.2,-0.9 0.2,0 0.8,0.4 2.1,1.2 1,-0.9 1.5,-1.6 1.6,-2.1 0.1,-0.4 0,-1 -0.4,-1.7 -0.4,-0.6 -0.8,-1 -1.2,-1.1 -0.1,-0.1 -0.4,-0.1 -0.8,-0.1 h -0.9 c -0.6,-0.2 -0.8,-1.1 -0.4,-2.7 0.1,-0.5 1.1,-2.8 3.1,-7.2 -0.2,0.6 -0.2,1.6 0,3.2 0.2,2 0.7,3.1 1.5,3.3 0.2,0.1 0.5,0 1,-0.1 0.5,-0.1 0.8,-0.1 1.1,-0.1 0.8,0.2 1.4,0.9 1.7,1.9 l 0.5,1.7 c 0.8,0.2 1.5,0.1 2.1,-0.3 0.7,-0.4 1.1,-1 1.3,-1.8 0.2,-0.8 0,-1.5 -0.6,-2.1 -0.6,-0.6 -0.8,-1 -0.8,-1.2 0.2,-0.7 1.7,-1.7 4.5,-3 2.3,-1 3.7,-1.5 4.4,-1.6 -2,1.7 -3.2,3 -3.4,4 -0.1,0.5 0.1,1.1 0.6,1.9 0.6,0.8 0.9,1.4 0.9,1.7 0.2,0.9 -0.1,2 -0.9,3.4 0.8,0.9 1.5,1.4 2,1.5 1.1,0.3 1.7,-0.2 2,-1.2 0.1,-0.1 0.1,-0.5 0.1,-1.1 0.1,-0.6 0.1,-0.9 0.2,-1 0.3,-0.5 1.3,-0.5 3.2,0 1.2,0.2 3.5,1.1 7,2.7 l -3.8,0.1 c -1.5,0.1 -2.4,0.4 -2.5,0.9 0,0.2 -0.1,0.7 0,1.3 0,0.7 0,1.2 -0.1,1.5 -0.2,0.5 -0.6,0.9 -1.3,1.2 l -2.2,0.8 c 0.2,0.9 0.4,1.4 0.5,1.6 0.3,0.5 0.7,0.8 1.3,1 0.4,0.1 0.9,-0.2 1.5,-0.9 0.5,-0.6 1.2,-0.9 2,-0.7 1,0.2 1.8,1.4 2.6,3.5 0.4,1.2 1.1,3 2.1,5.4 z m -11.27,-6 c 0.55,-2.32 0.18,-4.53 -1.1,-6.63 -1.3,-2.1 -3.1,-3.44 -5.42,-4 -2.3,-0.55 -4.5,-0.2 -6.6,1.08 -2.1,1.27 -3.4,3.08 -4,5.42 -0.6,2.3 -0.2,4.5 1.2,6.6 1.4,2.1 3.2,3.43 5.5,3.98 2.5,0.6 4.7,0.27 6.7,-0.94 2,-1.2 3.3,-3 3.9,-5.5 z m -0.82,-0.2 c -0.5,2.2 -1.7,3.85 -3.5,4.93 -1.8,1.1 -3.8,1.38 -6,0.85 -2.1,-0.5 -3.8,-1.7 -4.9,-3.53 -1.1,-1.84 -1.5,-3.83 -0.9,-5.96 0.5,-2.1 1.7,-3.8 3.6,-4.9 1.9,-1.2 3.9,-1.5 6,-1 2.1,0.5 3.7,1.7 4.9,3.5 1.2,1.9 1.5,3.8 1,5.9 z" />
      <path
         style="fill:#0d0f0f"
         id="path268"
         d="m -53.36,139.3 c 0,0.77 -0.3,1.45 -0.88,2.06 -0.58,0.6 -1.26,0.9 -2,0.9 -1.22,0 -2.1,-0.56 -2.68,-1.7 l -2.66,-0.1 c -0.57,0 -1.7,0.23 -3.35,0.73 -1.78,0.4 -2.8,0.8 -3.06,1.1 -0.4,0.4 -0.7,1.5 -1,3.1 -0.2,1.3 -0.3,2.3 -0.3,3 0,1 0.2,1.8 0.5,2.2 0.3,0.4 1,0.8 2,1.2 1,0.3 1.7,0.5 1.9,0.5 0.2,0 0.4,-0.1 0.8,-0.1 h 0.7 c 0.5,0 1,0.1 1.6,0.2 0.8,0.2 1.1,0.5 1,0.9 -0.5,-0.1 -1.4,0 -2.7,0.3 l 1.6,0.8 c 0,0.4 -0.6,0.6 -1.9,0.6 -0.3,0 -0.8,-0.1 -1.4,-0.2 -0.6,-0.2 -0.9,-0.3 -1.1,-0.3 h -0.7 c 0,0.4 -0.1,0.9 -0.3,1.7 -0.6,-0.1 -1.4,-0.4 -2.3,-1.2 -0.9,-0.7 -1.4,-1.1 -1.6,-1.1 -0.2,0 -0.6,0.3 -1,1.1 -0.4,0.7 -0.6,1.2 -0.6,1.5 -0.5,-0.3 -0.9,-0.8 -1.2,-1.5 l -0.6,-1.3 c -0.4,0 -1.1,0.8 -2.1,2.4 h -0.3 c -0.1,-0.1 -0.3,-0.9 -0.8,-2.4 -1.1,-0.4 -2.2,-0.6 -3.3,-0.6 -0.5,0 -1.2,0.1 -2.3,0.3 l -1.6,-0.1 c 0.3,-0.2 0.9,-0.7 2,-1.3 1.3,-0.8 2.3,-1.1 3,-1.1 h 0.5 c 0.2,0.1 0.3,0.1 0.4,0.1 0.3,0 0.7,-0.1 1.3,-0.4 0.6,-0.2 0.9,-0.5 1,-0.7 0.1,-0.3 0.1,-0.8 0.1,-1.8 0,-2.2 -0.5,-3.8 -1.7,-4.8 -1,-1 -2.6,-1.6 -4.8,-2.1 -0.6,2.1 -2.3,3.2 -5.1,3.2 -0.9,0 -1.8,-0.6 -2.7,-1.7 -0.9,-1.1 -1.3,-2.1 -1.3,-3 0,-1.4 0.6,-2.6 1.8,-3.5 -0.9,-1 -1.4,-2 -1.4,-3 0,-1 0.3,-1.8 0.9,-2.5 0.6,-0.8 1.4,-1.2 2.3,-1.3 0,-1.2 0.4,-2 1.2,-2.5 -0.4,-0.4 -0.6,-1.1 -0.6,-2.2 0,-1.2 0.4,-2.3 1.3,-3.1 0.8,-0.8 1.9,-1.2 3.1,-1.2 1.4,0 2.5,0.5 3.4,1.4 1.1,-3.8 3.5,-5.7 7.1,-5.7 1.9,0 3.5,0.7 5,2.3 l 0.8,0.9 c -0.5,0 -0.2,-0.1 0.7,-0.2 0.9,-0.1 1.6,-0.3 2,-0.3 1.5,0 2.8,0.5 3.9,1.6 1,0.9 1.7,2.2 2.1,3.7 0.3,0 0.7,0.1 1.2,0.3 0.9,0.4 1.3,1.1 1.3,2.1 0,0.2 -0.1,0.5 -0.4,1.1 2.4,1.3 3.7,3.2 3.7,5.6 0,0.7 -0.2,1.6 -0.8,2.8 1,0.5 1.5,1.4 1.5,2.5 z m -23.37,2.5 v -0.72 c 0,-0.87 -0.42,-1.67 -1.27,-2.4 -0.85,-0.7 -1.7,-1.06 -2.58,-1.06 -1.06,0 -2.04,0.24 -2.95,0.73 2,-0.1 4.27,1.04 6.8,3.46 z m -1.02,-7.02 c -0.56,-0.65 -1.06,-1.3 -1.47,-2 -1.6,0.43 -2.38,0.9 -2.38,1.43 0.45,0 1.1,0.1 1.98,0.3 0.87,0.2 1.5,0.3 1.87,0.3 z m 3.46,-1.76 v -2.5 c -0.9,-0.14 -1.4,-0.22 -1.6,-0.22 v 0.85 z m 7.4,-1.6 c -0.4,-0.18 -1.3,-0.55 -2.5,-1.12 v 4.88 c 1.8,-1.03 2.7,-2.27 2.6,-3.75 z m 3.1,6.7 -1.2,-1.52 -2.3,1.6 c -0.7,0.54 -1.4,1.15 -2,1.83 1.7,-0.9 3.6,-1.55 5.6,-1.92 z" />
    </g>
  </g>
</svg>
