<svg xmlns="http://www.w3.org/2000/svg" viewBox="0 0 26.5 26.5"><g transform="translate(250.03 -55.562) scale(.2646)"><path fill="#f8f6d8" d="m -859.65,224.64 c 9.05,9.06 14.65,21.56 14.65,35.36 0,27.6 -22.4,50 -50,50 -13.8,0 -26.3,-5.6 -35.35,-14.65"/><path fill="#cac5c0" d="M -930.35,295.35 C -939.4,286.3 -945,273.8 -945,260 c 0,-27.62 22.4,-50 50,-50 13.8,0 26.3,5.6 35.35,14.64"/><path fill="#0d0f0f" d="M-901.35 251.6l-2.87 9.67h-23.82v-2.07c1.16-1.3 3.7-3.9 7.6-7.8 2.36-2.36 4.7-4.86 7-7.48 1.17-1.3 2.06-2.4 2.68-3.34 1.38-2 2.07-4.04 2.07-6.14 0-2.04-.6-3.84-1.9-5.4-1.2-1.56-2.9-2.34-4.9-2.34-4.3 0-7.7 2.92-10.1 8.75l-2.1-.8c2.9-8.2 7.5-12.28 13.7-12.28 3.1 0 5.7 1.04 7.9 3.13 2.2 2.1 3.3 4.67 3.3 7.74 0 3.92-2.2 7.74-6.7 11.48l-4.7 3.87c-3 2.4-5.4 4.8-7.4 7-.1.1-.4.4-.8.9h12.4c1.9 0 3.4-.4 4.4-1.2.9-.7 1.7-2 2.5-3.8zM-857 283.1c-2.44-2.25-4.05-3.48-4.85-3.67-.57-.14-1.13.2-1.67 1-.54.8-1.3 1.1-2.27.86-.3-.1-1.1-.5-2.3-1.1-.9.9-1.4 1.4-1.5 1.7-.1.4.1.9.6 1.6.5.7.9 1 1.3 1.1.3.1.6.1 1.1.1h.9c.5.1.5.9.1 2.6-.3 1.5-1.3 3.8-2.8 6.9 0-3.9-.6-6-1.6-6.3-.1-.1-.4 0-.9.1-.5.1-.8.1-1.1.1-1-.3-1.7-1.5-2.1-3.6-1.7-.2-2.7.5-3.1 1.9-.2.7 0 1.4.6 2 .6.6.8 1 .8 1.1-.2 1-2 2.1-5.3 3.5l-3.7 1.5c.7-.5 1.4-1.3 2.2-2.2.9-1.1 1.4-1.9 1.5-2.6.1-.4-.2-1-.8-1.8-.7-.9-.9-1.6-.7-2.4.2-.6.6-1.3 1.2-2.1-.3-.6-.8-1-1.5-1.2-1.4-.3-2.2 0-2.5.9l-.3 1.5c-.2 1.2-1.3 1.6-3.1 1.1-1.4-.3-3.7-1.2-6.9-2.6 4-.1 6.1-.7 6.4-1.9 0 .1 0-.3.1-1.4.2-1.2 1.2-2 3.1-2.5.1-1.8-.6-2.8-2-3.1-.2-.1-.7.2-1.4.8-.7.6-1.4.9-1.9.7-.8-.2-1.7-1.4-2.6-3.6l-2-4.9 2.2 1.8c.9.8 1.7 1.3 2.4 1.4.5.1 1.1-.2 1.8-1 .7-.7 1.4-1 2.2-.8.1.1.8.4 2 1.2.9-.9 1.5-1.6 1.6-2.1.1-.4 0-1-.4-1.7-.4-.7-.8-1.1-1.2-1.2-.2-.1-.5-.1-.9 0-.4.1-.7 0-.9-.1-.7-.2-.8-1-.4-2.7.1-.4 1.1-2.8 3-7.1-.2.6-.2 1.6 0 3.2.2 2 .7 3.1 1.6 3.3.1 0 .4 0 .9-.1.5-.2.9-.2 1.1-.1.8.2 1.4.8 1.7 1.9l.5 1.6c.7.2 1.4.1 2.1-.3.6-.4 1-1 1.2-1.8.2-.8 0-1.5-.6-2.1-.6-.6-.8-1-.8-1.2.2-.8 1.7-1.8 4.5-3 2.2-1 3.7-1.6 4.3-1.7-2 1.7-3.2 3.1-3.4 4-.1.5.1 1.1.5 1.9.6.9.9 1.5 1 1.8.2.9-.1 2.1-.9 3.4.8.9 1.5 1.4 2 1.6 1.1.2 1.7-.2 2-1.3.1-.1.1-.4.1-1 .1-.6.1-.93.2-1 .2-.5 1.3-.5 3.1-.04 1.2.3 3.5 1.2 7 2.7l-3.8.1c-1.6.1-2.4.4-2.6 1v1.4c.1.66.1 1.1 0 1.4-.1.5-.6.9-1.3 1.2l-2.2.9c.3.9.5 1.4.6 1.6.3.5.7.8 1.3 1 .5.1.9-.2 1.5-.9.6-.7 1.2-.9 2-.7 1 .3 1.9 1.4 2.7 3.5l2.1 5.4zm-11.28-6c.56-2.32.2-4.53-1.1-6.63-1.3-2.1-3.1-3.43-5.4-4-2.35-.55-4.58-.2-6.68 1.08-2.1 1.27-3.45 3.08-4.04 5.42-.6 2.3-.2 4.5 1.14 6.6 1.35 2.1 3.18 3.43 5.5 3.98 2.44.6 4.7.27 6.7-.94 2.04-1.2 3.33-3 3.9-5.5zm-.8-.2c-.53 2.2-1.7 3.85-3.54 4.93-1.82 1.1-3.84 1.38-6.04.85-2.13-.5-3.78-1.7-4.94-3.53-1.17-1.84-1.5-3.83-.98-5.96.5-2.1 1.7-3.8 3.6-4.9 1.9-1.2 3.88-1.5 5.97-1 2.1.5 3.7 1.7 4.9 3.5 1.1 1.9 1.5 3.8 1 5.9z"/></g></svg>