<?xml version="1.0" encoding="UTF-8" standalone="no"?>
<svg
   xmlns:dc="http://purl.org/dc/elements/1.1/"
   xmlns:cc="http://creativecommons.org/ns#"
   xmlns:rdf="http://www.w3.org/1999/02/22-rdf-syntax-ns#"
   xmlns:svg="http://www.w3.org/2000/svg"
   xmlns="http://www.w3.org/2000/svg"
   xmlns:xlink="http://www.w3.org/1999/xlink"
   id="svg8"
   version="1.1"
   viewBox="0 0 26.458328 26.458332"
   height="26.458332mm"
   width="26.458332mm">
  <defs
     id="defs2">
    <linearGradient
       gradientUnits="userSpaceOnUse"
       xlink:href="#a"
       gradientTransform="matrix(1.4733394,0,0,1.5793349,-1202.8083,-227.62597)"
       y2="-43.950001"
       y1="-43.950001"
       x2="701.51001"
       x1="633.63"
       id="b" />
    <linearGradient
       id="a">
      <stop
         id="stop4"
         stop-color="red"
         offset="0" />
      <stop
         id="stop6"
         stop-color="#ff0"
         offset=".2" />
      <stop
         id="stop8"
         stop-color="#0f0"
         offset=".4" />
      <stop
         id="stop10"
         stop-color="#0ff"
         offset=".6" />
      <stop
         id="stop12"
         stop-color="#00f"
         offset=".8" />
      <stop
         id="stop14"
         stop-color="#f0f"
         offset="1" />
    </linearGradient>
  </defs>
  <metadata
     id="metadata5">
    <rdf:RDF>
      <cc:Work
         rdf:about="">
        <dc:format>image/svg+xml</dc:format>
        <dc:type
           rdf:resource="http://purl.org/dc/dcmitype/StillImage" />
        <dc:title></dc:title>
      </cc:Work>
    </rdf:RDF>
  </metadata>
  <g
     transform="translate(-99.296962,-109.84436)"
     id="layer1">
    <g
       id="g320"
       transform="matrix(0.26458333,0,0,0.26458333,265.98446,54.281865)">
      <path
         style="fill:#e49977"
         id="path312"
         d="m -544.65,224.64 c 9.05,9.06 14.65,21.56 14.65,35.36 0,27.6 -22.4,50 -50,50 -13.8,0 -26.3,-5.6 -35.35,-14.65" />
      <path
         style="fill:#cac5c0"
         id="path314"
         d="M -615.35,295.35 C -624.4,286.3 -630,273.8 -630,260 c 0,-27.62 22.4,-50 50,-50 13.8,0 26.3,5.6 35.35,14.64" />
      <path
         style="fill:#0d0f0f"
         id="path316"
         d="m -541.7,284.44 c -1.72,4.1 -5.13,6.14 -10.24,6.14 -0.94,0 -1.95,0.12 -3.04,0.36 -1.64,0.35 -2.46,0.84 -2.46,1.46 0,0.2 0.13,0.42 0.4,0.68 0.28,0.25 0.52,0.38 0.7,0.38 -0.97,0 -0.3,0.02 2,0.08 2.3,0.06 3.74,0.1 4.33,0.1 -3.4,1.98 -9.1,2.9 -17.1,2.74 -2.6,-0.04 -4.9,-1.2 -6.8,-3.45 -1.9,-2.15 -2.8,-4.54 -2.8,-7.2 0,-2.8 0.9,-5.2 2.8,-7.17 1.9,-1.97 4.2,-2.95 7,-2.95 0.6,0 1.4,0.2 2.5,0.5 1,0.3 1.7,0.4 2,0.4 1.4,0 3.2,-0.6 5.4,-1.8 2.1,-1.2 3.1,-1.8 3,-1.8 -0.4,4.1 -1.7,6.9 -4.1,8.3 -1.6,1 -2.5,2 -2.5,2.9 0,0.6 0.4,1.1 1.1,1.4 0.5,0.3 1.1,0.4 1.8,0.4 1,0 2,-0.6 3,-1.8 0.9,-1.2 1.4,-2.4 1.3,-3.4 -0.2,-1.1 -0.1,-2.5 0.2,-4.2 0.1,-0.5 0.3,-1 0.8,-1.7 0.5,-0.6 0.9,-1.1 1.3,-1.2 0,0.4 -0.1,1 -0.4,1.8 -0.2,0.8 -0.4,1.4 -0.4,1.8 0,0.9 0.2,1.5 0.7,2 0.7,-0.3 1.3,-1.1 1.8,-2.6 0.5,-1.1 0.7,-2.2 0.8,-3.3 -1.7,-0.1 -3.2,-0.8 -4.7,-2.2 -1.5,-1.4 -2.3,-2.9 -2.3,-4.5 0,-0.2 0,-0.5 0.1,-0.8 l 1,1.7 c 0.7,1 1.2,1.4 1.5,1.4 0.4,0 0.7,-0.5 0.7,-1.4 0,-1.2 -0.4,-2.4 -1,-3.4 -0.8,-1.2 -1.7,-1.8 -2.9,-1.8 -0.6,0 -1.4,0.3 -2.5,0.9 -1.1,0.6 -2.1,0.9 -3,0.9 -0.3,0 -1.5,-0.4 -3.6,-1.1 3.7,-0.6 5.6,-1.2 5.6,-1.7 0,-1.3 -2.6,-2.2 -7.8,-2.7 -0.5,0 -1.5,-0.1 -2.8,-0.2 0.1,-0.2 1.2,-0.4 3.3,-0.6 1.8,-0.2 3,-0.3 3.7,-0.3 9.3,0 15.2,4.6 17.7,13.6 0.4,-0.3 0.6,-0.9 0.6,-1.7 0,-1.1 -0.3,-2.4 -0.9,-4 -0.2,-0.6 -0.6,-1.6 -1.1,-2.8 3.2,4.1 4.8,7.9 4.8,11.6 0,1.9 -0.5,3.6 -1.4,5.2 -0.6,1.1 -1.6,2.4 -3.2,4.1 -1.6,1.7 -2.7,2.9 -3.3,3.8 2.1,-0.6 3.5,-1 4.2,-1.3 1.5,-0.6 2.8,-1.6 4,-2.9 0,0.5 -0.2,1.2 -0.7,2.3 z m -25.5,-23 c 0,0.7 -0.4,1.15 -1.18,1.35 l -1.53,0.2 c -0.6,0.2 -1.4,1.3 -2.4,3.2 l -0.6,-2.5 c -0.4,0 -1,0.3 -1.8,0.9 -0.4,0.2 -0.9,0.7 -1.7,1.2 0.2,-1.4 1,-2.9 2.3,-4.3 1.4,-1.6 2.7,-2.4 4.1,-2.4 1.7,0 2.6,0.7 2.6,2.1 z m 10.17,5.4 c 0,0.65 -0.36,1.2 -1.1,1.65 -0.7,0.4 -1.42,0.6 -2.12,0.6 -0.94,0 -1.78,-0.6 -2.52,-1.6 -0.9,-1.3 -1.8,-2.2 -2.75,-2.6 0.2,-0.2 0.43,-0.3 0.7,-0.3 0.36,0 0.95,0.3 1.8,0.8 0.83,0.5 1.36,0.8 1.6,0.8 0.2,0 0.52,-0.3 0.96,-0.8 0.45,-0.6 0.95,-0.8 1.5,-0.8 1.3,0 1.93,0.7 1.93,2 z" />
      <path
         style="fill:#0d0f0f"
         id="path318"
         d="m -586.35,251.6 -2.87,9.67 h -23.82 v -2.07 c 1.16,-1.3 3.7,-3.9 7.6,-7.8 2.36,-2.36 4.7,-4.86 7,-7.48 1.17,-1.3 2.06,-2.4 2.68,-3.34 1.38,-2 2.07,-4.04 2.07,-6.14 0,-2.04 -0.6,-3.84 -1.9,-5.4 -1.2,-1.56 -2.9,-2.34 -4.9,-2.34 -4.3,0 -7.7,2.92 -10.1,8.75 l -2.1,-0.8 c 2.9,-8.2 7.5,-12.28 13.7,-12.28 3.1,0 5.7,1.04 7.9,3.13 2.2,2.1 3.3,4.67 3.3,7.74 0,3.92 -2.2,7.74 -6.7,11.48 l -4.7,3.87 c -3,2.4 -5.4,4.8 -7.4,7 -0.1,0.1 -0.4,0.4 -0.8,0.9 h 12.4 c 1.9,0 3.4,-0.4 4.4,-1.2 0.9,-0.7 1.7,-2 2.5,-3.8 z" />
    </g>
  </g>
</svg>
