<svg xmlns="http://www.w3.org/2000/svg" viewBox="0 0 26.5 26.5"><g transform="translate(55.563 55.563) scale(.26458)"><circle cx="-160" cy="-160" r="50" fill="#cac5c0"/><path fill="#0d0f0f" d="m -156.5,-120 h -11.65 v -1.24 c 0,-7.4 2.33,-16.66 6.98,-27.8 7.04,-16.8 13.52,-29.68 19.45,-38.63 l 0.83,-1.23 h -27.2 c -3.9,0 -6.9,0.82 -8.9,2.46 -2,1.65 -3.6,4.4 -4.6,8.22 h -4.5 l 4.9,-21.78 h 2.9 c 1.8,0.92 4.8,1.37 9.1,1.37 h 35.6 v 6.17 c -1.2,1.83 -2.9,4.75 -4.9,8.77 -3.8,7.5 -7.3,16.2 -10.5,26.2 -4.7,14.7 -7.1,27.2 -7.2,37.6 z"/></g></svg>