<?xml version="1.0" encoding="UTF-8" standalone="no"?>
<svg
   xmlns:dc="http://purl.org/dc/elements/1.1/"
   xmlns:cc="http://creativecommons.org/ns#"
   xmlns:rdf="http://www.w3.org/1999/02/22-rdf-syntax-ns#"
   xmlns:svg="http://www.w3.org/2000/svg"
   xmlns="http://www.w3.org/2000/svg"
   id="svg8"
   version="1.1"
   viewBox="0 0 26.352499 26.378958"
   height="26.378958mm"
   width="26.352499mm">
  <defs
     id="defs2" />
  <metadata
     id="metadata5">
    <rdf:RDF>
      <cc:Work
         rdf:about="">
        <dc:format>image/svg+xml</dc:format>
        <dc:type
           rdf:resource="http://purl.org/dc/dcmitype/StillImage" />
        <dc:title></dc:title>
      </cc:Work>
    </rdf:RDF>
  </metadata>
  <g
     transform="translate(-88.877317,-115.23314)"
     id="layer1">
    <g
       id="g532"
       transform="matrix(0.26458333,0,0,0.26458333,338.87946,-23.644004)">
      <path
         id="path530"
         d="m -895.84,624.32 c -1.13,-2.12 -3.9,-6.07 -5.7,-8.1 -0.5,-0.56 -0.98,-1.15 -1.1,-1.32 -0.47,-0.7 -3.7,-4.06 -5.95,-6.2 -4.4,-4.3 -11.3,-9.35 -17.5,-12.88 -2.9,-1.67 -8.9,-4.7 -12,-6 -1,-0.45 -2.9,-1.23 -4.3,-1.73 l -2.5,-1 c 0,-0.1 0.5,-0.7 1.1,-1.5 4.9,-6.3 8.9,-14 12.2,-24.1 1.1,-3.2 2.7,-8.9 3.3,-11.6 2,-8.5 3,-15.1 3.6,-21.4 0.2,-2.4 0.4,-3.6 0.5,-3.6 0.1,0 1.6,0.3 3.3,0.8 9.7,2.5 19.6,3.5 29.9,3.1 8.3,-0.4 14.3,-1.2 21.7,-3.1 1.7,-0.5 3.2,-0.8 3.3,-0.8 0.1,0 0.3,1.2 0.5,3.6 0.6,6.3 1.7,12.9 3.6,21.4 0.6,2.7 2.3,8.4 3.3,11.6 3.4,10 7.4,17.8 12.2,24 0.6,0.7 1.1,1.4 1.1,1.4 0,0 -1.1,0.5 -2.5,1 -6.9,2.5 -15.6,7 -21.2,10.7 -7.8,5.3 -11.7,8.6 -17.5,14.9 -0.4,0.4 -0.9,0.9 -1,1.1 -0.1,0.1 -0.6,0.7 -1.1,1.3 -1.8,2 -4.6,6 -5.7,8.1 -0.2,0.3 -0.4,0.6 -0.5,0.6 -0.1,0 -0.3,-0.3 -0.5,-0.7 z m 1.65,-9.25 c 0.7,-4.08 2.5,-10.06 4.1,-13.57 l 0.7,-1.7 c 1.2,-2.9 5,-10.26 7.3,-14.16 3.2,-5.45 8.3,-13.02 12.4,-18.52 2.4,-3.14 2.2,-2.95 2.2,-3.04 0,-0.04 -1.2,0.15 -2.5,0.42 -3.4,0.7 -6,1.05 -11,1.5 -2.3,0.22 -8.1,0.22 -10.7,0 -2.3,-0.2 -5.2,-0.63 -5.4,-0.8 -0.1,-0.16 0.6,-4.3 1.1,-6.13 1.3,-4.97 3.2,-9.42 6,-14.07 2.2,-3.6 4.3,-6.36 8.6,-11.06 0.3,-0.27 0.4,-0.5 0.2,-0.5 l -0.7,0.2 c -1.1,0.4 -4.1,1.18 -5.5,1.48 -2.9,0.6 -4.8,0.8 -8.1,0.8 -4.1,-0.02 -6.7,-0.4 -9.9,-1.44 -0.9,-0.3 -1.6,-0.5 -1.7,-0.46 0,0.05 0,0.43 0.1,0.85 0.1,0.5 0.2,1.9 0.2,3.84 0,2.6 0,3.5 -0.3,5 -1.2,7.3 -4.3,14.8 -9.6,23.5 -2.7,4.4 -5.4,8.3 -8.5,12.1 -0.9,1.2 -1.7,2.2 -1.6,2.2 0,0.1 1,-0.1 2.2,-0.4 11.1,-2.7 19.4,-3.4 27,-2.2 1.6,0.3 4.2,0.8 4.4,1 0,0 -0.2,1.1 -0.5,2.3 -1.1,4.6 -1.5,7.1 -1.8,12 -0.3,6.7 -0.1,13.5 0.9,20.4 0.3,2.3 0.5,2.9 0.6,2.7 l 0.4,-1.9 z" />
    </g>
  </g>
</svg>
