<?xml version="1.0" encoding="UTF-8" standalone="no"?>
<svg
   xmlns:dc="http://purl.org/dc/elements/1.1/"
   xmlns:cc="http://creativecommons.org/ns#"
   xmlns:rdf="http://www.w3.org/1999/02/22-rdf-syntax-ns#"
   xmlns:svg="http://www.w3.org/2000/svg"
   xmlns="http://www.w3.org/2000/svg"
   xmlns:xlink="http://www.w3.org/1999/xlink"
   id="svg8"
   version="1.1"
   viewBox="0 0 26.458328 26.458332"
   height="26.458332mm"
   width="26.458332mm">
  <defs
     id="defs2">
    <linearGradient
       gradientUnits="userSpaceOnUse"
       xlink:href="#a"
       gradientTransform="matrix(1.4733394,0,0,1.5793349,-1202.8083,-227.62597)"
       y2="-43.950001"
       y1="-43.950001"
       x2="701.51001"
       x1="633.63"
       id="b" />
    <linearGradient
       id="a">
      <stop
         id="stop4"
         stop-color="red"
         offset="0" />
      <stop
         id="stop6"
         stop-color="#ff0"
         offset=".2" />
      <stop
         id="stop8"
         stop-color="#0f0"
         offset=".4" />
      <stop
         id="stop10"
         stop-color="#0ff"
         offset=".6" />
      <stop
         id="stop12"
         stop-color="#00f"
         offset=".8" />
      <stop
         id="stop14"
         stop-color="#f0f"
         offset="1" />
    </linearGradient>
  </defs>
  <metadata
     id="metadata5">
    <rdf:RDF>
      <cc:Work
         rdf:about="">
        <dc:format>image/svg+xml</dc:format>
        <dc:type
           rdf:resource="http://purl.org/dc/dcmitype/StillImage" />
        <dc:title></dc:title>
      </cc:Work>
    </rdf:RDF>
  </metadata>
  <g
     transform="translate(-94.019062,-104.29785)"
     id="layer1">
    <g
       id="g310"
       transform="matrix(0.26458333,0,0,0.26458333,288.48781,48.735346)">
      <path
         style="fill:#bab1ab"
         id="path302"
         d="m -649.65,224.64 c 9.05,9.06 14.65,21.56 14.65,35.36 0,27.6 -22.4,50 -50,50 -13.8,0 -26.3,-5.6 -35.35,-14.65" />
      <path
         style="fill:#cac5c0"
         id="path304"
         d="M -720.35,295.35 C -729.4,286.3 -735,273.8 -735,260 c 0,-27.62 22.4,-50 50,-50 13.8,0 26.3,5.6 35.35,14.64" />
      <path
         style="fill:#0d0f0f"
         id="path306"
         d="m -691.35,251.6 -2.87,9.67 h -23.82 v -2.07 c 1.16,-1.3 3.7,-3.9 7.6,-7.8 2.36,-2.36 4.7,-4.86 7,-7.48 1.17,-1.3 2.06,-2.4 2.68,-3.34 1.38,-2 2.07,-4.04 2.07,-6.14 0,-2.04 -0.6,-3.84 -1.9,-5.4 -1.2,-1.56 -2.9,-2.34 -4.9,-2.34 -4.3,0 -7.7,2.92 -10.1,8.75 l -2.1,-0.8 c 2.9,-8.2 7.5,-12.28 13.7,-12.28 3.1,0 5.7,1.04 7.9,3.13 2.2,2.1 3.3,4.67 3.3,7.74 0,3.92 -2.2,7.74 -6.7,11.48 l -4.7,3.87 c -3,2.4 -5.4,4.8 -7.4,7 -0.1,0.1 -0.4,0.4 -0.8,0.9 h 12.4 c 1.9,0 3.4,-0.4 4.4,-1.2 0.9,-0.7 1.7,-2 2.5,-3.8 z" />
      <path
         style="fill:#0d0f0f"
         id="path308"
         d="m -645.38,276 c 0,2.7 -0.98,4.53 -2.95,5.52 -0.57,0.28 -2.37,0.67 -5.4,1.16 -1.96,0.33 -2.95,1.1 -2.95,2.27 v 4.98 c 0,0.2 0.07,0.84 0.2,1.9 l 0.17,1.97 c 0,0.6 -0.2,1.6 -0.5,3 l -2.7,0.56 c -0.4,-1.23 -0.5,-2.07 -0.5,-2.52 0,-0.2 0,-0.5 0.1,-0.92 0.1,-0.4 0.1,-0.72 0.1,-0.92 0,-0.3 -0.3,-1.1 -0.8,-2.4 h -1 c -0.2,0.2 -0.2,0.47 -0.2,0.8 0.1,0.7 0.2,1.3 0.2,1.78 -0.7,0.5 -1.7,1.15 -2.9,1.97 -0.3,-0.1 -0.4,-0.13 -0.3,-0.13 v -4.36 c -0.1,-0.2 -0.3,-0.28 -0.7,-0.24 h -0.7 l -0.8,5.77 h -2.1 c -0.3,-1.4 -0.8,-3.4 -1.5,-6.1 h -0.5 l -0.8,2.3 c 0,0.1 0,0.4 0.1,0.9 0.1,0.5 0.1,0.8 0.1,0.9 0,0.1 -0.1,0.4 -0.2,0.9 l -0.2,1.4 c -0.1,0.1 -0.2,0.1 -0.4,0.1 -1.2,0 -2,-0.3 -2.4,-0.9 -0.4,-0.6 -0.6,-1.4 -0.5,-2.6 l 0.5,-7.4 c 0,-0.2 0,-0.3 0.1,-0.5 0.1,-0.2 0.1,-0.4 0.1,-0.5 0,-0.4 -0.4,-1 -1,-2 -0.1,-0.1 -0.8,-0.2 -1.9,-0.5 -0.7,-0.2 -2.1,-0.5 -4.1,-0.9 -2.8,-0.5 -4.3,-2.8 -4.3,-6.8 0,-6 2.4,-11 7.3,-14.9 0.2,1.1 0.6,2.5 1,4.4 l 2.4,0.5 3.7,1.4 c -1.1,-0.7 -2.6,-1.8 -4.5,-3.4 -0.7,-0.8 -1.1,-2.2 -1.1,-4.1 0,-0.5 0.8,-1 2.3,-1.6 1.4,-0.6 2.4,-0.9 3.1,-1 2.2,-0.3 3.9,-0.4 5.1,-0.4 5.1,0 9.2,1.3 12.4,3.9 -1,1.2 -2.8,2.5 -5.3,3.8 1,0.1 2.4,-0.3 4.3,-1.1 1.9,-0.9 2.7,-1.3 2.4,-1.3 0.3,0 1,0.6 2,2 0.7,0.9 1.3,1.8 1.7,2.6 1.3,2.3 2.2,4.8 2.7,7.5 v 2 z m -23.52,1.1 c 0,-1.76 -0.76,-3.43 -2.3,-5 -1.53,-1.58 -3.18,-2.37 -4.94,-2.37 -1.56,0 -2.93,0.66 -4.1,1.98 -1.2,1.4 -1.8,2.8 -1.8,4.4 0,1.4 0.68,2.3 2.03,2.8 0.8,0.3 2,0.4 3.6,0.5 h 3.4 c 2.7,0.1 4.1,-0.7 4.1,-2.1 z m 6.7,7.6 v -1.9 c -0.3,-0.52 -0.58,-1.08 -0.86,-1.65 -0.25,-0.82 -0.7,-1.96 -1.35,-3.44 l -0.7,7.2 c 0,0.6 -0.1,0.9 -0.4,0.9 -0.2,0 -0.3,0 -0.4,-0.1 -0.3,-4.3 -0.5,-6.2 -0.5,-5.6 V 278 c -0.1,-0.13 -0.2,-0.2 -0.3,-0.2 -1.4,1.45 -2.1,3.76 -2.1,6.95 0,1.74 0.1,2.8 0.5,3.23 0.3,-0.07 0.7,-0.2 1.1,-0.42 0.1,-0.06 0.6,-0.1 1.4,-0.1 0.8,0 1.7,0.25 2.8,0.74 0.4,0 0.6,-1.1 0.6,-3.3 z m 13.87,-8.55 c 0,-1.64 -0.6,-3.1 -1.84,-4.4 -1.23,-1.3 -2.64,-1.96 -4.23,-1.96 -1.72,0 -3.33,0.7 -4.82,2.3 -1.5,1.6 -2.25,3.2 -2.25,4.9 0,1.4 0.7,2.1 2.1,2.1 h 7.05 c 2.66,-0.1 4,-1.1 4,-3.1 z" />
    </g>
  </g>
</svg>
