<?xml version="1.0" encoding="UTF-8" standalone="no"?>
<svg
   xmlns:dc="http://purl.org/dc/elements/1.1/"
   xmlns:cc="http://creativecommons.org/ns#"
   xmlns:rdf="http://www.w3.org/1999/02/22-rdf-syntax-ns#"
   xmlns:svg="http://www.w3.org/2000/svg"
   xmlns="http://www.w3.org/2000/svg"
   xmlns:xlink="http://www.w3.org/1999/xlink"
   id="svg8"
   version="1.1"
   viewBox="0 0 26.458328 26.458332"
   height="26.458332mm"
   width="26.458332mm">
  <defs
     id="defs2">
    <linearGradient
       gradientUnits="userSpaceOnUse"
       xlink:href="#a"
       gradientTransform="matrix(1.4733394,0,0,1.5793349,-1202.8083,-227.62597)"
       y2="-43.950001"
       y1="-43.950001"
       x2="701.51001"
       x1="633.63"
       id="b" />
    <linearGradient
       id="a">
      <stop
         id="stop4"
         stop-color="red"
         offset="0" />
      <stop
         id="stop6"
         stop-color="#ff0"
         offset=".2" />
      <stop
         id="stop8"
         stop-color="#0f0"
         offset=".4" />
      <stop
         id="stop10"
         stop-color="#0ff"
         offset=".6" />
      <stop
         id="stop12"
         stop-color="#00f"
         offset=".8" />
      <stop
         id="stop14"
         stop-color="#f0f"
         offset="1" />
    </linearGradient>
  </defs>
  <metadata
     id="metadata5">
    <rdf:RDF>
      <cc:Work
         rdf:about="">
        <dc:format>image/svg+xml</dc:format>
        <dc:type
           rdf:resource="http://purl.org/dc/dcmitype/StillImage" />
        <dc:title></dc:title>
      </cc:Work>
    </rdf:RDF>
  </metadata>
  <g
     transform="translate(-102.3881,-115.57307)"
     id="layer1">
    <g
       id="g108"
       transform="matrix(0.26458333,0,0,0.26458333,213.5131,143.35432)">
      <path
         style="fill:#cac5c0"
         id="path104"
         d="m -320,-55 c 0,27.6 -22.4,50 -50,50 -27.62,0 -50,-22.4 -50,-50 0,-27.62 22.4,-50 50,-50 27.6,0 50,22.4 50,50 z" />
      <path
         style="fill:#0d0f0f"
         id="path106"
         d="m -385.33,-86.87 v 50.84 c 0,6.04 2.52,9.07 7.54,9.07 h 1.3 v 3.44 h -27 v -3.44 h 1.8 c 5.1,0 7.7,-3.03 7.7,-9.07 v -33.34 c 0,-6.13 -2.1,-9.2 -6.5,-9.2 h -2.6 v -3.45 h 1 c 5.3,0 10.1,-1.62 14.3,-4.85 z m 17.9,1.27 h 23.1 c 3,0 4.78,-0.33 5.37,-1.02 h 3.33 l -1.92,8.7 h -28.23 l -2.68,12.5 c 4,-1.6 7.58,-2.42 10.73,-2.42 6.13,0 11.3,2.05 15.52,6.13 4.2,4 6.3,9.2 6.3,15.3 0,7.1 -2.8,12.9 -8.2,17.2 -5.1,4 -11.3,6 -18.6,6 -4.3,0 -8.5,-0.7 -12.5,-1.9 l 1.2,-3.2 c 3.4,0.9 6.4,1.4 9,1.4 5.3,0 9.9,-1.8 13.8,-5.2 3.9,-3.5 5.9,-7.9 5.9,-13.1 0,-4.5 -1.5,-8.3 -4.4,-11.1 -3,-2.9 -6.7,-4.4 -11.1,-4.4 -4.2,0 -8.1,1.4 -11.7,4.3 l -2.2,-0.4 z" />
    </g>
  </g>
</svg>
