<svg xmlns="http://www.w3.org/2000/svg" viewBox="0 0 26.5 26.5"><g transform="translate(83.344 27.78) scale(.26458)"><circle cx="-265" cy="-55" r="50" fill="#cac5c0"/><path fill="#0d0f0f" d="m -280.7,-86.68 v 50.84 c 0,6.05 2.53,9.07 7.55,9.07 h 1.27 v 3.45 h -27.08 v -3.45 h 1.8 c 5.1,0 7.66,-3.02 7.66,-9.07 v -33.34 c 0,-6.13 -2.17,-9.2 -6.52,-9.2 h -2.68 v -3.45 h 1.02 c 5.28,0 10.05,-1.6 14.3,-4.85 z m 20.07,27.46 c 4.68,-4.42 9.4,-6.64 14.18,-6.64 5.1,0 9.23,2.05 12.4,6.13 2.88,3.75 4.33,8.3 4.33,13.67 0,5.8 -1.7,10.86 -5.1,15.2 -3.76,4.86 -8.44,7.28 -14.06,7.28 -6.64,0 -12,-2.9 -16.1,-8.68 -3.57,-5.1 -5.36,-11.16 -5.36,-18.14 0,-7.5 2.04,-14.37 6.13,-20.63 4,-6.26 9.5,-10.7 16.4,-13.35 3.8,-1.45 7.9,-2.18 12.2,-2.18 v 3.33 c -9.2,0.42 -16.1,4.1 -20.6,10.98 -2.3,3.58 -3.9,7.92 -4.6,13.03 z m -0.64,6.27 c -0.08,1.27 -0.13,2.55 -0.13,3.83 0,4.93 0.85,9.5 2.56,13.67 2.2,5.44 5.44,8.17 9.7,8.17 3.66,0 6.43,-1.87 8.3,-5.62 1.37,-2.9 2.05,-6.43 2.05,-10.6 0,-4.35 -0.6,-8.1 -1.9,-11.24 -1.8,-4.26 -4.7,-6.4 -8.5,-6.4 -4.7,0 -8.7,2.73 -12,8.2 z"/></g></svg>