<svg xmlns="http://www.w3.org/2000/svg" viewBox="0 0 134.4 26.5">
  <path d="M121.2 0h-108a13.2 13.2 0 0 0 0 26.5h108a13.2 13.2 0 0 0 0-26.5z" fill="#cac5c0"/>
  <path d="M22.3 22.6V22c1.8-.2 2.7-.8 2.7-2 0-.6-.3-1-.8-1H24c-.8 0-1.1-.4-1.1-1 0-.5 0-.8.3-1 .2-.2.5-.3 1-.3.6 0 1 .3 1.5 1 .3.5.4 1.1.4 1.8A3 3 0 0 1 25 22c-.7.5-1.6.7-2.7.8z"/>
  <path d="M75.8 22.6V22c1.9-.2 2.8-.8 2.8-2 0-.6-.3-1-.8-1h-.3c-.7 0-1-.4-1-1 0-.5 0-.8.3-1 .2-.2.5-.3.9-.3.6 0 1.2.3 1.5 1 .3.5.5 1.1.5 1.8a3 3 0 0 1-1.2 2.6c-.6.5-1.5.7-2.7.8z"/>
  <path d="M121 2.4c-2.3 0-4.1 1.3-5.5 4-1 2-1.6 4.4-1.6 7 0 2.3.6 4.4 1.8 6.3 1.3 2.2 3 3.3 5.2 3.3 2.4 0 4.2-1.3 5.5-3.9a15 15 0 0 0 0-13.4c-1.3-2.2-3.1-3.3-5.4-3.3zm-.3 1.3c1.7 0 3 1.3 3.7 4 .4 1.7.6 3.7.6 6 0 5.5-1.3 8.2-4 8.2-1 0-2-.6-2.6-2a16 16 0 0 1-1.6-7.7v-.7c0-5.2 1.3-7.8 3.9-7.8z"/>
  <path d="M104.9 2.4c-2.4 0-4.2 1.3-5.5 4-1 2-1.6 4.4-1.6 7 0 2.3.6 4.4 1.7 6.3 1.3 2.2 3.1 3.3 5.3 3.3 2.3 0 4.2-1.3 5.5-3.9a15 15 0 0 0 0-13.4c-1.4-2.2-3.1-3.3-5.4-3.3zm-.4 1.3c1.8 0 3 1.3 3.7 4 .4 1.7.6 3.7.6 6 0 5.5-1.3 8.2-3.9 8.2-1 0-2-.6-2.7-2-1-1.8-1.5-4.4-1.5-7.7v-.7c0-5.2 1.3-7.8 3.8-7.8z"/>
  <path d="M88.6 2.4c-2.3 0-4.1 1.3-5.4 4-1.1 2-1.7 4.4-1.7 7 0 2.3.6 4.4 1.7 6.3 1.3 2.2 3 3.3 5.3 3.3s4.2-1.3 5.5-3.9a14.8 14.8 0 0 0 0-13.4c-1.3-2.2-3.1-3.3-5.4-3.3zm-.3 1.3c1.8 0 3 1.3 3.7 4 .4 1.7.6 3.7.6 6 0 5.5-1.3 8.2-4 8.2-1 0-2-.6-2.6-2-1-1.8-1.5-4.4-1.5-7.7v-.7c0-5.2 1.3-7.8 3.8-7.8z"/>
  <path d="M67 2.4c-2.2 0-4 1.3-5.4 4-1 2-1.6 4.4-1.6 7 0 2.3.5 4.4 1.6 6.3C63 21.9 64.7 23 67 23c2.4 0 4.2-1.3 5.5-3.9a15 15 0 0 0 0-13.4 5.8 5.8 0 0 0-5.3-3.3zm-.2 1.3c1.7 0 3 1.3 3.7 4 .4 1.7.6 3.7.6 6 0 5.5-1.3 8.2-4 8.2-1 0-2-.6-2.6-2-1-1.8-1.5-4.4-1.5-7.7v-.7c0-5.2 1.2-7.8 3.8-7.8z"/>
  <path d="M51 2.4c-2.4 0-4.2 1.3-5.5 4-1 2-1.6 4.4-1.6 7 0 2.3.5 4.4 1.6 6.3 1.3 2.2 3 3.3 5.3 3.3 2.4 0 4.2-1.3 5.5-3.9a15 15 0 0 0 0-13.4c-1.3-2.2-3-3.3-5.3-3.3zm-.3 1.3c1.7 0 2.9 1.3 3.6 4 .5 1.7.7 3.7.7 6 0 5.5-1.3 8.2-4 8.2-1 0-2-.6-2.7-2-1-1.8-1.5-4.4-1.5-7.7v-.7c0-5.2 1.3-7.8 3.9-7.8z"/>
  <path d="M34.7 2.4c-2.3 0-4.1 1.3-5.4 4-1.1 2-1.6 4.4-1.6 7 0 2.3.5 4.4 1.6 6.3 1.3 2.2 3.1 3.3 5.3 3.3 2.4 0 4.2-1.3 5.5-3.9a14.8 14.8 0 0 0 0-13.4c-1.3-2.2-3-3.3-5.4-3.3zm-.2 1.3c1.7 0 3 1.3 3.7 4 .4 1.7.6 3.7.6 6 0 5.5-1.4 8.2-4 8.2-1.1 0-2-.6-2.7-2-1-1.8-1.5-4.4-1.5-7.7v-.7c0-5.2 1.3-7.8 3.9-7.8z"/>
  <path d="M16.4 2.4v16.5c0 2 .8 3 2.5 3h.5V23h-9v-1h.5c1.7 0 2.5-1 2.5-3V8.1c0-2-.7-3-2.2-3h-.9V4h.4a8 8 0 0 0 4.7-1.6h1z"/>
</svg>
