<?xml version="1.0" encoding="UTF-8" standalone="no"?>
<svg
   xmlns:dc="http://purl.org/dc/elements/1.1/"
   xmlns:cc="http://creativecommons.org/ns#"
   xmlns:rdf="http://www.w3.org/1999/02/22-rdf-syntax-ns#"
   xmlns:svg="http://www.w3.org/2000/svg"
   xmlns="http://www.w3.org/2000/svg"
   xmlns:xlink="http://www.w3.org/1999/xlink"
   id="svg8"
   version="1.1"
   viewBox="0 0 26.458332 26.458332"
   height="26.458332mm"
   width="26.458332mm">
  <defs
     id="defs2">
    <linearGradient
       gradientUnits="userSpaceOnUse"
       xlink:href="#a"
       gradientTransform="matrix(1.4733394,0,0,1.5793349,-1202.8083,-227.62597)"
       y2="-43.950001"
       y1="-43.950001"
       x2="701.51001"
       x1="633.63"
       id="b" />
    <linearGradient
       id="a">
      <stop
         id="stop4"
         stop-color="red"
         offset="0" />
      <stop
         id="stop6"
         stop-color="#ff0"
         offset=".2" />
      <stop
         id="stop8"
         stop-color="#0f0"
         offset=".4" />
      <stop
         id="stop10"
         stop-color="#0ff"
         offset=".6" />
      <stop
         id="stop12"
         stop-color="#00f"
         offset=".8" />
      <stop
         id="stop14"
         stop-color="#f0f"
         offset="1" />
    </linearGradient>
  </defs>
  <metadata
     id="metadata5">
    <rdf:RDF>
      <cc:Work
         rdf:about="">
        <dc:format>image/svg+xml</dc:format>
        <dc:type
           rdf:resource="http://purl.org/dc/dcmitype/StillImage" />
        <dc:title></dc:title>
      </cc:Work>
    </rdf:RDF>
  </metadata>
  <g
     transform="translate(-101.65576,-115.37324)"
     id="layer1">
    <g
       id="g462"
       transform="matrix(0.26458333,0,0,0.26458333,240.59641,32.010968)">
      <circle
         style="fill:#c9c4be"
         id="circle458"
         r="50"
         cy="365.07001"
         cx="-475.13" />
      <path
         style="fill:#0d0f0f"
         id="path460"
         d="m -430.35,370.92 -10.57,12.72 -2.6,-2.58 c 1.02,-2.54 1.66,-4.88 1.92,-7.02 0.26,-2.13 0.15,-4.1 -0.33,-5.93 -0.04,-0.2 -0.1,-0.4 -0.18,-0.6 l -0.3,-0.6 c -0.4,-1.1 -1,-2.2 -1.7,-3.2 -0.7,-1 -1.9,-2.2 -3.3,-3.6 l -7.6,-7.7 -35.1,35.1 c -3.1,3.1 -4.7,5.7 -5,8 -0.3,2.3 0.8,4.6 3.3,7.1 l 1,0.9 -2.8,2.8 -23,-23 2.7,-2.7 1.1,1.2 c 2.4,2.5 4.7,3.6 6.9,3.4 2.2,-0.2 4.9,-1.9 7.9,-4.9 l 35.2,-35.2 -7.8,-7.8 c -2.2,-2.1 -4.1,-3.6 -5.7,-4.4 -1.6,-0.8 -3.4,-1.1 -5.5,-1 h -0.9 l -1,0.1 c -0.6,0.1 -1.2,0.2 -1.6,0.3 -0.4,0.1 -1,0.2 -1.4,0.2 -0.1,0.1 -0.3,0.1 -0.4,0.1 h -0.5 l -1.8,0.5 -2.5,0.7 -2.4,-2.5 12.4,-10.9 51,51.1 z" />
    </g>
  </g>
</svg>
