<svg xmlns="http://www.w3.org/2000/svg" viewBox="0 0 26.5 26.5"><g transform="translate(27.78 27.78) scale(.26458)"><circle cx="-55" cy="-55" r="50" fill="#cac5c0"/><path fill="#0d0f0f" d="m -69.03,-85.8 v 49.45 c 0,5.88 2.43,8.8 7.3,8.8 h 1.26 v 3.34 h -26.3 v -3.4 h 1.65 c 5.02,0 7.54,-3 7.54,-8.8 v -32.4 c 0,-6 -2.13,-9 -6.4,-9 h -2.55 v -3.4 h 1.03 c 5.1,0 9.7,-1.6 13.8,-4.7 h 2.68 z m 22.6,30.4 -1.26,-1 c -4,-2.73 -6.6,-4.9 -7.9,-6.52 -1.5,-2.13 -2.3,-4.6 -2.3,-7.4 0,-4.7 2,-8.52 6,-11.5 3.6,-2.8 7.9,-4.22 12.8,-4.22 4.6,0 8.7,1.2 12.3,3.57 3.9,2.73 5.9,6.35 5.9,10.87 0,5.44 -3.7,9.83 -11.2,13.15 8.6,4.18 12.9,10 12.9,17.5 0,5.37 -2.1,9.62 -6.2,12.77 -3.5,2.82 -8.1,4.22 -13.6,4.22 -5.3,0 -9.8,-1.32 -13.5,-3.96 -4.3,-2.98 -6.5,-6.94 -6.5,-11.88 0,-5.02 2.4,-9.1 7,-12.27 1.2,-0.84 3.2,-1.95 5.9,-3.32 z m 3.6,1.42 c -6.23,2.9 -9.33,7.4 -9.33,13.54 0,3.92 1.27,7.1 3.83,9.52 2.55,2.43 5.75,3.64 9.58,3.64 3.58,0 6.6,-0.96 9.07,-2.87 2.47,-1.92 3.7,-4.58 3.7,-8 0,-5.18 -3.32,-9.35 -9.96,-12.5 z m 7.02,-6.13 c 5.5,-2.5 8.3,-6.2 8.3,-11 0,-3.3 -1.2,-6 -3.6,-8.1 -2.4,-2.1 -5.2,-3.1 -8.6,-3.1 -2.8,0 -5.4,0.8 -7.6,2.4 -2.2,1.6 -3.3,3.8 -3.3,6.6 0,3.4 1.5,6.1 4.7,8.2 0.7,0.4 3.5,1.8 8.4,4.1 z"/></g></svg>