<svg xmlns="http://www.w3.org/2000/svg" viewBox="0 0 26.5 26.5"><g transform="translate(166.687 -27.78) scale(.2646)"><path fill="#e49977" d="m -544.65,119.64 c 9.05,9.06 14.65,21.56 14.65,35.36 0,27.6 -22.4,50 -50,50 -13.8,0 -26.3,-5.6 -35.35,-14.65"/><path fill="#c1d7e9" d="M -615.35,190.35 C -624.4,181.3 -630,168.8 -630,155 c 0,-27.62 22.4,-50 50,-50 13.8,0 26.3,5.6 35.35,14.64"/><path fill="#0d0f0f" d="M-541.7 179.44c-1.72 4.1-5.13 6.14-10.24 6.14-.94 0-1.95.12-3.04.35-1.64.36-2.46.84-2.46 1.47 0 .2.13.42.4.67.28.26.52.38.7.38-.97 0-.3.03 2 .1 2.3.05 3.74.08 4.33.08-3.4 2-9.1 2.9-17.1 2.75-2.6-.04-4.9-1.2-6.8-3.45-1.9-2.15-2.8-4.55-2.8-7.2 0-2.8.9-5.2 2.8-7.17 1.9-1.97 4.2-2.95 7-2.95.6 0 1.4.2 2.5.5 1 .3 1.7.4 2 .4 1.4 0 3.2-.6 5.4-1.8 2.1-1.2 3.1-1.8 3-1.8-.4 4.1-1.7 6.9-4.1 8.3-1.6 1-2.5 2-2.5 2.9 0 .6.4 1.1 1.1 1.4.5.3 1.1.4 1.8.4 1 0 2-.6 3-1.9.9-1.2 1.4-2.3 1.3-3.3-.2-1.1-.1-2.6.2-4.2.1-.5.3-1 .8-1.7.5-.7.9-1.1 1.3-1.2 0 .4-.1 1-.4 1.8-.2.9-.4 1.5-.4 1.9 0 .8.2 1.5.7 2 .7-.3 1.3-1.2 1.8-2.6.5-1.1.7-2.2.8-3.2-1.7 0-3.2-.8-4.7-2.2-1.5-1.4-2.3-2.9-2.3-4.5 0-.3 0-.6.1-.8l1 1.7c.7 1 1.2 1.5 1.5 1.5.4 0 .7-.5.7-1.5 0-1.3-.4-2.4-1-3.4-.8-1.2-1.7-1.8-2.9-1.8-.6 0-1.4.3-2.5.9-1.1.6-2.1.9-3 .9-.3 0-1.5-.3-3.6-1 3.7-.7 5.6-1.2 5.6-1.7 0-1.4-2.6-2.3-7.8-2.7-.5-.1-1.5-.1-2.8-.3.1-.2 1.2-.4 3.3-.6 1.8-.2 3-.3 3.7-.3 9.3 0 15.2 4.5 17.7 13.5.4-.3.6-.9.6-1.7 0-1.1-.3-2.4-.9-4.1l-1.1-2.8c3.2 4.1 4.8 7.9 4.8 11.6 0 2-.5 3.7-1.4 5.3-.6 1-1.6 2.4-3.2 4-1.6 1.6-2.7 3-3.3 3.9 2.1-.6 3.5-1.1 4.2-1.4 1.5-.7 2.8-1.7 4-3 0 .5-.2 1.3-.7 2.3zm-25.5-23c0 .7-.4 1.15-1.18 1.35l-1.53.2c-.6.2-1.4 1.3-2.4 3.2l-.6-2.5c-.4 0-1 .3-1.8.9-.4.2-.9.7-1.7 1.2.2-1.4 1-2.9 2.3-4.3 1.4-1.6 2.7-2.4 4.1-2.4 1.7 0 2.6.7 2.6 2.1zm10.17 5.4c0 .65-.36 1.2-1.1 1.66-.7.44-1.42.67-2.12.67-.94 0-1.78-.53-2.52-1.58-.9-1.3-1.8-2.2-2.75-2.6.2-.2.43-.3.7-.3.36 0 .95.3 1.8.8.83.5 1.36.8 1.6.8.2 0 .52-.3.96-.8.45-.6.95-.9 1.5-.9 1.3 0 1.93.7 1.93 2zM-588.88 153.16c-2.7 2.73-6 4.1-9.95 4.1-4.42 0-7.93-1.5-10.52-4.54-2.46-2.88-3.68-6.56-3.68-11.02 0-4.8 2.1-10.3 6.27-16.44 3.4-5.04 7.42-9.47 12.04-13.26-.67 3.07-1 5.26-1 6.56 0 2.98.92 5.9 2.8 8.72 2.3 3.36 4.06 5.86 5.26 7.5 1.88 2.83 2.8 5.6 2.8 8.28 0 4-1.33 7.36-4.02 10.1zm-.08-15.4c-.72-1.6-1.56-2.67-2.52-3.2.15.3.22.7.22 1.23 0 1-.3 2.4-.87 4.3l-.94 2.9c0 1.6.85 2.5 2.53 2.5 1.77 0 2.67-1.2 2.67-3.6 0-1.2-.37-2.6-1.1-4.2z"/></g></svg>