<svg xmlns="http://www.w3.org/2000/svg" viewBox="0 0 26.5 26.5"><g transform="translate(0 -27.78) scale(.2646)"><path fill="#c1d7e9" d="M 85.35,119.64 C 94.4,128.7 100,141.2 100,155 c 0,27.6 -22.4,50 -50,50 -13.8,0 -26.3,-5.6 -35.35,-14.65"/><path fill="#a3c095" d="M 14.65,190.35 C 5.6,181.3 0,168.8 0,155 c 0,-27.62 22.4,-50 50,-50 13.8,0 26.3,5.6 35.35,14.64"/><path fill="#0d0f0f" d="M76.72 188.68c-2.7 2.73-6 4.1-9.94 4.1-4.43 0-7.93-1.5-10.53-4.54-2.45-2.88-3.67-6.55-3.67-11.02 0-4.8 2.1-10.3 6.27-16.44 3.4-5.05 7.42-9.47 12.03-13.26-.67 3.07-1 5.26-1 6.56 0 2.98.93 5.88 2.8 8.72 2.3 3.36 4.07 5.86 5.27 7.5 1.87 2.83 2.8 5.6 2.8 8.28 0 4-1.34 7.36-4.03 10.1zm-.07-15.4c-.72-1.6-1.56-2.67-2.52-3.2.14.3.2.7.2 1.22 0 1-.27 2.46-.85 4.33l-.94 2.88c0 1.7.84 2.6 2.52 2.6 1.78 0 2.67-1.2 2.67-3.5 0-1.2-.36-2.6-1.08-4.2zM51.64 139.28c0 .76-.3 1.44-.88 2.05-.58.6-1.26.9-2 .9-1.22 0-2.1-.56-2.68-1.7l-2.66-.1c-.57 0-1.7.24-3.35.73-1.78.5-2.8.88-3.06 1.2-.4.44-.7 1.5-1 3.16-.2 1.36-.3 2.37-.3 3 0 1.03.2 1.78.5 2.25.3.47 1 .87 2 1.2 1 .3 1.7.5 1.9.53.2 0 .4-.02.8-.06h.7c.5 0 1 .08 1.6.23.8.22 1.1.53 1 .9-.5-.07-1.4.04-2.8.35l1.6.8c0 .44-.6.67-1.9.67-.3 0-.8-.1-1.4-.3-.6-.2-.9-.2-1.1-.2h-.7c0 .3-.1.9-.3 1.7-.6-.1-1.4-.4-2.2-1.2-.9-.8-1.4-1.1-1.6-1.1-.2 0-.5.3-1 1-.4.7-.6 1.2-.6 1.4-.5-.3-.9-.8-1.2-1.5l-.5-1.5c-.4 0-1.1.8-2.1 2.4H28c-.1-.1-.4-.9-.88-2.4-1.2-.4-2.3-.6-3.3-.6-.5 0-1.26.1-2.28.3l-1.6-.1c.23-.3.9-.7 2-1.4 1.27-.7 2.25-1.1 2.93-1.1h.5c0 0 .4.1.5.1.3 0 .7-.2 1.3-.5.6-.3.9-.6 1-.8.1-.2.16-.8.16-1.8 0-2.2-.6-3.8-1.7-4.8-1-1-2.6-1.7-4.9-2.1-.6 2.2-2.3 3.2-5.1 3.2-.9 0-1.8-.6-2.7-1.7-.9-1.1-1.4-2.1-1.4-3 0-1.4.6-2.6 1.7-3.5-.92-1-1.4-2-1.4-3 0-1 .3-1.8.88-2.5.6-.7 1.4-1.1 2.3-1.3 0-1.2.3-2 1.2-2.5-.4-.4-.6-1.1-.6-2.2 0-1.2.4-2.3 1.3-3.1.9-.8 1.9-1.2 3.1-1.2 1.4 0 2.5.5 3.4 1.4 1.1-3.7 3.4-5.6 7.1-5.6 1.9 0 3.6.8 5 2.3.6.5.8.8.8.9-.4 0-.2-.1.7-.3.9-.2 1.6-.2 2-.2 1.5 0 2.8.5 3.9 1.6 1 1 1.7 2.2 2.1 3.7.3 0 .7.1 1.3.3.9.4 1.3 1.1 1.3 2.1 0 .2-.1.6-.4 1.1 2.4 1.4 3.6 3.3 3.6 5.7 0 .7-.3 1.7-.8 2.9 1 .5 1.5 1.4 1.5 2.5zm-23.37 2.5v-.74c0-.87-.42-1.66-1.27-2.38-.85-.72-1.7-1.07-2.58-1.07-1.06 0-2.04.2-2.95.7 2-.1 4.27 1 6.8 3.4zm-1.02-7.03c-.56-.65-1.06-1.3-1.47-2-1.6.43-2.38.9-2.38 1.43.45-.04 1.1.05 1.98.26.87.2 1.5.3 1.87.3zM30.7 133v-2.5c-.9-.16-1.44-.23-1.63-.23v.85zm7.4-1.6c-.47-.2-1.32-.56-2.57-1.13v4.87c1.78-1.02 2.63-2.26 2.56-3.74zm3.1 6.7l-1.24-1.53-2.3 1.6c-.78.56-1.45 1.17-2 1.85 1.7-.9 3.54-1.55 5.54-1.93z"/></g></svg>