<?xml version="1.0" encoding="UTF-8" standalone="no"?>
<svg
   xmlns:dc="http://purl.org/dc/elements/1.1/"
   xmlns:cc="http://creativecommons.org/ns#"
   xmlns:rdf="http://www.w3.org/1999/02/22-rdf-syntax-ns#"
   xmlns:svg="http://www.w3.org/2000/svg"
   xmlns="http://www.w3.org/2000/svg"
   xmlns:xlink="http://www.w3.org/1999/xlink"
   id="svg8"
   version="1.1"
   viewBox="0 0 26.458328 26.458332"
   height="26.458332mm"
   width="26.458332mm">
  <defs
     id="defs2">
    <linearGradient
       gradientUnits="userSpaceOnUse"
       xlink:href="#a"
       gradientTransform="matrix(1.4733394,0,0,1.5793349,-1202.8083,-227.62597)"
       y2="-43.950001"
       y1="-43.950001"
       x2="701.51001"
       x1="633.63"
       id="b" />
    <linearGradient
       id="a">
      <stop
         id="stop4"
         stop-color="red"
         offset="0" />
      <stop
         id="stop6"
         stop-color="#ff0"
         offset=".2" />
      <stop
         id="stop8"
         stop-color="#0f0"
         offset=".4" />
      <stop
         id="stop10"
         stop-color="#0ff"
         offset=".6" />
      <stop
         id="stop12"
         stop-color="#00f"
         offset=".8" />
      <stop
         id="stop14"
         stop-color="#f0f"
         offset="1" />
    </linearGradient>
  </defs>
  <metadata
     id="metadata5">
    <rdf:RDF>
      <cc:Work
         rdf:about="">
        <dc:format>image/svg+xml</dc:format>
        <dc:type
           rdf:resource="http://purl.org/dc/dcmitype/StillImage" />
        <dc:title></dc:title>
      </cc:Work>
    </rdf:RDF>
  </metadata>
  <g
     transform="translate(-92.613873,-112.05069)"
     id="layer1">
    <g
       id="g336"
       transform="matrix(0.26458333,0,0,0.26458333,342.64512,28.706941)">
      <circle
         style="fill:#cac5c0"
         id="circle332"
         r="50"
         cy="365"
         cx="-895" />
      <path
         style="fill:#0d0f0f"
         id="path334"
         d="m -859.67,373.92 h -36 l 13.18,-9.4 c -4.9,-3.87 -10.5,-5.8 -16.9,-5.8 -3.2,0 -5.4,0.6 -6.6,1.82 -1.2,1.23 -1.7,3.45 -1.7,6.66 0,8.87 4.6,18.34 13.7,28.4 l -10.4,10.5 c -12.1,-14.7 -18.1,-27.83 -18.1,-39.4 0,-6.94 2.1,-12.46 6.3,-16.55 4.2,-4.1 9.8,-6.15 16.7,-6.15 8.5,0 17.7,3.2 27.7,9.63 l 7.8,-13.18 z" />
    </g>
  </g>
</svg>
