<svg xmlns="http://www.w3.org/2000/svg" viewBox="0 0 26.5 26.5"><g transform="rotate(.643) scale(.2646)"><circle cx="50" cy="50" r="50" fill="#c9c4be"/><path fill="#0d0f0f" d="m 59.8,85.08 2.36,4.08 4.34,0.05 8.5,4.1 0.7,-9.4 2.13,-3.8 -2.35,-4 16.85,-1.6 -7.05,-15.4 h 4.7 L 92.2,55.41 100,50 92.2,44.68 90,40.95 h -4.72 l 7.05,-15.4 -16.85,-1.58 2.35,-4.08 -2.12,-3.8 -0.7,-9.4 -8.5,4.1 h -4.3 l -2.3,4.1 L 50,1.1 40.2,14.9 37.84,10.82 33.51,10.77 25,6.7 l -0.7,9.4 -2.13,3.8 2.35,4.07 -16.85,1.6 7.05,15.38 h -4.7 L 7.8,44.68 0,50 7.8,55.32 10,59.05 h 4.72 l -7.05,15.4 16.85,1.58 -2.35,4.08 2.12,3.8 0.7,9.4 8.5,-4.1 h 4.3 l 2.3,-4.1 L 50,98.9"/><path fill="#fff" d="m 65.1,84.26 3.5,2.02 3.52,-2.02 V 80.2 l -3.5,-2 -13.52,-25.26 28.6,-0.92 3.5,2.03 3.5,-2.03 V 47.98 L 87.2,45.95 83.7,47.98 55.08,47.06 68.6,21.8 l 3.52,-2 v -4.06 l -3.5,-2.02 -3.5,2.02 v 4.05 L 50,44.1 34.9,19.8 v -4.06 l -3.5,-2.02 -3.5,2.02 v 4.05 l 3.5,2 13.5,25.21 -28.6,0.92 -3.52,-2.03 -3.5,2 V 52 l 3.5,2.04 3.5,-2.03 28.62,1 -13.5,25.2 -3.5,2 -0.02,4.1 3.5,2 3.52,-2 v -4.1 L 50,55.9 65.1,80.2"/><path fill="#fff" d="M50 10.1L57.05 22.4 50 34.67 42.95 22.37M15.45 30.05l14.17.04 7.1 12.2-14.15-.1M15.45 69.95L22.57 57.7 36.73 57.66 29.63 69.91M50 89.9L42.95 77.6 50 65.33l7.05 12.3M84.55 69.95l-14.17-.04-7.1-12.2 14.15.1M84.55 30.05L77.45 42.3 63.27 42.34 70.4 30.1"/></g></svg>