<svg xmlns="http://www.w3.org/2000/svg" viewBox="0 0 26.5 26.5"><g transform="translate(55.563 27.78) scale(.26458)"><circle cx="-160" cy="-55" r="50" fill="#cac5c0"/><path fill="#0d0f0f" d="m -176.3,-85.85 v 49.3 c 0,5.9 2.44,8.82 7.3,8.82 h 1.14 v 3.33 h -26.18 v -3.33 h 1.8 c 4.92,0 7.4,-2.93 7.4,-8.8 v -32.33 c 0,-5.96 -2.13,-8.94 -6.4,-8.94 h -2.55 v -3.32 h 1.1 c 5.1,0 9.7,-1.58 13.8,-4.73 z m 32.72,61.83 h -8.95 v -1.02 c 0,-5.7 1.8,-12.9 5.37,-21.6 5.45,-12.94 10.48,-22.9 15.07,-29.88 l 0.6,-0.9 h -20.9 c -3,0 -5.4,0.64 -6.9,1.92 -1.5,1.27 -2.8,3.4 -3.6,6.38 h -3.4 l 3.9,-16.86 h 2.3 c 1.3,0.6 3.6,0.9 6.9,0.9 h 27.6 v 4.85 c -1,1.45 -2.3,3.75 -3.8,6.9 -3,5.8 -5.7,12.52 -8.2,20.18 -3.6,11.42 -5.5,21.13 -5.6,29.13 z"/></g></svg>