<svg xmlns="http://www.w3.org/2000/svg" viewBox="0 0 26.5 26.5">
  <g transform="translate(194.5 27.8) scale(.26458)">
    <circle cx="-685" cy="-55" r="50" fill="#cac5c0"/>
    <path d="M-699.4-85.8v49.2c0 5.9 2.5 8.8 7.3 8.8h1.3v3.5H-717v-3.5h1.5c5 0 7.4-2.9 7.4-8.8v-32.3c0-5.9-2-8.9-6-8.9h-2.7V-81h1c5.1 0 9.7-1.5 13.8-4.6z" fill="#0d0f0f"/>
    <path d="M-648.4-39.4l-4.5 15.2h-37.4v-3.3c1.8-2 5.7-6.2 11.9-12.3a247.6 247.6 0 0 0 15.2-16.9c2.1-3.2 3.2-6.4 3.2-9.7 0-3.2-1-6-3-8.5a9.5 9.5 0 0 0-7.8-3.7c-6.7 0-12 4.6-15.8 13.8l-3.3-1.3c4.6-12.8 11.7-19.2 21.4-19.2 4.8 0 8.9 1.6 12.3 4.8a16 16 0 0 1 5.1 12c0 6.3-3.5 12.3-10.6 18.2l-7.3 5.8A102.7 102.7 0 0 0-681.9-32h19.6c3 0 5.2-.6 6.6-1.7a15 15 0 0 0 4-6.1z" fill="#0d0f0f"/>
  </g>
</svg>
