<?xml version="1.0" encoding="UTF-8" standalone="no"?>
<svg
   xmlns:dc="http://purl.org/dc/elements/1.1/"
   xmlns:cc="http://creativecommons.org/ns#"
   xmlns:rdf="http://www.w3.org/1999/02/22-rdf-syntax-ns#"
   xmlns:svg="http://www.w3.org/2000/svg"
   xmlns="http://www.w3.org/2000/svg"
   xmlns:xlink="http://www.w3.org/1999/xlink"
   id="svg8"
   version="1.1"
   viewBox="0 0 26.458328 26.458332"
   height="26.458332mm"
   width="26.458332mm">
  <defs
     id="defs2">
    <linearGradient
       gradientUnits="userSpaceOnUse"
       xlink:href="#a"
       gradientTransform="matrix(1.4733394,0,0,1.5793349,-1202.8083,-227.62597)"
       y2="-43.950001"
       y1="-43.950001"
       x2="701.51001"
       x1="633.63"
       id="b" />
    <linearGradient
       id="a">
      <stop
         id="stop4"
         stop-color="red"
         offset="0" />
      <stop
         id="stop6"
         stop-color="#ff0"
         offset=".2" />
      <stop
         id="stop8"
         stop-color="#0f0"
         offset=".4" />
      <stop
         id="stop10"
         stop-color="#0ff"
         offset=".6" />
      <stop
         id="stop12"
         stop-color="#00f"
         offset=".8" />
      <stop
         id="stop14"
         stop-color="#f0f"
         offset="1" />
    </linearGradient>
  </defs>
  <metadata
     id="metadata5">
    <rdf:RDF>
      <cc:Work
         rdf:about="">
        <dc:format>image/svg+xml</dc:format>
        <dc:type
           rdf:resource="http://purl.org/dc/dcmitype/StillImage" />
        <dc:title></dc:title>
      </cc:Work>
    </rdf:RDF>
  </metadata>
  <g
     transform="translate(-86.466003,-112.65272)"
     id="layer1">
    <g
       id="g342"
       transform="matrix(0.26458333,0,0,0.26458333,308.716,29.308974)">
      <circle
         style="fill:#0d0f0f"
         id="circle338"
         r="50"
         cy="365"
         cx="-790" />
      <path
         style="fill:#ffffff"
         id="path340"
         d="m -761.05,339.28 -12.65,7.42 c 6.16,9.56 9.24,18.4 9.24,26.5 0,6.66 -1.97,11.98 -5.9,16 -3.94,4 -9.22,6.02 -15.87,6.02 -11.1,0 -23.72,-5.8 -37.82,-17.4 l 10.1,-9.97 c 9.65,8.76 18.72,13.13 27.24,13.13 3,0 5.2,-0.56 6.3,-1.7 1.2,-1.13 1.7,-3.24 1.7,-6.32 0,-6.16 -1.9,-11.6 -5.6,-16.3 l -9,12.65 v -34.5 z" />
    </g>
  </g>
</svg>
