<svg xmlns="http://www.w3.org/2000/svg" viewBox="0 0 26.5 26.5"><g transform="translate(222.25 -83.344) scale(.2646)"><circle cx="-790" cy="365" r="50" fill="#0d0f0f"/><path fill="#fff" d="m -761.05,339.28 -12.65,7.42 c 6.16,9.56 9.24,18.4 9.24,26.5 0,6.66 -1.97,11.98 -5.9,16 -3.94,4 -9.22,6.02 -15.87,6.02 -11.1,0 -23.72,-5.8 -37.82,-17.4 l 10.1,-9.97 c 9.65,8.76 18.72,13.13 27.24,13.13 3,0 5.2,-0.56 6.3,-1.7 1.2,-1.13 1.7,-3.24 1.7,-6.32 0,-6.16 -1.9,-11.6 -5.6,-16.3 l -9,12.65 v -34.5 z"/></g></svg>