<?xml version="1.0" encoding="UTF-8" standalone="no"?>
<svg
   xmlns:dc="http://purl.org/dc/elements/1.1/"
   xmlns:cc="http://creativecommons.org/ns#"
   xmlns:rdf="http://www.w3.org/1999/02/22-rdf-syntax-ns#"
   xmlns:svg="http://www.w3.org/2000/svg"
   xmlns="http://www.w3.org/2000/svg"
   xmlns:xlink="http://www.w3.org/1999/xlink"
   id="svg8"
   version="1.1"
   viewBox="0 0 26.458328 26.458332"
   height="26.458332mm"
   width="26.458332mm">
  <defs
     id="defs2">
    <linearGradient
       gradientUnits="userSpaceOnUse"
       xlink:href="#a"
       gradientTransform="matrix(1.4733394,0,0,1.5793349,-1202.8083,-227.62597)"
       y2="-43.950001"
       y1="-43.950001"
       x2="701.51001"
       x1="633.63"
       id="b" />
    <linearGradient
       id="a">
      <stop
         id="stop4"
         stop-color="red"
         offset="0" />
      <stop
         id="stop6"
         stop-color="#ff0"
         offset=".2" />
      <stop
         id="stop8"
         stop-color="#0f0"
         offset=".4" />
      <stop
         id="stop10"
         stop-color="#0ff"
         offset=".6" />
      <stop
         id="stop12"
         stop-color="#00f"
         offset=".8" />
      <stop
         id="stop14"
         stop-color="#f0f"
         offset="1" />
    </linearGradient>
  </defs>
  <metadata
     id="metadata5">
    <rdf:RDF>
      <cc:Work
         rdf:about="">
        <dc:format>image/svg+xml</dc:format>
        <dc:type
           rdf:resource="http://purl.org/dc/dcmitype/StillImage" />
        <dc:title></dc:title>
      </cc:Work>
    </rdf:RDF>
  </metadata>
  <g
     transform="translate(-108.27613,-115.89906)"
     id="layer1">
    <g
       id="g36"
       transform="matrix(0.26458333,0,0,0.26458333,302.74488,171.46156)">
      <circle
         style="fill:#cac5c0"
         id="circle32"
         r="50"
         cy="-160"
         cx="-685" />
      <path
         style="fill:#0d0f0f"
         id="path34"
         d="m -657.56,-139.9 -5.9,19.9 h -48.98 v -4.25 c 2.38,-2.66 7.6,-8 15.64,-16.06 4.85,-4.9 9.65,-10 14.4,-15.4 2.4,-2.7 4.22,-5 5.5,-6.9 2.83,-4.1 4.25,-8.3 4.25,-12.6 0,-4.2 -1.3,-7.9 -3.9,-11.1 -2.62,-3.2 -5.98,-4.8 -10.1,-4.8 -8.87,0 -15.82,6 -20.85,18 l -4.4,-1.7 c 5.95,-16.9 15.32,-25.3 28.13,-25.3 6.32,0 11.7,2.1 16.13,6.4 4.44,4.3 6.65,9.6 6.65,15.9 0,8 -4.6,15.9 -13.8,23.6 l -9.6,7.9 c -6.1,5.1 -11.2,9.9 -15.2,14.4 -0.3,0.3 -0.8,0.9 -1.6,1.9 h 25.5 c 4,0 6.9,-0.8 8.9,-2.4 1.8,-1.4 3.5,-4 5.1,-7.8 z" />
    </g>
  </g>
</svg>
