<svg xmlns="http://www.w3.org/2000/svg" viewBox="0 0 26.5 26.5"><g transform="translate(250.03 27.78) scale(.26458)"><circle cx="-895" cy="-55" r="50" fill="#cac5c0"/><path fill="#0d0f0f" d="m -909.7,-86.37 v 50.44 c 0,6 2.57,9 7.7,9 h 1.3 v 3.42 h -26.86 V -27 h 1.72 c 4.94,0 7.4,-3 7.4,-9 v -33 c 0,-6.1 -2.15,-9.13 -6.46,-9.13 h -2.66 v -3.43 h 1 c 5.25,0 9.98,-1.6 14.2,-4.8 z m 9.77,33.33 c 0,-7.86 1.64,-15.08 4.94,-21.67 4.2,-8.2 9.8,-12.3 17,-12.3 7,0 12.4,3.5 16.5,10.5 3.3,5.7 5,12.4 5,19.9 0,7.8 -1.6,15 -4.9,21.5 -4.3,8.1 -9.9,12.1 -17,12.1 -6.8,0 -12.2,-3.5 -16.3,-10.4 -3.4,-5.9 -5.2,-12.4 -5.2,-19.7 z m 9.12,-3.68 c 0,6.68 0.7,12.68 2.1,18 2.2,8.2 5.8,12.3 10.7,12.3 8.1,0 12.1,-8.45 12.1,-25.35 0,-20.87 -4.4,-31.3 -13.2,-31.3 -8,0 -11.9,8.1 -11.9,24.33 z"/></g></svg>