<svg xmlns="http://www.w3.org/2000/svg" viewBox="0 0 26.5 26.5"><g transform="translate(222.25 27.78) scale(.26458)"><circle cx="-790" cy="-55" r="50" fill="#cac5c0"/><path fill="#0d0f0f" d="m -800.17,-86.68 v 50.84 c 0,6.05 2.52,9.07 7.54,9.07 h 1.28 v 3.45 h -27.1 v -3.45 h 1.8 c 5.1,0 7.67,-3.02 7.67,-9.07 v -33.34 c 0,-6.13 -2.17,-9.2 -6.52,-9.2 h -2.68 v -3.44 h 1.02 c 5.28,0 10.05,-1.62 14.3,-4.86 z m 32.45,0 v 50.84 c 0,6.05 2.5,9.07 7.54,9.07 h 1.27 v 3.45 H -786 v -3.45 h 1.8 c 5.1,0 7.66,-3.02 7.66,-9.07 v -33.34 c 0,-6.13 -2.17,-9.2 -6.5,-9.2 h -2.7 v -3.44 h 1.03 c 5.2,0 10,-1.62 14.3,-4.86 z"/></g></svg>