<svg xmlns="http://www.w3.org/2000/svg" viewBox="0 0 26.5 26.5"><g transform="translate(166.688) scale(.2646)"><path fill="#c9c4be" d="m -530,50 c 0,27.6 -22.38,50 -50,50 -27.6,0 -50,-22.4 -50,-50 0,-27.6 22.4,-50 50,-50 27.62,0 50,22.4 50,50 z"/><path fill="#0d0f0f" d="m -555.64,80 h -53.76 v -2.7 l 42.63,-57.23 h -18.98 c -3.12,0.06 -5.52,0.4 -7.2,0.98 -1.68,0.6 -3.24,1.73 -4.67,3.4 -0.13,0.14 -0.24,0.26 -0.33,0.4 -0.1,0.1 -0.2,0.24 -0.33,0.36 -0.25,0.4 -0.48,0.7 -0.7,1 -0.22,0.3 -0.42,0.6 -0.6,0.9 -0.07,0.2 -0.16,0.4 -0.3,0.6 -0.1,0.2 -0.24,0.4 -0.36,0.6 -0.13,0.4 -0.28,0.8 -0.47,1.2 -0.2,0.4 -0.4,0.9 -0.7,1.5 l -3.4,-0.1 V 16.3 h 51 v 2.5 l -43,57.4 h 18.6 c 2.8,0.08 5,0 6.7,-0.17 1.6,-0.2 3.2,-0.6 4.6,-1.24 l 0.5,-0.2 0.4,-0.2 c 0.8,-0.5 1.7,-1 2.5,-1.5 0.8,-0.6 1.6,-1.2 2.4,-2 l 1.6,-1.8 c 0.6,-0.7 1.1,-1.4 1.8,-2.2 l 2.4,-3.5 h 3.5 l -4.2,16.5 z"/></g></svg>