<?xml version="1.0" encoding="UTF-8" standalone="no"?>
<svg
   xmlns:dc="http://purl.org/dc/elements/1.1/"
   xmlns:cc="http://creativecommons.org/ns#"
   xmlns:rdf="http://www.w3.org/1999/02/22-rdf-syntax-ns#"
   xmlns:svg="http://www.w3.org/2000/svg"
   xmlns="http://www.w3.org/2000/svg"
   xmlns:xlink="http://www.w3.org/1999/xlink"
   id="svg8"
   version="1.1"
   viewBox="0 0 26.458328 26.458332"
   height="26.458332mm"
   width="26.458332mm">
  <defs
     id="defs2">
    <linearGradient
       gradientUnits="userSpaceOnUse"
       xlink:href="#a"
       gradientTransform="matrix(1.4733394,0,0,1.5793349,-1202.8083,-227.62597)"
       y2="-43.950001"
       y1="-43.950001"
       x2="701.51001"
       x1="633.63"
       id="b" />
    <linearGradient
       id="a">
      <stop
         id="stop4"
         stop-color="red"
         offset="0" />
      <stop
         id="stop6"
         stop-color="#ff0"
         offset=".2" />
      <stop
         id="stop8"
         stop-color="#0f0"
         offset=".4" />
      <stop
         id="stop10"
         stop-color="#0ff"
         offset=".6" />
      <stop
         id="stop12"
         stop-color="#00f"
         offset=".8" />
      <stop
         id="stop14"
         stop-color="#f0f"
         offset="1" />
    </linearGradient>
  </defs>
  <metadata
     id="metadata5">
    <rdf:RDF>
      <cc:Work
         rdf:about="">
        <dc:format>image/svg+xml</dc:format>
        <dc:type
           rdf:resource="http://purl.org/dc/dcmitype/StillImage" />
        <dc:title></dc:title>
      </cc:Work>
    </rdf:RDF>
  </metadata>
  <g
     transform="translate(-92.28383,-109.37394)"
     id="layer1">
    <g
       id="g280"
       transform="matrix(0.26458333,0,0,0.26458333,92.28383,81.592688)">
      <path
         style="fill:#c1d7e9"
         id="path272"
         d="M 85.35,119.64 C 94.4,128.7 100,141.2 100,155 c 0,27.6 -22.4,50 -50,50 -13.8,0 -26.3,-5.6 -35.35,-14.65" />
      <path
         style="fill:#a3c095"
         id="path274"
         d="M 14.65,190.35 C 5.6,181.3 0,168.8 0,155 c 0,-27.62 22.4,-50 50,-50 13.8,0 26.3,5.6 35.35,14.64" />
      <path
         style="fill:#0d0f0f"
         id="path276"
         d="m 76.72,188.68 c -2.7,2.73 -6,4.1 -9.94,4.1 -4.43,0 -7.93,-1.5 -10.53,-4.54 -2.45,-2.88 -3.67,-6.55 -3.67,-11.02 0,-4.8 2.1,-10.3 6.27,-16.44 3.4,-5.05 7.42,-9.47 12.03,-13.26 -0.67,3.07 -1,5.26 -1,6.56 0,2.98 0.93,5.88 2.8,8.72 2.3,3.36 4.07,5.86 5.27,7.5 1.87,2.83 2.8,5.6 2.8,8.28 0,4 -1.34,7.36 -4.03,10.1 z m -0.07,-15.4 c -0.72,-1.6 -1.56,-2.67 -2.52,-3.2 0.14,0.3 0.2,0.7 0.2,1.22 0,1 -0.27,2.46 -0.85,4.33 l -0.94,2.88 c 0,1.7 0.84,2.6 2.52,2.6 1.78,0 2.67,-1.2 2.67,-3.5 0,-1.2 -0.36,-2.6 -1.08,-4.2 z" />
      <path
         style="fill:#0d0f0f"
         id="path278"
         d="m 51.64,139.28 c 0,0.76 -0.3,1.44 -0.88,2.05 -0.58,0.6 -1.26,0.9 -2,0.9 -1.22,0 -2.1,-0.56 -2.68,-1.7 l -2.66,-0.1 c -0.57,0 -1.7,0.24 -3.35,0.73 -1.78,0.5 -2.8,0.88 -3.06,1.2 -0.4,0.44 -0.7,1.5 -1,3.16 -0.2,1.36 -0.3,2.37 -0.3,3 0,1.03 0.2,1.78 0.5,2.25 0.3,0.47 1,0.87 2,1.2 1,0.3 1.7,0.5 1.9,0.53 0.2,0 0.4,-0.02 0.8,-0.06 h 0.7 c 0.5,0 1,0.08 1.6,0.23 0.8,0.22 1.1,0.53 1,0.9 -0.5,-0.07 -1.4,0.04 -2.8,0.35 l 1.6,0.8 c 0,0.44 -0.6,0.67 -1.9,0.67 -0.3,0 -0.8,-0.1 -1.4,-0.3 -0.6,-0.2 -0.9,-0.2 -1.1,-0.2 h -0.7 c 0,0.3 -0.1,0.9 -0.3,1.7 -0.6,-0.1 -1.4,-0.4 -2.2,-1.2 -0.9,-0.8 -1.4,-1.1 -1.6,-1.1 -0.2,0 -0.5,0.3 -1,1 -0.4,0.7 -0.6,1.2 -0.6,1.4 -0.5,-0.3 -0.9,-0.8 -1.2,-1.5 l -0.5,-1.5 c -0.4,0 -1.1,0.8 -2.1,2.4 H 28 c -0.1,-0.1 -0.4,-0.9 -0.88,-2.4 -1.2,-0.4 -2.3,-0.6 -3.3,-0.6 -0.5,0 -1.26,0.1 -2.28,0.3 l -1.6,-0.1 c 0.23,-0.3 0.9,-0.7 2,-1.4 1.27,-0.7 2.25,-1.1 2.93,-1.1 h 0.5 c 0,0 0.4,0.1 0.5,0.1 0.3,0 0.7,-0.2 1.3,-0.5 0.6,-0.3 0.9,-0.6 1,-0.8 0.1,-0.2 0.16,-0.8 0.16,-1.8 0,-2.2 -0.6,-3.8 -1.7,-4.8 -1,-1 -2.6,-1.7 -4.9,-2.1 -0.6,2.2 -2.3,3.2 -5.1,3.2 -0.9,0 -1.8,-0.6 -2.7,-1.7 -0.9,-1.1 -1.4,-2.1 -1.4,-3 0,-1.4 0.6,-2.6 1.7,-3.5 -0.92,-1 -1.4,-2 -1.4,-3 0,-1 0.3,-1.8 0.88,-2.5 0.6,-0.7 1.4,-1.1 2.3,-1.3 0,-1.2 0.3,-2 1.2,-2.5 -0.4,-0.4 -0.6,-1.1 -0.6,-2.2 0,-1.2 0.4,-2.3 1.3,-3.1 0.9,-0.8 1.9,-1.2 3.1,-1.2 1.4,0 2.5,0.5 3.4,1.4 1.1,-3.7 3.4,-5.6 7.1,-5.6 1.9,0 3.6,0.8 5,2.3 0.6,0.5 0.8,0.8 0.8,0.9 -0.4,0 -0.2,-0.1 0.7,-0.3 0.9,-0.2 1.6,-0.2 2,-0.2 1.5,0 2.8,0.5 3.9,1.6 1,1 1.7,2.2 2.1,3.7 0.3,0 0.7,0.1 1.3,0.3 0.9,0.4 1.3,1.1 1.3,2.1 0,0.2 -0.1,0.6 -0.4,1.1 2.4,1.4 3.6,3.3 3.6,5.7 0,0.7 -0.3,1.7 -0.8,2.9 1,0.5 1.5,1.4 1.5,2.5 z m -23.37,2.5 v -0.74 c 0,-0.87 -0.42,-1.66 -1.27,-2.38 -0.85,-0.72 -1.7,-1.07 -2.58,-1.07 -1.06,0 -2.04,0.2 -2.95,0.7 2,-0.1 4.27,1 6.8,3.4 z m -1.02,-7.03 c -0.56,-0.65 -1.06,-1.3 -1.47,-2 -1.6,0.43 -2.38,0.9 -2.38,1.43 0.45,-0.04 1.1,0.05 1.98,0.26 0.87,0.2 1.5,0.3 1.87,0.3 z M 30.7,133 v -2.5 c -0.9,-0.16 -1.44,-0.23 -1.63,-0.23 v 0.85 z m 7.4,-1.6 c -0.47,-0.2 -1.32,-0.56 -2.57,-1.13 v 4.87 c 1.78,-1.02 2.63,-2.26 2.56,-3.74 z m 3.1,6.7 -1.24,-1.53 -2.3,1.6 c -0.78,0.56 -1.45,1.17 -2,1.85 1.7,-0.9 3.54,-1.55 5.54,-1.93 z" />
    </g>
  </g>
</svg>
