<svg xmlns="http://www.w3.org/2000/svg" viewBox="0 0 26.5 26.5"><g transform="translate(194.47 -55.563) scale(.26458)"><path fill="#bab1ab" d="m -649.65,224.64 c 9.05,9.06 14.65,21.56 14.65,35.36 0,27.6 -22.4,50 -50,50 -13.8,0 -26.3,-5.6 -35.35,-14.65"/><path fill="#cac5c0" d="M -720.35,295.35 C -729.4,286.3 -735,273.8 -735,260 c 0,-27.62 22.4,-50 50,-50 13.8,0 26.3,5.6 35.35,14.64"/><path fill="#0d0f0f" d="M-691.35 251.6l-2.87 9.67h-23.82v-2.07c1.16-1.3 3.7-3.9 7.6-7.8 2.36-2.36 4.7-4.86 7-7.48 1.17-1.3 2.06-2.4 2.68-3.34 1.38-2 2.07-4.04 2.07-6.14 0-2.04-.6-3.84-1.9-5.4-1.2-1.56-2.9-2.34-4.9-2.34-4.3 0-7.7 2.92-10.1 8.75l-2.1-.8c2.9-8.2 7.5-12.28 13.7-12.28 3.1 0 5.7 1.04 7.9 3.13 2.2 2.1 3.3 4.67 3.3 7.74 0 3.92-2.2 7.74-6.7 11.48l-4.7 3.87c-3 2.4-5.4 4.8-7.4 7-.1.1-.4.4-.8.9h12.4c1.9 0 3.4-.4 4.4-1.2.9-.7 1.7-2 2.5-3.8zM-645.38 276c0 2.7-.98 4.53-2.95 5.52-.57.28-2.37.67-5.4 1.16-1.96.33-2.95 1.1-2.95 2.27v4.98c0 .2.07.84.2 1.9l.17 1.97c0 .6-.2 1.6-.5 3l-2.7.56c-.4-1.23-.5-2.07-.5-2.52 0-.2 0-.5.1-.92.1-.4.1-.72.1-.92 0-.3-.3-1.1-.8-2.4h-1c-.2.2-.2.47-.2.8.1.7.2 1.3.2 1.78-.7.5-1.7 1.15-2.9 1.97-.3-.1-.4-.13-.3-.13v-4.36c-.1-.2-.3-.28-.7-.24h-.7l-.8 5.77h-2.1c-.3-1.4-.8-3.4-1.5-6.1h-.5l-.8 2.3c0 .1 0 .4.1.9.1.5.1.8.1.9 0 .1-.1.4-.2.9l-.2 1.4c-.1.1-.2.1-.4.1-1.2 0-2-.3-2.4-.9-.4-.6-.6-1.4-.5-2.6l.5-7.4c0-.2 0-.3.1-.5.1-.2.1-.4.1-.5 0-.4-.4-1-1-2-.1-.1-.8-.2-1.9-.5-.7-.2-2.1-.5-4.1-.9-2.8-.5-4.3-2.8-4.3-6.8 0-6 2.4-11 7.3-14.9.2 1.1.6 2.5 1 4.4l2.4.5 3.7 1.4c-1.1-.7-2.6-1.8-4.5-3.4-.7-.8-1.1-2.2-1.1-4.1 0-.5.8-1 2.3-1.6 1.4-.6 2.4-.9 3.1-1 2.2-.3 3.9-.4 5.1-.4 5.1 0 9.2 1.3 12.4 3.9-1 1.2-2.8 2.5-5.3 3.8 1 .1 2.4-.3 4.3-1.1 1.9-.9 2.7-1.3 2.4-1.3.3 0 1 .6 2 2 .7.9 1.3 1.8 1.7 2.6 1.3 2.3 2.2 4.8 2.7 7.5v2zm-23.52 1.1c0-1.76-.76-3.43-2.3-5-1.53-1.58-3.18-2.37-4.94-2.37-1.56 0-2.93.66-4.1 1.98-1.2 1.4-1.8 2.8-1.8 4.4 0 1.4.68 2.3 2.03 2.8.8.3 2 .4 3.6.5h3.4c2.7.1 4.1-.7 4.1-2.1zm6.7 7.6v-1.9c-.3-.52-.58-1.08-.86-1.65-.25-.82-.7-1.96-1.35-3.44l-.7 7.2c0 .6-.1.9-.4.9-.2 0-.3 0-.4-.1-.3-4.3-.5-6.2-.5-5.6V278c-.1-.13-.2-.2-.3-.2-1.4 1.45-2.1 3.76-2.1 6.95 0 1.74.1 2.8.5 3.23.3-.07.7-.2 1.1-.42.1-.06.6-.1 1.4-.1.8 0 1.7.25 2.8.74.4 0 .6-1.1.6-3.3zm13.87-8.55c0-1.64-.6-3.1-1.84-4.4-1.23-1.3-2.64-1.96-4.23-1.96-1.72 0-3.33.7-4.82 2.3-1.5 1.6-2.25 3.2-2.25 4.9 0 1.4.7 2.1 2.1 2.1h7.05c2.66-.1 4-1.1 4-3.1z"/></g></svg>