<svg xmlns="http://www.w3.org/2000/svg" viewBox="0 0 26.5 26.5"><g transform="translate(83.344) scale(.26458)"><circle cx="-265" cy="50" r="50" fill="#bab1ab"/><path fill="#0d0f0f" d="m -224.3,48.62 c 0,5.52 -2,9.28 -6.02,11.3 -1.18,0.57 -4.86,1.36 -11.04,2.37 -4,0.6 -6.02,2.2 -6.02,4.6 v 10.2 c 0,0.4 0.12,1.7 0.37,3.8 l 0.3,4 c 0,1.2 -0.3,3.3 -0.9,6.1 l -5.6,1.1 c -0.7,-2.5 -1,-4.3 -1,-5.2 0,-0.4 0.1,-1.1 0.3,-1.9 0.2,-0.9 0.3,-1.5 0.3,-1.9 0,-0.6 -0.5,-2.2 -1.6,-4.9 h -1.9 c -0.3,0.4 -0.4,0.9 -0.3,1.6 0.3,1.4 0.5,2.6 0.4,3.6 -1.4,1 -3.4,2.3 -5.9,4 -0.6,-0.2 -0.8,-0.3 -0.7,-0.3 v -8.9 c -0.2,-0.5 -0.6,-0.6 -1.3,-0.5 h -1.5 l -1.5,11.7 h -4.3 c -0.6,-2.8 -1.7,-6.9 -3.2,-12.3 h -1 l -1.5,4.7 c 0,0.3 0.1,0.9 0.3,1.9 0.2,0.9 0.3,1.6 0.3,1.9 0,0.2 -0.1,0.8 -0.3,1.9 l -0.4,3 c -0.2,0.1 -0.4,0.2 -0.7,0.2 -2.5,0 -4.2,-0.7 -5.1,-1.9 -0.9,-1.3 -1.2,-3 -1,-5.3 l 1,-15.1 c 0,-0.3 0.1,-0.6 0.2,-1 0.1,-0.4 0.2,-0.7 0.2,-0.9 0,-0.7 -0.7,-2 -2.1,-4 -0.3,-0.1 -1.6,-0.4 -3.9,-0.9 l -8.4,-1.8 c -5.8,-1.1 -8.7,-5.7 -8.7,-13.9 0,-12.2 5,-22.4 15.1,-30.5 0.4,2.2 1.1,5.2 2.1,9 0.8,0.1 2.4,0.5 4.9,1.1 l 7.7,3 c -2.4,-1.4 -5.4,-3.7 -9.2,-6.9 -1.4,-1.7 -2.1,-4.5 -2.1,-8.4 0,-0.9 1.6,-2 4.8,-3.3 2.8,-1.2 4.9,-1.8 6.4,-2 4.5,-0.6 7.9,-0.9 10.4,-0.9 10.4,0 18.9,2.7 25.3,8 -2.1,2.4 -5.7,5 -10.8,7.8 2,0 4.9,-0.7 8.8,-2.4 3.8,-1.7 5.4,-2.5 4.9,-2.5 0.6,0 2,1.3 4,4 1.5,2 2.7,3.8 3.6,5.4 2.6,4.7 4.4,9.9 5.4,15.4 0,1.9 0,3.3 0.1,4.1 v 1 z m -48.04,2.26 c 0,-3.6 -1.56,-7 -4.7,-10.23 -3.14,-3.2 -6.5,-4.82 -10.1,-4.82 -3.17,0 -5.97,1.35 -8.4,4.04 -2.42,2.7 -3.63,5.68 -3.63,8.96 0,2.86 1.38,4.7 4.14,5.55 1.75,0.5 4.2,0.8 7.4,0.9 h 6.9 c 5.6,0.07 8.4,-1.4 8.4,-4.4 z m 13.67,15.55 v -3.9 c -0.58,-1.07 -1.17,-2.2 -1.75,-3.38 -0.5,-1.67 -1.42,-4 -2.76,-7.02 l -1.38,14.67 c 0,1.18 -0.25,1.76 -0.75,1.76 -0.4,0 -0.6,-0.08 -0.8,-0.25 -0.6,-8.8 -0.9,-12.7 -0.9,-11.5 v -4.4 c -0.2,-0.2 -0.4,-0.3 -0.6,-0.3 -2.9,3 -4.3,7.7 -4.3,14.2 0,3.6 0.3,5.8 1,6.7 0.7,-0.1 1.4,-0.4 2.2,-0.8 0.3,-0.1 1.3,-0.2 2.9,-0.2 1.6,0 3.5,0.5 5.7,1.5 0.8,0 1.2,-2.2 1.2,-6.7 z m 28.35,-17.48 c 0,-3.36 -1.26,-6.37 -3.77,-9.02 -2.5,-2.65 -5.3,-3.97 -8.6,-3.97 -3.5,0 -6.8,1.6 -9.8,4.82 -3,3.22 -4.6,6.6 -4.6,10.1 0,2.93 1.4,4.4 4.3,4.4 h 14.5 c 5.5,-0.1 8.2,-2.2 8.2,-6.32 z"/></g></svg>