<svg xmlns="http://www.w3.org/2000/svg" viewBox="0 0 26.5 26.5"><g transform="translate(194.47 27.78) scale(.26458)"><circle cx="-685" cy="-55" r="50" fill="#cac5c0"/><path fill="#0d0f0f" d="m -699.37,-85.78 v 49.18 c 0,5.87 2.43,8.8 7.28,8.8 h 1.3 v 3.46 H -717 v -3.45 h 1.53 c 4.94,0 7.4,-2.9 7.4,-8.8 v -32.3 c 0,-5.9 -2.03,-8.9 -6.12,-8.9 h -2.6 v -3.3 h 1 c 5.1,0 9.7,-1.5 13.8,-4.6 z m 50.97,46.36 -4.48,15.2 h -37.42 v -3.32 c 1.8,-2.04 5.74,-6.13 11.88,-12.26 3.66,-3.66 7.32,-7.58 10.98,-11.75 1.8,-2.05 3.2,-3.75 4.22,-5.1 2.13,-3.25 3.2,-6.48 3.2,-9.72 0,-3.23 -1,-6.1 -2.95,-8.56 -1.96,-2.47 -4.56,-3.7 -7.8,-3.7 -6.72,0 -12,4.6 -15.83,13.8 l -3.32,-1.28 c 4.6,-12.8 11.75,-19.2 21.46,-19.2 4.77,0 8.86,1.6 12.26,4.8 3.4,3.2 5.1,7.3 5.1,12.1 0,6.2 -3.52,12.2 -10.6,18.1 l -7.27,5.8 c -4.7,3.9 -8.56,7.6 -11.63,11.1 -0.25,0.2 -0.68,0.7 -1.27,1.4 h 19.54 c 2.98,0 5.2,-0.6 6.65,-1.7 1.44,-1.2 2.76,-3.2 3.95,-6.1 z"/></g></svg>