<?xml version="1.0" encoding="UTF-8" standalone="no"?>
<svg
   xmlns:dc="http://purl.org/dc/elements/1.1/"
   xmlns:cc="http://creativecommons.org/ns#"
   xmlns:rdf="http://www.w3.org/1999/02/22-rdf-syntax-ns#"
   xmlns:svg="http://www.w3.org/2000/svg"
   xmlns="http://www.w3.org/2000/svg"
   xmlns:xlink="http://www.w3.org/1999/xlink"
   id="svg8"
   version="1.1"
   viewBox="0 0 26.458332 26.458332"
   height="26.458332mm"
   width="26.458332mm">
  <defs
     id="defs2">
    <linearGradient
       gradientUnits="userSpaceOnUse"
       xlink:href="#a"
       gradientTransform="matrix(1.4733394,0,0,1.5793349,-1202.8083,-227.62597)"
       y2="-43.950001"
       y1="-43.950001"
       x2="701.51001"
       x1="633.63"
       id="b" />
    <linearGradient
       id="a">
      <stop
         id="stop4"
         stop-color="red"
         offset="0" />
      <stop
         id="stop6"
         stop-color="#ff0"
         offset=".2" />
      <stop
         id="stop8"
         stop-color="#0f0"
         offset=".4" />
      <stop
         id="stop10"
         stop-color="#0ff"
         offset=".6" />
      <stop
         id="stop12"
         stop-color="#00f"
         offset=".8" />
      <stop
         id="stop14"
         stop-color="#f0f"
         offset="1" />
    </linearGradient>
  </defs>
  <metadata
     id="metadata5">
    <rdf:RDF>
      <cc:Work
         rdf:about="">
        <dc:format>image/svg+xml</dc:format>
        <dc:type
           rdf:resource="http://purl.org/dc/dcmitype/StillImage" />
        <dc:title></dc:title>
      </cc:Work>
    </rdf:RDF>
  </metadata>
  <g
     transform="translate(-192.06411,-33.889586)"
     id="layer1">
    <g
       id="g482"
       transform="matrix(0.26458333,0,0,0.26458333,358.75161,33.889586)">
      <path
         style="fill:#c9c4be"
         id="path478"
         d="m -530,50 c 0,27.6 -22.38,50 -50,50 -27.6,0 -50,-22.4 -50,-50 0,-27.6 22.4,-50 50,-50 27.62,0 50,22.4 50,50 z" />
      <path
         style="fill:#0d0f0f"
         id="path480"
         d="m -555.64,80 h -53.76 v -2.7 l 42.63,-57.23 h -18.98 c -3.12,0.06 -5.52,0.4 -7.2,0.98 -1.68,0.6 -3.24,1.73 -4.67,3.4 -0.13,0.14 -0.24,0.26 -0.33,0.4 -0.1,0.1 -0.2,0.24 -0.33,0.36 -0.25,0.4 -0.48,0.7 -0.7,1 -0.22,0.3 -0.42,0.6 -0.6,0.9 -0.07,0.2 -0.16,0.4 -0.3,0.6 -0.1,0.2 -0.24,0.4 -0.36,0.6 -0.13,0.4 -0.28,0.8 -0.47,1.2 -0.2,0.4 -0.4,0.9 -0.7,1.5 l -3.4,-0.1 V 16.3 h 51 v 2.5 l -43,57.4 h 18.6 c 2.8,0.08 5,0 6.7,-0.17 1.6,-0.2 3.2,-0.6 4.6,-1.24 l 0.5,-0.2 0.4,-0.2 c 0.8,-0.5 1.7,-1 2.5,-1.5 0.8,-0.6 1.6,-1.2 2.4,-2 l 1.6,-1.8 c 0.6,-0.7 1.1,-1.4 1.8,-2.2 l 2.4,-3.5 h 3.5 l -4.2,16.5 z" />
    </g>
  </g>
</svg>
