<svg xmlns="http://www.w3.org/2000/svg" viewBox="0 0 26.5 26.5">
  <g transform="translate(0 27.8) scale(.26458)">
    <circle cx="50" cy="-55" r="50" fill="#cac5c0"/>
    <path d="M37.2-86.4v50.2c0 6 2.5 9 7.5 9H46v3.4H19v-3.5h2c5 0 7.6-3 7.6-9v-32.9c0-6-2.2-9-6.4-9h-2.7v-3.5h1c5.2 0 10-1.6 14.2-4.7z" fill="#0d0f0f"/>
    <path d="M66.2-86.3a17 17 0 0 0-14 7.3c-3.3 4.5-5 9.6-5 15.3 0 5.3 1.5 9.8 4.3 13.4 3.1 4.2 7.3 6.3 12.4 6.3 4.6 0 9.3-2.2 14-6.6C76.2-38.6 70.3-31 60-28c-1.7.6-4.2.9-7.2 1v3.4c10-.1 18.2-3.6 24.8-10.4a35.1 35.1 0 0 0 10-25.4c0-7-2-13-5.6-18.2a18.3 18.3 0 0 0-16-8.7zm.2 4c4.2 0 7.4 2.7 9.7 8a35 35 0 0 1 2.5 17.4l.2.2c-3.3 5.3-7.3 8-11.9 8-3.9 0-6.7-2-8.5-6.3a27.8 27.8 0 0 1-2-11.3c0-4 .6-7.5 2-10.5 1.7-3.6 4.4-5.5 8-5.5z" fill="#0d0f0f"/>
  </g>
</svg>
