<?xml version="1.0" encoding="UTF-8" standalone="no"?>
<svg
   xmlns:dc="http://purl.org/dc/elements/1.1/"
   xmlns:cc="http://creativecommons.org/ns#"
   xmlns:rdf="http://www.w3.org/1999/02/22-rdf-syntax-ns#"
   xmlns:svg="http://www.w3.org/2000/svg"
   xmlns="http://www.w3.org/2000/svg"
   xmlns:xlink="http://www.w3.org/1999/xlink"
   id="svg8"
   version="1.1"
   viewBox="0 0 26.458332 26.458332"
   height="26.458332mm"
   width="26.458332mm">
  <defs
     id="defs2">
    <linearGradient
       gradientUnits="userSpaceOnUse"
       xlink:href="#a"
       gradientTransform="matrix(1.4733394,0,0,1.5793349,-1202.8083,-227.62597)"
       y2="-43.950001"
       y1="-43.950001"
       x2="701.51001"
       x1="633.63"
       id="b" />
    <linearGradient
       id="a">
      <stop
         id="stop4"
         stop-color="red"
         offset="0" />
      <stop
         id="stop6"
         stop-color="#ff0"
         offset=".2" />
      <stop
         id="stop8"
         stop-color="#0f0"
         offset=".4" />
      <stop
         id="stop10"
         stop-color="#0ff"
         offset=".6" />
      <stop
         id="stop12"
         stop-color="#00f"
         offset=".8" />
      <stop
         id="stop14"
         stop-color="#f0f"
         offset="1" />
    </linearGradient>
  </defs>
  <metadata
     id="metadata5">
    <rdf:RDF>
      <cc:Work
         rdf:about="">
        <dc:format>image/svg+xml</dc:format>
        <dc:type
           rdf:resource="http://purl.org/dc/dcmitype/StillImage" />
        <dc:title></dc:title>
      </cc:Work>
    </rdf:RDF>
  </metadata>
  <g
     transform="translate(-240.82304,-41.071135)"
     id="layer1">
    <g
       transform="matrix(0.26458333,0,0,0.26458333,240.82304,41.071135)"
       id="g502">
      <circle
         style="fill:#c9c4be"
         id="circle484"
         r="50"
         cy="50"
         cx="50" />
      <path
         style="fill:#0d0f0f"
         id="path486"
         d="m 59.8,85.08 2.36,4.08 4.34,0.05 8.5,4.1 0.7,-9.4 2.13,-3.8 -2.35,-4 16.85,-1.6 -7.05,-15.4 h 4.7 L 92.2,55.41 100,50 92.2,44.68 90,40.95 h -4.72 l 7.05,-15.4 -16.85,-1.58 2.35,-4.08 -2.12,-3.8 -0.7,-9.4 -8.5,4.1 h -4.3 l -2.3,4.1 L 50,1.1 40.2,14.9 37.84,10.82 33.51,10.77 25,6.7 l -0.7,9.4 -2.13,3.8 2.35,4.07 -16.85,1.6 7.05,15.38 h -4.7 L 7.8,44.68 0,50 7.8,55.32 10,59.05 h 4.72 l -7.05,15.4 16.85,1.58 -2.35,4.08 2.12,3.8 0.7,9.4 8.5,-4.1 h 4.3 l 2.3,-4.1 L 50,98.9" />
      <path
         style="fill:#ffffff"
         id="path488"
         d="m 65.1,84.26 3.5,2.02 3.52,-2.02 V 80.2 l -3.5,-2 -13.52,-25.26 28.6,-0.92 3.5,2.03 3.5,-2.03 V 47.98 L 87.2,45.95 83.7,47.98 55.08,47.06 68.6,21.8 l 3.52,-2 v -4.06 l -3.5,-2.02 -3.5,2.02 v 4.05 L 50,44.1 34.9,19.8 v -4.06 l -3.5,-2.02 -3.5,2.02 v 4.05 l 3.5,2 13.5,25.21 -28.6,0.92 -3.52,-2.03 -3.5,2 V 52 l 3.5,2.04 3.5,-2.03 28.62,1 -13.5,25.2 -3.5,2 -0.02,4.1 3.5,2 3.52,-2 v -4.1 L 50,55.9 65.1,80.2" />
      <path
         style="fill:#ffffff"
         id="path490"
         d="M 50,10.1 57.05,22.4 50,34.67 42.95,22.37" />
      <path
         style="fill:#ffffff"
         id="path492"
         d="m 15.45,30.05 14.17,0.04 7.1,12.2 -14.15,-0.1" />
      <path
         style="fill:#ffffff"
         id="path494"
         d="M 15.45,69.95 22.57,57.7 36.73,57.66 29.63,69.91" />
      <path
         style="fill:#ffffff"
         id="path496"
         d="M 50,89.9 42.95,77.6 50,65.33 l 7.05,12.3" />
      <path
         style="fill:#ffffff"
         id="path498"
         d="m 84.55,69.95 -14.17,-0.04 -7.1,-12.2 14.15,0.1" />
      <path
         style="fill:#ffffff"
         id="path500"
         d="M 84.55,30.05 77.45,42.3 63.27,42.34 70.4,30.1" />
    </g>
  </g>
</svg>
