<svg xmlns="http://www.w3.org/2000/svg" viewBox="0 0 26.5 26.5"><g transform="translate(0 -55.562) scale(.2646)"><path fill="#a3c095" d="m 100,260 c 0,27.6 -22.4,50 -50,50 -27.6,0 -50,-22.4 -50,-50 0,-27.62 22.4,-50 50,-50 27.6,0 50,22.38 50,50 z"/><path fill="#111212" d="m 77.56,259.93 c 0.06,-5.35 -1.64,-10.74 -4.96,-14.93 -1.6,-1.77 -2.93,-3.8 -4.64,-5.46 -3.75,-3.73 -9.37,-3.98 -13.9,-6.32 -0.26,-2.36 -1.12,-4.72 -0.6,-7.1 0.16,-0.8 0.4,-1.6 -0.03,-2.35 -1.18,-2.73 -0.16,-5.7 -0.37,-8.54 -0.16,-1.5 -0.06,-3.3 -1.48,-4.23 -0.33,3.1 -1.47,5.98 -2.4,8.92 -0.42,2.3 -0.42,4.67 -1.4,6.83 0.62,2.2 -0.62,4.03 -1.96,5.65 -2.97,1.52 -6.5,1.88 -9.08,4.1 -1.84,1.57 -3.82,2.94 -5.88,4.2 -1.55,1.94 -3.26,3.8 -3.95,6.25 -2.7,3.34 -3,7.8 -4.6,11.72 0,5.8 1.2,12.04 4.9,16.7 2.7,2.18 4.5,5.12 7.2,7.3 2.6,1.52 5.3,2.77 7.9,4.13 1.7,0.4 3.5,0.6 5.2,1.06 1.4,7.1 2.4,14.4 5.1,21.14 1,-2.77 0.8,-5.74 1.6,-8.53 1.2,-4.14 -1.1,-8.45 0.2,-12.5 1.9,-1.74 5.2,-0.6 7.3,-2.1 4.1,-2.52 8.4,-4.98 11.4,-8.84 1.1,-2.22 3.4,-3.88 3.4,-6.54 0,-3.6 2.1,-7 1.3,-10.6 z M 47.2,281.86 c -2.98,-0.73 -5.74,-2.14 -8.23,-3.88 -2.67,-1.78 -3.67,-5.1 -6.3,-6.93 -2.48,-2.95 -1.95,-6.98 -2.96,-10.48 0.5,-2.43 0.9,-4.85 1.2,-7.32 1.2,-1.96 3.1,-3.52 3.6,-5.87 1.8,-2.53 4.5,-4.28 6.6,-6.48 1.6,-1.8 4.1,-1.05 6.2,-1.12 -0.2,2 -0.3,4.07 0.2,6.04 0.3,1.2 0.8,2.4 0.6,3.68 -0.4,2.7 0.6,5.4 -0.1,8.07 -1.4,5.58 0.1,11.2 0.3,16.83 -0.2,2.5 -0.3,5 -0.9,7.46 z m 22.46,-10.57 c -1.96,1.3 -3.63,3.1 -5.35,4.7 -2.9,2 -5.9,4.2 -9.4,5.2 0.3,-2.6 0.7,-5.2 -0.2,-7.6 -2,-5.6 0.5,-11.5 0.9,-17.1 -0.3,-3.4 0,-7 -1.5,-10.1 -0.2,-2.3 0.8,-4.6 1.5,-6.8 2.4,0.9 4.6,2.2 6.5,3.8 2.4,1.7 6,2.9 6.5,6.2 0.3,2.1 2.6,3.4 2.6,5.7 -0.1,5.2 0.6,10.7 -1.3,15.8 z"/></g></svg>