<svg xmlns="http://www.w3.org/2000/svg" viewBox="0 0 134.4 26.5"><g transform="translate(250.03 -111.125) scale(.26458)"><path fill="#cac5c0" d="m -487,420 h -408 c -27.6,0 -50,22.4 -50,50 0,27.6 22.4,50 50,50 h 408 c 27.6,0 50,-22.4 50,-50 0,-27.62 -22.4,-50 -50,-50 z"/><path fill="#0d0f0f" d="M-860.86 505.53v-2.62c6.9-.7 10.33-3.2 10.33-7.5 0-2.5-.97-3.9-2.92-4h-.97c-2.8-.2-4.2-1.5-4.2-4.1 0-1.4.44-2.5 1.32-3.4.87-.8 2.03-1.2 3.48-1.2 2.44 0 4.37 1.3 5.76 3.7 1.2 2.1 1.8 4.4 1.8 7.1 0 4.2-1.45 7.3-4.34 9.5-2.55 1.9-5.97 2.9-10.26 3zM-658.4 505.53v-2.62c6.9-.7 10.34-3.2 10.34-7.5 0-2.5-.97-3.9-2.92-4h-.97c-2.8-.2-4.2-1.5-4.2-4.1 0-1.4.45-2.5 1.32-3.4.88-.8 2.04-1.2 3.48-1.2 2.45 0 4.37 1.3 5.77 3.7 1.2 2.1 1.8 4.4 1.8 7.1 0 4.2-1.45 7.3-4.35 9.5-2.54 1.9-5.96 2.9-10.25 3zM-514.47 470.37c0-9.55 2.02-18.35 6.08-26.4 5.1-9.97 11.9-14.97 20.7-14.97 8.7 0 15.4 4.25 20.3 12.73 4.1 7 6.1 15.15 6.1 24.43 0 9.64-2 18.34-6 26.14-4.9 9.8-11.8 14.7-20.6 14.7-8.3 0-15-4.2-19.9-12.6-4.3-7.18-6.4-15.2-6.4-24.03zm11.1-4.34c0 12.6 1.9 22.4 5.7 29.42 2.63 4.9 6.02 7.35 10.17 7.35 9.95 0 14.93-10.24 14.93-30.73 0-9-.8-16.63-2.37-22.85-2.73-10.24-7.36-15.36-13.9-15.36-9.68 0-14.53 9.9-14.53 29.68zM-575.47 470.37c0-9.55 2.02-18.35 6.08-26.4 5.1-9.97 11.9-14.97 20.7-14.97 8.7 0 15.4 4.25 20.3 12.73 4.1 7 6.1 15.15 6.1 24.43 0 9.64-2 18.34-6 26.14-4.9 9.8-11.8 14.7-20.6 14.7-8.3 0-15-4.2-19.9-12.6-4.3-7.18-6.4-15.2-6.4-24.03zm11.1-4.34c0 12.6 1.9 22.4 5.7 29.42 2.63 4.9 6.02 7.35 10.16 7.35 9.9 0 14.9-10.24 14.9-30.73 0-9-.8-16.63-2.4-22.85-2.8-10.24-7.4-15.36-13.9-15.36-9.7 0-14.6 9.9-14.6 29.68zM-636.8 470.37c0-9.55 2.04-18.35 6.1-26.4 5-9.97 11.9-14.97 20.6-14.97 8.63 0 15.38 4.25 20.22 12.73 4.05 7 6.08 15.15 6.08 24.43 0 9.64-2.03 18.34-6.08 26.14-4.94 9.8-11.8 14.7-20.62 14.7-8.37 0-15.03-4.2-19.96-12.6-4.23-7.18-6.35-15.2-6.35-24.03zm11.1-4.34c0 12.6 1.9 22.4 5.7 29.42 2.65 4.9 6.04 7.35 10.18 7.35 9.96 0 14.94-10.24 14.94-30.73 0-9-.8-16.63-2.38-22.85-2.73-10.24-7.35-15.36-13.88-15.36-9.7 0-14.55 9.9-14.55 29.68zM-718.14 470.37c0-9.55 2.03-18.35 6.08-26.4 5.02-9.98 11.9-14.97 20.63-14.97 8.63 0 15.37 4.25 20.22 12.73 4 7 6 15.15 6 24.43 0 9.64-2.1 18.34-6.1 26.14-5 9.8-11.8 14.7-20.7 14.7-8.4 0-15.1-4.2-20-12.6-4.2-7.18-6.4-15.2-6.4-24.03zm11.1-4.34c0 12.6 1.9 22.4 5.7 29.42 2.64 4.9 6.03 7.35 10.17 7.35 9.96 0 14.94-10.24 14.94-30.73 0-9-.8-16.63-2.38-22.85-2.8-10.24-7.4-15.36-13.9-15.36-9.7 0-14.6 9.9-14.6 29.68zM-779.14 470.37c0-9.55 2.03-18.35 6.08-26.4 5.02-9.98 11.9-14.97 20.63-14.97 8.63 0 15.37 4.25 20.22 12.73 4 7 6 15.15 6 24.43 0 9.64-2.1 18.34-6.1 26.14-5 9.8-11.8 14.7-20.7 14.7-8.4 0-15.1-4.2-20-12.6-4.3-7.18-6.4-15.2-6.4-24.03zm11.1-4.34c0 12.6 1.9 22.4 5.7 29.42 2.63 4.9 6.02 7.35 10.17 7.35 9.96 0 14.94-10.24 14.94-30.73 0-9-.8-16.63-2.38-22.85-2.8-10.24-7.4-15.36-13.9-15.36-9.7 0-14.6 9.9-14.6 29.68zM-840.45 470.37c0-9.55 2.02-18.35 6.08-26.4 5.02-9.98 11.9-14.97 20.62-14.97 8.64 0 15.38 4.25 20.23 12.73 4.05 7 6.08 15.15 6.08 24.43 0 9.64-2.03 18.34-6.08 26.14-4.94 9.8-11.82 14.7-20.63 14.7-8.37 0-15.02-4.2-19.96-12.6-4.3-7.18-6.4-15.2-6.4-24.03zm11.1-4.34c0 12.6 1.9 22.4 5.7 29.42 2.63 4.9 6.02 7.35 10.16 7.35 10 0 15-10.24 15-30.73 0-9-.8-16.63-2.3-22.85-2.7-10.24-7.3-15.36-13.9-15.36-9.7 0-14.5 9.9-14.5 29.68zM-883.2 429v62.5c0 7.5 3.22 11.22 9.68 11.22h1.68V507h-34.1v-4.28h2.14c6.24 0 9.36-3.73 9.36-11.2V450.5c0-7.56-2.7-11.35-8.08-11.35h-3.43V435h1.24c6.6 0 12.6-2 18-6h3.4z"/></g></svg>