<svg xmlns="http://www.w3.org/2000/svg" viewBox="0 0 26.5 26.5">
  <g transform="translate(83.3 27.8) scale(.26458)">
    <circle cx="-265" cy="-55" r="50" fill="#cac5c0"/>
    <path d="M-280.7-86.7v50.9c0 6 2.5 9 7.5 9h1.3v3.5h-27v-3.5h1.7c5.1 0 7.7-3 7.7-9v-33.4c0-6.1-2.2-9.2-6.5-9.2h-2.7v-3.4h1a23 23 0 0 0 14.3-4.9z" fill="#0d0f0f"/>
    <path d="M-235.6-86.6A34 34 0 0 0-264.2-71a37 37 0 0 0-6.1 20.6c0 7 1.8 13 5.3 18.1a19 19 0 0 0 16.1 8.7c5.6 0 10.3-2.4 14-7.3a24 24 0 0 0 5.2-15.2 22 22 0 0 0-4.3-13.6 15 15 0 0 0-12.4-6.2c-4.8 0-9.5 2.3-14.2 6.7h-.2c.7-5.1 2.3-9.5 4.6-13a24.4 24.4 0 0 1 20.6-11zM-249.2-61c3.8 0 6.7 2.1 8.5 6.4 1.3 3.1 2 6.9 2 11.2 0 4.2-.8 7.7-2.1 10.6-2 3.8-4.7 5.6-8.3 5.6-4.3 0-7.5-2.7-9.7-8.2a35.7 35.7 0 0 1-2.5-17.5h.1c3.3-5.4 7.3-8.1 12-8.1z" fill="#0d0f0f"/>
  </g>
</svg>
