<svg xmlns="http://www.w3.org/2000/svg" viewBox="0 0 13.3 26.5"><g transform="translate(30.218 -111.125) scale(.2646)"><path fill="#f8f6d8" d="m -114,420 v 100 c 27.6,0 50,-22.4 50,-50 0,-27.62 -22.4,-50 -50,-50 z"/><path fill="#0d0f0f" d="m -96,469.75 c 0,-4.8 -1.8,-8.96 -5.36,-12.5 -3.52,-3.47 -7.66,-5.22 -12.43,-5.28 v 35.56 c 5.1,-0.06 9.3,-1.73 12.7,-5.04 3.5,-3.4 5.2,-7.7 5.2,-12.8 z"/><path fill="#0d0f0f" d="m -73.55,466.34 c -2.85,-4.2 -5.42,-6.3 -7.7,-6.3 -1.84,0 -3.2,0.87 -4.03,2.64 -0.84,1.77 -1.77,2.65 -2.77,2.65 -1.44,0 -2.57,-0.5 -3.4,-1.52 -0.35,-0.3 -1.02,-1.4 -2.03,-3.2 l 4.3,-3 c 1.5,-1 2.26,-2.1 2.26,-3.2 0,-0.7 -0.2,-1.7 -0.63,-3.1 -0.42,-1.4 -0.63,-2.4 -0.63,-3 0,-1.2 1.68,-2.4 5.05,-3.4 l 8.32,-2.2 c -8.5,-1.5 -14.1,-2.3 -16.8,-2.3 -4.3,0 -6.6,0.6 -7,1.8 -0.1,0.2 0,0.9 0.2,2.3 0.2,1.4 0.3,2.2 0.3,2.4 0,2.5 -1.2,3.8 -3.7,3.8 -1.2,0 -2.9,-0.8 -5.2,-2.4 1,-3.3 1.1,-6 0.2,-7.9 -0.3,-0.7 -1.3,-1.8 -3.1,-3.4 -1.4,-1.3 -2.1,-2.6 -2.1,-3.8 0,-2.2 1.8,-5.8 5.4,-10.7 -1.2,0.5 -3.7,2.2 -7.5,5 V 450 c 5.3,0.05 9.9,2 13.7,5.9 3.9,3.96 5.9,8.63 5.9,14 0.1,5.73 -1.8,10.46 -5.6,14.2 -3.8,3.7 -8.5,5.55 -14.1,5.6 v 22.65 c 6.2,-4.5 9.3,-7.85 9.3,-10.05 0,-0.43 -0.8,-1.14 -2.4,-2.15 -1.6,-1 -2.3,-2.35 -2.3,-4.03 0,-3.4 1.9,-5.36 5.8,-5.95 1.9,4.47 4.1,6.7 6.5,6.7 0.5,0 1.3,-0.26 2.3,-0.76 1,-0.5 1.7,-0.7 2.1,-0.7 2.4,0 4.7,4.3 6.9,12.9 1.7,-7.5 2.5,-13 2.5,-16.6 0,-3.8 -0.5,-5.7 -1.6,-5.7 -0.4,0 -1.1,0.1 -2.1,0.4 -1,0.3 -1.8,0.4 -2.4,0.4 -1,0 -2.1,-0.6 -3.5,-1.9 -1.4,-1.3 -2.1,-2.4 -2.1,-3.3 0,-0.7 0.8,-2.2 2.4,-4.7 2.9,0.7 4.8,1 5.7,1 2.3,0 3.8,-1 4.5,-3.1 0.8,-2 1.8,-3.1 3.2,-3.1 1.9,0 6.1,1.9 12.6,5.6 -3.4,-4.8 -5.9,-8.3 -7.5,-10.7 z"/></g></svg>