<svg xmlns="http://www.w3.org/2000/svg" viewBox="0 0 26.5 26.5"><g transform="translate(27.78 55.562) scale(.26458)"><circle cx="-55" cy="-160" r="50" fill="#cac5c0"/><path fill="#0d0f0f" d="m -64.03,-160.54 -1.75,-1.2 c -5.12,-3.5 -8.5,-6.34 -10.1,-8.5 -2.07,-2.7 -3.1,-5.83 -3.1,-9.42 0,-6.1 2.55,-11.1 7.67,-14.95 4.7,-3.6 10.2,-5.4 16.5,-5.4 5.9,0 11.2,1.5 15.7,4.7 5.2,3.5 7.8,8.1 7.8,13.9 0,7 -4.9,12.6 -14.7,16.9 11.1,5.4 16.7,12.9 16.7,22.5 0,6.9 -2.7,12.4 -8,16.4 -4.8,3.7 -10.8,5.5 -17.9,5.5 -6.8,0 -12.6,-1.7 -17.4,-5.2 -5.6,-3.9 -8.4,-9 -8.4,-15.4 0,-6.4 3,-11.7 8.9,-15.8 1.6,-1.1 4.2,-2.5 7.8,-4.3 z m 4.57,1.9 c -8.08,3.7 -12.1,9.48 -12.1,17.38 0,5.1 1.62,9.2 4.9,12.3 3.28,3.1 7.48,4.65 12.6,4.65 4.57,0 8.46,-1.3 11.64,-3.7 3.2,-2.5 4.78,-5.9 4.78,-10.3 0,-6.7 -4.36,-12 -13.1,-16.1 z m 9.03,-7.96 c 7.1,-3.14 10.64,-7.85 10.64,-14.14 0,-4.3 -1.5,-7.76 -4.5,-10.37 -3,-2.7 -6.7,-4 -11.1,-4 -3.7,0 -6.8,1 -9.5,2.9 -2.9,2.1 -4.4,5 -4.4,8.6 0,4.4 2.1,7.9 6.2,10.6 0.8,0.5 4.4,2.3 10.8,5.2 z"/></g></svg>