<?xml version="1.0" encoding="UTF-8" standalone="no"?>
<svg
   xmlns:dc="http://purl.org/dc/elements/1.1/"
   xmlns:cc="http://creativecommons.org/ns#"
   xmlns:rdf="http://www.w3.org/1999/02/22-rdf-syntax-ns#"
   xmlns:svg="http://www.w3.org/2000/svg"
   xmlns="http://www.w3.org/2000/svg"
   xmlns:xlink="http://www.w3.org/1999/xlink"
   id="svg8"
   version="1.1"
   viewBox="0 0 26.458328 26.458332"
   height="26.458332mm"
   width="26.458332mm">
  <defs
     id="defs2">
    <linearGradient
       gradientUnits="userSpaceOnUse"
       xlink:href="#a"
       gradientTransform="matrix(1.4733394,0,0,1.5793349,-1202.8083,-227.62597)"
       y2="-43.950001"
       y1="-43.950001"
       x2="701.51001"
       x1="633.63"
       id="b" />
    <linearGradient
       id="a">
      <stop
         id="stop4"
         stop-color="red"
         offset="0" />
      <stop
         id="stop6"
         stop-color="#ff0"
         offset=".2" />
      <stop
         id="stop8"
         stop-color="#0f0"
         offset=".4" />
      <stop
         id="stop10"
         stop-color="#0ff"
         offset=".6" />
      <stop
         id="stop12"
         stop-color="#00f"
         offset=".8" />
      <stop
         id="stop14"
         stop-color="#f0f"
         offset="1" />
    </linearGradient>
  </defs>
  <metadata
     id="metadata5">
    <rdf:RDF>
      <cc:Work
         rdf:about="">
        <dc:format>image/svg+xml</dc:format>
        <dc:type
           rdf:resource="http://purl.org/dc/dcmitype/StillImage" />
        <dc:title></dc:title>
      </cc:Work>
    </rdf:RDF>
  </metadata>
  <g
     transform="translate(-135.92165,-130.2817)"
     id="layer1">
    <g
       id="g190"
       transform="matrix(0.26458333,0,0,0.26458333,385.9529,102.50045)">
      <path
         style="fill:#c1d7e9"
         id="path182"
         d="m -859.65,119.64 c 9.05,9.06 14.65,21.56 14.65,35.36 0,27.6 -22.4,50 -50,50 -13.8,0 -26.3,-5.6 -35.35,-14.65" />
      <path
         style="fill:#f8f6d8"
         id="path184"
         d="M -930.35,190.35 C -939.4,181.3 -945,168.8 -945,155 c 0,-27.62 22.4,-50 50,-50 13.8,0 26.3,5.6 35.35,14.64" />
      <path
         style="fill:#0d0f0f"
         id="path186"
         d="m -868.28,188.68 c -2.7,2.73 -6,4.1 -9.94,4.1 -4.43,0 -7.93,-1.5 -10.53,-4.54 -2.45,-2.88 -3.68,-6.55 -3.68,-11.02 0,-4.8 2.1,-10.3 6.28,-16.44 3.4,-5.05 7.42,-9.47 12.03,-13.26 -0.67,3.07 -1,5.26 -1,6.56 0,2.98 0.93,5.88 2.8,8.72 2.3,3.36 4.07,5.86 5.27,7.5 1.87,2.83 2.8,5.6 2.8,8.28 0,4 -1.34,7.36 -4.03,10.1 z m -0.07,-15.4 c -0.72,-1.6 -1.56,-2.67 -2.52,-3.2 0.14,0.3 0.2,0.7 0.2,1.22 0,1 -0.27,2.46 -0.85,4.33 l -0.94,2.88 c 0,1.7 0.84,2.6 2.52,2.6 1.78,0 2.67,-1.2 2.67,-3.5 0,-1.2 -0.36,-2.6 -1.08,-4.2 z" />
      <path
         style="fill:#0d0f0f"
         id="path188"
         d="m -890.33,143.26 c -2.44,-2.26 -4.06,-3.5 -4.85,-3.68 -0.58,-0.14 -1.14,0.2 -1.67,1 -0.54,0.82 -1.3,1.1 -2.27,0.87 -0.4,-0.1 -1.18,-0.44 -2.33,-1.02 -0.94,0.88 -1.44,1.47 -1.5,1.76 -0.1,0.3 0.07,0.9 0.54,1.6 0.4,0.7 0.8,1 1.3,1.1 0.2,0 0.6,0.1 1,0.1 h 0.9 c 0.4,0.1 0.4,0.9 0,2.6 -0.4,1.5 -1.3,3.8 -2.8,6.9 -0.1,-3.9 -0.6,-6 -1.7,-6.3 -0.2,-0.1 -0.5,0 -1,0.1 -0.5,0.1 -0.9,0.1 -1.1,0.1 -1.1,-0.3 -1.8,-1.5 -2.2,-3.6 -1.7,-0.1 -2.8,0.5 -3.1,1.9 -0.2,0.7 0,1.3 0.6,1.9 0.5,0.6 0.8,1 0.8,1.1 -0.3,0.9 -2,2.1 -5.4,3.4 -1.8,0.7 -3,1.2 -3.7,1.5 0.6,-0.6 1.3,-1.3 2.1,-2.2 0.8,-1.1 1.3,-1.9 1.5,-2.6 0.1,-0.4 -0.2,-1 -0.9,-1.9 -0.7,-0.9 -1,-1.6 -0.8,-2.4 0.1,-0.6 0.5,-1.4 1.2,-2.2 -0.4,-0.6 -0.9,-1 -1.5,-1.2 -1.5,-0.3 -2.3,0 -2.5,0.9 l -0.4,1.5 c -0.3,1.2 -1.3,1.6 -3.2,1.1 -1.4,-0.4 -3.7,-1.2 -6.9,-2.7 4,-0.1 6.1,-0.7 6.4,-1.9 0,0.1 0,-0.3 0.1,-1.4 0.1,-1.2 1.2,-2 3.1,-2.5 0.1,-1.7 -0.6,-2.8 -2,-3.1 -0.2,0 -0.7,0.2 -1.4,0.9 -0.8,0.6 -1.4,0.9 -1.9,0.7 -0.9,-0.2 -1.8,-1.4 -2.7,-3.6 -0.4,-1.1 -1.1,-2.7 -2,-4.9 l 2.2,1.9 c 0.9,0.8 1.7,1.2 2.4,1.4 0.5,0.1 1.1,-0.2 1.8,-1 0.7,-0.8 1.4,-1 2.2,-0.8 0.1,0 0.8,0.4 2,1.2 0.9,-0.9 1.5,-1.6 1.6,-2.1 0.1,-0.4 -0.1,-1 -0.4,-1.7 -0.4,-0.7 -0.8,-1 -1.2,-1.2 -0.2,-0.1 -0.5,-0.1 -0.9,-0.1 -0.4,0 -0.7,0 -0.9,-0.1 -0.7,-0.2 -0.8,-1.1 -0.4,-2.7 0.1,-0.5 1.1,-2.8 3,-7.2 -0.2,0.5 -0.2,1.6 0,3.2 0.2,1.9 0.7,3 1.5,3.2 0.1,0 0.4,0 0.9,-0.1 0.5,-0.1 0.8,-0.2 1.1,-0.1 0.8,0.2 1.4,0.8 1.7,1.9 l 0.5,1.7 c 0.7,0.2 1.4,0.1 2.1,-0.4 0.6,-0.4 1,-1 1.2,-1.8 0.2,-0.8 0,-1.5 -0.6,-2.1 -0.6,-0.6 -0.9,-1 -0.8,-1.2 0.1,-0.8 1.6,-1.8 4.5,-3 2.2,-1 3.7,-1.6 4.3,-1.7 -2.1,1.7 -3.2,3.1 -3.5,4.1 -0.1,0.5 0,1.1 0.5,1.8 0.6,0.9 0.9,1.5 0.9,1.8 0.2,0.9 -0.1,2 -0.9,3.4 0.8,0.9 1.4,1.4 2,1.5 1.1,0.3 1.7,-0.1 2,-1.2 l 0.1,-1 c 0,-0.6 0.1,-0.9 0.1,-1 0.2,-0.5 1.3,-0.5 3.1,0 1.1,0.3 3.5,1.2 7,2.7 l -3.8,0.1 c -1.6,0.1 -2.4,0.4 -2.6,0.9 -0.1,0.3 -0.1,0.7 0,1.4 0,0.6 0,1.1 -0.1,1.4 -0.1,0.5 -0.6,0.9 -1.3,1.2 l -2.1,0.8 c 0.2,0.9 0.4,1.4 0.5,1.6 0.2,0.53 0.7,0.9 1.3,1 0.4,0.1 0.9,-0.17 1.5,-0.8 0.5,-0.7 1.2,-0.9 2,-0.7 0.9,0.2 1.8,1.4 2.6,3.5 l 2.1,5.3 z m -11.28,-6.02 c 0.5,-2.3 0.1,-4.52 -1.2,-6.62 -1.3,-2.1 -3.1,-3.43 -5.4,-4 -2.4,-0.55 -4.6,-0.2 -6.7,1.08 -2.1,1.27 -3.5,3.08 -4.1,5.42 -0.6,2.3 -0.2,4.5 1.1,6.6 1.3,2.1 3.2,3.43 5.5,3.98 2.4,0.6 4.7,0.28 6.7,-0.94 2,-1.2 3.3,-3.05 3.8,-5.52 z m -0.9,-0.2 c -0.6,2.2 -1.7,3.86 -3.6,4.95 -1.9,1 -3.9,1.3 -6.1,0.8 -2.2,-0.5 -3.8,-1.7 -5,-3.6 -1.2,-1.9 -1.5,-3.9 -1,-6 0.5,-2.1 1.7,-3.7 3.6,-4.9 1.9,-1.2 3.9,-1.5 6,-1 2.1,0.5 3.7,1.7 4.9,3.5 1.2,1.9 1.5,3.8 1,5.9 z" />
    </g>
  </g>
</svg>
