<?xml version="1.0" encoding="UTF-8" standalone="no"?>
<svg
   xmlns:dc="http://purl.org/dc/elements/1.1/"
   xmlns:cc="http://creativecommons.org/ns#"
   xmlns:rdf="http://www.w3.org/1999/02/22-rdf-syntax-ns#"
   xmlns:svg="http://www.w3.org/2000/svg"
   xmlns="http://www.w3.org/2000/svg"
   xmlns:xlink="http://www.w3.org/1999/xlink"
   id="svg8"
   version="1.1"
   viewBox="0 0 26.458328 26.458332"
   height="26.458332mm"
   width="26.458332mm">
  <defs
     id="defs2">
    <linearGradient
       gradientUnits="userSpaceOnUse"
       xlink:href="#a"
       gradientTransform="matrix(1.4733394,0,0,1.5793349,-1202.8083,-227.62597)"
       y2="-43.950001"
       y1="-43.950001"
       x2="701.51001"
       x1="633.63"
       id="b" />
    <linearGradient
       id="a">
      <stop
         id="stop4"
         stop-color="red"
         offset="0" />
      <stop
         id="stop6"
         stop-color="#ff0"
         offset=".2" />
      <stop
         id="stop8"
         stop-color="#0f0"
         offset=".4" />
      <stop
         id="stop10"
         stop-color="#0ff"
         offset=".6" />
      <stop
         id="stop12"
         stop-color="#00f"
         offset=".8" />
      <stop
         id="stop14"
         stop-color="#f0f"
         offset="1" />
    </linearGradient>
  </defs>
  <metadata
     id="metadata5">
    <rdf:RDF>
      <cc:Work
         rdf:about="">
        <dc:format>image/svg+xml</dc:format>
        <dc:type
           rdf:resource="http://purl.org/dc/dcmitype/StillImage" />
        <dc:title></dc:title>
      </cc:Work>
    </rdf:RDF>
  </metadata>
  <g
     transform="translate(-100.91879,-112.43198)"
     id="layer1">
    <g
       id="g102"
       transform="matrix(0.26458333,0,0,0.26458333,184.26254,140.21323)">
      <circle
         style="fill:#cac5c0"
         id="circle98"
         r="50"
         cy="-55"
         cx="-265" />
      <path
         style="fill:#0d0f0f"
         id="path100"
         d="m -280.7,-86.68 v 50.84 c 0,6.05 2.53,9.07 7.55,9.07 h 1.27 v 3.45 h -27.08 v -3.45 h 1.8 c 5.1,0 7.66,-3.02 7.66,-9.07 v -33.34 c 0,-6.13 -2.17,-9.2 -6.52,-9.2 h -2.68 v -3.45 h 1.02 c 5.28,0 10.05,-1.6 14.3,-4.85 z m 20.07,27.46 c 4.68,-4.42 9.4,-6.64 14.18,-6.64 5.1,0 9.23,2.05 12.4,6.13 2.88,3.75 4.33,8.3 4.33,13.67 0,5.8 -1.7,10.86 -5.1,15.2 -3.76,4.86 -8.44,7.28 -14.06,7.28 -6.64,0 -12,-2.9 -16.1,-8.68 -3.57,-5.1 -5.36,-11.16 -5.36,-18.14 0,-7.5 2.04,-14.37 6.13,-20.63 4,-6.26 9.5,-10.7 16.4,-13.35 3.8,-1.45 7.9,-2.18 12.2,-2.18 v 3.33 c -9.2,0.42 -16.1,4.1 -20.6,10.98 -2.3,3.58 -3.9,7.92 -4.6,13.03 z m -0.64,6.27 c -0.08,1.27 -0.13,2.55 -0.13,3.83 0,4.93 0.85,9.5 2.56,13.67 2.2,5.44 5.44,8.17 9.7,8.17 3.66,0 6.43,-1.87 8.3,-5.62 1.37,-2.9 2.05,-6.43 2.05,-10.6 0,-4.35 -0.6,-8.1 -1.9,-11.24 -1.8,-4.26 -4.7,-6.4 -8.5,-6.4 -4.7,0 -8.7,2.73 -12,8.2 z" />
    </g>
  </g>
</svg>
