<?xml version="1.0" encoding="UTF-8" standalone="no"?>
<svg
   xmlns:dc="http://purl.org/dc/elements/1.1/"
   xmlns:cc="http://creativecommons.org/ns#"
   xmlns:rdf="http://www.w3.org/1999/02/22-rdf-syntax-ns#"
   xmlns:svg="http://www.w3.org/2000/svg"
   xmlns="http://www.w3.org/2000/svg"
   xmlns:xlink="http://www.w3.org/1999/xlink"
   id="svg8"
   version="1.1"
   viewBox="0 0 13.284727 26.458332"
   height="26.458332mm"
   width="13.284729mm">
  <defs
     id="defs2">
    <linearGradient
       gradientUnits="userSpaceOnUse"
       xlink:href="#a"
       gradientTransform="matrix(1.4733394,0,0,1.5793349,-1202.8083,-227.62597)"
       y2="-43.950001"
       y1="-43.950001"
       x2="701.51001"
       x1="633.63"
       id="b" />
    <linearGradient
       id="a">
      <stop
         id="stop4"
         stop-color="red"
         offset="0" />
      <stop
         id="stop6"
         stop-color="#ff0"
         offset=".2" />
      <stop
         id="stop8"
         stop-color="#0f0"
         offset=".4" />
      <stop
         id="stop10"
         stop-color="#0ff"
         offset=".6" />
      <stop
         id="stop12"
         stop-color="#00f"
         offset=".8" />
      <stop
         id="stop14"
         stop-color="#f0f"
         offset="1" />
    </linearGradient>
  </defs>
  <metadata
     id="metadata5">
    <rdf:RDF>
      <cc:Work
         rdf:about="">
        <dc:format>image/svg+xml</dc:format>
        <dc:type
           rdf:resource="http://purl.org/dc/dcmitype/StillImage" />
        <dc:title></dc:title>
      </cc:Work>
    </rdf:RDF>
  </metadata>
  <g
     transform="translate(-94.548878,-118.00015)"
     id="layer1">
    <g
       id="g366"
       transform="matrix(0.26458333,0,0,0.26458333,124.76694,6.8751499)">
      <path
         style="fill:#f8f6d8"
         id="path360"
         d="m -114,420 v 100 c 27.6,0 50,-22.4 50,-50 0,-27.62 -22.4,-50 -50,-50 z" />
      <path
         style="fill:#0d0f0f"
         id="path362"
         d="m -96,469.75 c 0,-4.8 -1.8,-8.96 -5.36,-12.5 -3.52,-3.47 -7.66,-5.22 -12.43,-5.28 v 35.56 c 5.1,-0.06 9.3,-1.73 12.7,-5.04 3.5,-3.4 5.2,-7.7 5.2,-12.8 z" />
      <path
         style="fill:#0d0f0f"
         id="path364"
         d="m -73.55,466.34 c -2.85,-4.2 -5.42,-6.3 -7.7,-6.3 -1.84,0 -3.2,0.87 -4.03,2.64 -0.84,1.77 -1.77,2.65 -2.77,2.65 -1.44,0 -2.57,-0.5 -3.4,-1.52 -0.35,-0.3 -1.02,-1.4 -2.03,-3.2 l 4.3,-3 c 1.5,-1 2.26,-2.1 2.26,-3.2 0,-0.7 -0.2,-1.7 -0.63,-3.1 -0.42,-1.4 -0.63,-2.4 -0.63,-3 0,-1.2 1.68,-2.4 5.05,-3.4 l 8.32,-2.2 c -8.5,-1.5 -14.1,-2.3 -16.8,-2.3 -4.3,0 -6.6,0.6 -7,1.8 -0.1,0.2 0,0.9 0.2,2.3 0.2,1.4 0.3,2.2 0.3,2.4 0,2.5 -1.2,3.8 -3.7,3.8 -1.2,0 -2.9,-0.8 -5.2,-2.4 1,-3.3 1.1,-6 0.2,-7.9 -0.3,-0.7 -1.3,-1.8 -3.1,-3.4 -1.4,-1.3 -2.1,-2.6 -2.1,-3.8 0,-2.2 1.8,-5.8 5.4,-10.7 -1.2,0.5 -3.7,2.2 -7.5,5 V 450 c 5.3,0.05 9.9,2 13.7,5.9 3.9,3.96 5.9,8.63 5.9,14 0.1,5.73 -1.8,10.46 -5.6,14.2 -3.8,3.7 -8.5,5.55 -14.1,5.6 v 22.65 c 6.2,-4.5 9.3,-7.85 9.3,-10.05 0,-0.43 -0.8,-1.14 -2.4,-2.15 -1.6,-1 -2.3,-2.35 -2.3,-4.03 0,-3.4 1.9,-5.36 5.8,-5.95 1.9,4.47 4.1,6.7 6.5,6.7 0.5,0 1.3,-0.26 2.3,-0.76 1,-0.5 1.7,-0.7 2.1,-0.7 2.4,0 4.7,4.3 6.9,12.9 1.7,-7.5 2.5,-13 2.5,-16.6 0,-3.8 -0.5,-5.7 -1.6,-5.7 -0.4,0 -1.1,0.1 -2.1,0.4 -1,0.3 -1.8,0.4 -2.4,0.4 -1,0 -2.1,-0.6 -3.5,-1.9 -1.4,-1.3 -2.1,-2.4 -2.1,-3.3 0,-0.7 0.8,-2.2 2.4,-4.7 2.9,0.7 4.8,1 5.7,1 2.3,0 3.8,-1 4.5,-3.1 0.8,-2 1.8,-3.1 3.2,-3.1 1.9,0 6.1,1.9 12.6,5.6 -3.4,-4.8 -5.9,-8.3 -7.5,-10.7 z" />
    </g>
  </g>
</svg>
