<?xml version="1.0" encoding="UTF-8" standalone="no"?>
<svg
   xmlns:dc="http://purl.org/dc/elements/1.1/"
   xmlns:cc="http://creativecommons.org/ns#"
   xmlns:rdf="http://www.w3.org/1999/02/22-rdf-syntax-ns#"
   xmlns:svg="http://www.w3.org/2000/svg"
   xmlns="http://www.w3.org/2000/svg"
   xmlns:xlink="http://www.w3.org/1999/xlink"
   id="svg8"
   version="1.1"
   viewBox="0 0 26.458328 26.458332"
   height="26.458332mm"
   width="26.458332mm">
  <defs
     id="defs2">
    <linearGradient
       gradientUnits="userSpaceOnUse"
       xlink:href="#a"
       gradientTransform="matrix(1.4733394,0,0,1.5793349,-1202.8083,-227.62597)"
       y2="-43.950001"
       y1="-43.950001"
       x2="701.51001"
       x1="633.63"
       id="b" />
    <linearGradient
       id="a">
      <stop
         id="stop4"
         stop-color="red"
         offset="0" />
      <stop
         id="stop6"
         stop-color="#ff0"
         offset=".2" />
      <stop
         id="stop8"
         stop-color="#0f0"
         offset=".4" />
      <stop
         id="stop10"
         stop-color="#0ff"
         offset=".6" />
      <stop
         id="stop12"
         stop-color="#00f"
         offset=".8" />
      <stop
         id="stop14"
         stop-color="#f0f"
         offset="1" />
    </linearGradient>
  </defs>
  <metadata
     id="metadata5">
    <rdf:RDF>
      <cc:Work
         rdf:about="">
        <dc:format>image/svg+xml</dc:format>
        <dc:type
           rdf:resource="http://purl.org/dc/dcmitype/StillImage" />
        <dc:title></dc:title>
      </cc:Work>
    </rdf:RDF>
  </metadata>
  <g
     transform="translate(-131.44691,-117.98527)"
     id="layer1">
    <g
       id="g168"
       transform="matrix(0.26458333,0,0,0.26458333,242.57191,117.98527)">
      <circle
         style="fill:#c1d7e9"
         id="circle164"
         r="50"
         cy="50"
         cx="-370" />
      <path
         style="fill:#0d0f0f"
         id="path166"
         d="m -352.5,83.72 c -4.8,4.87 -10.7,7.3 -17.7,7.3 -7.86,0 -14.1,-2.68 -18.7,-8.07 -4.37,-5.12 -6.55,-11.66 -6.55,-19.6 0,-8.55 3.72,-18.3 11.15,-29.23 6.07,-8.97 13.2,-16.83 21.4,-23.58 -1.2,5.47 -1.8,9.36 -1.8,11.67 0,5.3 1.67,10.5 5,15.5 4.1,6 7.23,10.5 9.36,13.4 3.34,5.1 5,10 5,14.8 0,7.1 -2.4,13.1 -7.17,18 z m -0.14,-27.36 c -1.28,-2.86 -2.78,-4.76 -4.5,-5.7 0.27,0.5 0.4,1.23 0.4,2.17 0,1.8 -0.5,4.36 -1.54,7.7 l -1.67,5.12 c 0,3 1.5,4.5 4.5,4.5 3.15,0 4.73,-2.1 4.73,-6.3 0,-2.13 -0.64,-4.63 -1.92,-7.5 z" />
    </g>
  </g>
</svg>
