<?xml version="1.0" encoding="UTF-8" standalone="no"?>
<svg
   xmlns:dc="http://purl.org/dc/elements/1.1/"
   xmlns:cc="http://creativecommons.org/ns#"
   xmlns:rdf="http://www.w3.org/1999/02/22-rdf-syntax-ns#"
   xmlns:svg="http://www.w3.org/2000/svg"
   xmlns="http://www.w3.org/2000/svg"
   xmlns:xlink="http://www.w3.org/1999/xlink"
   id="svg8"
   version="1.1"
   viewBox="0 0 26.458328 26.458332"
   height="26.458332mm"
   width="26.458332mm">
  <defs
     id="defs2">
    <linearGradient
       gradientUnits="userSpaceOnUse"
       xlink:href="#a"
       gradientTransform="matrix(1.4733394,0,0,1.5793349,-1202.8083,-227.62597)"
       y2="-43.950001"
       y1="-43.950001"
       x2="701.51001"
       x1="633.63"
       id="b" />
    <linearGradient
       id="a">
      <stop
         id="stop4"
         stop-color="red"
         offset="0" />
      <stop
         id="stop6"
         stop-color="#ff0"
         offset=".2" />
      <stop
         id="stop8"
         stop-color="#0f0"
         offset=".4" />
      <stop
         id="stop10"
         stop-color="#0ff"
         offset=".6" />
      <stop
         id="stop12"
         stop-color="#00f"
         offset=".8" />
      <stop
         id="stop14"
         stop-color="#f0f"
         offset="1" />
    </linearGradient>
  </defs>
  <metadata
     id="metadata5">
    <rdf:RDF>
      <cc:Work
         rdf:about="">
        <dc:format>image/svg+xml</dc:format>
        <dc:type
           rdf:resource="http://purl.org/dc/dcmitype/StillImage" />
        <dc:title></dc:title>
      </cc:Work>
    </rdf:RDF>
  </metadata>
  <g
     transform="translate(-104.26169,-122.05166)"
     id="layer1">
    <g
       id="g84"
       transform="matrix(0.26458333,0,0,0.26458333,104.26169,149.83291)">
      <circle
         style="fill:#cac5c0"
         id="circle80"
         r="50"
         cy="-55"
         cx="50" />
      <path
         style="fill:#0d0f0f"
         id="path82"
         d="m 37.16,-86.43 v 50.2 c 0,5.97 2.5,8.95 7.54,8.95 h 1.28 v 3.45 H 19.15 v -3.45 h 1.8 c 5.02,0 7.53,-2.98 7.53,-8.94 v -32.96 c 0,-6.04 -2.14,-9.07 -6.4,-9.07 H 19.4 v -3.45 h 1.04 c 5.2,0 9.92,-1.57 14.18,-4.72 z m 40.74,35.78 c -4.67,4.42 -9.35,6.65 -14.04,6.65 -5.1,0 -9.24,-2.1 -12.4,-6.3 -2.8,-3.64 -4.2,-8.1 -4.2,-13.4 0,-5.7 1.65,-10.8 4.97,-15.32 3.75,-4.87 8.4,-7.3 13.93,-7.3 6.73,0 12.05,2.9 15.97,8.7 3.66,5.2 5.5,11.27 5.5,18.26 0,10.05 -3.3,18.5 -9.9,25.35 -6.6,6.8 -14.9,10.3 -24.86,10.4 v -3.3 c 3.07,-0.2 5.5,-0.5 7.28,-1.1 C 70.3,-31 76.2,-38.6 77.9,-50.7 Z m 0.65,-6.27 c 0.1,-1.36 0.13,-2.63 0.13,-3.83 0,-4.94 -0.85,-9.45 -2.55,-13.54 -2.3,-5.3 -5.54,-8 -9.72,-8 -3.6,0 -6.3,1.9 -8,5.5 -1.4,3 -2.1,6.5 -2.1,10.5 0,4.4 0.7,8.1 2.1,11.3 1.8,4.2 4.6,6.3 8.5,6.3 4.6,0 8.6,-2.7 11.9,-8 z" />
    </g>
  </g>
</svg>
