<?xml version="1.0" encoding="UTF-8" standalone="no"?>
<svg
   xmlns:dc="http://purl.org/dc/elements/1.1/"
   xmlns:cc="http://creativecommons.org/ns#"
   xmlns:rdf="http://www.w3.org/1999/02/22-rdf-syntax-ns#"
   xmlns:svg="http://www.w3.org/2000/svg"
   xmlns="http://www.w3.org/2000/svg"
   xmlns:xlink="http://www.w3.org/1999/xlink"
   id="svg8"
   version="1.1"
   viewBox="0 0 49.741659 26.458332"
   height="26.458332mm"
   width="49.741665mm">
  <defs
     id="defs2">
    <linearGradient
       gradientUnits="userSpaceOnUse"
       xlink:href="#a"
       gradientTransform="matrix(1.4733394,0,0,1.5793349,-1202.8083,-227.62597)"
       y2="-43.950001"
       y1="-43.950001"
       x2="701.51001"
       x1="633.63"
       id="b" />
    <linearGradient
       id="a">
      <stop
         id="stop4"
         stop-color="red"
         offset="0" />
      <stop
         id="stop6"
         stop-color="#ff0"
         offset=".2" />
      <stop
         id="stop8"
         stop-color="#0f0"
         offset=".4" />
      <stop
         id="stop10"
         stop-color="#0ff"
         offset=".6" />
      <stop
         id="stop12"
         stop-color="#00f"
         offset=".8" />
      <stop
         id="stop14"
         stop-color="#f0f"
         offset="1" />
    </linearGradient>
  </defs>
  <metadata
     id="metadata5">
    <rdf:RDF>
      <cc:Work
         rdf:about="">
        <dc:format>image/svg+xml</dc:format>
        <dc:type
           rdf:resource="http://purl.org/dc/dcmitype/StillImage" />
        <dc:title></dc:title>
      </cc:Work>
    </rdf:RDF>
  </metadata>
  <g
     transform="translate(-75.800301,-119.47149)"
     id="layer1">
    <g
       id="g384"
       transform="matrix(0.26458333,0,0,0.26458333,190.1003,8.3464873)">
      <path
         style="fill:#cac5c0"
         id="path376"
         d="m -294,420 h -88 c -27.6,0 -50,22.4 -50,50 0,27.6 22.4,50 50,50 h 88 c 27.6,0 50,-22.4 50,-50 0,-27.62 -22.4,-50 -50,-50 z" />
      <path
         style="fill:#0d0f0f"
         id="path378"
         d="m -388.42,433 v 59.3 c 0,7.1 2.98,10.64 8.96,10.64 h 1.55 V 507 h -31.6 v -4.06 h 2 c 5.8,0 8.6,-3.55 8.6,-10.64 v -38.9 c 0,-7.18 -2.5,-10.77 -7.5,-10.77 h -3.2 v -3.93 h 1.1 c 6.1,0 11.7,-1.9 16.7,-5.7 h 3.2 z" />
      <path
         style="fill:#0d0f0f"
         id="path380"
         d="m -368.87,472.24 c 0,-9.05 1.9,-17.4 5.72,-25.04 4.74,-9.47 11.22,-14.2 19.44,-14.2 8.1,0 14.4,4.03 19,12.08 3.8,6.65 5.7,14.38 5.7,23.18 0,9.14 -1.9,17.4 -5.8,24.8 -4.7,9.3 -11.2,13.94 -19.5,13.94 -7.9,0 -14.2,-3.98 -18.8,-11.96 -4,-6.8 -6,-14.4 -6,-22.8 z m 10.46,-4.1 c 0,11.95 1.7,21.26 5.3,27.9 2.5,4.65 5.7,6.98 9.6,6.98 9.3,0 14,-9.72 14,-29.16 0,-8.55 -0.8,-15.78 -2.3,-21.67 -2.6,-9.8 -7,-14.6 -13.1,-14.6 -9.2,0 -13.7,9.4 -13.7,28.1 z" />
      <path
         style="fill:#0d0f0f"
         id="path382"
         d="m -307.54,472.24 c 0,-9.05 1.9,-17.4 5.73,-25.04 4.7,-9.47 11.2,-14.2 19.4,-14.2 8.1,0 14.5,4.03 19,12.08 3.8,6.65 5.7,14.38 5.7,23.18 0,9.14 -1.9,17.4 -5.8,24.8 -4.6,9.3 -11.1,13.94 -19.4,13.94 -7.9,0 -14.2,-3.98 -18.8,-11.96 -4,-6.8 -6,-14.4 -6,-22.8 z m 10.46,-4.1 c 0,11.95 1.8,21.26 5.36,27.9 2.5,4.65 5.7,6.98 9.6,6.98 9.38,0 14.07,-9.72 14.07,-29.16 0,-8.55 -0.75,-15.78 -2.24,-21.67 -2.5,-9.8 -6.9,-14.6 -13,-14.6 -9.1,0 -13.7,9.4 -13.7,28.1 z" />
    </g>
  </g>
</svg>
