<svg xmlns="http://www.w3.org/2000/svg" viewBox="0 0 26.5 26.5"><g transform="translate(138.906 27.78) scale(.26458)"><circle cx="-475" cy="-55" r="50" fill="#cac5c0"/><path fill="#0d0f0f" d="m -488.7,-85.53 v 49.05 c 0,5.8 2.43,8.7 7.28,8.7 h 1.16 v 3.3 h -26.06 v -3.3 h 1.66 c 4.94,0 7.4,-2.9 7.4,-8.7 v -32.2 c 0,-5.87 -2.08,-8.8 -6.25,-8.8 h -2.6 v -3.32 h 1 c 5,0 9.6,-1.58 13.6,-4.73 z m 43.05,43.7 v 5.1 c 0,5.7 2,8.56 6,8.56 h 1.67 v 3.3 h -24.4 v -3.3 h 1.92 c 4,0 6,-2.8 6,-8.43 v -5.24 H -479 v -5.1 l 25.94,-37.83 h 7.42 v 38.58 h 0.63 c 2.4,0 4.3,-1.9 5.4,-5.8 h 3 l -1.6,10.2 z m -6.77,-5.12 v -32.2 l -21.7,32.2 z"/></g></svg>