<?xml version="1.0" encoding="UTF-8" standalone="no"?>
<svg
   xmlns:dc="http://purl.org/dc/elements/1.1/"
   xmlns:cc="http://creativecommons.org/ns#"
   xmlns:rdf="http://www.w3.org/1999/02/22-rdf-syntax-ns#"
   xmlns:svg="http://www.w3.org/2000/svg"
   xmlns="http://www.w3.org/2000/svg"
   xmlns:xlink="http://www.w3.org/1999/xlink"
   id="svg8"
   version="1.1"
   viewBox="0 0 26.458328 26.458332"
   height="26.458332mm"
   width="26.458332mm">
  <defs
     id="defs2">
    <linearGradient
       gradientUnits="userSpaceOnUse"
       xlink:href="#a"
       gradientTransform="matrix(1.4733394,0,0,1.5793349,-1202.8083,-227.62597)"
       y2="-43.950001"
       y1="-43.950001"
       x2="701.51001"
       x1="633.63"
       id="b" />
    <linearGradient
       id="a">
      <stop
         id="stop4"
         stop-color="red"
         offset="0" />
      <stop
         id="stop6"
         stop-color="#ff0"
         offset=".2" />
      <stop
         id="stop8"
         stop-color="#0f0"
         offset=".4" />
      <stop
         id="stop10"
         stop-color="#0ff"
         offset=".6" />
      <stop
         id="stop12"
         stop-color="#00f"
         offset=".8" />
      <stop
         id="stop14"
         stop-color="#f0f"
         offset="1" />
    </linearGradient>
  </defs>
  <metadata
     id="metadata5">
    <rdf:RDF>
      <cc:Work
         rdf:about="">
        <dc:format>image/svg+xml</dc:format>
        <dc:type
           rdf:resource="http://purl.org/dc/dcmitype/StillImage" />
        <dc:title></dc:title>
      </cc:Work>
    </rdf:RDF>
  </metadata>
  <g
     transform="translate(-91.226893,-126.73428)"
     id="layer1">
    <g
       id="g132"
       transform="matrix(0.26458333,0,0,0.26458333,313.47689,154.51553)">
      <circle
         style="fill:#cac5c0"
         id="circle128"
         r="50"
         cy="-55"
         cx="-790" />
      <path
         style="fill:#0d0f0f"
         id="path130"
         d="m -800.17,-86.68 v 50.84 c 0,6.05 2.52,9.07 7.54,9.07 h 1.28 v 3.45 h -27.1 v -3.45 h 1.8 c 5.1,0 7.67,-3.02 7.67,-9.07 v -33.34 c 0,-6.13 -2.17,-9.2 -6.52,-9.2 h -2.68 v -3.44 h 1.02 c 5.28,0 10.05,-1.62 14.3,-4.86 z m 32.45,0 v 50.84 c 0,6.05 2.5,9.07 7.54,9.07 h 1.27 v 3.45 H -786 v -3.45 h 1.8 c 5.1,0 7.66,-3.02 7.66,-9.07 v -33.34 c 0,-6.13 -2.17,-9.2 -6.5,-9.2 h -2.7 v -3.44 h 1.03 c 5.2,0 10,-1.62 14.3,-4.86 z" />
    </g>
  </g>
</svg>
