<svg xmlns="http://www.w3.org/2000/svg" viewBox="0 0 26.45833 26.45833"><g transform="translate(-115.497 -148.643)"><g transform="translate(4.372 65.3) scale(.26458)"><path d="M505.3 329.6c9.1 9.1 14.7 21.6 14.7 35.4 0 27.6-22.4 50-50 50-13.8 0-26.3-5.6-35.4-14.6" class="st3" fill="#e49977"/><path d="M434.6 400.4c-9-9-14.6-21.5-14.6-35.4 0-27.6 22.4-50 50-50 13.8 0 26.3 5.6 35.3 14.6" class="st4" fill="#bab1ab"/></g><path d="M138.85982 168.32793c-.33567.92046-1.25187 1.52624-2.21382 1.5891-.62267.0386-1.2894.0157-1.84247.3485-.2427.28006.16368.5679.3459.4813.50456.0207 1.00924.0437 1.51435.0418-1.2232.66202-2.65965.70823-4.0187.74216-.6596.0489-1.3685-.0599-1.87076-.526-.76156-.666-1.25978-1.6871-1.0967-2.712.13497-1.2665 1.30304-2.3501 2.59407-2.2932.5666-.005 1.1109.3574 1.6784.1447.6311-.1834 1.2257-.5348 1.7611-.8856-.0695.8776-.4051 1.8473-1.2424 2.2676-.3894.1611-.7734.8449-.2129 1.0396.4216.2395.9568.0517 1.2204-.3346.3374-.3375.4463-.8138.3834-1.2751.007-.5012.0347-1.0481.4137-1.4242.4283-.4049.0006.46-.001.6955-.0845.3044.1839.8831.4411.3935.2614-.39646.4185-.86227.4531-1.33614-.8161-.0696-1.5765-.68857-1.8128-1.4713-.0719-.24808-.0632-.7427.142-.3036.14.26762.6495.9188.7158.28045.0304-.56482-.2296-1.24354-.8016-1.43905-.6704-.1702-1.1931.6382-1.8728.40324-.2088-.0936-1.076-.25285-.4932-.2924.3898-.12966 1.0549-.0664 1.2305-.4684-.26877-.4514-.89236-.4568-1.35436-.5655-.4773-.0796-.9608-.0979-1.4422-.1385.53933-.17825 1.1251-.1732 1.68795-.2332 1.4473-.0679 3.0081.4104 3.90552 1.60743.4506.576.747 1.2582.9417 1.9595.31164-.3972.10142-.94808-.0236-1.3795-.0681-.2503-.3251-.78757-.3075-.8451.81423 1.04525 1.4797 2.3949 1.138 3.74596-.27024 1.1568-1.36556 1.80305-1.9976 2.73846.68846-.17874 1.4098-.3706 1.9261-.8946.14665-.1697.32506-.3334.22693-.002-.0287.1166-.0716.22935-.1158.3406zm-6.74688-6.08542c.009.3711-.41695.352-.6794.3922-.31906.1199-.52043.7417-.6811.7893-.0602-.2917-.0663-.8102-.43742-.4543-.21595.0802-.77086.6777-.54075.1323.2612-.6144.71945-1.2149 1.36178-1.4548.3924-.1238 1.00825.1104.9769.5954zm2.69875 1.4288c-.0545.4765-.6932.7441-1.1118.5778-.4335-.2281-.5738-.7846-1.0392-.9829-.1896-.2318.4385-.0505.5634.0876.3192.3458.6212.1258.8665-.1554.3372-.1796.765.0733.721.473zm-5.2123-7.5935c.0488.7135-.4063 1.4833-1.158 1.5746-.53.1695-1.1412.1065-1.6202.4131-.2949.2736-.1504.7033-.1852 1.0596-.0311.5879.0665 1.169.1045 1.7533.0167.46-.0758.8934-.6255.8372-.4206.0677-.3377-.7627-.22-1.0868.0137-.2935-.3274-.9531-.5135-.4824.2984.5596-.379.9003-.7831 1.0381V160.02c-.1634-.13152-.4427-.0756-.373.18755-.0521.43138-.1042.86275-.1562 1.29413h-.5556c-.1162-.53304-.256-1.06058-.3969-1.5875-.3818-.0598-.4037.60025-.344.87313.107.296-.001.5997-.0265.8996-.5588.1819-1.0176-.3979-.8712-.9297.0573-.6857.0707-1.3796.1567-2.06.1034-.6313-.60565-.7613-1.088-.8169-.5553-.1319-1.2564-.1526-1.571-.7143-.41287-.7679-.3032-1.6988-.1214-2.5184.26742-1.0666.9531-1.9885 1.80153-2.6707.18204.4186.0179 1.2001.58703 1.2448.3885.0654 1.0592.3786 1.2357.4126-.43958-.3436-1.0027-.6089-1.27827-1.1077-.1522-.434-.2756-1.1009.3473-1.2056.8663-.4242 1.85757-.4499 2.80336-.4126.9993.0605 2.00645.3726 2.78717 1.0158-.3825.43808-.89452.73487-1.4023 1.0054.6412-.0286 1.23236-.34422 1.78887-.63.40525.2613.71646.83946 1.0212 1.2694.3896.73348.6755 1.55085.6672 2.3889-.0537-.0253.071.1539-.011.1203zm-6.2442.2911c-.0215-.8279-.6601-1.5611-1.4018-1.8686-.6801-.282-1.4394.1081-1.7964.7074-.286.4448-.4629 1.2138.0847 1.5376.7081.2724 1.484.1499 2.2265.1812.3555.001.9031-.0923.8868-.5575zm1.7727 2.0109c-.0157-.2456.062-.5146-.1191-.7176-.176-.2787-.3501-1.061-.4983-1.044-.0682.664-.1221 1.3315-.1996 1.9932-.3705.1624-.1576-.6607-.2527-.914-.0352-.3731-.0491-.7414-.0417-1.1167-.4115.0643-.5496.8215-.6085 1.2513-.004.42806-.1349 1.1172.1698 1.3743.4548-.2937 1.0296.0538 1.4382.003.1283-.2531.1001-.55475.1116-.8296zm3.6777-2.2489c.0224-.9937-1.0072-1.9371-2.0014-1.6048-.7841.288-1.4591 1.0727-1.436 1.9368-.0115.4761.5011.5161.8562.48837.6377-.0173 1.2808.0402 1.9142-.0402.3843-.054.6972-.38025.667-.78004z" fill="#0d0f0f"/></g></svg>