<?xml version="1.0" encoding="UTF-8" standalone="no"?>
<svg
   xmlns:dc="http://purl.org/dc/elements/1.1/"
   xmlns:cc="http://creativecommons.org/ns#"
   xmlns:rdf="http://www.w3.org/1999/02/22-rdf-syntax-ns#"
   xmlns:svg="http://www.w3.org/2000/svg"
   xmlns="http://www.w3.org/2000/svg"
   xmlns:xlink="http://www.w3.org/1999/xlink"
   id="svg8"
   version="1.1"
   viewBox="0 0 26.458328 26.458332"
   height="26.458332mm"
   width="26.458332mm">
  <defs
     id="defs2">
    <linearGradient
       gradientUnits="userSpaceOnUse"
       xlink:href="#a"
       gradientTransform="matrix(1.4733394,0,0,1.5793349,-1202.8083,-227.62597)"
       y2="-43.950001"
       y1="-43.950001"
       x2="701.51001"
       x1="633.63"
       id="b" />
    <linearGradient
       id="a">
      <stop
         id="stop4"
         stop-color="red"
         offset="0" />
      <stop
         id="stop6"
         stop-color="#ff0"
         offset=".2" />
      <stop
         id="stop8"
         stop-color="#0f0"
         offset=".4" />
      <stop
         id="stop10"
         stop-color="#0ff"
         offset=".6" />
      <stop
         id="stop12"
         stop-color="#00f"
         offset=".8" />
      <stop
         id="stop14"
         stop-color="#f0f"
         offset="1" />
    </linearGradient>
  </defs>
  <metadata
     id="metadata5">
    <rdf:RDF>
      <cc:Work
         rdf:about="">
        <dc:format>image/svg+xml</dc:format>
        <dc:type
           rdf:resource="http://purl.org/dc/dcmitype/StillImage" />
        <dc:title></dc:title>
      </cc:Work>
    </rdf:RDF>
  </metadata>
  <g
     transform="translate(-136.25709,-117.38459)"
     id="layer1">
    <g
       id="g174"
       transform="matrix(0.26458333,0,0,0.26458333,275.16334,117.38459)">
      <circle
         style="fill:#f8f6d8"
         id="circle170"
         r="50"
         cy="50"
         cx="-475" />
      <path
         style="fill:#0d0f0f"
         id="path172"
         d="m -427.3,57.06 c -6.57,-3.7 -10.78,-5.55 -12.63,-5.55 -1.34,0 -2.4,1.1 -3.15,3.1 -0.76,2.1 -2.27,3.1 -4.54,3.1 -0.93,0 -2.82,-0.3 -5.68,-1 -1.6,2.5 -2.4,4 -2.4,4.7 0,1 0.7,2 2.07,3.3 1.37,1.3 2.53,1.9 3.48,1.9 0.6,0 1.4,-0.1 2.45,-0.4 1.03,-0.2 1.72,-0.4 2.06,-0.4 1.04,0 1.55,1.9 1.55,5.7 0,3.6 -0.8,9.2 -2.5,16.7 -2.2,-8.5 -4.5,-12.8 -6.9,-12.8 -0.3,0 -1,0.3 -2.1,0.8 -1,0.5 -1.8,0.8 -2.3,0.8 -2.4,0 -4.6,-2.2 -6.5,-6.7 -3.9,0.6 -5.8,2.6 -5.8,6 0,1.7 0.8,3 2.3,4.1 1.6,1 2.4,1.8 2.4,2.2 0,2.3 -3.3,5.8 -9.9,10.5 -3.5,2.5 -6,4.3 -7.3,5.3 1.2,-1.5 2.4,-3.5 3.6,-5.9 1.4,-2.8 2,-4.9 2,-6.4 0,-0.9 -0.9,-2 -2.9,-3.5 -1.9,-1.5 -2.9,-3.1 -2.9,-4.8 0,-1.4 0.5,-3.2 1.5,-5.3 -1,-1.2 -2.3,-1.9 -3.9,-1.9 -3.3,0 -5,1.1 -5,3.3 V 77 c 0.1,2.76 -2,4.15 -6.3,4.15 -3.3,0 -8.8,-0.76 -16.5,-2.27 8.8,-2.2 13.2,-4.7 13.2,-7.58 0,0.32 -0.2,-0.68 -0.5,-3.04 -0.3,-2.6 1.5,-4.96 5.6,-7.06 -0.7,-3.9 -2.8,-5.8 -6,-5.8 -0.5,0 -1.4,0.86 -2.8,2.63 -1.4,1.77 -2.6,2.65 -3.8,2.65 -2,0 -4.6,-2.2 -7.8,-6.6 -1.5,-2.2 -3.8,-5.4 -6.9,-9.7 2,1 3.9,2 5.8,3 2.6,1.2 4.6,1.8 6.1,1.8 1.2,0 2.4,-1.03 3.5,-3.1 1.2,-2.05 2.7,-3.1 4.5,-3.1 0.3,0 2,0.5 5.1,1.53 1.6,-2.4 2.4,-4.2 2.4,-5.4 0,-1 -0.6,-2.1 -1.8,-3.4 -1.2,-1.3 -2.4,-1.9 -3.4,-1.9 -0.4,0 -1.1,0.1 -2,0.4 -0.8,0.3 -1.5,0.4 -1.9,0.4 -1.5,0 -2.3,-1.9 -2.3,-5.7 0,-1 1,-6.8 2.9,-17.3 0,1.3 0.5,3.6 1.7,7.1 1.4,4.2 3.1,6.3 5,6.3 0.4,0 1,-0.2 2.1,-0.7 1,-0.5 1.8,-0.7 2.4,-0.7 1.9,0 3.5,1.1 4.8,3.3 l 1.9,3.4 c 1.8,0 3.3,-0.6 4.4,-1.8 1.2,-1.2 1.8,-2.7 1.8,-4.5 0,-1.8 -0.8,-3.2 -2.3,-4.2 -1.6,-1 -2.3,-1.7 -2.3,-2.2 0,-1.8 2.8,-4.7 8.3,-9 4.5,-3.3 7.4,-5.3 8.7,-5.9 -3.6,4.9 -5.4,8.5 -5.4,10.7 0,1.2 0.7,2.5 2.2,3.8 1.8,1.6 2.8,2.7 3,3.4 0.9,1.9 0.8,4.6 -0.2,8 2.3,1.6 4,2.4 5.2,2.4 2.4,0 3.7,-1.3 3.7,-3.8 0,-0.2 -0.1,-1 -0.3,-2.4 -0.2,-1.3 -0.2,-2.1 -0.2,-2.2 0.4,-1.2 2.7,-1.8 7,-1.8 2.7,0 8.3,0.8 16.8,2.3 l -8.3,2.3 c -3.3,1 -5,2.1 -5,3.4 0,0.6 0.2,1.6 0.6,3 0.4,1.4 0.6,2.5 0.6,3.2 0,1.2 -0.7,2.3 -2.2,3.3 l -4.4,3 c 1,1.8 1.7,2.9 2.1,3.3 0.8,1 1.9,1.5 3.4,1.5 1,0 1.9,-0.8 2.8,-2.6 0.9,-1.7 2.2,-2.6 4.1,-2.6 2.2,0 4.8,2.1 7.7,6.3 1.6,2.4 4.1,6 7.4,10.8 z m -28.02,-7.3 c 0,-5.4 -1.98,-10.06 -5.93,-14.02 -3.95,-3.95 -8.62,-5.93 -14,-5.93 -5.47,0 -10.18,2 -14.13,5.9 -3.96,3.9 -5.98,8.6 -6.06,14.1 -0.08,5.4 1.9,10.1 6,14 4.07,3.9 8.8,5.9 14.2,5.9 5.7,0 10.48,-1.8 14.3,-5.6 3.83,-3.7 5.7,-8.5 5.62,-14.2 z m -1.9,0 c 0,5.12 -1.7,9.37 -5.16,12.73 -3.45,3.3 -7.74,5 -12.87,5 -4.96,0 -9.2,-1.8 -12.74,-5.2 -3.5,-3.5 -5.3,-7.7 -5.3,-12.6 0,-4.9 1.8,-9.1 5.4,-12.6 3.6,-3.5 7.8,-5.3 12.7,-5.3 4.9,0 9.1,1.7 12.7,5.3 3.6,3.5 5.4,7.7 5.4,12.5 z" />
    </g>
  </g>
</svg>
