<?xml version="1.0" encoding="UTF-8" standalone="no"?>
<svg
   xmlns:dc="http://purl.org/dc/elements/1.1/"
   xmlns:cc="http://creativecommons.org/ns#"
   xmlns:rdf="http://www.w3.org/1999/02/22-rdf-syntax-ns#"
   xmlns:svg="http://www.w3.org/2000/svg"
   xmlns="http://www.w3.org/2000/svg"
   xmlns:xlink="http://www.w3.org/1999/xlink"
   id="svg8"
   version="1.1"
   viewBox="0 0 26.458328 26.458332"
   height="26.458332mm"
   width="26.458332mm">
  <defs
     id="defs2">
    <linearGradient
       gradientUnits="userSpaceOnUse"
       xlink:href="#a"
       gradientTransform="matrix(1.4733394,0,0,1.5793349,-1202.8083,-227.62597)"
       y2="-43.950001"
       y1="-43.950001"
       x2="701.51001"
       x1="633.63"
       id="b" />
    <linearGradient
       id="a">
      <stop
         id="stop4"
         stop-color="red"
         offset="0" />
      <stop
         id="stop6"
         stop-color="#ff0"
         offset=".2" />
      <stop
         id="stop8"
         stop-color="#0f0"
         offset=".4" />
      <stop
         id="stop10"
         stop-color="#0ff"
         offset=".6" />
      <stop
         id="stop12"
         stop-color="#00f"
         offset=".8" />
      <stop
         id="stop14"
         stop-color="#f0f"
         offset="1" />
    </linearGradient>
  </defs>
  <metadata
     id="metadata5">
    <rdf:RDF>
      <cc:Work
         rdf:about="">
        <dc:format>image/svg+xml</dc:format>
        <dc:type
           rdf:resource="http://purl.org/dc/dcmitype/StillImage" />
        <dc:title></dc:title>
      </cc:Work>
    </rdf:RDF>
  </metadata>
  <g
     transform="translate(-97.566452,-116.51934)"
     id="layer1">
    <g
       id="g220"
       transform="matrix(0.26458333,0,0,0.26458333,264.25395,88.738089)">
      <path
         style="fill:#e49977"
         id="path212"
         d="m -544.65,119.64 c 9.05,9.06 14.65,21.56 14.65,35.36 0,27.6 -22.4,50 -50,50 -13.8,0 -26.3,-5.6 -35.35,-14.65" />
      <path
         style="fill:#c1d7e9"
         id="path214"
         d="M -615.35,190.35 C -624.4,181.3 -630,168.8 -630,155 c 0,-27.62 22.4,-50 50,-50 13.8,0 26.3,5.6 35.35,14.64" />
      <path
         style="fill:#0d0f0f"
         id="path216"
         d="m -541.7,179.44 c -1.72,4.1 -5.13,6.14 -10.24,6.14 -0.94,0 -1.95,0.12 -3.04,0.35 -1.64,0.36 -2.46,0.84 -2.46,1.47 0,0.2 0.13,0.42 0.4,0.67 0.28,0.26 0.52,0.38 0.7,0.38 -0.97,0 -0.3,0.03 2,0.1 2.3,0.05 3.74,0.08 4.33,0.08 -3.4,2 -9.1,2.9 -17.1,2.75 -2.6,-0.04 -4.9,-1.2 -6.8,-3.45 -1.9,-2.15 -2.8,-4.55 -2.8,-7.2 0,-2.8 0.9,-5.2 2.8,-7.17 1.9,-1.97 4.2,-2.95 7,-2.95 0.6,0 1.4,0.2 2.5,0.5 1,0.3 1.7,0.4 2,0.4 1.4,0 3.2,-0.6 5.4,-1.8 2.1,-1.2 3.1,-1.8 3,-1.8 -0.4,4.1 -1.7,6.9 -4.1,8.3 -1.6,1 -2.5,2 -2.5,2.9 0,0.6 0.4,1.1 1.1,1.4 0.5,0.3 1.1,0.4 1.8,0.4 1,0 2,-0.6 3,-1.9 0.9,-1.2 1.4,-2.3 1.3,-3.3 -0.2,-1.1 -0.1,-2.6 0.2,-4.2 0.1,-0.5 0.3,-1 0.8,-1.7 0.5,-0.7 0.9,-1.1 1.3,-1.2 0,0.4 -0.1,1 -0.4,1.8 -0.2,0.9 -0.4,1.5 -0.4,1.9 0,0.8 0.2,1.5 0.7,2 0.7,-0.3 1.3,-1.2 1.8,-2.6 0.5,-1.1 0.7,-2.2 0.8,-3.2 -1.7,0 -3.2,-0.8 -4.7,-2.2 -1.5,-1.4 -2.3,-2.9 -2.3,-4.5 0,-0.3 0,-0.6 0.1,-0.8 l 1,1.7 c 0.7,1 1.2,1.5 1.5,1.5 0.4,0 0.7,-0.5 0.7,-1.5 0,-1.3 -0.4,-2.4 -1,-3.4 -0.8,-1.2 -1.7,-1.8 -2.9,-1.8 -0.6,0 -1.4,0.3 -2.5,0.9 -1.1,0.6 -2.1,0.9 -3,0.9 -0.3,0 -1.5,-0.3 -3.6,-1 3.7,-0.7 5.6,-1.2 5.6,-1.7 0,-1.4 -2.6,-2.3 -7.8,-2.7 -0.5,-0.1 -1.5,-0.1 -2.8,-0.3 0.1,-0.2 1.2,-0.4 3.3,-0.6 1.8,-0.2 3,-0.3 3.7,-0.3 9.3,0 15.2,4.5 17.7,13.5 0.4,-0.3 0.6,-0.9 0.6,-1.7 0,-1.1 -0.3,-2.4 -0.9,-4.1 l -1.1,-2.8 c 3.2,4.1 4.8,7.9 4.8,11.6 0,2 -0.5,3.7 -1.4,5.3 -0.6,1 -1.6,2.4 -3.2,4 -1.6,1.6 -2.7,3 -3.3,3.9 2.1,-0.6 3.5,-1.1 4.2,-1.4 1.5,-0.7 2.8,-1.7 4,-3 0,0.5 -0.2,1.3 -0.7,2.3 z m -25.5,-23 c 0,0.7 -0.4,1.15 -1.18,1.35 l -1.53,0.2 c -0.6,0.2 -1.4,1.3 -2.4,3.2 l -0.6,-2.5 c -0.4,0 -1,0.3 -1.8,0.9 -0.4,0.2 -0.9,0.7 -1.7,1.2 0.2,-1.4 1,-2.9 2.3,-4.3 1.4,-1.6 2.7,-2.4 4.1,-2.4 1.7,0 2.6,0.7 2.6,2.1 z m 10.17,5.4 c 0,0.65 -0.36,1.2 -1.1,1.66 -0.7,0.44 -1.42,0.67 -2.12,0.67 -0.94,0 -1.78,-0.53 -2.52,-1.58 -0.9,-1.3 -1.8,-2.2 -2.75,-2.6 0.2,-0.2 0.43,-0.3 0.7,-0.3 0.36,0 0.95,0.3 1.8,0.8 0.83,0.5 1.36,0.8 1.6,0.8 0.2,0 0.52,-0.3 0.96,-0.8 0.45,-0.6 0.95,-0.9 1.5,-0.9 1.3,0 1.93,0.7 1.93,2 z" />
      <path
         style="fill:#0d0f0f"
         id="path218"
         d="m -588.88,153.16 c -2.7,2.73 -6,4.1 -9.95,4.1 -4.42,0 -7.93,-1.5 -10.52,-4.54 -2.46,-2.88 -3.68,-6.56 -3.68,-11.02 0,-4.8 2.1,-10.3 6.27,-16.44 3.4,-5.04 7.42,-9.47 12.04,-13.26 -0.67,3.07 -1,5.26 -1,6.56 0,2.98 0.92,5.9 2.8,8.72 2.3,3.36 4.06,5.86 5.26,7.5 1.88,2.83 2.8,5.6 2.8,8.28 0,4 -1.33,7.36 -4.02,10.1 z m -0.08,-15.4 c -0.72,-1.6 -1.56,-2.67 -2.52,-3.2 0.15,0.3 0.22,0.7 0.22,1.23 0,1 -0.3,2.4 -0.87,4.3 l -0.94,2.9 c 0,1.6 0.85,2.5 2.53,2.5 1.77,0 2.67,-1.2 2.67,-3.6 0,-1.2 -0.37,-2.6 -1.1,-4.2 z" />
    </g>
  </g>
</svg>
