<svg xmlns="http://www.w3.org/2000/svg" viewBox="0 0 26.5 26.5" height="100" width="100">
  <g transform="translate(-97.3 -106.7)">
    <circle cx="110.5" cy="119.9" r="13.2" fill="#cac5c0"/>
    <path d="M111.4 123.4l-1.2 4h-9.7v-.8l3.1-3.2a80 80 0 0 0 4-4.4c.5-.8.8-1.7.8-2.5s-.3-1.6-.8-2.2c-.5-.6-1.2-1-2-1-1.8 0-3.2 1.2-4.1 3.6l-1-.3c1.2-3.4 3.1-5 5.6-5a4.5 4.5 0 0 1 4.6 4.4c0 1.6-1 3.2-2.8 4.7l-2 1.6a32.6 32.6 0 0 0-3.3 3.3h5c.9 0 1.5-.1 1.9-.5l1-1.5h.8z" fill="#0d0f0f"/>
    <path d="M116.8 111.3c-1.8 0-3.3 1-4.3 3.1-.8 1.7-1.2 3.5-1.2 5.5 0 1.8.4 3.4 1.2 5 1 1.7 2.5 2.5 4.2 2.5 1.7 0 3.2-1 4.2-3a11.8 11.8 0 0 0 0-10.4c-1-1.8-2.4-2.7-4.1-2.7zm-.3 1c2.3 0 3.4 2.6 3.4 8 0 4.2-1 6.3-3.1 6.3-1.3 0-2.2-1-2.7-3.1-.4-1.3-.5-2.8-.5-4.5v-.5c0-4.1 1-6.2 3-6.2z" fill="#0d0f0f"/>
  </g>
</svg>
