<svg xmlns="http://www.w3.org/2000/svg" viewBox="0 0 26.5 26.5"><g transform="translate(194.47 -83.344) scale(.2646)"><circle cx="-685" cy="365" r="50" fill="#cac5c0"/><path fill="#0d0f0f" d="m -685.06,360.26 c 7.18,-10.05 15.2,-15.07 24.02,-15.07 5.9,0 10.6,1.8 14.1,5.3 3.5,3.6 5.26,8.3 5.26,14.2 0,5.9 -1.76,10.7 -5.26,14.4 -3.5,3.7 -8.17,5.5 -13.97,5.5 -8.7,0 -16.8,-5 -24.2,-15.1 -7.7,10 -15.6,15 -23.9,15 -5.9,0 -10.6,-1.9 -14.1,-5.5 -3.5,-3.7 -5.3,-8.5 -5.3,-14.4 0,-5.9 1.7,-10.7 5.2,-14.3 3.5,-3.7 8.2,-5.5 14.1,-5.5 8.5,0 16.4,5 23.9,15.1 z m -3.77,4.8 c -6.75,-9.26 -13.56,-13.9 -20.4,-13.9 -4.07,0 -7.32,1.3 -9.74,3.84 -2.43,2.55 -3.63,5.87 -3.63,9.94 0,4.07 1.2,7.42 3.63,10.07 2.42,2.7 5.67,4 9.74,4 6.5,0 13.3,-4.6 20.4,-13.9 z m 7.4,0 c 7.02,9.27 13.9,13.9 20.66,13.9 3.97,0 7.16,-1.27 9.54,-3.83 2.38,-2.55 3.58,-5.86 3.58,-9.94 0,-4.3 -1.2,-7.7 -3.58,-10.2 -2.38,-2.6 -5.65,-3.9 -9.8,-3.9 -4.16,0 -8.06,1.4 -11.7,4.4 -2.25,1.8 -5.14,4.9 -8.7,9.4 z"/></g></svg>