<svg xmlns="http://www.w3.org/2000/svg" viewBox="0 0 26.5 26.5"><g transform="translate(83.344 55.563) scale(.26458)"><circle cx="-265" cy="-160" r="50" fill="#cac5c0"/><path fill="#0d0f0f" d="m -278.42,-165.32 c 5.93,-5.58 11.9,-8.37 17.94,-8.37 6.56,0 11.83,2.7 15.8,7.9 3.67,4.8 5.52,10.5 5.52,17.3 0,7.4 -2.16,13.9 -6.48,19.5 -4.77,6.1 -10.7,9.2 -17.8,9.2 -8.55,0 -15.4,-3.7 -20.5,-11 -4.6,-6.5 -6.9,-14.1 -6.9,-23 0,-9.4 2.6,-18.1 7.83,-26.1 5.2,-7.9 12.1,-13.6 20.9,-16.9 4.9,-1.9 10.1,-2.8 15.6,-2.8 v 4.2 c -11.7,0.6 -20.4,5.3 -26.2,14 -3,4.5 -4.9,10 -5.8,16.5 z m -0.8,8.1 c -0.1,1.6 -0.15,3.23 -0.15,4.84 0,6.2 1.08,11.96 3.24,17.27 2.8,6.9 6.88,10.3 12.28,10.3 4.67,0 8.18,-2.4 10.52,-7.2 1.8,-3.7 2.7,-8.2 2.7,-13.4 0,-5.6 -0.86,-10.4 -2.57,-14.3 -2.34,-5.4 -5.93,-8.1 -10.8,-8.1 -5.92,0 -11,3.5 -15.23,10.4 z"/></g></svg>