<svg xmlns="http://www.w3.org/2000/svg" viewBox="0 0 26.5 26.5"><g transform="translate(138.906 -55.562) scale(.2646)"><path fill="#a3c095" d="m -439.65,224.64 c 9.05,9.06 14.65,21.56 14.65,35.36 0,27.6 -22.4,50 -50,50 -13.8,0 -26.3,-5.6 -35.35,-14.65"/><path fill="#cac5c0" d="M -510.35,295.35 C -519.4,286.3 -525,273.8 -525,260 c 0,-27.62 22.4,-50 50,-50 13.8,0 26.3,5.6 35.35,14.64"/><path fill="#0d0f0f" d="M-481.35 251.6l-2.87 9.67h-23.82v-2.07c1.16-1.3 3.7-3.9 7.6-7.8 2.36-2.36 4.7-4.86 7-7.48 1.17-1.3 2.06-2.4 2.68-3.34 1.38-2 2.07-4.04 2.07-6.14 0-2.04-.6-3.84-1.9-5.4-1.2-1.56-2.9-2.34-4.9-2.34-4.3 0-7.7 2.92-10.1 8.75l-2.1-.8c2.9-8.2 7.5-12.28 13.7-12.28 3.1 0 5.7 1.04 7.9 3.13 2.2 2.1 3.3 4.67 3.3 7.74 0 3.92-2.2 7.74-6.7 11.48l-4.7 3.87c-3 2.4-5.4 4.8-7.4 7-.1.1-.4.4-.8.9h12.4c1.9 0 3.4-.4 4.4-1.2.9-.7 1.7-2 2.5-3.8zM-435.48 277.62c0 .76-.3 1.43-.88 2.04-.6.6-1.26.9-2.02.9-1.2 0-2.1-.56-2.66-1.7l-2.67-.1c-.6 0-1.7.24-3.4.73-1.8.4-2.8.8-3.1 1.1-.4.4-.8 1.5-1 3.2-.2 1.3-.4 2.3-.4 3 0 1 .1 1.7.5 2.2.3.4.9.8 1.9 1.2 1 .3 1.6.5 1.8.5.1 0 .4-.1.7-.1h.7c.5 0 1 .1 1.5.2.7.2 1 .5.9.9-.5-.1-1.4 0-2.8.3l1.6.8c0 .4-.7.7-2 .7-.3 0-.8-.1-1.4-.2-.6-.2-1-.3-1.1-.3h-.8c0 .4-.1.9-.3 1.7-.7-.1-1.4-.4-2.3-1.2-.9-.7-1.4-1.1-1.7-1.1-.2 0-.5.4-.9 1.1-.4.7-.6 1.2-.6 1.5-.5-.3-.9-.8-1.3-1.5-.2-.5-.3-1-.5-1.5-.4 0-1.1.8-2.1 2.4h-.3c-.1-.1-.4-.9-.9-2.4-1.2-.4-2.3-.6-3.3-.6-.5 0-1.3.1-2.3.3l-1.6-.1c.2-.2.9-.7 1.9-1.3 1.3-.8 2.3-1.2 2.9-1.2h.8c.3 0 .7-.2 1.3-.4.6-.3.9-.6 1-.8.1-.3.2-.8.2-1.8 0-2.2-.6-3.8-1.7-4.8-1-1-2.6-1.7-4.9-2.1-.6 2.1-2.3 3.2-5.1 3.2-.9 0-1.8-.6-2.7-1.7-.9-1.1-1.4-2.1-1.4-3 0-1.4.6-2.6 1.7-3.5-1-1-1.4-2-1.4-3 0-1 .3-1.8.9-2.5.6-.7 1.3-1.1 2.3-1.3-.1-1.2.3-2.1 1.2-2.5-.4-.4-.6-1.2-.6-2.2 0-1.3.4-2.3 1.2-3.2.8-.8 1.8-1.2 3.1-1.2 1.3 0 2.4.5 3.3 1.5 1.1-3.8 3.4-5.6 7.1-5.6 1.9 0 3.5.7 5 2.2.5.5.8.8.8.9-.5 0-.2-.1.7-.3.9-.2 1.5-.2 2-.2 1.4 0 2.7.5 3.9 1.6.9 1 1.6 2.3 2 3.8.2 0 .7.1 1.2.3.8.4 1.3 1.1 1.3 2.1 0 .2-.2.6-.5 1.1 2.4 1.4 3.6 3.3 3.6 5.7 0 .7-.3 1.6-.8 2.9 1 .5 1.5 1.4 1.5 2.5zm-23.37 2.5v-.74c0-.87-.42-1.67-1.27-2.38-.85-.72-1.7-1.08-2.58-1.08-1.06 0-2.05.24-2.95.73 2-.1 4.27 1.04 6.8 3.46zm-1.02-7.04c-.57-.64-1.06-1.3-1.47-1.98-1.6.4-2.4.9-2.4 1.4.47-.02 1.13.06 2 .27.87.2 1.5.3 1.87.3zm3.46-1.76v-2.5c-1-.14-1.5-.22-1.7-.22v.85zm7.3-1.58l-2.6-1.14v4.88c1.8-1.02 2.6-2.27 2.5-3.74zm3.1 6.7l-1.3-1.54c-.8.53-1.5 1.07-2.3 1.6-.8.56-1.5 1.18-2 1.86 1.7-.9 3.5-1.55 5.5-1.93z"/></g></svg>