<svg xmlns="http://www.w3.org/2000/svg" viewBox="0 0 26.5 26.5"><g transform="translate(111.125 -27.78) scale(.26458)"><path fill="#a3c095" d="m -334.65,119.64 c 9.05,9.06 14.65,21.56 14.65,35.36 0,27.6 -22.4,50 -50,50 -13.8,0 -26.3,-5.6 -35.35,-14.65"/><path fill="#bab1ab" d="M -405.35,190.35 C -414.4,181.3 -420,168.8 -420,155 c 0,-27.6 22.4,-50 50,-50 13.8,0 26.3,5.6 35.35,14.64"/><path fill="#0d0f0f" d="M-366.74 133.1c0 2.7-.98 4.55-2.95 5.54-.5.28-2.3.67-5.4 1.16-1.9.33-2.9 1.1-2.9 2.27v4.98c0 .2.1.84.2 1.9l.2 1.97c0 .6-.1 1.6-.4 3l-2.7.56c-.3-1.23-.5-2.07-.5-2.52 0-.2.1-.5.2-.92.1-.4.2-.72.2-.92 0-.3-.2-1.1-.7-2.4h-.9c-.1.2-.1.47-.1.8.2.7.3 1.3.2 1.78-.7.5-1.6 1.15-2.9 1.97-.3-.1-.4-.13-.3-.13v-4.36c-.1-.2-.3-.28-.6-.24h-.7l-.7 5.77c-.6.1-1.2.1-2.1 0-.3-1.3-.8-3.3-1.5-6h-.5l-.7 2.4c0 .2.1.5.2 1 .1.5.2.8.2 1 0 .1 0 .5-.1.9l-.2 1.5c-.1.1-.2.1-.3.1-1.2 0-2-.3-2.4-.9-.4-.6-.5-1.5-.5-2.6l.5-7.4c0-.1.1-.3.2-.5.1-.2.1-.3.1-.4 0-.3-.3-1-1-2-.1-.1-.7-.2-1.9-.4l-4.1-.8c-2.8-.5-4.2-2.8-4.2-6.8 0-6 2.5-10.9 7.4-14.9.2 1.1.6 2.6 1.1 4.4l2.4.6 3.7 1.4c-1.2-.7-2.7-1.8-4.5-3.4-.7-.8-1-2.2-1-4.1 0-.5.8-1 2.4-1.6 1.4-.6 2.4-.9 3.1-1 2.2-.3 3.9-.4 5.1-.4 5.1 0 9.3 1.3 12.4 3.9-1 1.2-2.8 2.5-5.3 3.8 1 .1 2.4-.3 4.3-1.1 1.9-.8 2.7-1.2 2.4-1.2.3 0 1 .7 2 2 .7 1 1.3 1.9 1.8 2.7 1.3 2.4 2.2 4.9 2.7 7.6 0 1 0 1.6.1 2v.5zm-23.52 1.12c0-1.76-.77-3.43-2.3-5-1.54-1.58-3.2-2.37-4.94-2.37-1.56 0-2.93.66-4.12 1.98-1.18 1.32-1.78 2.78-1.78 4.4 0 1.4.68 2.3 2.03 2.7.86.26 2.06.4 3.62.44h3.38c2.74.04 4.1-.68 4.1-2.15zm6.7 7.6v-1.9c-.3-.52-.58-1.08-.86-1.65-.25-.82-.7-1.96-1.36-3.44l-.67 7.2c0 .56-.12.85-.37.85-.16 0-.3-.04-.37-.13-.2-4.34-.4-6.22-.4-5.64V135c-.1-.13-.2-.2-.3-.2-1.4 1.45-2.1 3.76-2.1 6.95 0 1.77.2 2.85.5 3.27.3-.1.7-.24 1.1-.44.2-.1.7-.13 1.4-.13.8 0 1.8.26 2.9.75.4 0 .6-1.1.6-3.32zm13.87-8.55c0-1.64-.6-3.1-1.8-4.4-1.2-1.3-2.6-1.96-4.2-1.96-1.7 0-3.3.8-4.8 2.4-1.5 1.6-2.2 3.3-2.2 5 0 1.5.7 2.2 2.1 2.2h7.1c2.7 0 4-1 4-3.1zM-330.48 172.62c0 .76-.3 1.43-.88 2.04-.6.6-1.26.9-2.02.9-1.2 0-2.1-.56-2.66-1.7l-2.67-.1c-.6 0-1.7.24-3.4.73-1.8.4-2.8.8-3.1 1.1-.4.4-.8 1.5-1 3.2-.2 1.3-.4 2.3-.4 3 0 1 .1 1.7.5 2.2.3.4 1 .8 2 1.2 1 .3 1.6.5 1.8.5.1 0 .4-.1.7-.1h.7c.5 0 1 .1 1.5.2.7.2 1.1.5.9.9-.5-.1-1.5 0-2.8.3l1.6.8c0 .4-.7.7-2 .7-.3 0-.8-.1-1.4-.2-.6-.2-1-.3-1.1-.3h-.8c0 .4-.1.9-.3 1.7-.7-.1-1.4-.4-2.3-1.2-.9-.7-1.4-1.1-1.6-1.1-.3 0-.6.4-1 1.1-.4.7-.6 1.2-.6 1.5-.5-.3-.9-.8-1.3-1.5-.1-.5-.3-1-.5-1.5-.4 0-1.1.8-2.1 2.4h-.3l-.8-2.4c-1.2-.4-2.3-.6-3.3-.6-.5 0-1.3.1-2.3.3l-1.6-.1c.2-.2.9-.7 2-1.3 1.3-.8 2.2-1.2 2.9-1.2h.9c.3 0 .7-.2 1.3-.4.6-.3.9-.6 1-.8.1-.3.1-.8.1-1.8 0-2.2-.6-3.8-1.7-4.8-1-1-2.6-1.7-4.9-2.1-.6 2.1-2.3 3.2-5.1 3.2-.9 0-1.8-.6-2.7-1.7-.9-1.1-1.4-2.1-1.4-3 0-1.4.6-2.6 1.8-3.5-1-1-1.5-2-1.5-3 0-1 .3-1.8.9-2.5.6-.7 1.3-1.2 2.3-1.3-.1-1.2.3-2.1 1.2-2.5-.4-.4-.6-1.2-.6-2.2 0-1.3.4-2.3 1.2-3.2.8-.9 1.9-1.3 3.1-1.3 1.3 0 2.4.5 3.3 1.4 1.1-3.8 3.5-5.6 7.1-5.6 1.9 0 3.5.7 5 2.2l.8.9c-.5 0-.2-.1.7-.2.9-.1 1.6-.2 2-.2 1.4 0 2.7.6 3.9 1.7 1 1 1.7 2.2 2 3.7.3 0 .7.1 1.3.3.8.4 1.2 1.1 1.2 2.1 0 .2-.1.5-.4 1.1 2.4 1.3 3.6 3.2 3.6 5.6 0 .7-.3 1.6-.8 2.8 1 .6 1.5 1.4 1.5 2.5zm-23.37 2.5v-.74c0-.87-.42-1.67-1.27-2.38-.85-.72-1.7-1.08-2.58-1.08-1.06 0-2.05.24-2.95.73 2-.1 4.27 1.04 6.8 3.46zm-1.02-7.04c-.56-.64-1.06-1.3-1.47-1.98-1.6.4-2.4.9-2.4 1.4.47-.02 1.13.06 2 .27.87.2 1.5.3 1.87.3zm3.46-1.76v-2.5c-1-.14-1.5-.22-1.7-.22v.85zm7.3-1.58l-2.6-1.14v4.88c1.8-1.02 2.6-2.27 2.5-3.74zm3.1 6.7l-1.3-1.54-2.3 1.6c-.8.56-1.5 1.18-2 1.86 1.7-.9 3.5-1.55 5.5-1.93z"/></g></svg>