<?xml version="1.0" encoding="UTF-8" standalone="no"?><svg xmlns="http://www.w3.org/2000/svg" viewBox="0 0 6.54 6.62"><g transform="translate(-55.596 -34.727) scale(.06615)"><path d="M888.9 624.7c-.5-.6-.7-1.7-1.2-2.4-.5-.8-1.2-1.6-1.8-2.4-.8-1.1-1.6-2.1-2.4-3.1-1.3-1.8-2.8-3.4-4.4-5-3.8-4-7.9-7.6-12.4-10.7-7.1-4.8-14.6-9.1-22.6-12.1-.6-.2 0 0-3.6-1.8.7-1.1 4.9-7.1 5.9-8.7 1.7-2.6 2.8-5.5 4.1-8.4 1.6-3.6 3-7.4 4.1-11.2 1.4-4.9 2.6-9.8 3.6-14.8.3-1.4 1.8-13.1 2.7-19.1 8.1 2.3 5.3 1.6 7.1 2.1 5.1 1.3 10.4 1.6 15.6 2 3 .2 5.9.2 8.9.2 4.4-.1 8.8-.3 13.2-.9 2.2-.3 4.3-.7 6.5-1.3 1.7-.4 2.8-.7 6.4-2.1.4 1.5 4.5 29.8 10 42.8 2.2 5.1 8.8 16.4 10.8 19-2.9 1.1-14.8 6.5-20.9 10.2-7.6 4.5-14.7 10-20.6 16.5-2.8 3.1-5 6.7-7.2 10.2-.9 1.4-1.3 1.6-1.8 1zm2.4-11.3c1.6-8.2 6.1-18.7 13.2-30.4 2.4-4 6.9-10.7 9.7-14.5 1.7-2.3 2.3-3.2 2.3-3.5 0-.3-.1-.5-.2-.5s-1.2.1-2.4.3c-7.4 1.4-15 1.8-20.9 1.2-2.7-.3-4.6-.6-4.8-.8-.2-.2.4-4 .9-5.9 2.1-8.2 6.8-16.8 13-23.3.9-1 1.7-1.9 1.6-1.9 0 0-.6.1-1.3.3-7.8 2.5-16.4 2.7-22.6.7-.8-.3-1.6-.5-1.6-.5s0 .9.1 1.9c1 9.4-3.5 21.8-12.9 35.7-1.4 2.1-4.2 5.8-5.8 7.8-.6.8-.9 1.3-.8 1.3.1 0 1.3-.2 2.6-.6 3.8-1 7-1.6 11.4-2.1 3.3-.4 11.6-.4 14.4.1 1.9.3 4.4.9 4.6 1 0 0 0 .4-.2.7-.6 2-1.5 5.9-1.9 8.8-.7 5.5-.7 14.5 0 21.1.3 2.6.8 5.9 1 6.2-.1 0 0-.2.6-3.1z"/></g></svg>