<?xml version="1.0" encoding="UTF-8" standalone="no"?>
<!-- Created with Inkscape (http://www.inkscape.org/) -->

<svg
   xmlns:dc="http://purl.org/dc/elements/1.1/"
   xmlns:cc="http://creativecommons.org/ns#"
   xmlns:rdf="http://www.w3.org/1999/02/22-rdf-syntax-ns#"
   xmlns:svg="http://www.w3.org/2000/svg"
   xmlns="http://www.w3.org/2000/svg"
   xmlns:sodipodi="http://sodipodi.sourceforge.net/DTD/sodipodi-0.dtd"
   xmlns:inkscape="http://www.inkscape.org/namespaces/inkscape"
   version="1.1"
   id="svg10"
   width="39"
   height="39"
   viewBox="0 0 39 39"
   sodipodi:docname="acorne.svg"
   inkscape:version="0.92.4 (5da689c313, 2019-01-14)">
  <metadata
     id="metadata16">
    <rdf:RDF>
      <cc:Work
         rdf:about="">
        <dc:format>image/svg+xml</dc:format>
        <dc:type
           rdf:resource="http://purl.org/dc/dcmitype/StillImage" />
        <dc:title></dc:title>
      </cc:Work>
    </rdf:RDF>
  </metadata>
  <defs
     id="defs14" />
  <sodipodi:namedview
     pagecolor="#ffffff"
     bordercolor="#666666"
     borderopacity="1"
     objecttolerance="10"
     gridtolerance="10"
     guidetolerance="10"
     inkscape:pageopacity="0"
     inkscape:pageshadow="2"
     inkscape:window-width="1920"
     inkscape:window-height="986"
     id="namedview12"
     showgrid="false"
     inkscape:zoom="6.4442567"
     inkscape:cx="84.678806"
     inkscape:cy="49.423854"
     inkscape:window-x="-11"
     inkscape:window-y="-11"
     inkscape:window-maximized="1"
     inkscape:current-layer="svg10" />
  <path
     style="fill:#000000;stroke-width:0.31999999"
     d="m 8.963868,37.198758 c -1.660924,-0.44765 -3.53217,-0.74015 -4.420715,-0.69102 l -1.540715,0.0852 0.194887,-1.03825 c 0.12218,-0.6509 -0.12966,-2.38196 -0.6750429,-4.64 -1.8310841,-7.5812 -0.701028,-12.428499 4.3697429,-18.743696 2.756934,-3.4335195 4.71096,-4.0228985 7.932893,-2.3927515 2.430125,1.2295325 7.311671,5.4072155 10.531652,9.0131135 6.137069,6.872594 6.855699,9.639054 3.352307,12.905104 -2.77873,2.59049 -6.597271,4.8213 -9.963089,5.8205 -2.5071,0.74428 -6.297197,0.62099 -9.78192,-0.3182 z M 6.934501,22.032938 c 1.536452,-3.128137 4.283834,-6.101117 6.749367,-7.303581 1.731664,-0.84455 1.876154,-1.32982 0.676845,-2.273196 -1.7296,-1.360503 -3.992541,-0.533728 -6.206974,2.267737 -3.19464,4.041523 -4.775931,9.53874 -3.942517,13.70581 0.191353,0.95676 0.252881,0.8549 0.797322,-1.32 0.324482,-1.29623 1.191163,-3.58077 1.925957,-5.07677 z m 25.085698,6.89028 c 0.69511,-1.66364 0.571161,-2.67296 -0.618218,-5.03423 C 28.34335,17.816733 19.844473,9.6077515 14.576899,7.6378095 c -1.811696,-0.67753 -2.018276,-0.692676 -3.371488,-0.247178 -1.440429,0.474208 -1.441543,0.473981 -1.441543,-0.29431 0,-0.95512 0.994845,-2.947092 1.864765,-3.733812 1.557466,-1.408502 4.947101,-1.880384 7.369059,-1.025865 0.722858,0.255037 2.504961,1.185449 3.960231,2.067577 2.625549,1.591508 2.664579,1.603181 5.062986,1.51409 1.329369,-0.04938 2.592566,-0.198262 2.807098,-0.330851 0.214531,-0.132589 0.988796,-1.058599 1.720588,-2.057799 1.910231,-2.60825603 2.2744,-2.75082503 2.650666,-1.037705 0.112547,0.512422 0.653654,1.609581 1.202461,2.438125 l 0.997827,1.506448 -0.937369,0.678201 c -2.31681,1.676253 -2.626689,2.161418 -2.811962,4.4025945 l -0.175619,2.124394 1.897808,3.152006 c 2.195507,3.646443 2.721776,5.533803 2.244614,8.049863 -0.17592,0.92761 -0.4636,1.95517 -0.639289,2.28344 -0.52442,0.97989 -2.19322,2.21895 -3.463799,2.57182 -1.90937,0.53029 -2.016205,0.47481 -1.493734,-0.77563 z"
     id="path3801"
     inkscape:connector-curvature="0" />
</svg>
