<svg xmlns="http://www.w3.org/2000/svg" viewBox="0 0 26.5 26.5"><g transform="translate(111.125) scale(.2646)"><circle cx="-370" cy="50" r="50" fill="#c1d7e9"/><path fill="#0d0f0f" d="m -352.5,83.72 c -4.8,4.87 -10.7,7.3 -17.7,7.3 -7.86,0 -14.1,-2.68 -18.7,-8.07 -4.37,-5.12 -6.55,-11.66 -6.55,-19.6 0,-8.55 3.72,-18.3 11.15,-29.23 6.07,-8.97 13.2,-16.83 21.4,-23.58 -1.2,5.47 -1.8,9.36 -1.8,11.67 0,5.3 1.67,10.5 5,15.5 4.1,6 7.23,10.5 9.36,13.4 3.34,5.1 5,10 5,14.8 0,7.1 -2.4,13.1 -7.17,18 z m -0.14,-27.36 c -1.28,-2.86 -2.78,-4.76 -4.5,-5.7 0.27,0.5 0.4,1.23 0.4,2.17 0,1.8 -0.5,4.36 -1.54,7.7 l -1.67,5.12 c 0,3 1.5,4.5 4.5,4.5 3.15,0 4.73,-2.1 4.73,-6.3 0,-2.13 -0.64,-4.63 -1.92,-7.5 z"/></g></svg>