<svg xmlns="http://www.w3.org/2000/svg" viewBox="0 0 13.2 26.5"><g transform="translate(15.61 -111.125) scale(.2646)"><path fill="#e49977" d="m -59,420 v 100 c 27.6,0 50,-22.4 50,-50 0,-27.6 -22.4,-50 -50,-50 z"/><path fill="#0d0f0f" d="m -24.3,488.14 c -1.46,0.68 -4.5,1.66 -9.18,2.93 1.27,-1.96 3.65,-4.73 7.13,-8.3 3.48,-3.6 5.86,-6.53 7.13,-8.84 1.95,-3.4 2.93,-7.2 2.93,-11.38 0,-7.93 -3.4,-16.33 -10.4,-25.2 1.1,2.76 1.9,4.82 2.4,6.2 1.4,3.52 2.1,6.45 2.1,8.77 0,1.8 -0.4,3.1 -1.4,3.87 -5.1,-18.6 -16.9,-28.3 -35.2,-29.3 v 4.5 c 3,1 4.5,2.2 4.5,3.7 0,0.6 -1.5,1.3 -4.5,2.1 v 3.8 h 0.1 c 2,0 4.1,-0.7 6.5,-1.9 2.4,-1.3 4.2,-1.9 5.4,-1.9 2.6,0 4.6,1.3 6.3,3.9 1.5,2.2 2.2,4.6 2.2,7.4 0,2.1 -0.5,3.2 -1.5,3.2 -0.7,0 -1.8,-1.1 -3.3,-3.2 l -2.3,-3.6 c -0.1,0.6 -0.2,1.2 -0.2,1.7 0,3.5 1.6,6.8 4.9,9.9 3.3,3 6.7,4.7 10.3,4.8 -0.2,2.3 -0.8,4.6 -1.8,7.1 -1.2,3.2 -2.5,5.1 -4.1,5.7 -1,-1 -1.6,-2.5 -1.6,-4.3 0,-0.9 0.3,-2.2 0.9,-4 0.6,-1.8 0.8,-3.1 0.8,-3.8 -0.8,0.3 -1.8,1.2 -2.8,2.7 -1,1.5 -1.7,2.7 -1.8,3.7 -0.6,3.5 -0.7,6.6 -0.5,9.1 0.3,2.2 -0.7,4.6 -2.8,7.4 -2.1,2.7 -4.3,4 -6.5,4 -1.4,0 -2.7,-0.3 -3.9,-0.9 -1.5,-0.8 -2.3,-1.8 -2.3,-3.1 0,-2 1.9,-4.1 5.5,-6.2 5.1,-3.1 8.1,-9.1 8.9,-18 0.3,0 -1.9,1.3 -6.6,3.9 -3.6,2 -6.7,3.2 -9.4,3.6 V 512 c 10.6,-0.7 18.5,-2.6 23.9,-5.73 -1.3,0 -4.4,-0.06 -9.4,-0.18 -5,-0.2 -6.4,-0.2 -4.3,-0.2 -0.4,0 -0.9,-0.3 -1.5,-0.8 -0.6,-0.5 -0.9,-1 -0.9,-1.5 0,-1.4 1.8,-2.5 5.4,-3.2 2.4,-0.5 4.6,-0.8 6.6,-0.8 11.1,0 18.5,-4.5 22.3,-13.4 0.9,-2.2 1.4,-3.9 1.4,-5 -2.7,2.9 -5.6,5.1 -8.8,6.5 z"/><path fill="#0d0f0f" d="m -52.64,451.93 c 1.57,-0.97 2.36,-2.2 2.36,-3.63 0,-2.97 -1.4,-4.45 -4.2,-4.45 -1.2,0 -2.28,0.6 -3.25,1.78 -0.45,0.54 -0.83,0.95 -1.17,1.25 v 6.24 c 0.53,0.17 1.06,0.27 1.6,0.27 1.54,0 3.1,-0.5 4.66,-1.5 z"/></g></svg>