<?xml version="1.0" encoding="UTF-8" standalone="no"?>
<svg
   xmlns:dc="http://purl.org/dc/elements/1.1/"
   xmlns:cc="http://creativecommons.org/ns#"
   xmlns:rdf="http://www.w3.org/1999/02/22-rdf-syntax-ns#"
   xmlns:svg="http://www.w3.org/2000/svg"
   xmlns="http://www.w3.org/2000/svg"
   xmlns:xlink="http://www.w3.org/1999/xlink"
   id="svg8"
   version="1.1"
   viewBox="0 0 26.458328 26.458332"
   height="26.458332mm"
   width="26.458332mm">
  <defs
     id="defs2">
    <linearGradient
       gradientUnits="userSpaceOnUse"
       xlink:href="#a"
       gradientTransform="matrix(1.4733394,0,0,1.5793349,-1202.8083,-227.62597)"
       y2="-43.950001"
       y1="-43.950001"
       x2="701.51001"
       x1="633.63"
       id="b" />
    <linearGradient
       id="a">
      <stop
         id="stop4"
         stop-color="red"
         offset="0" />
      <stop
         id="stop6"
         stop-color="#ff0"
         offset=".2" />
      <stop
         id="stop8"
         stop-color="#0f0"
         offset=".4" />
      <stop
         id="stop10"
         stop-color="#0ff"
         offset=".6" />
      <stop
         id="stop12"
         stop-color="#00f"
         offset=".8" />
      <stop
         id="stop14"
         stop-color="#f0f"
         offset="1" />
    </linearGradient>
  </defs>
  <metadata
     id="metadata5">
    <rdf:RDF>
      <cc:Work
         rdf:about="">
        <dc:format>image/svg+xml</dc:format>
        <dc:type
           rdf:resource="http://purl.org/dc/dcmitype/StillImage" />
        <dc:title></dc:title>
      </cc:Work>
    </rdf:RDF>
  </metadata>
  <g
     transform="translate(-102.57573,-109.03782)"
     id="layer1">
    <g
       id="g250"
       transform="matrix(0.26458333,0,0,0.26458333,185.91948,81.256573)">
      <path
         style="fill:#f8f6d8"
         id="path242"
         d="m -229.65,119.64 c 9.05,9.06 14.65,21.56 14.65,35.36 0,27.6 -22.4,50 -50,50 -13.8,0 -26.3,-5.6 -35.35,-14.65" />
      <path
         style="fill:#e49977"
         id="path244"
         d="M -300.35,190.35 C -309.4,181.3 -315,168.8 -315,155 c 0,-27.6 22.4,-50 50,-50 13.8,0 26.3,5.6 35.35,14.64" />
      <path
         style="fill:#0d0f0f"
         id="path246"
         d="m -227,178.1 c -2.44,-2.25 -4.05,-3.48 -4.85,-3.67 -0.57,-0.14 -1.13,0.2 -1.67,1 -0.54,0.8 -1.3,1.1 -2.27,0.86 -0.3,-0.1 -1.1,-0.5 -2.3,-1.1 -0.9,0.9 -1.4,1.4 -1.5,1.7 -0.1,0.4 0.1,0.9 0.6,1.6 0.5,0.7 0.9,1 1.3,1.1 0.3,0.1 0.6,0.1 1.1,0.1 h 0.9 c 0.5,0.1 0.5,0.9 0.1,2.6 -0.3,1.5 -1.3,3.8 -2.8,6.9 0,-3.9 -0.6,-6 -1.6,-6.3 -0.1,0 -0.4,0 -0.9,0.1 -0.5,0.1 -0.8,0.1 -1.1,0.1 -1,-0.3 -1.7,-1.4 -2.1,-3.6 -1.7,-0.2 -2.7,0.5 -3.1,1.9 -0.2,0.7 0,1.4 0.6,2 0.6,0.5 0.8,0.9 0.8,1.1 -0.2,1 -2,2.1 -5.3,3.5 l -3.7,1.5 c 0.7,-0.6 1.4,-1.3 2.2,-2.2 0.9,-1.1 1.4,-1.9 1.6,-2.6 0.1,-0.4 -0.2,-1 -0.9,-1.8 -0.6,-0.9 -0.9,-1.7 -0.7,-2.4 0.1,-0.7 0.5,-1.4 1.2,-2.2 -0.3,-0.6 -0.8,-1 -1.5,-1.2 -1.4,-0.3 -2.3,-0.1 -2.5,0.9 l -0.3,1.5 c -0.2,1.2 -1.3,1.5 -3.1,1.1 -1.4,-0.4 -3.7,-1.2 -6.9,-2.7 4,0 6.1,-0.7 6.4,-1.9 0,0.2 0,-0.3 0.1,-1.3 0.2,-1.2 1.2,-2 3.1,-2.5 0.1,-1.8 -0.6,-2.8 -2,-3.1 -0.2,-0.1 -0.7,0.2 -1.4,0.8 -0.7,0.6 -1.4,0.9 -1.9,0.7 -0.8,-0.2 -1.7,-1.4 -2.7,-3.7 -0.4,-1.1 -1,-2.7 -1.9,-4.9 l 2.2,1.9 c 1,0.8 1.8,1.2 2.4,1.4 0.5,0.1 1.1,-0.2 1.8,-1 0.7,-0.8 1.4,-1.1 2.2,-0.9 0.2,0 0.8,0.4 2.1,1.1 1,-0.9 1.5,-1.6 1.6,-2.1 0.1,-0.5 0,-1 -0.4,-1.7 -0.4,-0.7 -0.8,-1.1 -1.2,-1.2 -0.2,-0.1 -0.5,-0.1 -0.9,-0.1 -0.4,0 -0.7,0 -0.9,-0.1 -0.6,-0.2 -0.8,-1 -0.4,-2.7 0.1,-0.4 1.1,-2.8 3.1,-7.1 -0.1,0.5 -0.1,1.6 0,3.2 0.2,1.9 0.7,3 1.6,3.2 0.2,0 0.5,0 1,-0.1 0.5,-0.1 0.9,-0.2 1.1,-0.1 0.9,0.2 1.4,0.8 1.8,1.9 l 0.4,1.6 c 0.8,0.2 1.5,0.1 2.1,-0.3 0.7,-0.4 1.1,-1 1.3,-1.8 0.2,-0.8 0,-1.4 -0.6,-2 -0.6,-0.6 -0.8,-1 -0.8,-1.2 0.2,-0.8 1.7,-1.8 4.5,-3 2.3,-1 3.7,-1.5 4.4,-1.6 -2,1.7 -3.2,3.1 -3.4,4 -0.1,0.5 0.1,1.1 0.6,1.8 0.6,0.9 0.9,1.5 1,1.8 0.2,0.9 -0.1,2.1 -0.9,3.4 0.8,0.9 1.5,1.4 2,1.6 1.1,0.2 1.7,-0.2 2,-1.3 0.1,-0.1 0.1,-0.5 0.1,-1.1 0.1,-0.6 0.1,-1 0.2,-1 0.3,-0.5 1.3,-0.5 3.17,-0.1 1.14,0.3 3.5,1.2 7,2.7 l -3.8,0.1 c -1.6,0.1 -2.4,0.4 -2.57,1 -0.1,0.2 -0.1,0.7 -0.1,1.3 v 1.4 c -0.2,0.5 -0.6,0.9 -1.3,1.2 l -2.2,0.9 c 0.2,0.9 0.4,1.4 0.5,1.6 0.2,0.5 0.7,0.8 1.3,1 0.4,0.1 0.9,-0.2 1.4,-0.9 0.5,-0.7 1.2,-0.9 2,-0.8 1,0.2 1.8,1.4 2.6,3.5 l 2.1,5.4 z m -11.27,-6 c 0.55,-2.32 0.18,-4.53 -1.1,-6.63 -1.3,-2.1 -3.1,-3.43 -5.42,-4 -2.3,-0.55 -4.5,-0.2 -6.6,1.08 -2.1,1.27 -3.4,3.08 -4,5.42 -0.6,2.3 -0.2,4.5 1.2,6.6 1.4,2.1 3.2,3.43 5.5,3.98 2.5,0.6 4.7,0.28 6.7,-0.94 2,-1.2 3.3,-3 3.9,-5.5 z m -0.82,-0.2 c -0.5,2.2 -1.7,3.85 -3.5,4.93 -1.8,1.1 -3.8,1.38 -6,0.85 -2.1,-0.5 -3.8,-1.7 -4.9,-3.53 -1.1,-1.84 -1.5,-3.83 -0.9,-5.96 0.5,-2.1 1.7,-3.8 3.6,-4.9 1.9,-1.2 3.9,-1.5 6,-1 2.1,0.5 3.7,1.7 4.9,3.5 1.2,1.9 1.5,3.8 1,5.9 z" />
      <path
         style="fill:#0d0f0f"
         id="path248"
         d="m -263.06,143.08 c -1.72,4.1 -5.13,6.14 -10.24,6.14 -0.94,0 -1.95,0.12 -3.05,0.35 -1.64,0.36 -2.45,0.84 -2.45,1.47 0,0.2 0.13,0.42 0.4,0.67 0.28,0.3 0.5,0.4 0.7,0.4 -0.97,0 -0.3,0.1 2,0.1 2.3,0 3.74,0.1 4.33,0.1 -3.4,2 -9.07,2.9 -17.03,2.8 -2.62,0 -4.86,-1.2 -6.73,-3.4 -1.83,-2.1 -2.75,-4.5 -2.75,-7.2 0,-2.8 0.94,-5.2 2.84,-7.1 1.9,-1.9 4.24,-2.9 7.05,-2.9 0.7,0 1.5,0.2 2.5,0.4 1.1,0.3 1.8,0.4 2.1,0.4 1.5,0 3.3,-0.6 5.4,-1.7 2.2,-1.2 3.2,-1.8 3.1,-1.8 -0.4,4.1 -1.7,6.9 -4.1,8.3 -1.6,1 -2.5,2 -2.5,2.9 0,0.6 0.4,1.1 1.1,1.5 0.6,0.3 1.2,0.4 1.8,0.4 1.1,0 2,-0.6 3,-1.9 1,-1.3 1.4,-2.4 1.3,-3.4 -0.1,-1.1 0,-2.6 0.3,-4.2 0.1,-0.5 0.4,-1 0.9,-1.7 0.5,-0.7 1,-1.1 1.4,-1.3 0,0.4 -0.1,0.9 -0.4,1.8 -0.2,0.9 -0.4,1.5 -0.4,1.9 0,0.9 0.3,1.5 0.7,2 0.7,-0.3 1.4,-1.1 1.9,-2.6 0.5,-1.1 0.8,-2.2 0.8,-3.2 -1.6,0 -3.2,-0.8 -4.7,-2.2 -1.5,-1.4 -2.2,-2.9 -2.2,-4.5 0,-0.3 0.1,-0.6 0.1,-0.8 0.3,0.3 0.6,0.9 1.1,1.6 0.7,1 1.2,1.5 1.6,1.5 0.5,0 0.7,-0.5 0.7,-1.4 0,-1.2 -0.3,-2.3 -1,-3.4 -0.7,-1.2 -1.7,-1.8 -2.8,-1.8 -0.5,0 -1.3,0.3 -2.4,0.9 -1.1,0.6 -2.1,0.9 -2.9,0.9 -0.3,0 -1.5,-0.4 -3.6,-1.1 3.8,-0.6 5.7,-1.2 5.7,-1.7 0,-1.3 -2.6,-2.2 -7.8,-2.6 l -2.8,-0.2 c 0.1,-0.2 1.3,-0.4 3.3,-0.7 1.7,-0.2 3,-0.3 3.7,-0.3 9.3,0 15.2,4.5 17.7,13.6 0.4,-0.3 0.7,-0.9 0.7,-1.8 0,-1 -0.3,-2.4 -1,-4 l -1.1,-2.8 c 3.2,4.1 4.8,8 4.8,11.6 0,1.9 -0.4,3.7 -1.3,5.2 -0.6,1.1 -1.7,2.4 -3.3,4.1 -1.6,1.6 -2.7,2.9 -3.3,3.8 2.2,-0.6 3.6,-1 4.2,-1.3 1.5,-0.6 2.9,-1.6 4.1,-3 0,0.6 -0.2,1.3 -0.6,2.3 z m -25.52,-23 c 0,0.7 -0.4,1.15 -1.17,1.35 l -1.52,0.23 c -0.55,0.27 -1.35,1.35 -2.4,3.22 l -0.53,-2.46 c -0.35,0.04 -0.93,0.35 -1.75,0.94 -0.35,0.27 -0.92,0.68 -1.7,1.23 0.24,-1.5 1.02,-2.9 2.34,-4.3 1.4,-1.6 2.7,-2.4 4.1,-2.4 1.7,0 2.6,0.7 2.6,2.1 z m 10.18,5.38 c 0,0.67 -0.36,1.23 -1.08,1.67 -0.72,0.45 -1.43,0.68 -2.13,0.68 -1,0 -1.8,-0.5 -2.6,-1.5 -0.9,-1.3 -1.8,-2.1 -2.8,-2.5 0.2,-0.2 0.4,-0.3 0.7,-0.3 0.3,0 0.9,0.3 1.8,0.8 0.8,0.6 1.3,0.9 1.6,0.9 0.2,0 0.5,-0.2 0.9,-0.8 0.4,-0.5 0.9,-0.8 1.5,-0.8 1.3,0 1.9,0.7 1.9,2.1 z" />
    </g>
  </g>
</svg>
