<?xml version="1.0" encoding="UTF-8" standalone="no"?>
<svg
   xmlns:dc="http://purl.org/dc/elements/1.1/"
   xmlns:cc="http://creativecommons.org/ns#"
   xmlns:rdf="http://www.w3.org/1999/02/22-rdf-syntax-ns#"
   xmlns:svg="http://www.w3.org/2000/svg"
   xmlns="http://www.w3.org/2000/svg"
   xmlns:xlink="http://www.w3.org/1999/xlink"
   id="svg8"
   version="1.1"
   viewBox="0 0 26.458328 26.458332"
   height="26.458332mm"
   width="26.458332mm">
  <defs
     id="defs2">
    <linearGradient
       gradientUnits="userSpaceOnUse"
       xlink:href="#a"
       gradientTransform="matrix(1.4733394,0,0,1.5793349,-1202.8083,-227.62597)"
       y2="-43.950001"
       y1="-43.950001"
       x2="701.51001"
       x1="633.63"
       id="b" />
    <linearGradient
       id="a">
      <stop
         id="stop4"
         stop-color="red"
         offset="0" />
      <stop
         id="stop6"
         stop-color="#ff0"
         offset=".2" />
      <stop
         id="stop8"
         stop-color="#0f0"
         offset=".4" />
      <stop
         id="stop10"
         stop-color="#0ff"
         offset=".6" />
      <stop
         id="stop12"
         stop-color="#00f"
         offset=".8" />
      <stop
         id="stop14"
         stop-color="#f0f"
         offset="1" />
    </linearGradient>
  </defs>
  <metadata
     id="metadata5">
    <rdf:RDF>
      <cc:Work
         rdf:about="">
        <dc:format>image/svg+xml</dc:format>
        <dc:type
           rdf:resource="http://purl.org/dc/dcmitype/StillImage" />
        <dc:title></dc:title>
      </cc:Work>
    </rdf:RDF>
  </metadata>
  <g
     transform="translate(-96.022232,-108.57551)"
     id="layer1">
    <g
       id="g330"
       transform="matrix(0.26458333,0,0,0.26458333,234.92848,53.013011)">
      <path
         style="fill:#a3c095"
         id="path322"
         d="m -439.65,224.64 c 9.05,9.06 14.65,21.56 14.65,35.36 0,27.6 -22.4,50 -50,50 -13.8,0 -26.3,-5.6 -35.35,-14.65" />
      <path
         style="fill:#cac5c0"
         id="path324"
         d="M -510.35,295.35 C -519.4,286.3 -525,273.8 -525,260 c 0,-27.62 22.4,-50 50,-50 13.8,0 26.3,5.6 35.35,14.64" />
      <path
         style="fill:#0d0f0f"
         id="path326"
         d="m -481.35,251.6 -2.87,9.67 h -23.82 v -2.07 c 1.16,-1.3 3.7,-3.9 7.6,-7.8 2.36,-2.36 4.7,-4.86 7,-7.48 1.17,-1.3 2.06,-2.4 2.68,-3.34 1.38,-2 2.07,-4.04 2.07,-6.14 0,-2.04 -0.6,-3.84 -1.9,-5.4 -1.2,-1.56 -2.9,-2.34 -4.9,-2.34 -4.3,0 -7.7,2.92 -10.1,8.75 l -2.1,-0.8 c 2.9,-8.2 7.5,-12.28 13.7,-12.28 3.1,0 5.7,1.04 7.9,3.13 2.2,2.1 3.3,4.67 3.3,7.74 0,3.92 -2.2,7.74 -6.7,11.48 l -4.7,3.87 c -3,2.4 -5.4,4.8 -7.4,7 -0.1,0.1 -0.4,0.4 -0.8,0.9 h 12.4 c 1.9,0 3.4,-0.4 4.4,-1.2 0.9,-0.7 1.7,-2 2.5,-3.8 z" />
      <path
         style="fill:#0d0f0f"
         id="path328"
         d="m -435.48,277.62 c 0,0.76 -0.3,1.43 -0.88,2.04 -0.6,0.6 -1.26,0.9 -2.02,0.9 -1.2,0 -2.1,-0.56 -2.66,-1.7 l -2.67,-0.1 c -0.6,0 -1.7,0.24 -3.4,0.73 -1.8,0.4 -2.8,0.8 -3.1,1.1 -0.4,0.4 -0.8,1.5 -1,3.2 -0.2,1.3 -0.4,2.3 -0.4,3 0,1 0.1,1.7 0.5,2.2 0.3,0.4 0.9,0.8 1.9,1.2 1,0.3 1.6,0.5 1.8,0.5 0.1,0 0.4,-0.1 0.7,-0.1 h 0.7 c 0.5,0 1,0.1 1.5,0.2 0.7,0.2 1,0.5 0.9,0.9 -0.5,-0.1 -1.4,0 -2.8,0.3 l 1.6,0.8 c 0,0.4 -0.7,0.7 -2,0.7 -0.3,0 -0.8,-0.1 -1.4,-0.2 -0.6,-0.2 -1,-0.3 -1.1,-0.3 h -0.8 c 0,0.4 -0.1,0.9 -0.3,1.7 -0.7,-0.1 -1.4,-0.4 -2.3,-1.2 -0.9,-0.7 -1.4,-1.1 -1.7,-1.1 -0.2,0 -0.5,0.4 -0.9,1.1 -0.4,0.7 -0.6,1.2 -0.6,1.5 -0.5,-0.3 -0.9,-0.8 -1.3,-1.5 -0.2,-0.5 -0.3,-1 -0.5,-1.5 -0.4,0 -1.1,0.8 -2.1,2.4 h -0.3 c -0.1,-0.1 -0.4,-0.9 -0.9,-2.4 -1.2,-0.4 -2.3,-0.6 -3.3,-0.6 -0.5,0 -1.3,0.1 -2.3,0.3 l -1.6,-0.1 c 0.2,-0.2 0.9,-0.7 1.9,-1.3 1.3,-0.8 2.3,-1.2 2.9,-1.2 h 0.8 c 0.3,0 0.7,-0.2 1.3,-0.4 0.6,-0.3 0.9,-0.6 1,-0.8 0.1,-0.3 0.2,-0.8 0.2,-1.8 0,-2.2 -0.6,-3.8 -1.7,-4.8 -1,-1 -2.6,-1.7 -4.9,-2.1 -0.6,2.1 -2.3,3.2 -5.1,3.2 -0.9,0 -1.8,-0.6 -2.7,-1.7 -0.9,-1.1 -1.4,-2.1 -1.4,-3 0,-1.4 0.6,-2.6 1.7,-3.5 -1,-1 -1.4,-2 -1.4,-3 0,-1 0.3,-1.8 0.9,-2.5 0.6,-0.7 1.3,-1.1 2.3,-1.3 -0.1,-1.2 0.3,-2.1 1.2,-2.5 -0.4,-0.4 -0.6,-1.2 -0.6,-2.2 0,-1.3 0.4,-2.3 1.2,-3.2 0.8,-0.8 1.8,-1.2 3.1,-1.2 1.3,0 2.4,0.5 3.3,1.5 1.1,-3.8 3.4,-5.6 7.1,-5.6 1.9,0 3.5,0.7 5,2.2 0.5,0.5 0.8,0.8 0.8,0.9 -0.5,0 -0.2,-0.1 0.7,-0.3 0.9,-0.2 1.5,-0.2 2,-0.2 1.4,0 2.7,0.5 3.9,1.6 0.9,1 1.6,2.3 2,3.8 0.2,0 0.7,0.1 1.2,0.3 0.8,0.4 1.3,1.1 1.3,2.1 0,0.2 -0.2,0.6 -0.5,1.1 2.4,1.4 3.6,3.3 3.6,5.7 0,0.7 -0.3,1.6 -0.8,2.9 1,0.5 1.5,1.4 1.5,2.5 z m -23.37,2.5 v -0.74 c 0,-0.87 -0.42,-1.67 -1.27,-2.38 -0.85,-0.72 -1.7,-1.08 -2.58,-1.08 -1.06,0 -2.05,0.24 -2.95,0.73 2,-0.1 4.27,1.04 6.8,3.46 z m -1.02,-7.04 c -0.57,-0.64 -1.06,-1.3 -1.47,-1.98 -1.6,0.4 -2.4,0.9 -2.4,1.4 0.47,-0.02 1.13,0.06 2,0.27 0.87,0.2 1.5,0.3 1.87,0.3 z m 3.46,-1.76 v -2.5 c -1,-0.14 -1.5,-0.22 -1.7,-0.22 v 0.85 z m 7.3,-1.58 -2.6,-1.14 v 4.88 c 1.8,-1.02 2.6,-2.27 2.5,-3.74 z m 3.1,6.7 -1.3,-1.54 c -0.8,0.53 -1.5,1.07 -2.3,1.6 -0.8,0.56 -1.5,1.18 -2,1.86 1.7,-0.9 3.5,-1.55 5.5,-1.93 z" />
    </g>
  </g>
</svg>
