<svg xmlns="http://www.w3.org/2000/svg" viewBox="0 0 49.7 26.5">
  <path d="M36.5 0H13.2a13.2 13.2 0 0 0 0 26.5h23.3a13.2 13.2 0 0 0 0-26.5z" fill="#cac5c0"/>
  <path d="M11.5 3.4v15.7c0 2 .8 2.8 2.4 2.8h.4V23H6v-1h.5c1.5 0 2.3-1 2.3-3V8.8C8.8 7 8 6 6.8 6h-.9V5h.3c1.6 0 3.1-.6 4.4-1.6h.9z" fill="#0d0f0f"/>
  <path d="M23.4 3.4c-2.2 0-4 1.3-5.2 3.8-1 2-1.5 4.2-1.5 6.6 0 2.2.5 4.3 1.5 6 1.2 2.2 3 3.2 5 3.2 2.2 0 4-1.2 5.2-3.7a14.1 14.1 0 0 0 0-12.7c-1.2-2.1-2.9-3.2-5-3.2zM23 4.7c1.7 0 2.8 1.2 3.5 3.8.4 1.6.6 3.5.6 5.7 0 5.2-1.2 7.8-3.7 7.8-1 0-1.9-.7-2.5-1.9a15 15 0 0 1-1.4-7.4v-.6c0-5 1.1-7.4 3.5-7.4z" fill="#0d0f0f"/>
  <path d="M39.6 3.4c-2.2 0-4 1.3-5.2 3.8-1 2-1.5 4.2-1.5 6.6 0 2.2.5 4.3 1.6 6 1.2 2.2 2.9 3.2 5 3.2s3.9-1.2 5-3.7a13 13 0 0 0 1.6-6.5c0-2.4-.5-4.4-1.5-6.2-1.2-2.1-2.9-3.2-5-3.2zm-.3 1.3c1.7 0 2.8 1.2 3.5 3.8.4 1.6.6 3.5.6 5.7 0 5.2-1.3 7.8-3.7 7.8-1 0-2-.7-2.6-1.9a15 15 0 0 1-1.4-7.4v-.6c0-5 1.2-7.4 3.6-7.4z" fill="#0d0f0f"/>
</svg>
