<svg xmlns="http://www.w3.org/2000/svg" viewBox="0 0 26.5 26.5"><g transform="translate(222.25) scale(.2646)"><path fill="#cac5c0" d="m -740,50 c 0,27.6 -22.38,50 -50,50 -27.6,0 -50,-22.4 -50,-50 0,-27.6 22.4,-50 50,-50 27.62,0 50,22.4 50,50 z"/><path fill="#0d0f0f" d="m -783.36,80 v -3.3 c 4.7,-0.52 7.06,-1.88 7.06,-4.08 0,-1.58 -0.63,-3.16 -1.88,-4.74 l -13,-16 -10.28,12.1 c -2.57,2.97 -3.87,5.43 -3.87,7.35 0,2.98 2.36,4.77 7.07,5.4 V 80 h -25.05 v -3.3 c 3.1,-0.6 5.8,-1.74 8.1,-3.4 1.5,-1.23 3.6,-3.37 6.2,-6.44 l 15.4,-17.92 -17.9,-21.66 c -2.3,-2.8 -4.1,-4.63 -5.4,-5.5 -1.7,-1.23 -4.1,-2.02 -7.2,-2.37 V 16 h 29.5 v 3.3 c -4.5,0.86 -6.7,2.22 -6.7,4.06 0,1.23 0.6,2.6 1.8,4.07 l 11.8,14.32 9.5,-11.7 c 1.7,-2.1 2.6,-3.93 2.6,-5.5 0,-2.64 -2.1,-4.35 -6.3,-5.14 V 16 h 23.5 v 3.3 c -2.1,0.43 -3.5,0.82 -4.2,1.18 -2.6,1.23 -6.5,4.87 -11.8,10.92 -0.9,0.97 -4.5,5.4 -10.8,13.28 l 18.9,23.37 c 4.1,5.08 8.3,7.97 12.5,8.66 V 80 Z"/></g></svg>