<svg xmlns="http://www.w3.org/2000/svg" viewBox="0 0 26.5 26.5"><g transform="translate(250.03 -83.344) scale(.2646)"><circle cx="-895" cy="365" r="50" fill="#cac5c0"/><path fill="#0d0f0f" d="m -859.67,373.92 h -36 l 13.18,-9.4 c -4.9,-3.87 -10.5,-5.8 -16.9,-5.8 -3.2,0 -5.4,0.6 -6.6,1.82 -1.2,1.23 -1.7,3.45 -1.7,6.66 0,8.87 4.6,18.34 13.7,28.4 l -10.4,10.5 c -12.1,-14.7 -18.1,-27.83 -18.1,-39.4 0,-6.94 2.1,-12.46 6.3,-16.55 4.2,-4.1 9.8,-6.15 16.7,-6.15 8.5,0 17.7,3.2 27.7,9.63 l 7.8,-13.18 z"/></g></svg>