<?xml version="1.0" encoding="UTF-8" standalone="no"?>
<svg
   xmlns:dc="http://purl.org/dc/elements/1.1/"
   xmlns:cc="http://creativecommons.org/ns#"
   xmlns:rdf="http://www.w3.org/1999/02/22-rdf-syntax-ns#"
   xmlns:svg="http://www.w3.org/2000/svg"
   xmlns="http://www.w3.org/2000/svg"
   xmlns:xlink="http://www.w3.org/1999/xlink"
   id="svg8"
   version="1.1"
   viewBox="0 0 26.458328 26.458332"
   height="26.458332mm"
   width="26.458332mm">
  <defs
     id="defs2">
    <linearGradient
       gradientUnits="userSpaceOnUse"
       xlink:href="#a"
       gradientTransform="matrix(1.4733394,0,0,1.5793349,-1202.8083,-227.62597)"
       y2="-43.950001"
       y1="-43.950001"
       x2="701.51001"
       x1="633.63"
       id="b" />
    <linearGradient
       id="a">
      <stop
         id="stop4"
         stop-color="red"
         offset="0" />
      <stop
         id="stop6"
         stop-color="#ff0"
         offset=".2" />
      <stop
         id="stop8"
         stop-color="#0f0"
         offset=".4" />
      <stop
         id="stop10"
         stop-color="#0ff"
         offset=".6" />
      <stop
         id="stop12"
         stop-color="#00f"
         offset=".8" />
      <stop
         id="stop14"
         stop-color="#f0f"
         offset="1" />
    </linearGradient>
  </defs>
  <metadata
     id="metadata5">
    <rdf:RDF>
      <cc:Work
         rdf:about="">
        <dc:format>image/svg+xml</dc:format>
        <dc:type
           rdf:resource="http://purl.org/dc/dcmitype/StillImage" />
        <dc:title></dc:title>
      </cc:Work>
    </rdf:RDF>
  </metadata>
  <g
     transform="translate(-98.310892,-114.37171)"
     id="layer1">
    <g
       id="g120"
       transform="matrix(0.26458333,0,0,0.26458333,264.99839,142.15296)">
      <circle
         style="fill:#cac5c0"
         id="circle116"
         r="50"
         cy="-55"
         cx="-580" />
      <path
         style="fill:#0d0f0f"
         id="path118"
         d="m -592.03,-85.2 v 48.53 c 0,5.7 2.42,8.56 7.28,8.56 h 1.15 v 3.3 h -25.8 v -3.3 h 1.66 c 4.94,0 7.4,-2.9 7.4,-8.6 v -31.8 c 0,-5.9 -2.08,-8.8 -6.25,-8.8 h -2.5 v -3.3 h 1 c 5,0 9.6,-1.6 13.6,-4.6 z m 21.7,32.18 -1.52,-2.8 1.15,-0.65 c 3.84,-2.38 7.4,-4.8 10.67,-7.22 3.27,-2.4 4.92,-5.1 4.92,-8.2 0,-2.1 -0.9,-3.9 -2.5,-5.3 -1.6,-1.4 -3.4,-2.1 -5.4,-2.1 -5,0 -10.2,3 -15.6,9 l -2.6,-1.9 c 5.6,-8.5 12.5,-12.8 20.7,-12.8 3.5,0 6.6,0.9 9,2.7 2.9,2 4.3,4.7 4.3,8.1 0,2.4 -1,4.7 -3.1,7 -1.2,1.3 -3.3,3 -6.2,5.3 l -1.1,1 c 0.5,0 1.1,-0.1 1.9,-0.1 3.7,0 6.8,1.4 9.2,4.3 2.4,2.9 3.6,6.1 3.6,9.8 0,6.5 -2.7,11.9 -8.2,16.1 -5,4.1 -10.7,6.1 -17.3,6.1 -6.1,0 -10.8,-1.2 -14.2,-3.8 l 1.8,-2.5 c 4,1.9 7.6,2.8 11,2.8 4.8,0 9,-1.6 12.8,-4.7 3.8,-3.1 5.6,-7.1 5.6,-11.8 0,-3.1 -0.9,-5.8 -2.8,-8 -1.9,-2.2 -4.3,-3.3 -7.4,-3.3 -2.7,0 -5.7,1.1 -9,3.3 z" />
    </g>
  </g>
</svg>
