<svg xmlns="http://www.w3.org/2000/svg" width="600" height="1204.163"><defs><clipPath id="a"><path d="M0 300h147V0H0v300z"/></clipPath></defs><g clip-path="url(#a)" transform="matrix(4.08163 0 0 -4.08163 0 1214.326)"><path d="M145.458 184.26c-1.245 32.734-4.06 45.164-5.927 45.164-1.89 0-2.49-18.13-4.972-34.153-2.49-15.98-6.874-34.11-6.874-34.11l-11.204 4.27s-3.14 23.13-4.386 50.85c-1.216 27.72-2.164 51.93-5.63 51.93-3.382.03-4.03-22.76-5.276-52.293-1.246-29.517-5.6-45.865-5.6-45.865L85.3 171.48s-4.98 25.603-6.85 103.808c-.433 18.51-4.95 22.223-4.95 22.223s-4.52-3.71-4.954-22.22c-1.866-78.202-6.874-103.804-6.874-103.804l-10.257-1.432s-4.382 16.35-5.627 45.866c-1.246 29.533-1.87 52.324-5.277 52.295-3.432 0-4.38-24.21-5.66-51.93-1.21-27.72-4.33-50.852-4.33-50.852l-11.2-4.268s-4.38 18.127-6.87 34.112C9.96 211.3 9.34 229.43 7.47 229.43c-1.867 0-4.68-12.43-5.926-45.164C.297 151.566 0 145.176 0 145.176s36.777-15.67 51.093-56.223c14.343-40.53 17.97-75.72 18.077-79.627.188-6.064 4.33-6.836 4.33-6.836s3.6.772 4.33 6.836c.46 3.88 3.734 39.098 18.075 79.627C110.223 129.506 147 145.176 147 145.176s-.3 6.39-1.542 39.084"/></g></svg>