<svg xmlns="http://www.w3.org/2000/svg" viewBox="0 0 26.4583 26.4583"><g transform="translate(-58.586 -69.08)"><g transform="translate(-135.882 -14.263) scale(.26458)"><path class="st2" d="M820.3 329.6c9.1 9.1 14.7 21.6 14.7 35.4 0 27.6-22.4 50-50 50-13.8 0-26.3-5.6-35.4-14.6" fill="#a3c095"/><path class="st3" d="M749.6 400.4c-9-9-14.6-21.5-14.6-35.4 0-27.6 22.4-50 50-50 13.8 0 26.3 5.6 35.3 14.6" fill="#e49977"/></g><path d="M72.3182 79.161c-.3357.9204-1.252 1.5262-2.2138 1.589-.6227.0386-1.2894.0157-1.8425.3486-.243.28.163.568.345.4813.504.02 1.009.043 1.514.041-1.223.662-2.66.708-4.019.742-.66.049-1.369-.06-1.871-.526-.762-.666-1.26-1.687-1.097-2.712.135-1.267 1.303-2.35 2.594-2.293.566-.006 1.111.357 1.678.144.631-.184 1.226-.535 1.761-.886-.071.884-.411 1.856-1.242 2.294-.39.161-.774.845-.213 1.04.421.239.957.051 1.22-.335.337-.338.446-.814.383-1.275.007-.502.034-1.049.413-1.425.428-.405.001.46-.001.695-.085.304.184.883.441.393.261-.397.419-.863.453-1.337-.816-.07-1.577-.689-1.813-1.472-.072-.248-.064-.743.142-.3037.14.2673.649.9185.715.2802.03-.565-.23-1.244-.802-1.439-.671-.171-1.193.638-1.873.403-.209-.094-1.076-.253-.493-.293.39-.13 1.055-.0666 1.23-.4686-.2687-.4515-.892-.457-1.354-.5657-.4778-.0796-.961-.098-1.4427-.1385.5396-.178 1.125-.173 1.688-.233 1.4476-.068 3.008.411 3.906 1.608.451.576.747 1.258.942 1.9596.3034-.369.112-.8945.001-1.3045-.073-.275-.3414-.841-.3326-.92.814 1.045 1.48 2.395 1.138 3.746-.27 1.157-1.3658 1.803-1.998 2.7382.6886-.179 1.41-.371 1.926-.895.16-.2215.35-.288.2254.0413-.0306.094-.07.184-.114.272zm-6.747-6.0854c-.0047.373-.445.355-.7143.3968-.285.162-.498.7335-.647.7846-.06-.2917-.067-.81-.438-.4542-.216.0802-.771.6776-.541.1323.261-.614.719-1.214 1.361-1.454.404-.128 1.02.089.977.596zm2.699 1.4287c-.0546.4765-.6933.744-1.112.5778-.4334-.228-.5736-.784-1.039-.982-.1896-.232.4385-.05.5634.088.3192.346.6212.126.8665-.155.357-.185.775.046.721.473zm13.9963 12.462c.01.6055-.8095 1.025-1.2696.5876-.124-.304-.384-.291-.661-.287-.646-.046-1.272.204-1.865.428-.407.357-.336.988-.428 1.481-.117.526.164 1.101.744 1.151.39.192.821-.018 1.222.151.725.348-.906.138-.389.376.506.124.012.411-.309.312-.409-.096-.982-.292-.883.349-.499.062-.968-1.003-1.297-.291-.11.301-.222.508-.412.129-.114-.29-.213-.772-.489-.278-.133.233-.386.619-.455.12-.06-.619-.859-.529-1.323-.496-.13.033-.736.097-.645-.032.413-.239.856-.642 1.364-.555.592.139.925-.459.76-.978-.006-.604-.379-1.182-.962-1.374-.377-.134-.863-.395-.951.163-.34.442-1.033.588-1.533.366-.505-.338-.941-1.029-.609-1.627.167-.288.499-.427.135-.711-.384-.557.014-1.432.698-1.475-.129-.446.482-.589.181-.96-.18-.697.369-1.475 1.115-1.422.341-.098.761.349.902.28.2044-.753.8755-1.373 1.6753-1.386.682-.083 1.312.314 1.71.841.1284-.115.859-.242 1.205-.081.5613.204.9555.749 1.0702 1.324.584-.037.719.654.5612.987.6834.371 1.119 1.2493.771 1.9903-.2657.3654.4962.452.361.9113zm-6.1648.6613c.0704-.4672-.2704-.8674-.688-1.035-.2764-.1912-1.0855.009-1.0113.108.6697.0385 1.222.5002 1.6993.927zm-.291-1.852c-.2147-.4836-.727-.7014-1.032-.1588.354-.0184.679.1546 1.032.1588zm.926-.4763v-.6614c-.3054-.155-.5993.024-.324.296l.324.364zm1.958-.4233c-.2516-.0537-.7998-.5292-.688-.022v1.0274c.3754-.1967.7004-.5583.688-1.0054zm.82 1.7727c-.1536-.1194-.262-.538-.472-.2935-.2757.1897-.943.654-.9028.7525.43-.2256.9-.3634 1.374-.459z"/></g></svg>