<?xml version="1.0" encoding="UTF-8" standalone="no"?>
<svg
   xmlns:dc="http://purl.org/dc/elements/1.1/"
   xmlns:cc="http://creativecommons.org/ns#"
   xmlns:rdf="http://www.w3.org/1999/02/22-rdf-syntax-ns#"
   xmlns:svg="http://www.w3.org/2000/svg"
   xmlns="http://www.w3.org/2000/svg"
   xmlns:xlink="http://www.w3.org/1999/xlink"
   id="svg8"
   version="1.1"
   viewBox="0 0 26.458328 26.458332"
   height="26.458332mm"
   width="26.458332mm">
  <defs
     id="defs2">
    <linearGradient
       gradientUnits="userSpaceOnUse"
       xlink:href="#a"
       gradientTransform="matrix(1.4733394,0,0,1.5793349,-1202.8083,-227.62597)"
       y2="-43.950001"
       y1="-43.950001"
       x2="701.51001"
       x1="633.63"
       id="b" />
    <linearGradient
       id="a">
      <stop
         id="stop4"
         stop-color="red"
         offset="0" />
      <stop
         id="stop6"
         stop-color="#ff0"
         offset=".2" />
      <stop
         id="stop8"
         stop-color="#0f0"
         offset=".4" />
      <stop
         id="stop10"
         stop-color="#0ff"
         offset=".6" />
      <stop
         id="stop12"
         stop-color="#00f"
         offset=".8" />
      <stop
         id="stop14"
         stop-color="#f0f"
         offset="1" />
    </linearGradient>
  </defs>
  <metadata
     id="metadata5">
    <rdf:RDF>
      <cc:Work
         rdf:about="">
        <dc:format>image/svg+xml</dc:format>
        <dc:type
           rdf:resource="http://purl.org/dc/dcmitype/StillImage" />
        <dc:title></dc:title>
      </cc:Work>
    </rdf:RDF>
  </metadata>
  <g
     transform="translate(-81.520162,-117.46493)"
     id="layer1">
    <g
       id="g358"
       transform="matrix(0.26458333,0,0,0.26458333,248.20766,34.121184)">
      <circle
         style="fill:#cac5c0"
         id="circle350"
         r="50"
         cy="365"
         cx="-580" />
      <path
         style="fill:#0d0f0f"
         id="path352"
         d="m -577.7,321.25 v 27.25 c 0,3.26 1.38,4.88 4.12,4.88 h 0.72 v 1.87 h -14.5 v -1.86 h 0.9 c 2.67,0 4,-1.7 4,-4.9 v -17.9 c 0,-3.3 -1.15,-5 -3.44,-5 h -1.46 v -1.8 h 0.53 c 2.83,0 5.4,-0.9 7.68,-2.7 z" />
      <path
         style="fill:#0d0f0f"
         id="path354"
         d="m -568.45,395.5 -2.5,8.46 h -20.82 v -1.8 c 1,-1.14 3.23,-3.4 6.65,-6.83 2.06,-2.07 4.1,-4.24 6.12,-6.53 1,-1.13 1.8,-2.1 2.33,-2.92 1.2,-1.75 1.8,-3.54 1.8,-5.36 0,-1.8 -0.55,-3.37 -1.65,-4.73 -1.1,-1.4 -2.53,-2.1 -4.3,-2.1 -3.76,0 -6.7,2.5 -8.85,7.6 l -1.87,-0.7 c 2.53,-7.2 6.5,-10.8 11.96,-10.8 2.68,0 4.96,0.9 6.85,2.7 1.9,1.8 2.83,4.1 2.83,6.7 0,3.4 -1.97,6.7 -5.9,10 l -4.07,3.4 c -2.6,2.2 -4.77,4.2 -6.48,6.1 l -0.7,0.8 h 10.85 c 1.67,0 2.94,-0.4 3.8,-1 0.73,-0.6 1.45,-1.7 2.15,-3.3 h 1.8 z" />
      <path
         style="fill:#0d0f0f"
         id="path356"
         d="m -609.27,364.45 v -2.9 h 58.33 v 2.9 z" />
    </g>
  </g>
</svg>
