<?xml version="1.0" encoding="UTF-8" standalone="no"?>
<svg
   xmlns:dc="http://purl.org/dc/elements/1.1/"
   xmlns:cc="http://creativecommons.org/ns#"
   xmlns:rdf="http://www.w3.org/1999/02/22-rdf-syntax-ns#"
   xmlns:svg="http://www.w3.org/2000/svg"
   xmlns="http://www.w3.org/2000/svg"
   xmlns:xlink="http://www.w3.org/1999/xlink"
   id="svg8"
   version="1.1"
   viewBox="0 0 26.458328 26.458332"
   height="26.458332mm"
   width="26.458332mm">
  <defs
     id="defs2">
    <linearGradient
       gradientUnits="userSpaceOnUse"
       xlink:href="#a"
       gradientTransform="matrix(1.4733394,0,0,1.5793349,-1202.8083,-227.62597)"
       y2="-43.950001"
       y1="-43.950001"
       x2="701.51001"
       x1="633.63"
       id="b" />
    <linearGradient
       id="a">
      <stop
         id="stop4"
         stop-color="red"
         offset="0" />
      <stop
         id="stop6"
         stop-color="#ff0"
         offset=".2" />
      <stop
         id="stop8"
         stop-color="#0f0"
         offset=".4" />
      <stop
         id="stop10"
         stop-color="#0ff"
         offset=".6" />
      <stop
         id="stop12"
         stop-color="#00f"
         offset=".8" />
      <stop
         id="stop14"
         stop-color="#f0f"
         offset="1" />
    </linearGradient>
  </defs>
  <metadata
     id="metadata5">
    <rdf:RDF>
      <cc:Work
         rdf:about="">
        <dc:format>image/svg+xml</dc:format>
        <dc:type
           rdf:resource="http://purl.org/dc/dcmitype/StillImage" />
        <dc:title></dc:title>
      </cc:Work>
    </rdf:RDF>
  </metadata>
  <g
     transform="translate(-99.632393,-124.94374)"
     id="layer1">
    <g
       id="g300"
       transform="matrix(0.26458333,0,0,0.26458333,321.88239,69.381241)">
      <path
         style="fill:#c1d7e9"
         id="path292"
         d="m -754.65,224.64 c 9.05,9.06 14.65,21.56 14.65,35.36 0,27.6 -22.4,50 -50,50 -13.8,0 -26.3,-5.6 -35.35,-14.65" />
      <path
         style="fill:#cac5c0"
         id="path294"
         d="M -825.35,295.35 C -834.4,286.3 -840,273.8 -840,260 c 0,-27.62 22.4,-50 50,-50 13.8,0 26.3,5.6 35.35,14.64" />
      <path
         style="fill:#0d0f0f"
         id="path296"
         d="m -763.28,293.68 c -2.7,2.73 -6,4.1 -9.95,4.1 -4.42,0 -7.92,-1.5 -10.52,-4.54 -2.45,-2.88 -3.68,-6.56 -3.68,-11.03 0,-4.8 2.1,-10.2 6.28,-16.4 3.4,-5 7.42,-9.4 12.03,-13.2 -0.67,3.1 -1,5.3 -1,6.6 0,3 0.93,5.9 2.8,8.7 2.3,3.4 4.07,5.9 5.27,7.5 1.87,2.9 2.8,5.6 2.8,8.3 0,4 -1.34,7.4 -4.03,10.1 z m -0.07,-15.4 c -0.72,-1.6 -1.56,-2.67 -2.52,-3.2 0.14,0.3 0.2,0.7 0.2,1.23 0,1 -0.28,2.5 -0.85,4.4 l -0.94,2.9 c 0,1.7 0.84,2.6 2.52,2.6 1.78,0 2.67,-1.2 2.67,-3.5 0,-1.2 -0.36,-2.6 -1.08,-4.2 z" />
      <path
         style="fill:#0d0f0f"
         id="path298"
         d="m -796.35,251.6 -2.87,9.67 h -23.82 v -2.07 c 1.16,-1.3 3.7,-3.9 7.6,-7.8 2.36,-2.36 4.7,-4.86 7,-7.48 1.17,-1.3 2.06,-2.4 2.68,-3.34 1.38,-2 2.07,-4.04 2.07,-6.14 0,-2.04 -0.6,-3.84 -1.9,-5.4 -1.2,-1.56 -2.9,-2.34 -4.9,-2.34 -4.3,0 -7.7,2.92 -10.1,8.75 l -2.1,-0.8 c 2.9,-8.2 7.5,-12.28 13.7,-12.28 3.1,0 5.7,1.04 7.9,3.13 2.2,2.1 3.3,4.67 3.3,7.74 0,3.92 -2.2,7.74 -6.7,11.48 l -4.7,3.87 c -3,2.4 -5.4,4.8 -7.4,7 -0.1,0.1 -0.4,0.4 -0.8,0.9 h 12.4 c 1.9,0 3.4,-0.4 4.4,-1.2 0.9,-0.7 1.7,-2 2.5,-3.8 z" />
    </g>
  </g>
</svg>
