<svg xmlns="http://www.w3.org/2000/svg" viewBox="0 0 26.5 26.5"><g transform="translate(166.687 -55.562) scale(.2646)"><path fill="#e49977" d="m -544.65,224.64 c 9.05,9.06 14.65,21.56 14.65,35.36 0,27.6 -22.4,50 -50,50 -13.8,0 -26.3,-5.6 -35.35,-14.65"/><path fill="#cac5c0" d="M -615.35,295.35 C -624.4,286.3 -630,273.8 -630,260 c 0,-27.62 22.4,-50 50,-50 13.8,0 26.3,5.6 35.35,14.64"/><path fill="#0d0f0f" d="M-541.7 284.44c-1.72 4.1-5.13 6.14-10.24 6.14-.94 0-1.95.12-3.04.36-1.64.35-2.46.84-2.46 1.46 0 .2.13.42.4.68.28.25.52.38.7.38-.97 0-.3.02 2 .08 2.3.06 3.74.1 4.33.1-3.4 1.98-9.1 2.9-17.1 2.74-2.6-.04-4.9-1.2-6.8-3.45-1.9-2.15-2.8-4.54-2.8-7.2 0-2.8.9-5.2 2.8-7.17 1.9-1.97 4.2-2.95 7-2.95.6 0 1.4.2 2.5.5 1 .3 1.7.4 2 .4 1.4 0 3.2-.6 5.4-1.8 2.1-1.2 3.1-1.8 3-1.8-.4 4.1-1.7 6.9-4.1 8.3-1.6 1-2.5 2-2.5 2.9 0 .6.4 1.1 1.1 1.4.5.3 1.1.4 1.8.4 1 0 2-.6 3-1.8.9-1.2 1.4-2.4 1.3-3.4-.2-1.1-.1-2.5.2-4.2.1-.5.3-1 .8-1.7.5-.6.9-1.1 1.3-1.2 0 .4-.1 1-.4 1.8-.2.8-.4 1.4-.4 1.8 0 .9.2 1.5.7 2 .7-.3 1.3-1.1 1.8-2.6.5-1.1.7-2.2.8-3.3-1.7-.1-3.2-.8-4.7-2.2-1.5-1.4-2.3-2.9-2.3-4.5 0-.2 0-.5.1-.8l1 1.7c.7 1 1.2 1.4 1.5 1.4.4 0 .7-.5.7-1.4 0-1.2-.4-2.4-1-3.4-.8-1.2-1.7-1.8-2.9-1.8-.6 0-1.4.3-2.5.9-1.1.6-2.1.9-3 .9-.3 0-1.5-.4-3.6-1.1 3.7-.6 5.6-1.2 5.6-1.7 0-1.3-2.6-2.2-7.8-2.7-.5 0-1.5-.1-2.8-.2.1-.2 1.2-.4 3.3-.6 1.8-.2 3-.3 3.7-.3 9.3 0 15.2 4.6 17.7 13.6.4-.3.6-.9.6-1.7 0-1.1-.3-2.4-.9-4-.2-.6-.6-1.6-1.1-2.8 3.2 4.1 4.8 7.9 4.8 11.6 0 1.9-.5 3.6-1.4 5.2-.6 1.1-1.6 2.4-3.2 4.1-1.6 1.7-2.7 2.9-3.3 3.8 2.1-.6 3.5-1 4.2-1.3 1.5-.6 2.8-1.6 4-2.9 0 .5-.2 1.2-.7 2.3zm-25.5-23c0 .7-.4 1.15-1.18 1.35l-1.53.2c-.6.2-1.4 1.3-2.4 3.2l-.6-2.5c-.4 0-1 .3-1.8.9-.4.2-.9.7-1.7 1.2.2-1.4 1-2.9 2.3-4.3 1.4-1.6 2.7-2.4 4.1-2.4 1.7 0 2.6.7 2.6 2.1zm10.17 5.4c0 .65-.36 1.2-1.1 1.65-.7.4-1.42.6-2.12.6-.94 0-1.78-.6-2.52-1.6-.9-1.3-1.8-2.2-2.75-2.6.2-.2.43-.3.7-.3.36 0 .95.3 1.8.8.83.5 1.36.8 1.6.8.2 0 .52-.3.96-.8.45-.6.95-.8 1.5-.8 1.3 0 1.93.7 1.93 2zM-586.35 251.6l-2.87 9.67h-23.82v-2.07c1.16-1.3 3.7-3.9 7.6-7.8 2.36-2.36 4.7-4.86 7-7.48 1.17-1.3 2.06-2.4 2.68-3.34 1.38-2 2.07-4.04 2.07-6.14 0-2.04-.6-3.84-1.9-5.4-1.2-1.56-2.9-2.34-4.9-2.34-4.3 0-7.7 2.92-10.1 8.75l-2.1-.8c2.9-8.2 7.5-12.28 13.7-12.28 3.1 0 5.7 1.04 7.9 3.13 2.2 2.1 3.3 4.67 3.3 7.74 0 3.92-2.2 7.74-6.7 11.48l-4.7 3.87c-3 2.4-5.4 4.8-7.4 7-.1.1-.4.4-.8.9h12.4c1.9 0 3.4-.4 4.4-1.2.9-.7 1.7-2 2.5-3.8z"/></g></svg>