<svg xmlns="http://www.w3.org/2000/svg" viewBox="0 0 26.5 26.5"><g transform="translate(166.687 -83.344) scale(.2646)"><circle cx="-580" cy="365" r="50" fill="#cac5c0"/><path fill="#0d0f0f" d="M-577.7 321.25v27.25c0 3.26 1.38 4.88 4.12 4.88h.72v1.87h-14.5v-1.86h.9c2.67 0 4-1.7 4-4.9v-17.9c0-3.3-1.15-5-3.44-5h-1.46v-1.8h.53c2.83 0 5.4-.9 7.68-2.7zM-568.45 395.5l-2.5 8.46h-20.82v-1.8c1-1.14 3.23-3.4 6.65-6.83 2.06-2.07 4.1-4.24 6.12-6.53 1-1.13 1.8-2.1 2.33-2.92 1.2-1.75 1.8-3.54 1.8-5.36 0-1.8-.55-3.37-1.65-4.73-1.1-1.4-2.53-2.1-4.3-2.1-3.76 0-6.7 2.5-8.85 7.6l-1.87-.7c2.53-7.2 6.5-10.8 11.96-10.8 2.68 0 4.96.9 6.85 2.7 1.9 1.8 2.83 4.1 2.83 6.7 0 3.4-1.97 6.7-5.9 10l-4.07 3.4c-2.6 2.2-4.77 4.2-6.48 6.1l-.7.8h10.85c1.67 0 2.94-.4 3.8-1 .73-.6 1.45-1.7 2.15-3.3h1.8zM-609.27 364.45v-2.9h58.33v2.9z"/></g></svg>