<svg xmlns="http://www.w3.org/2000/svg" viewBox="0 0 26.5 26.5"><g transform="translate(138.94 -83.362) scale(.2646)"><circle cx="-475.1" cy="365.1" r="50" fill="#c9c4be"/><path fill="#0d0f0f" d="m -430.35,370.92 -10.57,12.72 -2.6,-2.58 c 1.02,-2.54 1.66,-4.88 1.92,-7.02 0.26,-2.13 0.15,-4.1 -0.33,-5.93 -0.04,-0.2 -0.1,-0.4 -0.18,-0.6 l -0.3,-0.6 c -0.4,-1.1 -1,-2.2 -1.7,-3.2 -0.7,-1 -1.9,-2.2 -3.3,-3.6 l -7.6,-7.7 -35.1,35.1 c -3.1,3.1 -4.7,5.7 -5,8 -0.3,2.3 0.8,4.6 3.3,7.1 l 1,0.9 -2.8,2.8 -23,-23 2.7,-2.7 1.1,1.2 c 2.4,2.5 4.7,3.6 6.9,3.4 2.2,-0.2 4.9,-1.9 7.9,-4.9 l 35.2,-35.2 -7.8,-7.8 c -2.2,-2.1 -4.1,-3.6 -5.7,-4.4 -1.6,-0.8 -3.4,-1.1 -5.5,-1 h -0.9 l -1,0.1 c -0.6,0.1 -1.2,0.2 -1.6,0.3 -0.4,0.1 -1,0.2 -1.4,0.2 -0.1,0.1 -0.3,0.1 -0.4,0.1 h -0.5 l -1.8,0.5 -2.5,0.7 -2.4,-2.5 12.4,-10.9 51,51.1 z"/></g></svg>