<svg xmlns="http://www.w3.org/2000/svg" viewBox="0 0 26.5 26.5"><g transform="translate(83.344 -27.78) scale(.2646)"><path fill="#f8f6d8" d="m -229.65,119.64 c 9.05,9.06 14.65,21.56 14.65,35.36 0,27.6 -22.4,50 -50,50 -13.8,0 -26.3,-5.6 -35.35,-14.65"/><path fill="#e49977" d="M -300.35,190.35 C -309.4,181.3 -315,168.8 -315,155 c 0,-27.6 22.4,-50 50,-50 13.8,0 26.3,5.6 35.35,14.64"/><path fill="#0d0f0f" d="M-227 178.1c-2.44-2.25-4.05-3.48-4.85-3.67-.57-.14-1.13.2-1.67 1-.54.8-1.3 1.1-2.27.86-.3-.1-1.1-.5-2.3-1.1-.9.9-1.4 1.4-1.5 1.7-.1.4.1.9.6 1.6.5.7.9 1 1.3 1.1.3.1.6.1 1.1.1h.9c.5.1.5.9.1 2.6-.3 1.5-1.3 3.8-2.8 6.9 0-3.9-.6-6-1.6-6.3-.1 0-.4 0-.9.1-.5.1-.8.1-1.1.1-1-.3-1.7-1.4-2.1-3.6-1.7-.2-2.7.5-3.1 1.9-.2.7 0 1.4.6 2 .6.5.8.9.8 1.1-.2 1-2 2.1-5.3 3.5l-3.7 1.5c.7-.6 1.4-1.3 2.2-2.2.9-1.1 1.4-1.9 1.6-2.6.1-.4-.2-1-.9-1.8-.6-.9-.9-1.7-.7-2.4.1-.7.5-1.4 1.2-2.2-.3-.6-.8-1-1.5-1.2-1.4-.3-2.3-.1-2.5.9l-.3 1.5c-.2 1.2-1.3 1.5-3.1 1.1-1.4-.4-3.7-1.2-6.9-2.7 4 0 6.1-.7 6.4-1.9 0 .2 0-.3.1-1.3.2-1.2 1.2-2 3.1-2.5.1-1.8-.6-2.8-2-3.1-.2-.1-.7.2-1.4.8-.7.6-1.4.9-1.9.7-.8-.2-1.7-1.4-2.7-3.7-.4-1.1-1-2.7-1.9-4.9l2.2 1.9c1 .8 1.8 1.2 2.4 1.4.5.1 1.1-.2 1.8-1 .7-.8 1.4-1.1 2.2-.9.2 0 .8.4 2.1 1.1 1-.9 1.5-1.6 1.6-2.1.1-.5 0-1-.4-1.7-.4-.7-.8-1.1-1.2-1.2-.2-.1-.5-.1-.9-.1-.4 0-.7 0-.9-.1-.6-.2-.8-1-.4-2.7.1-.4 1.1-2.8 3.1-7.1-.1.5-.1 1.6 0 3.2.2 1.9.7 3 1.6 3.2.2 0 .5 0 1-.1.5-.1.9-.2 1.1-.1.9.2 1.4.8 1.8 1.9l.4 1.6c.8.2 1.5.1 2.1-.3.7-.4 1.1-1 1.3-1.8.2-.8 0-1.4-.6-2-.6-.6-.8-1-.8-1.2.2-.8 1.7-1.8 4.5-3 2.3-1 3.7-1.5 4.4-1.6-2 1.7-3.2 3.1-3.4 4-.1.5.1 1.1.6 1.8.6.9.9 1.5 1 1.8.2.9-.1 2.1-.9 3.4.8.9 1.5 1.4 2 1.6 1.1.2 1.7-.2 2-1.3.1-.1.1-.5.1-1.1.1-.6.1-1 .2-1 .3-.5 1.3-.5 3.17-.1 1.14.3 3.5 1.2 7 2.7l-3.8.1c-1.6.1-2.4.4-2.57 1-.1.2-.1.7-.1 1.3v1.4c-.2.5-.6.9-1.3 1.2l-2.2.9c.2.9.4 1.4.5 1.6.2.5.7.8 1.3 1 .4.1.9-.2 1.4-.9.5-.7 1.2-.9 2-.8 1 .2 1.8 1.4 2.6 3.5l2.1 5.4zm-11.27-6c.55-2.32.18-4.53-1.1-6.63-1.3-2.1-3.1-3.43-5.42-4-2.3-.55-4.5-.2-6.6 1.08-2.1 1.27-3.4 3.08-4 5.42-.6 2.3-.2 4.5 1.2 6.6 1.4 2.1 3.2 3.43 5.5 3.98 2.5.6 4.7.28 6.7-.94 2-1.2 3.3-3 3.9-5.5zm-.82-.2c-.5 2.2-1.7 3.85-3.5 4.93-1.8 1.1-3.8 1.38-6 .85-2.1-.5-3.8-1.7-4.9-3.53-1.1-1.84-1.5-3.83-.9-5.96.5-2.1 1.7-3.8 3.6-4.9 1.9-1.2 3.9-1.5 6-1 2.1.5 3.7 1.7 4.9 3.5 1.2 1.9 1.5 3.8 1 5.9zM-263.06 143.08c-1.72 4.1-5.13 6.14-10.24 6.14-.94 0-1.95.12-3.05.35-1.64.36-2.45.84-2.45 1.47 0 .2.13.42.4.67.28.3.5.4.7.4-.97 0-.3.1 2 .1 2.3 0 3.74.1 4.33.1-3.4 2-9.07 2.9-17.03 2.8-2.62 0-4.86-1.2-6.73-3.4-1.83-2.1-2.75-4.5-2.75-7.2 0-2.8.94-5.2 2.84-7.1 1.9-1.9 4.24-2.9 7.05-2.9.7 0 1.5.2 2.5.4 1.1.3 1.8.4 2.1.4 1.5 0 3.3-.6 5.4-1.7 2.2-1.2 3.2-1.8 3.1-1.8-.4 4.1-1.7 6.9-4.1 8.3-1.6 1-2.5 2-2.5 2.9 0 .6.4 1.1 1.1 1.5.6.3 1.2.4 1.8.4 1.1 0 2-.6 3-1.9 1-1.3 1.4-2.4 1.3-3.4-.1-1.1 0-2.6.3-4.2.1-.5.4-1 .9-1.7.5-.7 1-1.1 1.4-1.3 0 .4-.1.9-.4 1.8-.2.9-.4 1.5-.4 1.9 0 .9.3 1.5.7 2 .7-.3 1.4-1.1 1.9-2.6.5-1.1.8-2.2.8-3.2-1.6 0-3.2-.8-4.7-2.2-1.5-1.4-2.2-2.9-2.2-4.5 0-.3.1-.6.1-.8.3.3.6.9 1.1 1.6.7 1 1.2 1.5 1.6 1.5.5 0 .7-.5.7-1.4 0-1.2-.3-2.3-1-3.4-.7-1.2-1.7-1.8-2.8-1.8-.5 0-1.3.3-2.4.9-1.1.6-2.1.9-2.9.9-.3 0-1.5-.4-3.6-1.1 3.8-.6 5.7-1.2 5.7-1.7 0-1.3-2.6-2.2-7.8-2.6l-2.8-.2c.1-.2 1.3-.4 3.3-.7 1.7-.2 3-.3 3.7-.3 9.3 0 15.2 4.5 17.7 13.6.4-.3.7-.9.7-1.8 0-1-.3-2.4-1-4l-1.1-2.8c3.2 4.1 4.8 8 4.8 11.6 0 1.9-.4 3.7-1.3 5.2-.6 1.1-1.7 2.4-3.3 4.1-1.6 1.6-2.7 2.9-3.3 3.8 2.2-.6 3.6-1 4.2-1.3 1.5-.6 2.9-1.6 4.1-3 0 .6-.2 1.3-.6 2.3zm-25.52-23c0 .7-.4 1.15-1.17 1.35l-1.52.23c-.55.27-1.35 1.35-2.4 3.22l-.53-2.46c-.35.04-.93.35-1.75.94-.35.27-.92.68-1.7 1.23.24-1.5 1.02-2.9 2.34-4.3 1.4-1.6 2.7-2.4 4.1-2.4 1.7 0 2.6.7 2.6 2.1zm10.18 5.38c0 .67-.36 1.23-1.08 1.67-.72.45-1.43.68-2.13.68-1 0-1.8-.5-2.6-1.5-.9-1.3-1.8-2.1-2.8-2.5.2-.2.4-.3.7-.3.3 0 .9.3 1.8.8.8.6 1.3.9 1.6.9.2 0 .5-.2.9-.8.4-.5.9-.8 1.5-.8 1.3 0 1.9.7 1.9 2.1z"/></g></svg>