<svg xmlns="http://www.w3.org/2000/svg" viewBox="0 0 26.5 26.5"><g transform="translate(55.562 -27.78) scale(.2646)"><path fill="#a3c095" d="m -124.65,119.64 c 9.05,9.06 14.65,21.56 14.65,35.36 0,27.6 -22.4,50 -50,50 -13.8,0 -26.3,-5.6 -35.35,-14.65"/><path fill="#e49977" d="M -195.35,190.35 C -204.4,181.3 -210,168.8 -210,155 c 0,-27.6 22.4,-50 50,-50 13.8,0 26.3,5.6 35.35,14.64"/><path fill="#0d0f0f" d="M-158.06 143.08c-1.72 4.1-5.13 6.14-10.24 6.14-.94 0-1.95.12-3.05.35-1.64.36-2.45.84-2.45 1.47 0 .2.13.42.4.67.28.3.5.4.7.4-.97 0-.3.1 2 .1 2.3 0 3.74.1 4.33.1-3.4 2-9.07 2.9-17.03 2.8-2.62 0-4.86-1.2-6.73-3.4-1.84-2.1-2.75-4.5-2.75-7.2 0-2.8.94-5.2 2.84-7.1 1.9-1.9 4.24-2.9 7.05-2.9.7 0 1.5.2 2.5.4 1.1.3 1.8.4 2.1.4 1.5 0 3.3-.6 5.4-1.7 2.2-1.2 3.2-1.8 3.1-1.8-.4 4.1-1.7 6.9-4.1 8.3-1.6 1-2.5 2-2.5 2.9 0 .6.4 1.1 1.1 1.5.6.3 1.2.4 1.8.4 1.1 0 2-.6 3-1.9 1-1.3 1.4-2.4 1.3-3.4-.1-1.1 0-2.6.3-4.2.1-.5.4-1 .9-1.7.5-.7 1-1.1 1.4-1.3 0 .4-.1.9-.4 1.8-.2.9-.4 1.5-.4 1.9 0 .9.3 1.5.7 2 .7-.3 1.4-1.1 1.9-2.6.5-1.1.8-2.2.8-3.2-1.6 0-3.2-.8-4.7-2.2-1.5-1.4-2.2-2.9-2.2-4.5 0-.3.1-.6.1-.8.3.3.6.9 1.1 1.6.7 1 1.2 1.5 1.6 1.5.5 0 .7-.5.7-1.4 0-1.2-.3-2.3-1-3.4-.7-1.2-1.7-1.8-2.9-1.8-.5 0-1.3.3-2.4.9-1.1.6-2.1.9-2.9.9-.3 0-1.5-.4-3.6-1.1 3.8-.6 5.7-1.2 5.7-1.7 0-1.3-2.6-2.2-7.8-2.6l-2.8-.2c.2-.2 1.3-.4 3.3-.7 1.8-.2 3-.3 3.7-.3 9.3 0 15.2 4.5 17.7 13.6.4-.3.6-.9.6-1.8 0-1-.3-2.4-.9-4l-1.1-2.8c3.2 4.1 4.8 8 4.8 11.6 0 1.9-.5 3.7-1.4 5.2-.6 1.1-1.7 2.4-3.3 4.1-1.6 1.6-2.7 2.9-3.3 3.8 2.2-.6 3.6-1 4.2-1.3 1.5-.6 2.9-1.6 4.1-3 0 .6-.2 1.3-.6 2.3zm-25.52-23c0 .7-.4 1.15-1.17 1.35l-1.52.23c-.55.27-1.35 1.35-2.4 3.22-.1-.58-.3-1.4-.52-2.46-.3.04-.9.35-1.7.94l-1.7 1.23c.3-1.5 1-2.9 2.4-4.3 1.4-1.6 2.8-2.4 4.1-2.4 1.8 0 2.7.7 2.7 2.1zm10.18 5.38c0 .67-.36 1.23-1.08 1.67-.72.45-1.43.68-2.13.68-1 0-1.8-.5-2.6-1.5-.9-1.3-1.8-2.1-2.8-2.5.2-.2.4-.3.7-.3.3 0 .9.3 1.8.8.8.6 1.3.9 1.6.9.2 0 .5-.2.9-.8.4-.5.9-.8 1.5-.8 1.3 0 1.9.7 1.9 2.1zM-120.48 172.62c0 .76-.3 1.43-.88 2.04-.6.6-1.26.9-2.02.9-1.2 0-2.1-.56-2.66-1.7l-2.67-.1c-.6 0-1.7.24-3.4.73-1.8.4-2.8.8-3.1 1.1-.5.4-.8 1.5-1.1 3.2-.3 1.3-.4 2.3-.4 3 0 1 .1 1.7.5 2.2.3.4 1 .8 2 1.2 1 .3 1.6.5 1.8.5.1 0 .4-.1.7-.1h.7c.5 0 1 .1 1.5.2.7.2 1 .5.9.9-.5-.1-1.5 0-2.8.3l1.6.8c0 .4-.7.7-2 .7-.3 0-.8-.1-1.4-.2-.6-.2-.9-.3-1.1-.3h-.8c0 .4-.1.9-.3 1.7-.7-.1-1.4-.4-2.3-1.2-.9-.7-1.4-1.1-1.6-1.1-.3 0-.6.4-1 1.1-.4.7-.6 1.2-.6 1.5-.5-.3-.9-.8-1.3-1.5l-.5-1.5c-.4 0-1.1.8-2.1 2.4h-.3c-.1-.1-.4-.9-.9-2.4-1.2-.4-2.3-.6-3.3-.6-.5 0-1.3.1-2.3.3l-1.6-.1c.2-.2.9-.7 2-1.3 1.3-.8 2.3-1.2 2.9-1.2h.8c.2 0 .7-.2 1.3-.4.6-.3.9-.6 1-.8.1-.3.1-.8.1-1.8 0-2.2-.6-3.8-1.7-4.8-1-1-2.6-1.7-4.9-2.1-.6 2.1-2.3 3.2-5.1 3.2-.9 0-1.8-.6-2.7-1.7-.9-1.1-1.4-2.1-1.4-3 0-1.4.6-2.6 1.8-3.5-1-1-1.4-2-1.4-3 0-1 .3-1.8.9-2.5.6-.7 1.3-1.2 2.3-1.3-.1-1.2.3-2.1 1.2-2.5-.4-.4-.6-1.2-.6-2.2 0-1.3.4-2.3 1.2-3.2.8-.9 1.8-1.3 3.1-1.3 1.3 0 2.5.5 3.3 1.4 1.1-3.8 3.5-5.6 7.1-5.6 1.9 0 3.6.7 5 2.2l.8.9c-.4 0-.2-.1.7-.2.9-.2 1.6-.2 2-.2 1.5 0 2.8.6 3.9 1.7 1 1 1.7 2.2 2 3.7.3 0 .7.1 1.3.3.9.4 1.3 1.1 1.3 2.1 0 .2-.1.5-.4 1.1 2.4 1.3 3.6 3.2 3.6 5.6 0 .7-.3 1.6-.8 2.8 1 .6 1.5 1.4 1.5 2.5zm-23.37 2.5v-.74c0-.87-.42-1.67-1.27-2.38-.85-.72-1.7-1.08-2.58-1.08-1.06 0-2.05.24-2.95.73 2-.1 4.27 1.04 6.8 3.46zm-1.02-7.04c-.56-.64-1.06-1.3-1.47-1.98-1.6.4-2.4.9-2.4 1.4.47-.02 1.13.06 2 .27.87.2 1.5.3 1.87.3zm3.46-1.76v-2.5c-1-.14-1.5-.22-1.7-.22v.85zm7.3-1.58l-2.6-1.14v4.88c1.8-1.02 2.6-2.27 2.5-3.74zm3.1 6.7l-1.3-1.54-2.3 1.6c-.8.56-1.5 1.18-2 1.86 1.7-.9 3.5-1.55 5.5-1.93z"/></g></svg>