<?xml version="1.0" encoding="UTF-8" standalone="no"?>
<svg
   xmlns:dc="http://purl.org/dc/elements/1.1/"
   xmlns:cc="http://creativecommons.org/ns#"
   xmlns:rdf="http://www.w3.org/1999/02/22-rdf-syntax-ns#"
   xmlns:svg="http://www.w3.org/2000/svg"
   xmlns="http://www.w3.org/2000/svg"
   xmlns:xlink="http://www.w3.org/1999/xlink"
   id="svg8"
   version="1.1"
   viewBox="0 0 26.458328 26.458332"
   height="26.458332mm"
   width="26.458332mm">
  <defs
     id="defs2">
    <linearGradient
       gradientUnits="userSpaceOnUse"
       xlink:href="#a"
       gradientTransform="matrix(1.4733394,0,0,1.5793349,-1202.8083,-227.62597)"
       y2="-43.950001"
       y1="-43.950001"
       x2="701.51001"
       x1="633.63"
       id="b" />
    <linearGradient
       id="a">
      <stop
         id="stop4"
         stop-color="red"
         offset="0" />
      <stop
         id="stop6"
         stop-color="#ff0"
         offset=".2" />
      <stop
         id="stop8"
         stop-color="#0f0"
         offset=".4" />
      <stop
         id="stop10"
         stop-color="#0ff"
         offset=".6" />
      <stop
         id="stop12"
         stop-color="#00f"
         offset=".8" />
      <stop
         id="stop14"
         stop-color="#f0f"
         offset="1" />
    </linearGradient>
  </defs>
  <metadata
     id="metadata5">
    <rdf:RDF>
      <cc:Work
         rdf:about="">
        <dc:format>image/svg+xml</dc:format>
        <dc:type
           rdf:resource="http://purl.org/dc/dcmitype/StillImage" />
        <dc:title></dc:title>
      </cc:Work>
    </rdf:RDF>
  </metadata>
  <g
     transform="translate(-100.58876,-111.42567)"
     id="layer1">
    <g
       id="g66"
       transform="matrix(0.26458333,0,0,0.26458333,156.15126,166.98817)">
      <circle
         style="fill:#cac5c0"
         id="circle62"
         r="50"
         cy="-160"
         cx="-160" />
      <path
         style="fill:#0d0f0f"
         id="path64"
         d="m -156.5,-120 h -11.65 v -1.24 c 0,-7.4 2.33,-16.66 6.98,-27.8 7.04,-16.8 13.52,-29.68 19.45,-38.63 l 0.83,-1.23 h -27.2 c -3.9,0 -6.9,0.82 -8.9,2.46 -2,1.65 -3.6,4.4 -4.6,8.22 h -4.5 l 4.9,-21.78 h 2.9 c 1.8,0.92 4.8,1.37 9.1,1.37 h 35.6 v 6.17 c -1.2,1.83 -2.9,4.75 -4.9,8.77 -3.8,7.5 -7.3,16.2 -10.5,26.2 -4.7,14.7 -7.1,27.2 -7.2,37.6 z" />
    </g>
  </g>
</svg>
