<svg xmlns="http://www.w3.org/2000/svg" viewBox="0 0 26.5 26.5"><g transform="translate(83.344 -83.362) scale(.2646)"><circle cx="-265" cy="365.1" r="50" fill="#f7f4d8"/><path fill="#0d0f0f" d="m -280.44,392.88 c 1.68,-1.96 6.08,-1.82 6.66,2.14 0.35,2.4 1,10.1 1.8,13.35 0.44,1.7 1.27,3.15 2.35,3.22 1.92,0.1 6.6,-3.8 7.6,-5.6 1.78,-3.3 3.07,-6.9 4.28,-10.8 0.48,-1.5 2.1,-1.6 3,-0.1 1.66,2.7 4.9,7.4 7.62,10.8 0.72,0.9 1.6,0.8 1.8,-0.6 0.72,-5.2 1.83,-11.2 3.85,-16.7 0.67,-1.8 2.55,-2 4.03,-1.1 0.84,0.5 3.53,1.8 4.55,2.1 1.75,0.5 3.23,0.6 5.48,-1.1 1.72,-1.3 1.85,-2.6 0.95,-3.9 -1.85,-2.9 -4.37,-5 -6.38,-7.9 -1.1,-1.6 -1,-2.8 0.4,-3.6 3.62,-2.2 6.78,-4.6 9.66,-7 1.1,-0.9 1.9,-2.2 2.1,-4.4 0.4,-3.2 0.6,-4.8 -0.8,-5.2 -1.3,-0.4 -2.2,0.6 -8,2.1 -1.3,0.3 -2.9,0.5 -3.5,-0.2 -0.5,-0.8 -0.2,-2.2 1,-3.5 1.8,-2 4.1,-4.3 5.9,-7 0.9,-1.3 2,-3.4 1.1,-4.7 -0.9,-1.4 -3.3,-0.6 -4.4,-0.1 -1.5,0.7 -4.6,1.3 -6.5,1.6 -2.4,0.3 -4.2,0.2 -4.9,-0.5 -0.6,-0.7 -0.8,-2.4 -0.1,-4.2 1.1,-2.7 3,-5.2 4.6,-6.5 1.4,-1.2 1.3,-1.9 0.2,-2.8 -0.8,-0.8 -3.4,-1.2 -5.4,-0.6 -2.9,0.9 -5.7,2.3 -8.3,4.3 -1.4,1.1 -3.4,1.6 -5,1.4 -1.3,-0.3 -2.6,-1.3 -3,-3.4 -0.8,-4.7 -1.8,-9.4 -3,-12 -0.7,-1.6 -1.3,-2.2 -2.3,-2.2 -0.9,0 -1.5,0.8 -2.4,2.3 -1.3,2.5 -2.6,7.6 -3.7,11.8 -0.6,2.4 -1.6,3.4 -3.6,4.6 -1,0.6 -2.1,0.2 -2.6,-1.2 -0.5,-1.3 -2.5,-5.9 -3.1,-7.8 -0.4,-1.2 -0.9,-1.3 -1.7,-0.1 -1.8,2.7 -4.8,7.7 -6.1,10.5 -0.8,1.6 -0.9,3.2 0.1,4.2 1.4,1.4 1.9,2.1 1.1,2.9 -0.5,0.5 -2.9,0.2 -5.5,-0.4 -1.7,-0.4 -4.7,-0.9 -7.4,0 -2.2,0.7 -3.6,1.8 -3.8,3.2 -0.1,1.2 2.1,4.5 3.5,5.6 1,0.8 1.5,1.5 1.6,2.2 0.2,1.5 0,3.4 -0.8,4.6 -0.4,0.7 -1.8,0.7 -4.6,0.8 -6.2,0.4 -9,1.6 -9.3,6 -0.2,3.2 2.1,5.1 5.6,4.3 1.6,-0.4 3,-0.5 4.8,-0.2 1.7,0.3 4.8,1.3 4.9,2.9 0,2.1 -3.2,2.5 -6.4,3.7 -1.2,0.5 -0.9,1.7 0.2,1.9 1.1,0.2 12.8,3.2 15,5.9 1.2,1.5 -0.1,4.8 -1,6.7 -0.7,1.9 -0.3,7.4 0.4,7.5 0.8,0.2 2.5,-1.6 3.7,-2.8 1.5,-1.6 3.1,-3.4 4.7,-5.2 z"/><path fill="none" stroke="#f7f4d8" stroke-width="2.5" stroke-miterlimit="10" d="m -245.1,365.07 c 0,10.98 -8.92,19.88 -19.9,19.88 -10.98,0 -19.9,-8.9 -19.9,-19.88 0,-10.98 8.9,-19.9 19.9,-19.9 10.98,0.02 19.9,8.92 19.9,19.9 z"/></g></svg>