<?xml version="1.0" encoding="UTF-8" standalone="no"?>
<!-- Created with Inkscape (http://www.inkscape.org/) -->

<svg
   version="1.1"
   id="svg2"
   width="765"
   height="955"
   viewBox="0 0 765 955"
   xmlns="http://www.w3.org/2000/svg"
   xmlns:svg="http://www.w3.org/2000/svg">
  <defs
     id="defs6" />
  <g
     id="g8">
    <path
       style="fill:#000000"
       d="m 431.80106,942.32749 c -13.626,-2.70879 -79.97202,-26.21621 -88.80994,-31.46672 -15.23873,-9.05316 -26.53795,-21.52857 -33.91554,-37.44595 -5.44123,-11.73961 -7.19701,-19.92887 -7.6203,-35.54233 -0.2595,-9.57209 -0.9319,-15.40201 -2.31099,-20.0371 -7.38185,-24.81009 -36.40647,-37.09169 -60.39266,-25.55479 -7.64887,3.67896 -10.97064,6.804 -21.88817,20.59189 -9.35099,11.80948 -27.11561,22.94397 -43.23595,27.09938 -11.37142,2.93127 -29.13017,3.00085 -40,0.15674 C 116.5103,835.64986 62.473812,816.2963 54.754612,811.8797 35.759622,801.01161 23.226502,785.82 15.956282,764.85162 c -3.16074,-9.11606 -3.28743,-10.07281 -3.3077,-24.97913 l -0.0211,-15.5 11.14619,-32.5 C 92.368492,491.86422 241.7301,59.236012 243.58679,55.180469 c 9.46063,-20.664738 28.78499,-36.768011 52.24923,-43.540043 11.08947,-3.2005404 32.22877,-3.2274744 43.79149,-0.05579 12.47277,3.421309 67.36745,22.652746 73.49995,25.749502 20.4536,10.328417 35.9421,28.722152 42.9772,51.038355 1.6922,5.36804 2.3969,10.96333 3.0226,23.999997 0.8784,18.3008 1.84,22.45846 7.0842,30.63076 8.6831,13.53154 23.6211,20.78507 40.3891,19.61205 13.9344,-0.9748 23.5225,-6.60045 33.4285,-19.6135 9.1169,-11.9765 17.9092,-19.46862 29.5703,-25.19748 13.2419,-6.5055 19.5128,-8.07144 34.7077,-8.66697 16.7069,-0.6548 20.2823,0.19171 62.5778,14.81612 33.88,11.71461 44.9635,16.34685 52.7426,22.0434 11.7688,8.61803 23.7443,24.02234 28.9513,37.24055 4.4586,11.31829 5.7938,19.66827 5.306,33.18301 l -0.4347,12.04795 -10.5573,30.95205 c -40.4909,118.71222 -218.3383,633.99338 -220.3169,638.32895 -3.0907,6.7722 -9.8095,16.18913 -16.0275,22.46351 -18.3737,18.54047 -48.2551,27.38114 -74.7473,22.1146 z m 29.2811,-28.93034 c 14.0846,-3.74823 29.5002,-15.55498 35.285,-27.02466 1.387,-2.75 5.684,-14.225 9.549,-25.5 3.8649,-11.275 53.933,-156.625 111.2624,-323 57.3295,-166.375 105.0709,-305.41526 106.0922,-308.97836 5.5459,-19.35006 -0.4492,-40.49055 -15.5272,-54.75274 -3.9359,-3.72289 -9.3971,-7.96811 -12.1361,-9.43382 -5.4676,-2.92588 -71.6463,-26.09142 -77.8359,-27.24612 -6.3689,-1.18813 -19.7658,-0.73449 -25.901,0.87705 -13.2297,3.47507 -24.2459,11.55933 -34.327,25.19107 -13.0128,17.59597 -36.0559,28.34991 -57.9161,27.02879 -28.7417,-1.73702 -52.8701,-19.45399 -62.7532,-46.07828 -2.7149,-7.31386 -3.0876,-9.77189 -3.8067,-25.10759 -0.4384,-9.35 -1.3234,-18.8 -1.9667,-21.000001 -3.8339,-13.11177 -15.8149,-28.01235 -27.4734,-34.167997 -3.3,-1.7424 -20.625,-8.200018 -38.5,-14.350261 -29.83489,-10.265296 -33.25644,-11.226108 -41.72525,-11.716965 -17.97197,-1.041668 -31.76202,4.028663 -43.88365,16.135152 -3.90993,3.905041 -8.24727,9.350074 -9.63855,12.100074 -1.39127,2.75 -10.18858,27.274997 -19.54957,54.499998 -9.36099,27.225 -59.64141,173.25 -111.73425,324.5 -52.092848,151.25 -95.328668,277.25 -96.079608,280 -1.81836,6.65903 -1.75099,19.69031 0.13932,26.9477 3.69548,14.1879 14.91094,28.7966 27.04223,35.22388 8.11701,4.30046 68.263298,25.1008 76.371778,26.41158 10.64391,1.72065 24.95266,-0.80104 35.0576,-6.17835 7.72384,-4.11021 14.12317,-9.87103 20.99964,-18.90433 6.90517,-9.07102 12.0152,-13.69854 21.00036,-19.01745 13.09949,-7.75445 28.57093,-11.0456 42.65949,-9.07471 24.63084,3.44568 44.47088,17.37221 54.92439,38.55364 5.38955,10.9206 7.41612,20.59853 7.41612,35.41591 0,12.71699 1.65184,19.87566 6.79105,29.43082 4.57958,8.51465 14.77786,18.43531 23.45291,22.81446 5.82589,2.94089 68.06279,24.9872 75.75599,26.83521 5.7272,1.37572 21.084,1.12863 26.9547,-0.4337 z m -21.4547,-24.50018 c -5.4456,-1.18489 -65.1203,-21.83739 -69.5449,-24.06843 -4.516,-2.27712 -11.3816,-9.69957 -13.54036,-14.63855 -1.1667,-2.6693 -1.90325,-8.4795 -2.44884,-19.3175 -1.55931,-30.97543 -10.10464,-50.60208 -30.3342,-69.6706 -25.77843,-24.29892 -63.41613,-32.54093 -96.87327,-21.21359 -15.91458,5.38809 -32.47221,16.77277 -41.96236,28.85245 -8.02229,10.21131 -15.06708,16.59536 -20.26875,18.36775 -9.75075,3.32241 -13.65902,2.5941 -46.82089,-8.72516 -35.007948,-11.9494 -36.332448,-12.51153 -41.658798,-17.68058 -5.73926,-5.56976 -8.28149,-11.17115 -8.82156,-19.43687 -0.38652,-5.91572 0.0132,-8.4068 2.56715,-16 2.60414,-7.74233 116.826298,-339.59639 196.660398,-571.36506 17.08855,-49.61028 26.57819,-75.767601 28.50244,-78.564401 5.51428,-8.01473 16.95118,-13.231224 26.9324,-12.28416 6.63332,0.6294 63.94974,20.26327 70.69694,24.2174 4.6618,2.73195 9.4428,8.44491 12.1372,14.502821 1.0698,2.40533 1.7942,8.66057 2.3162,20 0.6138,13.33298 1.2606,18.18842 3.3695,25.29659 11.7784,39.69798 46.5273,66.3713 89.0917,68.387 32.3223,1.53068 61.8617,-12.9798 81.4551,-40.01267 7.1171,-9.81945 17.261,-14.51333 28.9134,-13.379 5.182,0.50447 63.869,20.11702 72.6143,24.26691 4.7814,2.26893 10.9762,8.4675 13.6415,13.64991 1.5147,2.94497 2.3327,6.64423 2.6074,11.79126 l 0.4004,7.5 -111.9723,325 c -61.5848,178.75 -112.458,326.24992 -113.0518,327.7776 -1.8089,4.65468 -9.8014,12.34422 -15.2801,14.70113 -5.8202,2.50377 -13.4913,3.31571 -19.3279,2.04575 z"
       id="path170" />
  </g>
</svg>
