<?xml version="1.0" encoding="UTF-8" standalone="no"?>
<svg
   xmlns:dc="http://purl.org/dc/elements/1.1/"
   xmlns:cc="http://creativecommons.org/ns#"
   xmlns:rdf="http://www.w3.org/1999/02/22-rdf-syntax-ns#"
   xmlns:svg="http://www.w3.org/2000/svg"
   xmlns="http://www.w3.org/2000/svg"
   xmlns:xlink="http://www.w3.org/1999/xlink"
   id="svg8"
   version="1.1"
   viewBox="0 0 26.458328 26.458332"
   height="26.458332mm"
   width="26.458332mm">
  <defs
     id="defs2">
    <linearGradient
       gradientUnits="userSpaceOnUse"
       xlink:href="#a"
       gradientTransform="matrix(1.4733394,0,0,1.5793349,-1202.8083,-227.62597)"
       y2="-43.950001"
       y1="-43.950001"
       x2="701.51001"
       x1="633.63"
       id="b" />
    <linearGradient
       id="a">
      <stop
         id="stop4"
         stop-color="red"
         offset="0" />
      <stop
         id="stop6"
         stop-color="#ff0"
         offset=".2" />
      <stop
         id="stop8"
         stop-color="#0f0"
         offset=".4" />
      <stop
         id="stop10"
         stop-color="#0ff"
         offset=".6" />
      <stop
         id="stop12"
         stop-color="#00f"
         offset=".8" />
      <stop
         id="stop14"
         stop-color="#f0f"
         offset="1" />
    </linearGradient>
  </defs>
  <metadata
     id="metadata5">
    <rdf:RDF>
      <cc:Work
         rdf:about="">
        <dc:format>image/svg+xml</dc:format>
        <dc:type
           rdf:resource="http://purl.org/dc/dcmitype/StillImage" />
        <dc:title></dc:title>
      </cc:Work>
    </rdf:RDF>
  </metadata>
  <g
     transform="translate(-100.1109,-107.76085)"
     id="layer1">
    <g
       id="g156"
       transform="matrix(0.26458333,0,0,0.26458333,155.6734,107.76085)">
      <circle
         style="fill:#e49977"
         id="circle152"
         r="50"
         cy="50"
         cx="-160" />
      <path
         style="fill:#0d0f0f"
         id="path154"
         d="m -118.03,66.62 c -3.74,8.9 -11.16,13.36 -22.28,13.36 -2.1,0 -4.3,0.26 -6.7,0.77 -3.6,0.76 -5.4,1.82 -5.4,3.18 0,0.43 0.3,0.9 0.9,1.47 0.6,0.55 1.1,0.82 1.5,0.82 -2.2,0 -0.7,0.07 4.3,0.2 5,0.12 8.1,0.18 9.4,0.18 -7.4,4.33 -19.8,6.32 -37.1,5.98 -5.7,-0.08 -10.6,-2.58 -14.7,-7.5 -4,-4.67 -6,-9.9 -6,-15.66 0,-6.1 2,-11.3 6.2,-15.6 4.1,-4.28 9.2,-6.43 15.3,-6.43 1.3,0 3.1,0.3 5.4,0.8 2.2,0.6 3.7,0.9 4.5,0.9 3.1,0 7,-1.3 11.7,-3.9 4.6,-2.6 6.9,-3.9 6.6,-3.9 -0.9,8.9 -3.9,14.9 -9,17.9 -3.7,2.1 -5.5,4.2 -5.5,6.2 0,1.2 0.8,2.3 2.3,3 1.2,0.6 2.5,0.9 3.9,0.9 2.2,0 4.3,-1.4 6.5,-4.1 2.1,-2.7 3,-5.2 2.8,-7.4 -0.3,-2.6 -0.1,-5.6 0.5,-9.2 0.1,-1 0.8,-2.3 1.8,-3.8 1,-1.5 2,-2.4 2.8,-2.8 0,0.7 -0.3,2 -0.8,3.8 -0.6,1.7 -0.8,3.1 -0.8,3.9 0,1.8 0.5,3.3 1.5,4.3 1.5,-0.6 2.9,-2.5 4.1,-5.7 1,-2.5 1.6,-4.8 1.8,-7.1 -3.6,-0.2 -7,-1.8 -10.3,-4.9 -3.3,-3.1 -4.9,-6.4 -4.9,-9.9 0,-0.6 0,-1.2 0.2,-1.8 l 2.3,3.5 c 1.4,2.1 2.5,3.2 3.3,3.2 1,0 1.5,-1.1 1.5,-3.2 0,-2.7 -0.7,-5.2 -2.2,-7.4 -1.6,-2.6 -3.7,-3.9 -6.3,-3.9 -1.2,0 -3,0.7 -5.4,1.9 -2.4,1.3 -4.6,2 -6.5,2 -0.6,0 -3.3,-0.8 -7.9,-2.3 8.2,-1.4 12.3,-2.6 12.3,-3.7 0,-2.9 -5.6,-4.9 -16.9,-5.9 l -6.1,-0.5 c 0.3,-0.4 2.7,-0.9 7.2,-1.4 3.8,-0.4 6.5,-0.7 8,-0.7 20.2,0 33,9.8 38.4,29.4 0.9,-0.8 1.4,-2.1 1.4,-3.9 0,-2.4 -0.7,-5.3 -2.1,-8.8 -0.5,-1.4 -1.3,-3.5 -2.4,-6.2 6.9,8.9 10.4,17.3 10.4,25.2 0,4.2 -1,8 -2.9,11.4 -1.3,2.3 -3.7,5.2 -7.2,8.8 -3.5,3.6 -5.9,6.3 -7.1,8.3 4.7,-1.3 7.7,-2.2 9.2,-2.9 3.2,-1.5 6.1,-3.6 8.8,-6.5 0,1.1 -0.5,2.7 -1.4,5 z m -55.5,-50.03 c 0,1.5 -0.86,2.5 -2.55,2.9 l -3.3,0.5 c -1.2,0.6 -2.94,2.9 -5.23,7 l -1.2,-5.4 c -0.8,0.1 -2.1,0.7 -3.8,2 -0.8,0.6 -2,1.5 -3.7,2.6 0.5,-3.1 2.2,-6.2 5.1,-9.3 3,-3.5 6,-5.2 8.9,-5.2 3.8,0 5.7,1.5 5.7,4.7 z m 22.14,11.7 c 0,1.4 -0.7,2.6 -2.3,3.6 -1.5,1 -3.1,1.4 -4.6,1.4 -2,0 -3.8,-1.2 -5.4,-3.5 -1.9,-2.8 -3.9,-4.7 -6,-5.5 0.4,-0.5 1,-0.7 1.5,-0.7 0.8,0 2.1,0.6 3.9,1.8 1.9,1.2 3,1.7 3.5,1.7 0.5,0 1.2,-0.6 2.1,-1.8 1,-1.2 2.1,-1.8 3.3,-1.8 2.8,0 4.2,1.5 4.2,4.4 z" />
    </g>
  </g>
</svg>
