<svg xmlns="http://www.w3.org/2000/svg" viewBox="0 0 26.5 26.5"><g transform="translate(222.25 -55.562) scale(.2646)"><path fill="#c1d7e9" d="m -754.65,224.64 c 9.05,9.06 14.65,21.56 14.65,35.36 0,27.6 -22.4,50 -50,50 -13.8,0 -26.3,-5.6 -35.35,-14.65"/><path fill="#cac5c0" d="M -825.35,295.35 C -834.4,286.3 -840,273.8 -840,260 c 0,-27.62 22.4,-50 50,-50 13.8,0 26.3,5.6 35.35,14.64"/><path fill="#0d0f0f" d="M-763.28 293.68c-2.7 2.73-6 4.1-9.95 4.1-4.42 0-7.92-1.5-10.52-4.54-2.45-2.88-3.68-6.56-3.68-11.03 0-4.8 2.1-10.2 6.28-16.4 3.4-5 7.42-9.4 12.03-13.2-.67 3.1-1 5.3-1 6.6 0 3 .93 5.9 2.8 8.7 2.3 3.4 4.07 5.9 5.27 7.5 1.87 2.9 2.8 5.6 2.8 8.3 0 4-1.34 7.4-4.03 10.1zm-.07-15.4c-.72-1.6-1.56-2.67-2.52-3.2.14.3.2.7.2 1.23 0 1-.28 2.5-.85 4.4l-.94 2.9c0 1.7.84 2.6 2.52 2.6 1.78 0 2.67-1.2 2.67-3.5 0-1.2-.36-2.6-1.08-4.2zM-796.35 251.6l-2.87 9.67h-23.82v-2.07c1.16-1.3 3.7-3.9 7.6-7.8 2.36-2.36 4.7-4.86 7-7.48 1.17-1.3 2.06-2.4 2.68-3.34 1.38-2 2.07-4.04 2.07-6.14 0-2.04-.6-3.84-1.9-5.4-1.2-1.56-2.9-2.34-4.9-2.34-4.3 0-7.7 2.92-10.1 8.75l-2.1-.8c2.9-8.2 7.5-12.28 13.7-12.28 3.1 0 5.7 1.04 7.9 3.13 2.2 2.1 3.3 4.67 3.3 7.74 0 3.92-2.2 7.74-6.7 11.48l-4.7 3.87c-3 2.4-5.4 4.8-7.4 7-.1.1-.4.4-.8.9h12.4c1.9 0 3.4-.4 4.4-1.2.9-.7 1.7-2 2.5-3.8z"/></g></svg>