<svg xmlns="http://www.w3.org/2000/svg" viewBox="0 0 26.5 26.5"><g transform="translate(111.125 -83.38) scale(.2646)"><circle cx="-370" cy="365.1" r="50" fill="#c9c4be"/><path fill="#0d0f0f" d="m -370.6,409.53 c -3.25,3.24 -8.5,3.24 -11.75,0 l -32.04,-32.04 c -3.2,-3.3 -3.2,-8.5 0,-11.8 l 45,-45 c 3.3,-3.3 8.5,-3.3 11.8,0 l 32.1,32 c 3.3,3.2 3.3,8.5 0,11.7 l -45,45 z"/><path fill="#fff" d="m -335.73,373 h -36 l 13.17,-9.37 c -4.9,-3.9 -10.56,-5.83 -16.98,-5.83 -3.2,0 -5.4,0.6 -6.6,1.84 -1.17,1.22 -1.76,3.44 -1.76,6.65 0,8.8 4.56,18.3 13.68,28.4 l -10.38,10.5 c -12.1,-14.7 -18.13,-27.9 -18.13,-39.5 0,-7 2.08,-12.5 6.26,-16.6 4.2,-4.1 9.75,-6.2 16.67,-6.2 8.46,0 17.67,3.2 27.65,9.6 l 7.72,-13.2 4.7,33.4 z"/></g></svg>