<?xml version="1.0" encoding="UTF-8" standalone="no"?>
<svg
   xmlns:dc="http://purl.org/dc/elements/1.1/"
   xmlns:cc="http://creativecommons.org/ns#"
   xmlns:rdf="http://www.w3.org/1999/02/22-rdf-syntax-ns#"
   xmlns:svg="http://www.w3.org/2000/svg"
   xmlns="http://www.w3.org/2000/svg"
   xmlns:xlink="http://www.w3.org/1999/xlink"
   id="svg8"
   version="1.1"
   viewBox="0 0 26.458328 26.458332"
   height="26.458332mm"
   width="26.458332mm">
  <defs
     id="defs2">
    <linearGradient
       gradientUnits="userSpaceOnUse"
       xlink:href="#a"
       gradientTransform="matrix(1.4733394,0,0,1.5793349,-1202.8083,-227.62597)"
       y2="-43.950001"
       y1="-43.950001"
       x2="701.51001"
       x1="633.63"
       id="b" />
    <linearGradient
       id="a">
      <stop
         id="stop4"
         stop-color="red"
         offset="0" />
      <stop
         id="stop6"
         stop-color="#ff0"
         offset=".2" />
      <stop
         id="stop8"
         stop-color="#0f0"
         offset=".4" />
      <stop
         id="stop10"
         stop-color="#0ff"
         offset=".6" />
      <stop
         id="stop12"
         stop-color="#00f"
         offset=".8" />
      <stop
         id="stop14"
         stop-color="#f0f"
         offset="1" />
    </linearGradient>
  </defs>
  <metadata
     id="metadata5">
    <rdf:RDF>
      <cc:Work
         rdf:about="">
        <dc:format>image/svg+xml</dc:format>
        <dc:type
           rdf:resource="http://purl.org/dc/dcmitype/StillImage" />
        <dc:title></dc:title>
      </cc:Work>
    </rdf:RDF>
  </metadata>
  <g
     transform="translate(-104.06596,-116.10019)"
     id="layer1">
    <g
       id="g42"
       transform="matrix(0.26458333,0,0,0.26458333,270.75346,171.66269)">
      <circle
         style="fill:#cac5c0"
         id="circle38"
         r="50"
         cy="-160"
         cx="-580" />
      <path
         style="fill:#0d0f0f"
         id="path40"
         d="m -590.44,-157.44 -2.02,-3.77 1.34,-0.9 c 5.17,-3.2 9.9,-6.4 14.2,-9.6 4.27,-3.3 6.42,-6.9 6.42,-11.1 0,-2.8 -1.03,-5.1 -3.1,-7 -2.05,-1.9 -4.46,-2.9 -7.23,-2.9 -6.44,0 -13.24,4 -20.4,12 l -3.35,-2.6 c 7.45,-11.3 16.57,-17 27.34,-17 4.76,0 8.8,1.1 12.12,3.5 3.77,2.6 5.66,6.1 5.66,10.6 0,3.2 -1.35,6.4 -4.04,9.4 -1.53,1.8 -4.23,4.1 -8.08,7 l -1.62,1.2 c 0.72,-0.1 1.57,-0.2 2.56,-0.2 4.94,0 9,1.9 12.2,5.6 3.18,3.7 4.77,8.1 4.77,13.2 0,8.5 -3.6,15.6 -10.77,21.4 -6.65,5.4 -14.33,8.1 -23.03,8.1 -8,0 -14.28,-1.8 -18.86,-5.3 l 2.43,-3.4 c 5.38,2.6 10.28,3.9 14.68,3.9 6.37,0 12.05,-2.1 17.03,-6.3 5,-4.2 7.5,-9.5 7.5,-15.7 0,-4.2 -1.2,-7.7 -3.7,-10.6 -2.5,-2.9 -5.8,-4.4 -9.8,-4.4 -3.6,0 -7.7,1.5 -12.1,4.3 z" />
    </g>
  </g>
</svg>
