<svg xmlns="http://www.w3.org/2000/svg" viewBox="0 0 26.5 26.5">
  <g transform="translate(27.8 27.8) scale(.26458)">
    <circle cx="-55" cy="-55" r="50" fill="#cac5c0"/>
    <path d="M-69-85.8v49.5c0 5.8 2.4 8.8 7.3 8.8h1.2v3.3h-26.3v-3.4h1.7c5 0 7.5-3 7.5-8.8v-32.4c0-6-2.1-9-6.4-9h-2.5v-3.4h1c5.1 0 9.7-1.6 13.8-4.7h2.7z" fill="#0d0f0f"/>
    <path d="M-39-86c-5 0-9.3 1.4-12.9 4.2A13.7 13.7 0 0 0-55.6-63a39 39 0 0 0 8 6.5l1.2 1h.3A54 54 0 0 0-52-52c-4.6 3.2-7 7.3-7 12.3 0 5 2.2 8.9 6.5 11.9a23 23 0 0 0 13.5 4c5.5 0 10.1-1.5 13.6-4.3 4.1-3.1 6.2-7.4 6.2-12.8 0-7.5-4.3-13.3-12.9-17.5 7.5-3.3 11.2-7.7 11.2-13.1 0-4.5-2-8.1-5.9-10.9A21.9 21.9 0 0 0-39-86zm-.7 3.7c3.4 0 6.2 1 8.6 3 2.4 2.2 3.6 4.9 3.6 8.2 0 4.8-2.8 8.5-8.3 11l-1.7-1a111 111 0 0 1-8.4-4 9.3 9.3 0 0 1-4.7-8.2c0-2.8 1-5 3.3-6.6 2.2-1.6 4.8-2.4 7.6-2.4zM-42.8-54l6.9 3.3c6.6 3.2 10 7.4 10 12.5 0 3.5-1.3 6.1-3.8 8-2.4 2-5.5 3-9 3-3.9 0-7-1.3-9.6-3.7a12.5 12.5 0 0 1-3.9-9.5c0-6.2 3.1-10.7 9.4-13.6z" fill="#0d0f0f"/>
  </g>
</svg>
