<?xml version="1.0" encoding="UTF-8" standalone="no"?>
<svg
   xmlns:dc="http://purl.org/dc/elements/1.1/"
   xmlns:cc="http://creativecommons.org/ns#"
   xmlns:rdf="http://www.w3.org/1999/02/22-rdf-syntax-ns#"
   xmlns:svg="http://www.w3.org/2000/svg"
   xmlns="http://www.w3.org/2000/svg"
   xmlns:xlink="http://www.w3.org/1999/xlink"
   id="svg8"
   version="1.1"
   viewBox="0 0 26.458328 26.458332"
   height="26.458332mm"
   width="26.458332mm">
  <defs
     id="defs2">
    <linearGradient
       gradientUnits="userSpaceOnUse"
       xlink:href="#a"
       gradientTransform="matrix(1.4733394,0,0,1.5793349,-1202.8083,-227.62597)"
       y2="-43.950001"
       y1="-43.950001"
       x2="701.51001"
       x1="633.63"
       id="b" />
    <linearGradient
       id="a">
      <stop
         id="stop4"
         stop-color="red"
         offset="0" />
      <stop
         id="stop6"
         stop-color="#ff0"
         offset=".2" />
      <stop
         id="stop8"
         stop-color="#0f0"
         offset=".4" />
      <stop
         id="stop10"
         stop-color="#0ff"
         offset=".6" />
      <stop
         id="stop12"
         stop-color="#00f"
         offset=".8" />
      <stop
         id="stop14"
         stop-color="#f0f"
         offset="1" />
    </linearGradient>
  </defs>
  <metadata
     id="metadata5">
    <rdf:RDF>
      <cc:Work
         rdf:about="">
        <dc:format>image/svg+xml</dc:format>
        <dc:type
           rdf:resource="http://purl.org/dc/dcmitype/StillImage" />
        <dc:title></dc:title>
      </cc:Work>
    </rdf:RDF>
  </metadata>
  <g
     transform="translate(-131.9801,-128.74422)"
     id="layer1">
    <g
       id="g180"
       transform="matrix(0.26458333,0,0,0.26458333,354.2301,128.74422)">
      <path
         style="fill:#cac5c0"
         id="path176"
         d="m -740,50 c 0,27.6 -22.38,50 -50,50 -27.6,0 -50,-22.4 -50,-50 0,-27.6 22.4,-50 50,-50 27.62,0 50,22.4 50,50 z" />
      <path
         style="fill:#0d0f0f"
         id="path178"
         d="m -783.36,80 v -3.3 c 4.7,-0.52 7.06,-1.88 7.06,-4.08 0,-1.58 -0.63,-3.16 -1.88,-4.74 l -13,-16 -10.28,12.1 c -2.57,2.97 -3.87,5.43 -3.87,7.35 0,2.98 2.36,4.77 7.07,5.4 V 80 h -25.05 v -3.3 c 3.1,-0.6 5.8,-1.74 8.1,-3.4 1.5,-1.23 3.6,-3.37 6.2,-6.44 l 15.4,-17.92 -17.9,-21.66 c -2.3,-2.8 -4.1,-4.63 -5.4,-5.5 -1.7,-1.23 -4.1,-2.02 -7.2,-2.37 V 16 h 29.5 v 3.3 c -4.5,0.86 -6.7,2.22 -6.7,4.06 0,1.23 0.6,2.6 1.8,4.07 l 11.8,14.32 9.5,-11.7 c 1.7,-2.1 2.6,-3.93 2.6,-5.5 0,-2.64 -2.1,-4.35 -6.3,-5.14 V 16 h 23.5 v 3.3 c -2.1,0.43 -3.5,0.82 -4.2,1.18 -2.6,1.23 -6.5,4.87 -11.8,10.92 -0.9,0.97 -4.5,5.4 -10.8,13.28 l 18.9,23.37 c 4.1,5.08 8.3,7.97 12.5,8.66 V 80 Z" />
    </g>
  </g>
</svg>
