<?xml version="1.0" encoding="UTF-8" standalone="no"?>
<!-- Created with Inkscape (http://www.inkscape.org/) -->

<svg
   xmlns:dc="http://purl.org/dc/elements/1.1/"
   xmlns:cc="http://creativecommons.org/ns#"
   xmlns:rdf="http://www.w3.org/1999/02/22-rdf-syntax-ns#"
   xmlns:svg="http://www.w3.org/2000/svg"
   xmlns="http://www.w3.org/2000/svg"
   xmlns:sodipodi="http://sodipodi.sourceforge.net/DTD/sodipodi-0.dtd"
   xmlns:inkscape="http://www.inkscape.org/namespaces/inkscape"
   width="24"
   height="24"
   viewBox="0 0 6.349999902 6.349999902"
   version="1.1"
   id="svg8"
   inkscape:version="0.92.1 r15371"
   sodipodi:docname="foil_glyph.svg">
  <defs
     id="defs2" />
  <sodipodi:namedview
     id="base"
     pagecolor="#ffffff"
     bordercolor="#666666"
     borderopacity="1.0"
     inkscape:pageopacity="0.0"
     inkscape:pageshadow="2"
     inkscape:zoom="31.67838369"
     inkscape:cx="7.247930554"
     inkscape:cy="13.381394"
     inkscape:document-units="mm"
     inkscape:current-layer="layer1"
     showgrid="false"
     fit-margin-top="0"
     fit-margin-left="0"
     fit-margin-right="0"
     fit-margin-bottom="0"
     inkscape:window-width="1858"
     inkscape:window-height="1177"
     inkscape:window-x="54"
     inkscape:window-y="-8"
     inkscape:window-maximized="1"
     units="px" />
  <metadata
     id="metadata5">
    <rdf:RDF>
      <cc:Work
         rdf:about="">
        <dc:format>image/svg+xml</dc:format>
        <dc:type
           rdf:resource="http://purl.org/dc/dcmitype/StillImage" />
        <dc:title></dc:title>
      </cc:Work>
    </rdf:RDF>
  </metadata>
  <g
     inkscape:label="Layer 1"
     inkscape:groupmode="layer"
     id="layer1"
     transform="translate(8.102014757e-7,-290.6499972)">
    <g
       id="g4790"
       transform="matrix(-0.0242436607,0.0242436609,-0.0242436609,-0.0242436607,10.37536547,296.5352354)"
       style="stroke-width:29.1666679382">
      <path
         id="rect4485"
         transform="scale(0.2645833333)"
         d="M 350,422.5195312 A 349.9999904,349.9999904 0 0 0 0,772.5195312 349.9999904,349.9999904 0 0 0 350,1122.519531 349.9999904,349.9999904 0 0 0 700,772.5195312 349.9999904,349.9999904 0 0 0 350,422.5195312 Z"
         style="fill:#ff0000;fill-opacity:1;fill-rule:nonzero;stroke:none;stroke-width:1400;stroke-linecap:round;stroke-linejoin:round;stroke-miterlimit:4;stroke-dasharray:none;stroke-dashoffset:0;stroke-opacity:1"
         inkscape:connector-curvature="0" />
      <path
         id="rect4485-7"
         transform="scale(0.2645833333)"
         d="M 350,422.5195312 A 349.9999904,349.9999904 0 0 0 100,528.0488281 V 1017.367188 A 349.9999904,349.9999904 0 0 0 350,1122.519531 349.9999904,349.9999904 0 0 0 700,772.5195312 349.9999904,349.9999904 0 0 0 350,422.5195312 Z"
         style="fill:#ff7f00;fill-opacity:1;fill-rule:nonzero;stroke:none;stroke-width:1400;stroke-linecap:round;stroke-linejoin:round;stroke-miterlimit:4;stroke-dasharray:none;stroke-dashoffset:0;stroke-opacity:1"
         inkscape:connector-curvature="0" />
      <path
         id="rect4485-36"
         transform="scale(0.2645833333)"
         d="M 350,422.5195312 A 349.9999904,349.9999904 0 0 0 200,456.6777344 V 1088.271484 A 349.9999904,349.9999904 0 0 0 350,1122.519531 349.9999904,349.9999904 0 0 0 700,772.5195312 349.9999904,349.9999904 0 0 0 350,422.5195312 Z"
         style="fill:#ffff00;fill-opacity:1;fill-rule:nonzero;stroke:none;stroke-width:1400;stroke-linecap:round;stroke-linejoin:round;stroke-miterlimit:4;stroke-dasharray:none;stroke-dashoffset:0;stroke-opacity:1"
         inkscape:connector-curvature="0" />
      <path
         id="rect4485-2"
         transform="scale(0.2645833333)"
         d="M 350,422.5195312 A 349.9999904,349.9999904 0 0 0 300,426.4609375 V 1118.496094 A 349.9999904,349.9999904 0 0 0 350,1122.519531 349.9999904,349.9999904 0 0 0 700,772.5195312 349.9999904,349.9999904 0 0 0 350,422.5195312 Z"
         style="fill:#00ff00;fill-opacity:1;fill-rule:nonzero;stroke:none;stroke-width:1400;stroke-linecap:round;stroke-linejoin:round;stroke-miterlimit:4;stroke-dasharray:none;stroke-dashoffset:0;stroke-opacity:1"
         inkscape:connector-curvature="0" />
      <path
         id="rect4485-1"
         transform="scale(0.2645833333)"
         d="M 400,426.4609375 V 1118.496094 A 349.9999904,349.9999904 0 0 0 700,772.5195312 349.9999904,349.9999904 0 0 0 400,426.4609375 Z"
         style="fill:#0000ff;fill-opacity:1;fill-rule:nonzero;stroke:none;stroke-width:1400;stroke-linecap:round;stroke-linejoin:round;stroke-miterlimit:4;stroke-dasharray:none;stroke-dashoffset:0;stroke-opacity:1"
         inkscape:connector-curvature="0" />
      <path
         id="rect4485-3"
         transform="scale(0.2645833333)"
         d="M 500,456.7675781 V 1088.361328 A 349.9999904,349.9999904 0 0 0 700,772.5195312 349.9999904,349.9999904 0 0 0 500,456.7675781 Z"
         style="fill:#4b0082;fill-opacity:1;fill-rule:nonzero;stroke:none;stroke-width:1400;stroke-linecap:round;stroke-linejoin:round;stroke-miterlimit:4;stroke-dasharray:none;stroke-dashoffset:0;stroke-opacity:1"
         inkscape:connector-curvature="0" />
      <path
         id="rect4485-9"
         transform="scale(0.2645833333)"
         d="M 600,527.671875 V 1016.990234 A 349.9999904,349.9999904 0 0 0 700,772.5195312 349.9999904,349.9999904 0 0 0 600,527.671875 Z"
         style="fill:#8b00ff;fill-opacity:1;fill-rule:nonzero;stroke:none;stroke-width:1400;stroke-linecap:round;stroke-linejoin:round;stroke-miterlimit:4;stroke-dasharray:none;stroke-dashoffset:0;stroke-opacity:1"
         inkscape:connector-curvature="0" />
    </g>
  </g>
</svg>
