<svg xmlns="http://www.w3.org/2000/svg" viewBox="0 0 26.5 26.5"><g transform="translate(0 55.563) scale(.26458)"><circle cx="50" cy="-160" r="50" fill="#cac5c0"/><path fill="#0d0f0f" d="m 63.4,-154.48 c -5.92,5.57 -11.9,8.36 -17.9,8.36 -6.56,0 -11.82,-2.6 -15.77,-7.82 -3.68,-4.75 -5.52,-10.5 -5.52,-17.24 0,-7.27 2.2,-13.77 6.5,-19.52 4.7,-6.2 10.6,-9.3 17.7,-9.3 8.6,0 15.5,3.73 20.6,11.18 4.6,6.56 6.9,14.32 6.9,23.3 0,12.75 -4.2,23.5 -12.6,32.26 -8.4,8.75 -19,13.17 -31.6,13.26 v -4.17 c 3.9,-0.18 7,-0.63 9.3,-1.35 12.9,-3.95 20.5,-13.6 22.6,-28.96 z m 0.82,-8.08 c 0.08,-1.7 0.12,-3.32 0.12,-4.84 0,-6.3 -1.07,-12.04 -3.23,-17.24 -2.8,-6.92 -7,-10.38 -12.3,-10.38 -4.7,0 -8.1,2.4 -10.4,7.14 -1.8,3.7 -2.7,8.13 -2.7,13.34 0,5.56 0.9,10.32 2.6,14.27 2.4,5.4 6,8.1 10.8,8.1 6,-0.02 11,-3.47 15.3,-10.4 z"/></g></svg>