<?xml version="1.0" encoding="UTF-8" standalone="no"?>
<svg
   xmlns:dc="http://purl.org/dc/elements/1.1/"
   xmlns:cc="http://creativecommons.org/ns#"
   xmlns:rdf="http://www.w3.org/1999/02/22-rdf-syntax-ns#"
   xmlns:svg="http://www.w3.org/2000/svg"
   xmlns="http://www.w3.org/2000/svg"
   xmlns:xlink="http://www.w3.org/1999/xlink"
   id="svg8"
   version="1.1"
   viewBox="0 0 26.458329 26.458332"
   height="26.458332mm"
   width="26.458332mm">
  <defs
     id="defs2">
    <linearGradient
       gradientUnits="userSpaceOnUse"
       xlink:href="#a"
       gradientTransform="matrix(1.4733394,0,0,1.5793349,-1202.8083,-227.62597)"
       y2="-43.950001"
       y1="-43.950001"
       x2="701.51001"
       x1="633.63"
       id="b" />
    <linearGradient
       id="a">
      <stop
         id="stop4"
         stop-color="red"
         offset="0" />
      <stop
         id="stop6"
         stop-color="#ff0"
         offset=".2" />
      <stop
         id="stop8"
         stop-color="#0f0"
         offset=".4" />
      <stop
         id="stop10"
         stop-color="#0ff"
         offset=".6" />
      <stop
         id="stop12"
         stop-color="#00f"
         offset=".8" />
      <stop
         id="stop14"
         stop-color="#f0f"
         offset="1" />
    </linearGradient>
  </defs>
  <metadata
     id="metadata5">
    <rdf:RDF>
      <cc:Work
         rdf:about="">
        <dc:format>image/svg+xml</dc:format>
        <dc:type
           rdf:resource="http://purl.org/dc/dcmitype/StillImage" />
        <dc:title></dc:title>
      </cc:Work>
    </rdf:RDF>
  </metadata>
  <g
     transform="translate(-81.950891,-104.90868)"
     id="layer1">
    <g
       id="g428"
       transform="matrix(0.26458333,0,0,0.26458333,137.51339,49.346176)">
      <circle
         style="fill:#bab1ab"
         id="circle424"
         r="50"
         cy="260"
         cx="-160" />
      <path
         style="fill:#111212"
         id="path426"
         d="m -132.44,259.93 c 0.06,-5.35 -1.64,-10.74 -4.96,-14.93 -1.6,-1.77 -2.93,-3.8 -4.64,-5.46 -3.75,-3.73 -9.37,-3.98 -13.9,-6.32 -0.26,-2.36 -1.12,-4.72 -0.6,-7.1 0.16,-0.8 0.4,-1.6 -0.03,-2.35 -1.18,-2.73 -0.16,-5.7 -0.38,-8.54 -0.15,-1.5 -0.05,-3.3 -1.47,-4.23 -0.33,3.1 -1.47,5.98 -2.4,8.92 -0.42,2.3 -0.42,4.67 -1.4,6.83 0.62,2.2 -0.62,4.03 -1.96,5.65 -2.97,1.52 -6.5,1.88 -9.08,4.1 -1.84,1.57 -3.82,2.94 -5.88,4.2 -1.55,1.94 -3.26,3.8 -3.95,6.25 -2.7,3.34 -3,7.8 -4.6,11.72 0,5.8 1.2,12.04 4.9,16.7 2.7,2.18 4.5,5.12 7.2,7.3 2.6,1.52 5.3,2.77 7.9,4.13 1.7,0.4 3.5,0.6 5.2,1.06 1.4,7.1 2.4,14.4 5.1,21.14 1,-2.77 0.8,-5.74 1.6,-8.53 1.2,-4.14 -1.1,-8.45 0.2,-12.5 1.9,-1.74 5.2,-0.6 7.3,-2.1 4.1,-2.52 8.4,-4.98 11.4,-8.84 1.1,-2.22 3.4,-3.88 3.4,-6.54 0,-3.6 2.1,-7 1.3,-10.6 z m -30.37,21.93 c -3,-0.73 -5.8,-2.14 -8.3,-3.88 -2.7,-1.78 -3.7,-5.1 -6.3,-6.93 -2.5,-2.95 -2,-6.98 -3,-10.48 0.4,-2.43 0.9,-4.85 1.1,-7.32 1.2,-1.96 3,-3.52 3.6,-5.87 1.7,-2.53 4.4,-4.28 6.6,-6.48 1.5,-1.8 4,-1.05 6.1,-1.12 -0.3,2 -0.4,4.07 0.1,6.04 0.2,1.2 0.8,2.4 0.6,3.68 -0.4,2.7 0.6,5.4 -0.1,8.07 -1.5,5.58 0.1,11.2 0.2,16.83 -0.2,2.5 -0.3,5 -0.9,7.46 z m 22.4,-10.57 c -2,1.3 -3.7,3.1 -5.4,4.7 -3,2 -5.9,4.2 -9.5,5.2 0.3,-2.6 0.6,-5.2 -0.2,-7.6 -2,-5.6 0.4,-11.5 0.8,-17.1 -0.4,-3.4 -0.1,-7 -1.6,-10.1 -0.2,-2.3 0.8,-4.6 1.4,-6.8 2.4,0.9 4.6,2.2 6.5,3.8 2.4,1.7 6,2.9 6.5,6.2 0.3,2.1 2.6,3.4 2.6,5.7 -0.2,5.2 0.5,10.7 -1.4,15.8 z" />
    </g>
  </g>
</svg>
