<svg xmlns="http://www.w3.org/2000/svg" viewBox="0 0 26.5 26.5"><g transform="translate(250.03 55.563) scale(.26458)"><circle cx="-895" cy="-160" r="50" fill="#cac5c0"/><path fill="#0d0f0f" d="m -922,-157.57 c 0,-9.8 2.06,-18.82 6.2,-27.07 5.1,-10.24 12.1,-15.36 21,-15.36 8.8,0 15.67,4.36 20.6,13.07 4.14,7.18 6.2,15.53 6.2,25.05 0,9.88 -2.06,18.8 -6.2,26.8 -5.02,10.06 -12.03,15.08 -21,15.08 -8.53,0 -15.3,-4.3 -20.34,-12.93 -4.3,-7.36 -6.46,-15.57 -6.46,-24.64 z m 11.3,-4.45 c 0,12.93 1.94,23 5.8,30.17 2.7,5.03 6.15,7.54 10.37,7.54 10.15,0 15.22,-10.5 15.22,-31.6 0,-9.3 -0.9,-17.1 -2.5,-23.5 -2.8,-10.5 -7.5,-15.8 -14.2,-15.8 -9.9,0 -14.8,10.1 -14.8,30.4 z"/></g></svg>