<?xml version="1.0" encoding="UTF-8" standalone="no"?>
<svg
   xmlns:dc="http://purl.org/dc/elements/1.1/"
   xmlns:cc="http://creativecommons.org/ns#"
   xmlns:rdf="http://www.w3.org/1999/02/22-rdf-syntax-ns#"
   xmlns:svg="http://www.w3.org/2000/svg"
   xmlns="http://www.w3.org/2000/svg"
   xmlns:xlink="http://www.w3.org/1999/xlink"
   id="svg8"
   version="1.1"
   viewBox="0 0 26.458328 26.458332"
   height="26.458332mm"
   width="26.458332mm">
  <defs
     id="defs2">
    <linearGradient
       gradientUnits="userSpaceOnUse"
       xlink:href="#a"
       gradientTransform="matrix(1.4733394,0,0,1.5793349,-1202.8083,-227.62597)"
       y2="-43.950001"
       y1="-43.950001"
       x2="701.51001"
       x1="633.63"
       id="b" />
    <linearGradient
       id="a">
      <stop
         id="stop4"
         stop-color="red"
         offset="0" />
      <stop
         id="stop6"
         stop-color="#ff0"
         offset=".2" />
      <stop
         id="stop8"
         stop-color="#0f0"
         offset=".4" />
      <stop
         id="stop10"
         stop-color="#0ff"
         offset=".6" />
      <stop
         id="stop12"
         stop-color="#00f"
         offset=".8" />
      <stop
         id="stop14"
         stop-color="#f0f"
         offset="1" />
    </linearGradient>
  </defs>
  <metadata
     id="metadata5">
    <rdf:RDF>
      <cc:Work
         rdf:about="">
        <dc:format>image/svg+xml</dc:format>
        <dc:type
           rdf:resource="http://purl.org/dc/dcmitype/StillImage" />
        <dc:title></dc:title>
      </cc:Work>
    </rdf:RDF>
  </metadata>
  <g
     transform="translate(-103.52534,-116.44035)"
     id="layer1">
    <g
       id="g96"
       transform="matrix(0.26458333,0,0,0.26458333,159.08784,144.2216)">
      <circle
         style="fill:#cac5c0"
         id="circle92"
         r="50"
         cy="-55"
         cx="-160" />
      <path
         style="fill:#0d0f0f"
         id="path94"
         d="m -176.3,-85.85 v 49.3 c 0,5.9 2.44,8.82 7.3,8.82 h 1.14 v 3.33 h -26.18 v -3.33 h 1.8 c 4.92,0 7.4,-2.93 7.4,-8.8 v -32.33 c 0,-5.96 -2.13,-8.94 -6.4,-8.94 h -2.55 v -3.32 h 1.1 c 5.1,0 9.7,-1.58 13.8,-4.73 z m 32.72,61.83 h -8.95 v -1.02 c 0,-5.7 1.8,-12.9 5.37,-21.6 5.45,-12.94 10.48,-22.9 15.07,-29.88 l 0.6,-0.9 h -20.9 c -3,0 -5.4,0.64 -6.9,1.92 -1.5,1.27 -2.8,3.4 -3.6,6.38 h -3.4 l 3.9,-16.86 h 2.3 c 1.3,0.6 3.6,0.9 6.9,0.9 h 27.6 v 4.85 c -1,1.45 -2.3,3.75 -3.8,6.9 -3,5.8 -5.7,12.52 -8.2,20.18 -3.6,11.42 -5.5,21.13 -5.6,29.13 z" />
    </g>
  </g>
</svg>
