<?xml version="1.0" encoding="UTF-8" standalone="no"?>
<svg
   xmlns:dc="http://purl.org/dc/elements/1.1/"
   xmlns:cc="http://creativecommons.org/ns#"
   xmlns:rdf="http://www.w3.org/1999/02/22-rdf-syntax-ns#"
   xmlns:svg="http://www.w3.org/2000/svg"
   xmlns="http://www.w3.org/2000/svg"
   xmlns:xlink="http://www.w3.org/1999/xlink"
   id="svg8"
   version="1.1"
   viewBox="0 0 26.458328 26.458332"
   height="26.458332mm"
   width="26.458332mm">
  <defs
     id="defs2">
    <linearGradient
       gradientUnits="userSpaceOnUse"
       xlink:href="#a"
       gradientTransform="matrix(1.4733394,0,0,1.5793349,-1202.8083,-227.62597)"
       y2="-43.950001"
       y1="-43.950001"
       x2="701.51001"
       x1="633.63"
       id="b" />
    <linearGradient
       id="a">
      <stop
         id="stop4"
         stop-color="red"
         offset="0" />
      <stop
         id="stop6"
         stop-color="#ff0"
         offset=".2" />
      <stop
         id="stop8"
         stop-color="#0f0"
         offset=".4" />
      <stop
         id="stop10"
         stop-color="#0ff"
         offset=".6" />
      <stop
         id="stop12"
         stop-color="#00f"
         offset=".8" />
      <stop
         id="stop14"
         stop-color="#f0f"
         offset="1" />
    </linearGradient>
  </defs>
  <metadata
     id="metadata5">
    <rdf:RDF>
      <cc:Work
         rdf:about="">
        <dc:format>image/svg+xml</dc:format>
        <dc:type
           rdf:resource="http://purl.org/dc/dcmitype/StillImage" />
        <dc:title></dc:title>
      </cc:Work>
    </rdf:RDF>
  </metadata>
  <g
     transform="translate(-93.50544,-108.41956)"
     id="layer1">
    <g
       id="g72"
       transform="matrix(0.26458333,0,0,0.26458333,121.28669,163.98206)">
      <circle
         style="fill:#cac5c0"
         id="circle68"
         r="50"
         cy="-160"
         cx="-55" />
      <path
         style="fill:#0d0f0f"
         id="path70"
         d="m -64.03,-160.54 -1.75,-1.2 c -5.12,-3.5 -8.5,-6.34 -10.1,-8.5 -2.07,-2.7 -3.1,-5.83 -3.1,-9.42 0,-6.1 2.55,-11.1 7.67,-14.95 4.7,-3.6 10.2,-5.4 16.5,-5.4 5.9,0 11.2,1.5 15.7,4.7 5.2,3.5 7.8,8.1 7.8,13.9 0,7 -4.9,12.6 -14.7,16.9 11.1,5.4 16.7,12.9 16.7,22.5 0,6.9 -2.7,12.4 -8,16.4 -4.8,3.7 -10.8,5.5 -17.9,5.5 -6.8,0 -12.6,-1.7 -17.4,-5.2 -5.6,-3.9 -8.4,-9 -8.4,-15.4 0,-6.4 3,-11.7 8.9,-15.8 1.6,-1.1 4.2,-2.5 7.8,-4.3 z m 4.57,1.9 c -8.08,3.7 -12.1,9.48 -12.1,17.38 0,5.1 1.62,9.2 4.9,12.3 3.28,3.1 7.48,4.65 12.6,4.65 4.57,0 8.46,-1.3 11.64,-3.7 3.2,-2.5 4.78,-5.9 4.78,-10.3 0,-6.7 -4.36,-12 -13.1,-16.1 z m 9.03,-7.96 c 7.1,-3.14 10.64,-7.85 10.64,-14.14 0,-4.3 -1.5,-7.76 -4.5,-10.37 -3,-2.7 -6.7,-4 -11.1,-4 -3.7,0 -6.8,1 -9.5,2.9 -2.9,2.1 -4.4,5 -4.4,8.6 0,4.4 2.1,7.9 6.2,10.6 0.8,0.5 4.4,2.3 10.8,5.2 z" />
    </g>
  </g>
</svg>
