<svg xmlns="http://www.w3.org/2000/svg" viewBox="0 0 26.5 26.5"><g transform="translate(111.125 55.563) scale(.26458)"><circle cx="-370" cy="-160" r="50" fill="#cac5c0"/><path fill="#0d0f0f" d="m -385.04,-198.65 h 28.94 c 3.75,0 6,-0.45 6.7,-1.35 h 4.16 l -2.43,10.93 h -35.3 l -3.42,15.78 c 5.2,-2 9.7,-3.1 13.7,-3.1 7.8,0 14.3,2.6 19.6,7.8 5.3,5.2 8,11.6 8,19.4 0,9 -3.4,16.3 -10.4,21.8 -6.4,5.1 -14.1,7.6 -23.3,7.6 -5.4,0 -10.6,-0.8 -15.8,-2.4 l 1.7,-4 c 4.3,1.2 8.1,1.8 11.5,1.8 6.7,0 12.5,-2.2 17.5,-6.5 5,-4.3 7.5,-9.8 7.5,-16.4 0,-5.6 -1.8,-10.3 -5.5,-13.9 -3.7,-3.6 -8.3,-5.5 -14,-5.5 -5.2,0 -10.1,1.8 -14.6,5.4 l -2.7,-0.5 z"/></g></svg>