<svg xmlns="http://www.w3.org/2000/svg" viewBox="0 0 26.5 26.5"><g transform="translate(27.78) scale(.2646)"><path fill="#a3c095" d="m -5,50 c 0,27.6 -22.4,50 -50,50 -27.6,0 -50,-22.4 -50,-50 0,-27.6 22.4,-50 50,-50 27.6,0 50,22.4 50,50 z"/><path fill="#0d0f0f" d="m -11.24,56.23 c 0,1.66 -0.64,3.16 -1.93,4.5 -1.3,1.33 -2.77,2 -4.44,2 -2.7,0 -4.7,-1.26 -5.9,-3.76 l -5.9,-0.25 c -1.3,0 -3.7,0.55 -7.4,1.63 -3.9,1.08 -6.2,1.95 -6.8,2.62 -0.9,1 -1.7,3.33 -2.3,7 -0.5,3 -0.8,5.2 -0.8,6.62 0,2.2 0.3,3.8 1,4.9 0.7,1 2.1,1.9 4.3,2.6 2.2,0.7 3.5,1.1 4,1.2 0.3,0 0.8,-0.1 1.6,-0.2 h 1.5 c 1.1,0 2.2,0.1 3.4,0.5 1.6,0.5 2.3,1.1 2.1,2 -1.2,-0.2 -3.2,0.1 -6.1,0.7 l 3.5,1.7 c 0,1 -1.5,1.5 -4.3,1.5 -0.8,0 -1.8,-0.2 -3.1,-0.5 -1.3,-0.4 -2.2,-0.5 -2.6,-0.5 H -43 c -0.07,0.8 -0.3,2 -0.74,3.7 -1.4,-0.1 -3.1,-0.9 -5,-2.5 -1.9,-1.6 -3.1,-2.4 -3.6,-2.4 -0.5,0 -1.24,0.8 -2.15,2.3 -0.9,1.6 -1.3,2.7 -1.3,3.2 -1.1,-0.6 -2,-1.7 -2.7,-3.3 -0.3,-1.1 -0.7,-2.1 -1.1,-3.2 -0.8,0.1 -2.4,1.8 -4.6,5.2 h -0.6 c -0.1,-0.3 -0.8,-2 -1.8,-5.3 -2.6,-0.8 -5,-1.2 -7.3,-1.2 -1.1,0 -2.7,0.2 -5,0.7 l -3.5,-0.3 c 0.5,-0.5 2,-1.5 4.4,-2.9 2.8,-1.7 5,-2.5 6.5,-2.5 0.3,0 0.6,0 1,0.1 0.4,0.1 0.8,0.1 1,0.1 0.6,0 1.5,-0.3 2.8,-1 1.3,-0.6 2.1,-1.2 2.3,-1.7 0.2,-0.5 0.3,-1.8 0.3,-3.8 0,-4.8 -1.2,-8.3 -3.7,-10.7 -2.1,-2.1 -5.7,-3.6 -10.7,-4.5 -1.4,4.7 -5.1,7.1 -11.3,7.1 -2,0 -4,-1.2 -6,-3.7 -2,-2.4 -3,-4.6 -3,-6.6 0,-3 1.3,-5.6 3.9,-7.6 -2.1,-2.1 -3.1,-4.4 -3.1,-6.6 0,-2.1 0.6,-3.9 1.9,-5.5 1.3,-1.6 3,-2.5 5.1,-2.8 -0.1,-2.6 0.7,-4.5 2.6,-5.5 -0.9,-0.9 -1.3,-2.6 -1.3,-4.9 0,-2.7 0.9,-5 2.8,-6.9 1.8,-1.8 4.1,-2.7 6.9,-2.7 3,0 5.5,1.1 7.4,3.1 2.4,-7.9 7.7,-12 15.6,-12 4.2,0 7.9,1.6 11,5 1.2,1.2 1.8,1.9 1.8,2 -1,0 -0.5,-0.2 1.5,-0.6 2,-0.4 3.5,-0.6 4.4,-0.6 3.3,0 6.1,1.2 8.6,3.6 2.2,2.2 3.7,4.9 4.5,8.2 0.6,0.1 1.5,0.4 2.8,0.8 1.8,0.9 2.7,2.5 2.7,4.7 0,0.4 -0.4,1.2 -1,2.3 5.3,3 8,7.1 8,12.5 0,1.5 -0.6,3.6 -1.8,6.2 2.2,1.3 3.2,3.1 3.2,5.5 z m -51.46,5.5 V 60.1 c 0,-1.92 -0.94,-3.67 -2.8,-5.25 -1.9,-1.58 -3.78,-2.37 -5.7,-2.37 -2.33,0 -4.5,0.54 -6.5,1.62 4.42,-0.25 9.42,2.3 15,7.62 z m -2.25,-15.5 c -1.25,-1.42 -2.33,-2.87 -3.25,-4.37 -3.5,0.92 -5.25,1.96 -5.25,3.12 1,-0.08 2.46,0.1 4.37,0.56 1.92,0.46 3.3,0.7 4.13,0.7 z m 7.62,-3.87 v -5.5 c -2,-0.33 -3.2,-0.5 -3.62,-0.5 v 1.88 z m 16.24,-3.5 c -1,-0.4 -2.8,-1.25 -5.6,-2.5 V 47.1 c 3.9,-2.24 5.8,-5 5.6,-8.24 z m 6.9,14.74 -2.7,-3.37 -5.1,3.57 c -1.7,1.2 -3.2,2.53 -4.4,4.03 3.8,-2 7.9,-3.4 12.3,-4.25 z"/></g></svg>