<?xml version="1.0" encoding="UTF-8" standalone="no"?>
<svg
   xmlns:dc="http://purl.org/dc/elements/1.1/"
   xmlns:cc="http://creativecommons.org/ns#"
   xmlns:rdf="http://www.w3.org/1999/02/22-rdf-syntax-ns#"
   xmlns:svg="http://www.w3.org/2000/svg"
   xmlns="http://www.w3.org/2000/svg"
   xmlns:xlink="http://www.w3.org/1999/xlink"
   id="svg8"
   version="1.1"
   viewBox="0 0 26.458328 26.458332"
   height="26.458332mm"
   width="26.458332mm">
  <defs
     id="defs2">
    <linearGradient
       gradientUnits="userSpaceOnUse"
       xlink:href="#a"
       gradientTransform="matrix(1.4733394,0,0,1.5793349,-1202.8083,-227.62597)"
       y2="-43.950001"
       y1="-43.950001"
       x2="701.51001"
       x1="633.63"
       id="b" />
    <linearGradient
       id="a">
      <stop
         id="stop4"
         stop-color="red"
         offset="0" />
      <stop
         id="stop6"
         stop-color="#ff0"
         offset=".2" />
      <stop
         id="stop8"
         stop-color="#0f0"
         offset=".4" />
      <stop
         id="stop10"
         stop-color="#0ff"
         offset=".6" />
      <stop
         id="stop12"
         stop-color="#00f"
         offset=".8" />
      <stop
         id="stop14"
         stop-color="#f0f"
         offset="1" />
    </linearGradient>
  </defs>
  <metadata
     id="metadata5">
    <rdf:RDF>
      <cc:Work
         rdf:about="">
        <dc:format>image/svg+xml</dc:format>
        <dc:type
           rdf:resource="http://purl.org/dc/dcmitype/StillImage" />
        <dc:title></dc:title>
      </cc:Work>
    </rdf:RDF>
  </metadata>
  <g
     transform="translate(-93.690372,-110.77372)"
     id="layer1">
    <g
       id="g230"
       transform="matrix(0.26458333,0,0,0.26458333,232.59662,82.992469)">
      <path
         style="fill:#e49977"
         id="path222"
         d="m -439.65,119.64 c 9.05,9.06 14.65,21.56 14.65,35.36 0,27.6 -22.4,50 -50,50 -13.8,0 -26.3,-5.6 -35.35,-14.65" />
      <path
         style="fill:#bab1ab"
         id="path224"
         d="M -510.35,190.35 C -519.4,181.3 -525,168.8 -525,155 c 0,-27.62 22.4,-50 50,-50 13.8,0 26.3,5.6 35.35,14.64" />
      <path
         style="fill:#0d0f0f"
         id="path226"
         d="m -436.7,179.44 c -1.72,4.1 -5.13,6.14 -10.24,6.14 -0.94,0 -1.95,0.12 -3.04,0.35 -1.64,0.36 -2.46,0.84 -2.46,1.47 0,0.2 0.13,0.42 0.4,0.67 0.28,0.26 0.52,0.38 0.7,0.38 -0.97,0 -0.3,0.03 2,0.1 2.3,0.05 3.74,0.08 4.33,0.08 -3.4,2 -9.1,2.9 -17.1,2.75 -2.6,-0.04 -4.9,-1.2 -6.8,-3.45 -1.9,-2.15 -2.8,-4.55 -2.8,-7.2 0,-2.8 0.9,-5.2 2.8,-7.17 1.9,-1.97 4.2,-2.95 7,-2.95 0.6,0 1.4,0.2 2.5,0.5 1.1,0.3 1.7,0.4 2,0.4 1.4,0 3.2,-0.6 5.3,-1.8 2.2,-1.2 3.2,-1.8 3,-1.8 -0.4,4.1 -1.7,6.9 -4.1,8.3 -1.7,1 -2.5,2 -2.5,2.9 0,0.6 0.3,1.1 1,1.4 0.5,0.3 1.1,0.4 1.8,0.4 1,0 2,-0.6 3,-1.9 1,-1.2 1.4,-2.3 1.3,-3.3 -0.1,-1.1 -0.1,-2.6 0.2,-4.2 0.1,-0.5 0.4,-1 0.9,-1.7 0.5,-0.7 0.9,-1.1 1.3,-1.2 0,0.4 -0.2,1 -0.4,1.8 -0.3,0.9 -0.4,1.5 -0.4,1.9 0,0.8 0.2,1.5 0.7,2 0.7,-0.3 1.3,-1.2 1.9,-2.6 0.4,-1.1 0.7,-2.2 0.8,-3.2 -1.7,0 -3.2,-0.8 -4.7,-2.2 -1.5,-1.4 -2.3,-2.9 -2.3,-4.5 0,-0.3 0,-0.6 0.1,-0.8 l 1,1.7 c 0.6,1 1.2,1.5 1.5,1.5 0.5,0 0.7,-0.5 0.7,-1.5 0,-1.3 -0.3,-2.4 -1,-3.4 -0.7,-1.2 -1.7,-1.8 -2.8,-1.8 -0.6,0 -1.4,0.3 -2.5,0.9 -1.1,0.6 -2.1,0.9 -3,0.9 -0.3,0 -1.5,-0.3 -3.6,-1 3.7,-0.7 5.6,-1.2 5.6,-1.7 0,-1.4 -2.6,-2.3 -7.8,-2.7 -0.5,-0.1 -1.4,-0.1 -2.8,-0.3 0.2,-0.2 1.3,-0.4 3.3,-0.6 1.7,-0.2 3,-0.3 3.7,-0.3 9.3,0 15.1,4.5 17.6,13.5 0.4,-0.3 0.6,-0.9 0.6,-1.7 0,-1.1 -0.3,-2.4 -0.9,-4.1 -0.2,-0.6 -0.6,-1.6 -1.1,-2.8 3.2,4.1 4.8,7.9 4.8,11.6 0,2 -0.4,3.7 -1.3,5.3 -0.6,1 -1.7,2.4 -3.3,4 -1.6,1.6 -2.7,3 -3.3,3.9 2.1,-0.6 3.5,-1.1 4.2,-1.4 1.5,-0.7 2.8,-1.7 4,-3 0,0.5 -0.2,1.3 -0.6,2.3 z m -25.5,-23 c 0,0.7 -0.4,1.15 -1.18,1.35 l -1.53,0.2 c -0.6,0.2 -1.4,1.3 -2.4,3.2 l -0.6,-2.5 c -0.4,0 -1,0.3 -1.8,0.9 -0.4,0.2 -0.9,0.7 -1.7,1.2 0.2,-1.4 1,-2.9 2.3,-4.3 1.4,-1.6 2.7,-2.4 4.1,-2.4 1.7,0 2.6,0.7 2.6,2.1 z m 10.17,5.4 c 0,0.65 -0.36,1.2 -1.1,1.66 -0.7,0.44 -1.42,0.67 -2.12,0.67 -0.94,0 -1.78,-0.53 -2.52,-1.58 -0.9,-1.3 -1.8,-2.2 -2.75,-2.6 0.2,-0.2 0.43,-0.3 0.7,-0.3 0.36,0 0.95,0.3 1.8,0.8 0.83,0.5 1.37,0.8 1.6,0.8 0.2,0 0.52,-0.3 0.96,-0.8 0.45,-0.6 0.95,-0.9 1.5,-0.9 1.3,0 1.93,0.7 1.93,2 z" />
      <path
         style="fill:#0d0f0f"
         id="path228"
         d="m -471.74,133.1 c 0,2.7 -0.98,4.55 -2.95,5.54 -0.5,0.28 -2.3,0.67 -5.4,1.16 -1.9,0.33 -2.9,1.1 -2.9,2.27 v 4.98 c 0,0.2 0.1,0.84 0.2,1.9 l 0.2,1.97 c 0,0.6 -0.1,1.6 -0.4,3 l -2.7,0.56 c -0.3,-1.23 -0.5,-2.07 -0.5,-2.52 0,-0.2 0.1,-0.5 0.2,-0.92 0.1,-0.4 0.2,-0.72 0.2,-0.92 0,-0.3 -0.2,-1.1 -0.7,-2.4 h -0.9 c -0.1,0.2 -0.1,0.47 -0.1,0.8 0.2,0.7 0.3,1.3 0.2,1.78 -0.7,0.5 -1.6,1.15 -2.9,1.97 -0.3,-0.1 -0.4,-0.13 -0.3,-0.13 v -4.36 c -0.1,-0.2 -0.3,-0.28 -0.6,-0.24 h -0.7 l -0.7,5.77 c -0.6,0.1 -1.2,0.1 -2.1,0 -0.3,-1.3 -0.8,-3.3 -1.5,-6 h -0.5 l -0.7,2.4 c 0,0.2 0.1,0.5 0.2,1 0.1,0.5 0.2,0.8 0.2,1 0,0.1 0,0.5 -0.1,0.9 l -0.2,1.5 c -0.1,0.1 -0.2,0.1 -0.3,0.1 -1.2,0 -2,-0.3 -2.4,-0.9 -0.4,-0.6 -0.5,-1.5 -0.5,-2.6 l 0.5,-7.4 c 0,-0.1 0.1,-0.3 0.2,-0.5 0.1,-0.2 0.1,-0.3 0.1,-0.4 0,-0.3 -0.3,-1 -1,-2 -0.1,-0.1 -0.7,-0.2 -1.9,-0.4 l -4.1,-0.8 c -2.8,-0.5 -4.2,-2.8 -4.2,-6.8 0,-6 2.5,-10.9 7.4,-14.9 0.2,1.1 0.6,2.6 1.1,4.4 l 2.4,0.6 3.7,1.4 c -1.2,-0.7 -2.7,-1.8 -4.5,-3.4 -0.7,-0.8 -1,-2.2 -1,-4.1 0,-0.5 0.8,-1 2.4,-1.6 1.4,-0.6 2.5,-0.9 3.2,-1 2.2,-0.3 3.9,-0.4 5.1,-0.4 5.1,0 9.3,1.3 12.4,3.9 -1,1.2 -2.8,2.5 -5.3,3.8 1,0.1 2.4,-0.3 4.3,-1.1 1.9,-0.8 2.7,-1.2 2.4,-1.2 0.4,0 1,0.7 2,2 0.7,1 1.3,1.9 1.8,2.7 1.3,2.4 2.2,4.9 2.6,7.6 0,1 0,1.6 0.1,2 z m -23.52,1.12 c 0,-1.76 -0.77,-3.43 -2.3,-5 -1.54,-1.58 -3.18,-2.37 -4.94,-2.37 -1.56,0 -2.93,0.66 -4.12,1.98 -1.18,1.32 -1.78,2.78 -1.78,4.4 0,1.4 0.68,2.3 2.03,2.7 0.86,0.26 2.07,0.4 3.62,0.44 h 3.38 c 2.74,0.04 4.1,-0.68 4.1,-2.15 z m 6.7,7.6 v -1.9 c -0.3,-0.52 -0.58,-1.08 -0.87,-1.65 -0.24,-0.82 -0.7,-1.96 -1.35,-3.44 l -0.67,7.2 c 0,0.56 -0.12,0.85 -0.37,0.85 -0.16,0 -0.3,-0.04 -0.37,-0.13 -0.2,-4.34 -0.4,-6.22 -0.4,-5.64 V 135 c -0.1,-0.13 -0.2,-0.2 -0.3,-0.2 -1.4,1.45 -2.1,3.76 -2.1,6.95 0,1.77 0.2,2.85 0.5,3.27 0.4,-0.1 0.7,-0.24 1.1,-0.44 0.2,-0.1 0.7,-0.13 1.4,-0.13 0.8,0 1.8,0.26 2.9,0.75 0.4,0 0.6,-1.1 0.6,-3.32 z m 13.87,-8.55 c 0,-1.64 -0.6,-3.1 -1.8,-4.4 -1.2,-1.3 -2.6,-1.96 -4.2,-1.96 -1.7,0 -3.3,0.8 -4.8,2.4 -1.5,1.6 -2.2,3.3 -2.2,5 0,1.5 0.7,2.2 2.1,2.2 h 7.1 c 2.7,0 4,-1 4,-3.1 z" />
    </g>
  </g>
</svg>
