<svg xmlns="http://www.w3.org/2000/svg" viewBox="0 0 26.5 26.5">
  <g transform="translate(166.7 27.8) scale(.26458)">
    <circle cx="-580" cy="-55" r="50" fill="#cac5c0"/>
    <path d="M-592-85.2v48.5c0 5.7 2.4 8.6 7.3 8.6h1.1v3.3h-25.8v-3.3h1.7c4.9 0 7.4-3 7.4-8.6v-31.8c0-6-2.1-8.8-6.3-8.8h-2.5v-3.3h1c5 0 9.6-1.6 13.6-4.6z" fill="#0d0f0f"/>
    <path d="M-570.3-53l-1.6-2.8 1.2-.7c3.8-2.3 7.4-4.8 10.7-7.2 3.2-2.4 4.9-5 4.9-8.2 0-2-1-3.9-2.5-5.3a8 8 0 0 0-5.4-2c-5 0-10.2 3-15.6 9l-2.6-2c5.6-8.5 12.5-12.8 20.7-12.8 3.5 0 6.6 1 9 2.7 2.9 2 4.3 4.7 4.3 8.1 0 2.4-1 4.7-3.1 7-1.2 1.3-3.3 3-6.2 5.3l-1.1 1h1.9c3.7 0 6.8 1.3 9.2 4.2a15 15 0 0 1 3.6 9.8c0 6.5-2.7 12-8.2 16.1-5 4.1-10.7 6.1-17.3 6.1-6.1 0-10.8-1.2-14.2-3.8l1.8-2.5c4 2 7.6 2.8 11 2.8 4.8 0 9-1.6 12.8-4.7a14.3 14.3 0 0 0 2.8-19.8 9.2 9.2 0 0 0-7.4-3.3c-2.7 0-5.7 1.1-9 3.3z" fill="#0d0f0f"/>
  </g>
</svg>
