<svg xmlns="http://www.w3.org/2000/svg" viewBox="0 0 26.5 26.5"><g transform="translate(222.25 -27.78) scale(.2646)"><path fill="#bab1ab" d="m -754.65,119.64 c 9.05,9.06 14.65,21.56 14.65,35.36 0,27.6 -22.4,50 -50,50 -13.8,0 -26.3,-5.6 -35.35,-14.65"/><path fill="#f8f6d8" d="M -825.35,190.35 C -834.4,181.3 -840,168.8 -840,155 c 0,-27.62 22.4,-50 50,-50 13.8,0 26.3,5.6 35.35,14.64"/><path fill="#0d0f0f" d="M-750.38 171c0 2.7-.98 4.53-2.95 5.52-.57.28-2.37.67-5.4 1.16-1.96.33-2.95 1.1-2.95 2.27v4.98c0 .2.07.84.2 1.9l.17 1.97c0 .6-.2 1.6-.5 3l-2.7.56c-.4-1.23-.5-2.07-.5-2.52 0-.2 0-.5.1-.92.1-.4.1-.72.1-.92 0-.3-.3-1.1-.8-2.4h-1c-.1.2-.2.47-.2.8.1.7.2 1.3.2 1.78-.7.5-1.7 1.15-2.9 1.97-.3-.1-.4-.13-.3-.13v-4.36c-.1-.2-.3-.28-.7-.24h-.7l-.8 5.77h-2.1c-.3-1.4-.8-3.4-1.5-6.1h-.5l-.8 2.3c0 .1 0 .4.1.9.1.5.1.8.1.9 0 .1-.1.4-.1.9l-.2 1.4c-.1.1-.2.1-.4.1-1.3 0-2.1-.3-2.5-.9-.4-.6-.6-1.4-.5-2.6l.5-7.4c0-.2.1-.3.1-.5 0-.2.1-.4.1-.5 0-.4-.3-1-1-2-.1-.1-.7-.2-1.9-.5-.7-.2-2-.5-4.1-.9-2.8-.5-4.2-2.8-4.2-6.8 0-6 2.4-11 7.3-14.9.2 1.1.6 2.5 1.1 4.4l2.3.5 3.7 1.4c-1.1-.7-2.6-1.8-4.5-3.4-.7-.8-1.1-2.2-1.1-4.1 0-.5.7-1 2.3-1.6 1.4-.6 2.4-.9 3.1-1 2.2-.3 3.9-.4 5.1-.4 5.1 0 9.2 1.3 12.4 3.9-1 1.2-2.8 2.5-5.3 3.8 1 .1 2.4-.3 4.3-1.1 1.9-.9 2.7-1.3 2.4-1.3.3 0 1 .6 2 2 .7.9 1.3 1.8 1.8 2.6 1.3 2.3 2.2 4.8 2.6 7.5v2zm-23.52 1.1c0-1.76-.76-3.43-2.3-5-1.53-1.58-3.18-2.37-4.94-2.37-1.56 0-2.93.66-4.1 1.98-1.2 1.4-1.8 2.8-1.8 4.4 0 1.4.68 2.3 2.03 2.8.8.3 2 .4 3.6.5h3.4c2.7.1 4.1-.7 4.1-2.1zm6.7 7.6v-1.9c-.3-.52-.58-1.08-.86-1.65-.25-.82-.7-1.96-1.35-3.44l-.7 7.2c0 .6-.1.9-.4.9-.2 0-.3 0-.4-.1-.3-4.3-.5-6.2-.5-5.6V173c-.1-.13-.2-.2-.3-.2-1.4 1.45-2.1 3.76-2.1 6.95 0 1.74.1 2.8.5 3.24.3-.1.7-.3 1.1-.5.1-.1.6-.1 1.4-.1.8 0 1.7.2 2.8.7.4 0 .6-1.1.6-3.3zm13.87-8.55c0-1.64-.6-3.12-1.84-4.4-1.23-1.3-2.64-1.96-4.23-1.96-1.72 0-3.33.7-4.82 2.3-1.5 1.6-2.25 3.2-2.25 4.9 0 1.4.7 2.1 2.1 2.1h7.05c2.66-.1 4-1.1 4-3.1zM-785.33 143.26c-2.44-2.26-4.06-3.5-4.85-3.68-.58-.14-1.14.2-1.67 1-.54.82-1.3 1.1-2.27.87-.4-.1-1.18-.44-2.33-1.02-.94.88-1.44 1.47-1.5 1.76-.1.3.07.9.54 1.6.4.7.8 1 1.3 1.1.2 0 .6.1 1 .1h.9c.4.1.4.9 0 2.6-.4 1.5-1.3 3.8-2.8 6.9-.1-3.9-.6-6-1.7-6.3-.2-.1-.5 0-1 .1-.5.1-.9.1-1.1.1-1.1-.3-1.8-1.5-2.2-3.6-1.7-.1-2.8.5-3.1 1.9-.2.7 0 1.3.6 1.9.5.6.8 1 .8 1.1-.3.9-2 2.1-5.4 3.4-1.8.7-3 1.2-3.7 1.5.6-.6 1.3-1.3 2.1-2.2.8-1.1 1.3-1.9 1.5-2.6.1-.4-.2-1-.9-1.8-.7-.9-1-1.7-.8-2.4.1-.6.5-1.3 1.2-2.1-.4-.7-.9-1.1-1.5-1.2-1.5-.4-2.3-.1-2.5.8l-.4 1.4c-.3 1.2-1.3 1.6-3.2 1.1-1.4-.4-3.7-1.3-6.9-2.7 4-.1 6.1-.7 6.4-1.9 0 .1 0-.3.1-1.4.1-1.2 1.2-2 3.1-2.5.1-1.8-.6-2.8-2-3.1-.2-.1-.7.2-1.4.8-.8.6-1.4.8-1.9.7-.9-.2-1.8-1.4-2.7-3.6-.4-1.1-1.1-2.7-2-4.9l2.2 1.9c.9.7 1.7 1.2 2.4 1.4.5.1 1.1-.2 1.8-1 .7-.8 1.4-1.1 2.2-.9.1 0 .8.4 2 1.2.9-.9 1.5-1.6 1.6-2.1.1-.4-.1-1-.4-1.7-.4-.7-.8-1.1-1.2-1.2-.2-.1-.5-.1-.9-.1-.4 0-.7 0-.9-.1-.7-.2-.8-1.1-.4-2.7.1-.5 1.1-2.8 3-7.2-.2.6-.2 1.6 0 3.2.2 2 .7 3.1 1.5 3.3.1 0 .4 0 .9-.1.5-.1.8-.2 1.1-.1.8.2 1.4.8 1.7 1.9l.5 1.6c.7.2 1.4 0 2.1-.4.6-.4 1-1 1.2-1.8.2-.8 0-1.5-.6-2.1-.6-.6-.9-1-.8-1.2.1-.7 1.6-1.7 4.5-3 2.2-1 3.7-1.6 4.3-1.7-2.1 1.7-3.2 3.1-3.5 4.1-.1.5 0 1.1.5 1.9.6.8.9 1.4.9 1.7.2.9-.1 2.1-.9 3.4.8.9 1.4 1.4 2 1.6 1.1.2 1.7-.2 2-1.3l.1-1.1c0-.6.1-.9.1-1 .2-.4 1.3-.5 3.1 0 1.1.3 3.5 1.2 7 2.7l-3.8.1c-1.6.1-2.4.4-2.6 1-.1.2-.1.7 0 1.3 0 .7 0 1.1-.1 1.4-.1.5-.6.9-1.3 1.2l-2.1.8c.2.9.4 1.4.5 1.6.2.5.7.8 1.3 1 .4.1.9-.2 1.5-.9.5-.7 1.2-.9 2-.7.9.2 1.8 1.4 2.6 3.5l2.1 5.3zm-11.28-6.02c.5-2.3.1-4.52-1.2-6.62-1.3-2.1-3.1-3.43-5.4-3.98-2.4-.57-4.6-.2-6.7 1.06-2.1 1.27-3.5 3.08-4.1 5.42-.6 2.3-.2 4.5 1.1 6.6 1.3 2.1 3.2 3.43 5.5 3.98 2.4.6 4.7.27 6.7-.94 2-1.2 3.3-3.05 3.8-5.52zm-.9-.2c-.6 2.2-1.7 3.86-3.6 4.95-1.9 1-3.9 1.3-6.1.8-2.2-.5-3.8-1.7-5-3.6-1.2-1.9-1.5-3.9-1-6 .5-2.1 1.7-3.7 3.6-4.9 1.9-1.2 3.9-1.5 6-1 2.1.5 3.7 1.7 4.9 3.5 1.2 1.9 1.5 3.8 1 5.9z"/></g></svg>