<?xml version="1.0" encoding="UTF-8" standalone="no"?>
<svg
   xmlns:dc="http://purl.org/dc/elements/1.1/"
   xmlns:cc="http://creativecommons.org/ns#"
   xmlns:rdf="http://www.w3.org/1999/02/22-rdf-syntax-ns#"
   xmlns:svg="http://www.w3.org/2000/svg"
   xmlns="http://www.w3.org/2000/svg"
   xmlns:xlink="http://www.w3.org/1999/xlink"
   id="svg8"
   version="1.1"
   viewBox="0 0 26.458328 26.458332"
   height="26.458332mm"
   width="26.458332mm">
  <defs
     id="defs2">
    <linearGradient
       gradientUnits="userSpaceOnUse"
       xlink:href="#a"
       gradientTransform="matrix(1.4733394,0,0,1.5793349,-1202.8083,-227.62597)"
       y2="-43.950001"
       y1="-43.950001"
       x2="701.51001"
       x1="633.63"
       id="b" />
    <linearGradient
       id="a">
      <stop
         id="stop4"
         stop-color="red"
         offset="0" />
      <stop
         id="stop6"
         stop-color="#ff0"
         offset=".2" />
      <stop
         id="stop8"
         stop-color="#0f0"
         offset=".4" />
      <stop
         id="stop10"
         stop-color="#0ff"
         offset=".6" />
      <stop
         id="stop12"
         stop-color="#00f"
         offset=".8" />
      <stop
         id="stop14"
         stop-color="#f0f"
         offset="1" />
    </linearGradient>
  </defs>
  <metadata
     id="metadata5">
    <rdf:RDF>
      <cc:Work
         rdf:about="">
        <dc:format>image/svg+xml</dc:format>
        <dc:type
           rdf:resource="http://purl.org/dc/dcmitype/StillImage" />
        <dc:title></dc:title>
      </cc:Work>
    </rdf:RDF>
  </metadata>
  <g
     transform="translate(-97.305923,-106.69042)"
     id="layer1">
    <g
       id="g144"
       transform="matrix(0.26458333,0,0,0.26458333,347.33717,106.69042)">
      <circle
         style="fill:#cac5c0"
         id="circle140"
         r="50"
         cy="50"
         cx="-895" />
      <path
         style="fill:#0d0f0f"
         id="path142"
         d="m -891.76,63.27 -4.47,14.94 h -36.8 v -3 c 1.8,-2 5.76,-6 11.9,-12.1 3.57,-3.6 7.15,-7.5 10.72,-11.5 1.8,-2 3.2,-3.7 4,-5.2 2.2,-3 3.3,-6.2 3.3,-9.5 0,-3 -1,-5.8 -3,-8.2 -2,-2.4 -4.6,-3.6 -7.6,-3.6 -6.7,0 -11.9,4.5 -15.6,13.6 l -3.5,-1.3 c 4.5,-12.7 11.6,-19 21.2,-19 4.7,0 8.8,1.6 12.2,4.9 3.3,3.3 5,7.3 5,12 0,6.1 -3.6,12 -10.6,17.8 l -7.2,6 c -4.6,3.9 -8.4,7.5 -11.4,10.8 -0.3,0.2 -0.7,0.7 -1.3,1.6 h 19.1 c 3,0 5.2,-0.6 6.8,-1.9 1.2,-1 2.5,-2.9 3.8,-5.8 h 3 z m -0.5,-13.42 c 0,-7.4 1.53,-14.26 4.6,-20.56 4,-7.9 9.4,-11.8 16.22,-11.8 6.55,0 11.8,3.3 15.7,10.1 3.07,5.4 4.6,11.7 4.6,18.9 0,7.5 -1.53,14.3 -4.6,20.4 -4,7.6 -9.36,11.5 -16.1,11.5 -6.46,0 -11.66,-3.3 -15.57,-9.9 -3.3,-5.6 -4.9,-11.8 -4.9,-18.8 z m 8.68,-3.45 c 0,6.4 0.68,12.1 2.04,17.12 2.04,7.84 5.45,11.75 10.22,11.75 7.75,0 11.63,-8.04 11.63,-24.14 0,-19.93 -4.2,-29.9 -12.6,-29.9 -7.5,0 -11.2,7.76 -11.2,23.26 z" />
    </g>
  </g>
</svg>
