<?xml version="1.0" encoding="UTF-8" standalone="no"?>
<svg
   xmlns:dc="http://purl.org/dc/elements/1.1/"
   xmlns:cc="http://creativecommons.org/ns#"
   xmlns:rdf="http://www.w3.org/1999/02/22-rdf-syntax-ns#"
   xmlns:svg="http://www.w3.org/2000/svg"
   xmlns="http://www.w3.org/2000/svg"
   xmlns:xlink="http://www.w3.org/1999/xlink"
   id="svg8"
   version="1.1"
   viewBox="0 0 26.458328 26.458332"
   height="26.458332mm"
   width="26.458332mm">
  <defs
     id="defs2">
    <linearGradient
       gradientUnits="userSpaceOnUse"
       xlink:href="#a"
       gradientTransform="matrix(1.4733394,0,0,1.5793349,-1202.8083,-227.62597)"
       y2="-43.950001"
       y1="-43.950001"
       x2="701.51001"
       x1="633.63"
       id="b" />
    <linearGradient
       id="a">
      <stop
         id="stop4"
         stop-color="red"
         offset="0" />
      <stop
         id="stop6"
         stop-color="#ff0"
         offset=".2" />
      <stop
         id="stop8"
         stop-color="#0f0"
         offset=".4" />
      <stop
         id="stop10"
         stop-color="#0ff"
         offset=".6" />
      <stop
         id="stop12"
         stop-color="#00f"
         offset=".8" />
      <stop
         id="stop14"
         stop-color="#f0f"
         offset="1" />
    </linearGradient>
  </defs>
  <metadata
     id="metadata5">
    <rdf:RDF>
      <cc:Work
         rdf:about="">
        <dc:format>image/svg+xml</dc:format>
        <dc:type
           rdf:resource="http://purl.org/dc/dcmitype/StillImage" />
        <dc:title></dc:title>
      </cc:Work>
    </rdf:RDF>
  </metadata>
  <g
     transform="translate(-101.71925,-113.1015)"
     id="layer1">
    <g
       id="g114"
       transform="matrix(0.26458333,0,0,0.26458333,240.6255,140.88275)">
      <circle
         style="fill:#cac5c0"
         id="circle110"
         r="50"
         cy="-55"
         cx="-475" />
      <path
         style="fill:#0d0f0f"
         id="path112"
         d="m -488.7,-85.53 v 49.05 c 0,5.8 2.43,8.7 7.28,8.7 h 1.16 v 3.3 h -26.06 v -3.3 h 1.66 c 4.94,0 7.4,-2.9 7.4,-8.7 v -32.2 c 0,-5.87 -2.08,-8.8 -6.25,-8.8 h -2.6 v -3.32 h 1 c 5,0 9.6,-1.58 13.6,-4.73 z m 43.05,43.7 v 5.1 c 0,5.7 2,8.56 6,8.56 h 1.67 v 3.3 h -24.4 v -3.3 h 1.92 c 4,0 6,-2.8 6,-8.43 v -5.24 H -479 v -5.1 l 25.94,-37.83 h 7.42 v 38.58 h 0.63 c 2.4,0 4.3,-1.9 5.4,-5.8 h 3 l -1.6,10.2 z m -6.77,-5.12 v -32.2 l -21.7,32.2 z" />
    </g>
  </g>
</svg>
