<svg xmlns="http://www.w3.org/2000/svg" viewBox="0 0 49.7 26.5"><g transform="translate(114.3 -111.125) scale(.26458)"><path fill="#cac5c0" d="m -294,420 h -88 c -27.6,0 -50,22.4 -50,50 0,27.6 22.4,50 50,50 h 88 c 27.6,0 50,-22.4 50,-50 0,-27.62 -22.4,-50 -50,-50 z"/><path fill="#0d0f0f" d="M-388.42 433v59.3c0 7.1 2.98 10.64 8.96 10.64h1.55V507h-31.6v-4.06h2c5.8 0 8.6-3.55 8.6-10.64v-38.9c0-7.18-2.5-10.77-7.5-10.77h-3.2v-3.93h1.1c6.1 0 11.7-1.9 16.7-5.7h3.2zM-368.87 472.24c0-9.05 1.9-17.4 5.72-25.04 4.74-9.47 11.22-14.2 19.44-14.2 8.1 0 14.4 4.03 19 12.08 3.8 6.65 5.7 14.38 5.7 23.18 0 9.14-1.9 17.4-5.8 24.8-4.7 9.3-11.2 13.94-19.5 13.94-7.9 0-14.2-3.98-18.8-11.96-4-6.8-6-14.4-6-22.8zm10.46-4.1c0 11.95 1.7 21.26 5.3 27.9 2.5 4.65 5.7 6.98 9.6 6.98 9.3 0 14-9.72 14-29.16 0-8.55-.8-15.78-2.3-21.67-2.6-9.8-7-14.6-13.1-14.6-9.2 0-13.7 9.4-13.7 28.1zM-307.54 472.24c0-9.05 1.9-17.4 5.73-25.04 4.7-9.47 11.2-14.2 19.4-14.2 8.1 0 14.5 4.03 19 12.08 3.8 6.65 5.7 14.38 5.7 23.18 0 9.14-1.9 17.4-5.8 24.8-4.6 9.3-11.1 13.94-19.4 13.94-7.9 0-14.2-3.98-18.8-11.96-4-6.8-6-14.4-6-22.8zm10.46-4.1c0 11.95 1.8 21.26 5.36 27.9 2.5 4.65 5.7 6.98 9.6 6.98 9.38 0 14.07-9.72 14.07-29.16 0-8.55-.75-15.78-2.24-21.67-2.5-9.8-6.9-14.6-13-14.6-9.1 0-13.7 9.4-13.7 28.1z"/></g></svg>