<svg xmlns="http://www.w3.org/2000/svg" viewBox="0 0 86 100"><g fill="#000" fill-rule="nonzero"><path d="M38.023.342c-2.564.935-4.254 1.78-6.336 3.168a39.056 39.056 0 0 0-2.614 1.88c-1.469 1.177-4.948 4.667-5.904 5.924-2.785 3.68-4.395 7.26-4.948 11.012-.583 3.982-.08 7.442 1.61 10.952.744 1.558 1.498 2.665 2.604 3.821 1.489 1.549 3.047 2.545 4.978 3.188.795.272.966.292 2.464.292 1.8 0 2.776-.161 4.093-.664 3.872-1.498 6.185-5.712 5.984-10.901-.11-2.665-.593-4.466-2.605-9.594-1.71-4.385-2.051-5.894-1.96-8.91.05-2.213.31-3.5 1.136-5.854.764-2.142 1.066-2.695 2.353-4.384.12-.151.18-.272.13-.272-.04.01-.482.16-.985.342ZM46.984.12c.05.071.291.403.543.735a10.013 10.013 0 0 1 1.367 2.283c.503 1.206 1.157 3.258 1.418 4.505.242 1.116.272 1.478.272 3.319.01 1.609-.03 2.253-.171 2.956-.272 1.308-.795 2.987-1.539 4.878-2.464 6.235-2.936 8.136-2.826 11.374.08 2.213.393 3.56 1.237 5.28 1.69 3.47 5.029 5.33 9.242 5.159 1.348-.06 2.354-.322 3.62-.965 2.515-1.258 4.748-3.63 6.045-6.407 1.378-2.956 1.95-5.983 1.74-9.151-.201-2.977-.875-5.43-2.243-8.196-1.398-2.806-2.987-4.958-5.581-7.543-4.093-4.093-7.452-6.306-12.159-8.005-1.056-.382-1.066-.392-.965-.221ZM9.784 21.893C4.092 27.555 1.708 32.011.42 39.423c-.422 2.413-.553 6.546-.272 8.548.513 3.7 1.7 6.979 3.47 9.553.694 1.016 2.474 2.846 3.46 3.55 1.367.986 3.218 1.8 4.766 2.092 1.006.191 2.806.141 3.752-.1 1.076-.282 2.463-.976 3.288-1.66.604-.503 1.84-1.98 2.685-3.208.503-.744 1.177-2.232 1.428-3.188.332-1.227.312-2.987-.04-4.344-.865-3.279-2.514-5.974-6.798-11.123-3.108-3.721-4.013-5.089-4.928-7.382-.573-1.458-.855-3.439-.714-5.008.09-1.016.573-3.319 1.066-5.109.432-1.579.523-2.132.332-2.132-.07 0-1.026.895-2.132 1.981ZM73.956 20.033c-.05.14.02.463.603 2.695.231.855.523 2.162.664 2.897.543 2.815.231 5.219-.996 7.683-1.005 2.041-1.639 2.916-4.405 6.235-1.92 2.293-3.037 3.741-3.821 4.908-2.645 3.992-3.67 7.25-3.148 9.976.282 1.418 1.016 3.097 1.85 4.184.202.261.624.814.936 1.226 1.488 1.972 3.51 3.148 5.903 3.42 2.273.251 4.797-.463 7.16-2.042 1.077-.714 2.927-2.614 3.742-3.841 3.45-5.19 4.414-11.948 2.785-19.611-.653-3.087-1.186-4.666-2.303-6.94-1.518-3.077-3.379-5.57-6.587-8.779-1.166-1.166-2.182-2.132-2.242-2.132-.05 0-.121.05-.141.121ZM41.14 49.74c-5.36.624-9.795 3.138-13.385 7.583-2.222 2.756-4.857 7.392-6.768 11.907-.533 1.258-.744 1.62-1.287 2.263-1.56 1.85-3.36 4.968-4.305 7.442-.442 1.167-.895 2.846-1.126 4.184-.251 1.448-.251 5.36 0 6.637.533 2.685 1.569 4.747 3.077 6.095 1.117 1.005 3.5 2.303 5.2 2.836 1.589.502 2.383.613 4.264.623 2.604 0 3.63-.251 8.548-2.092 4.546-1.71 5.25-1.88 7.623-1.88 2.484 0 2.856.09 7.965 2.001 4.676 1.74 6.275 2.102 8.79 1.991 2.142-.1 3.7-.503 5.712-1.468 3.298-1.589 4.917-3.38 5.853-6.446.774-2.585.855-6.014.21-9.222-.733-3.62-2.654-7.563-5.168-10.61-.604-.744-.815-1.096-1.328-2.313-1.408-3.319-3.349-7-4.968-9.434-3.962-5.963-8.618-9.161-14.542-10.006-.935-.13-3.53-.181-4.364-.09Z"/></g></svg>
