<svg xmlns="http://www.w3.org/2000/svg" viewBox="0 0 18.627 18.627" height="70400.001" width="70400.009"><g color="#000" font-family="sans-serif" white-space="normal" fill="#6d6d6d"><path d="M3.21 0c-.582 0-1.063.482-1.063 1.062V13.83c0 .58.48 1.062 1.062 1.062h8.485c.58 0 1.062-.482 1.062-1.063V1.06c0-.58-.482-1.062-1.062-1.062zm0 .934h8.486c.08 0 .127.05.127.128V13.83c0 .078-.048.128-.127.128H3.21c-.08 0-.13-.05-.13-.13V1.063c0-.08.05-.128.13-.128z" style="line-height:normal;text-indent:0;text-align:start;text-decoration-line:none;text-decoration-style:solid;text-decoration-color:#000000;text-transform:none;isolation:auto;mix-blend-mode:normal" overflow="visible" solid-color="#000000"/><path d="M7.452 2.256c-1.053 0-1.992.615-2.65 1.558-.657.943-1.052 2.223-1.052 3.632 0 1.408.395 2.69 1.053 3.632.657.943 1.596 1.558 2.65 1.558 1.053 0 1.99-.615 2.65-1.558.656-.943 1.05-2.224 1.05-3.632 0-1.41-.394-2.69-1.05-3.632-.66-.943-1.597-1.558-2.65-1.558zm0 .56c.837 0 1.61.485 2.19 1.318.58.834.952 2.01.952 3.312 0 1.303-.37 2.477-.952 3.31-.58.835-1.353 1.32-2.19 1.32-.836 0-1.61-.485-2.19-1.32-.58-.833-.95-2.007-.95-3.31s.37-2.478.95-3.312c.58-.833 1.354-1.318 2.19-1.318z" style="line-height:normal;text-indent:0;text-align:start;text-decoration-line:none;text-decoration-style:solid;text-decoration-color:#000000;text-transform:none;isolation:auto;mix-blend-mode:normal" overflow="visible" solid-color="#000000"/><path style="line-height:normal;text-indent:0;text-align:start;text-decoration-line:none;text-decoration-style:solid;text-decoration-color:#000000;text-transform:none;isolation:auto;mix-blend-mode:normal" d="M13.678 15.697c0 .08-.05.128-.128.128H4.014c.065.52.513.934 1.05.934h8.486c.58 0 1.062-.483 1.062-1.064V2.93c0-.535-.415-.97-.934-1.036v13.803z" overflow="visible" solid-color="#000000"/><path style="line-height:normal;text-indent:0;text-align:start;text-decoration-line:none;text-decoration-style:solid;text-decoration-color:#000000;text-transform:none;isolation:auto;mix-blend-mode:normal" d="M15.546 17.565c0 .08-.05.128-.13.128H5.883c.065.52.512.934 1.05.934h8.485c.58 0 1.063-.482 1.063-1.062V4.797c0-.535-.415-.968-.933-1.035z" overflow="visible" solid-color="#000000"/></g></svg>