<?xml version="1.0" encoding="UTF-8" standalone="no"?>
<!-- Created with Inkscape (http://www.inkscape.org/) -->

<svg
   xmlns:dc="http://purl.org/dc/elements/1.1/"
   xmlns:cc="http://creativecommons.org/ns#"
   xmlns:rdf="http://www.w3.org/1999/02/22-rdf-syntax-ns#"
   xmlns:svg="http://www.w3.org/2000/svg"
   xmlns="http://www.w3.org/2000/svg"
   xmlns:xlink="http://www.w3.org/1999/xlink"
   xmlns:sodipodi="http://sodipodi.sourceforge.net/DTD/sodipodi-0.dtd"
   xmlns:inkscape="http://www.inkscape.org/namespaces/inkscape"
   width="488.00003"
   height="281"
   id="svg3107"
   version="1.1"
   inkscape:version="0.48.2 r9819"
   sodipodi:docname="material_checkboxes.svg"
   inkscape:export-filename="F:\checkboxes.png"
   inkscape:export-xdpi="90"
   inkscape:export-ydpi="90">
  <defs
     id="defs3109">
    <linearGradient
       inkscape:collect="always"
       xlink:href="#RainbowGradient"
       id="linearGradient3922"
       x1="633.63342"
       y1="-43.946968"
       x2="701.50647"
       y2="-43.946968"
       gradientUnits="userSpaceOnUse" />
    <linearGradient
       id="RainbowGradient">
      <stop
         id="red"
         offset="0"
         style="stop-color:#ff0000;stop-opacity:1;" />
      <stop
         id="yellow"
         offset="0.2"
         style="stop-color:#ffff00;stop-opacity:1;" />
      <stop
         id="green"
         offset="0.4"
         style="stop-color:#00ff00;stop-opacity:1;" />
      <stop
         id="cyan"
         offset="0.6"
         style="stop-color:#00ffff;stop-opacity:1;" />
      <stop
         id="blue"
         offset="0.8"
         style="stop-color:#0000ff;stop-opacity:1;" />
      <stop
         id="magenta"
         style="stop-color:#ff00ff;stop-opacity:1;"
         offset="1" />
    </linearGradient>
    <linearGradient
       inkscape:collect="always"
       xlink:href="#RainbowGradient-2"
       id="linearGradient3476-7"
       gradientUnits="userSpaceOnUse"
       x1="633.63342"
       y1="-43.946968"
       x2="701.50647"
       y2="-43.946968" />
    <linearGradient
       id="RainbowGradient-2">
      <stop
         id="red-9"
         offset="0"
         style="stop-color:#ff0000;stop-opacity:1;" />
      <stop
         id="yellow-4"
         offset="0.2"
         style="stop-color:#ffff00;stop-opacity:1;" />
      <stop
         id="green-2"
         offset="0.4"
         style="stop-color:#00ff00;stop-opacity:1;" />
      <stop
         id="cyan-2"
         offset="0.6"
         style="stop-color:#00ffff;stop-opacity:1;" />
      <stop
         id="blue-5"
         offset="0.8"
         style="stop-color:#0000ff;stop-opacity:1;" />
      <stop
         id="magenta-3"
         style="stop-color:#ff00ff;stop-opacity:1;"
         offset="1" />
    </linearGradient>
    <linearGradient
       id="RainbowGradient-9">
      <stop
         id="red-8"
         offset="0"
         style="stop-color:#ff0000;stop-opacity:1;" />
      <stop
         id="yellow-7"
         offset="0.2"
         style="stop-color:#ffff00;stop-opacity:1;" />
      <stop
         id="green-9"
         offset="0.4"
         style="stop-color:#00ff00;stop-opacity:1;" />
      <stop
         id="cyan-26"
         offset="0.6"
         style="stop-color:#00ffff;stop-opacity:1;" />
      <stop
         id="blue-4"
         offset="0.8"
         style="stop-color:#0000ff;stop-opacity:1;" />
      <stop
         id="magenta-5"
         style="stop-color:#ff00ff;stop-opacity:1;"
         offset="1" />
    </linearGradient>
    <linearGradient
       id="RainbowGradient-2-3">
      <stop
         id="red-9-7"
         offset="0"
         style="stop-color:#ff0000;stop-opacity:1;" />
      <stop
         id="yellow-4-9"
         offset="0.2"
         style="stop-color:#ffff00;stop-opacity:1;" />
      <stop
         id="green-2-2"
         offset="0.4"
         style="stop-color:#00ff00;stop-opacity:1;" />
      <stop
         id="cyan-2-6"
         offset="0.6"
         style="stop-color:#00ffff;stop-opacity:1;" />
      <stop
         id="blue-5-3"
         offset="0.8"
         style="stop-color:#0000ff;stop-opacity:1;" />
      <stop
         id="magenta-3-2"
         style="stop-color:#ff00ff;stop-opacity:1;"
         offset="1" />
    </linearGradient>
    <linearGradient
       inkscape:collect="always"
       xlink:href="#RainbowGradient-2-3"
       id="linearGradient3243"
       gradientUnits="userSpaceOnUse"
       x1="633.63342"
       y1="-43.946968"
       x2="701.50647"
       y2="-43.946968" />
    <linearGradient
       inkscape:collect="always"
       xlink:href="#RainbowGradient-9"
       id="linearGradient3245"
       gradientUnits="userSpaceOnUse"
       x1="633.63342"
       y1="-43.946968"
       x2="701.50647"
       y2="-43.946968" />
    <linearGradient
       inkscape:collect="always"
       xlink:href="#RainbowGradient-2"
       id="linearGradient3247"
       gradientUnits="userSpaceOnUse"
       x1="633.63342"
       y1="-43.946968"
       x2="701.50647"
       y2="-43.946968" />
    <linearGradient
       inkscape:collect="always"
       xlink:href="#RainbowGradient"
       id="linearGradient3249"
       gradientUnits="userSpaceOnUse"
       x1="633.63342"
       y1="-43.946968"
       x2="701.50647"
       y2="-43.946968" />
  </defs>
  <sodipodi:namedview
     id="base"
     pagecolor="#ffffff"
     bordercolor="#666666"
     borderopacity="1.0"
     inkscape:pageopacity="0.0"
     inkscape:pageshadow="2"
     inkscape:zoom="3.047131"
     inkscape:cx="232.02153"
     inkscape:cy="140.5"
     inkscape:document-units="px"
     inkscape:current-layer="g3178"
     showgrid="false"
     fit-margin-top="10"
     fit-margin-left="10"
     fit-margin-right="10"
     fit-margin-bottom="10"
     inkscape:window-width="1856"
     inkscape:window-height="1178"
     inkscape:window-x="56"
     inkscape:window-y="-8"
     inkscape:window-maximized="1" />
  <metadata
     id="metadata3112">
    <rdf:RDF>
      <cc:Work
         rdf:about="">
        <dc:format>image/svg+xml</dc:format>
        <dc:type
           rdf:resource="http://purl.org/dc/dcmitype/StillImage" />
        <dc:title />
      </cc:Work>
    </rdf:RDF>
  </metadata>
  <g
     inkscape:label="Layer 1"
     inkscape:groupmode="layer"
     id="layer1"
     transform="translate(9.9999991,-739.37553)">
    <g
       id="g3138"
       transform="matrix(1.5000001,0,0,1.5000001,-44.230472,-507.43137)">
      <path
         style="fill:#a7a7a7;fill-opacity:1"
         inkscape:connector-curvature="0"
         d="m 293.98698,855.87055 c 0,9.11295 -7.38639,16.50066 -16.5,16.50066 -9.11228,0 -16.5,-7.38771 -16.5,-16.50066 0,-9.11229 7.38772,-16.49934 16.5,-16.49934 9.11361,0 16.5,7.38705 16.5,16.49934 z"
         id="path161-7-0-6" />
      <path
         style="fill:#80cbc4;fill-opacity:1"
         inkscape:connector-curvature="0"
         d="m 291.48698,837.87123 h -28 c -2.20999,0 -4,1.79 -4,4 v 28 c 0,2.21 1.79001,3.99996 4,3.99996 h 28 c 2.21,0 4,-1.78996 4,-3.99996 v -28 c 0,-2.21 -1.79,-4 -4,-4 z m -18,28 -10,-10 2.83,-2.83 7.17,7.17 15.17001,-15.17 2.82999,2.83 -18,18 z"
         id="path3117-07-7" />
    </g>
    <g
       id="g3114"
       transform="matrix(1.5000001,0,0,1.5000001,-38.880646,-524.84749)">
      <path
         style="fill:#a7a7a7;fill-opacity:1"
         inkscape:connector-curvature="0"
         d="m 290.42043,959.4813 c 0,9.11294 -7.38639,16.50066 -16.5,16.50066 -9.11229,0 -16.5,-7.38771 -16.5,-16.50066 0,-9.11229 7.38771,-16.49934 16.5,-16.49934 9.11361,0 16.5,7.38705 16.5,16.49934 z"
         id="path161-7-0" />
      <path
         style="fill:#009688;fill-opacity:1"
         inkscape:connector-curvature="0"
         d="m 287.92043,941.48198 h -28 c -2.21,0 -4,1.79 -4,4 v 28 c 0,2.21 1.79,3.99996 4,3.99996 h 28 c 2.21,0 4,-1.78996 4,-3.99996 v -28 c 0,-2.21 -1.79,-4 -4,-4 z m -18,28 -10,-10 2.83,-2.83 7.17,7.17 15.17,-15.17 2.83,2.83 -18,18 z"
         id="path3117-07" />
    </g>
    <g
       id="g3170"
       transform="matrix(1.5000001,0,0,1.5000001,-45.000062,-529.507)">
      <path
         transform="matrix(-0.34432559,0.34432559,-0.36909717,-0.36909717,537.64075,716.50618)"
         d="m 701.50646,-43.946968 c 0,17.484725 -15.1939,31.658895 -33.93651,31.658895 -18.74262,0 -33.93652,-14.17417 -33.93652,-31.658895 0,-17.484725 15.1939,-31.658896 33.93652,-31.658896 18.74261,0 33.93651,14.174171 33.93651,31.658896 z"
         sodipodi:ry="31.658895"
         sodipodi:rx="33.936512"
         sodipodi:cy="-43.946968"
         sodipodi:cx="667.56995"
         id="path3146-1"
         style="fill:url(#linearGradient3247);fill-opacity:1;stroke:none"
         sodipodi:type="arc" />
      <path
         style="fill:#009688;fill-opacity:1"
         inkscape:connector-curvature="0"
         d="m 338.00004,944.58832 h -28 c -2.21,0 -4,1.79 -4,4 v 28 c 0,2.21 1.79,3.99996 4,3.99996 h 28 c 2.21,0 4,-1.78996 4,-3.99996 v -28 c 0,-2.21 -1.79,-4 -4,-4 z m -18,28 -10,-10 2.83,-2.83 7.17,7.17 15.17,-15.17 2.83,2.83 -18,18 z"
         id="path3117-07-6" />
    </g>
    <g
       id="g3134"
       transform="matrix(1.5000001,0,0,1.5000001,-5.0046866,-525.71043)">
      <path
         transform="matrix(2.0741799,0,0,1.7193861,-253.92544,999.38716)"
         d="m 140.66374,-22.874395 c 0,5.299972 -3.56156,9.596449 -7.95495,9.596449 -4.3934,0 -7.95496,-4.296477 -7.95496,-9.596449 0,-5.299973 3.56156,-9.596449 7.95496,-9.596449 4.39339,0 7.95495,4.296476 7.95495,9.596449 z"
         sodipodi:ry="9.5964489"
         sodipodi:rx="7.9549513"
         sodipodi:cy="-22.874395"
         sodipodi:cx="132.70879"
         id="path4818-7"
         style="fill:#e4ecc5;fill-opacity:1"
         sodipodi:type="arc" />
      <path
         style="fill:#009688;fill-opacity:1"
         inkscape:connector-curvature="0"
         d="M 35.336458,942.05727 H 7.3364581 c -2.2099997,0 -3.9999997,1.79 -3.9999997,4 v 28 c 0,2.21 1.79,3.99996 3.9999997,3.99996 H 35.336458 c 2.21,0 4,-1.78996 4,-3.99996 v -28 c 0,-2.21 -1.79,-4 -4,-4 z m -18,28 -9.9999999,-10 2.8299999,-2.83 7.17,7.17 15.17,-15.17 2.83,2.83 -18,18 z"
         id="path3117" />
    </g>
    <g
       id="g3203"
       transform="matrix(1.5000001,0,0,1.5000001,-4.6497476e-7,-537.00702)">
      <path
         style="fill:#009688;fill-opacity:1"
         inkscape:connector-curvature="0"
         d="m 32.000001,999.58832 v 27.99998 H 4.0000009 V 999.58832 H 32.000001 m 0,-4 H 4.0000009 c -2.21,0 -3.99999997005065,1.79 -3.99999997005065,4 v 27.99998 c 0,2.21 1.78999997005065,4 3.99999997005065,4 H 32.000001 c 2.21,0 4,-1.79 4,-4 v -27.99998 c 0,-2.21 -1.79,-4 -4,-4 z"
         id="path3128" />
      <circle
         transform="matrix(0.28,0,0,0.28,151,999.58832)"
         style="fill:#f8f6d8"
         sodipodi:ry="50"
         sodipodi:rx="50"
         sodipodi:cy="50"
         sodipodi:cx="-475"
         d="m -425,50 c 0,27.614237 -22.38576,50 -50,50 -27.61424,0 -50,-22.385763 -50,-50 0,-27.614237 22.38576,-50 50,-50 27.61424,0 50,22.385763 50,50 z"
         cx="-475"
         cy="50"
         r="50"
         id="circle155-0" />
      <path
         id="path157-9"
         d="m 31.35348,1015.5662 c -1.83708,-1.0357 -3.01504,-1.5542 -3.53276,-1.5542 -0.37632,0 -0.6706,0.2889 -0.88312,0.8657 -0.21224,0.5777 -0.6356,0.8652 -1.27148,0.8652 -0.25928,0 -0.78904,-0.094 -1.58984,-0.2822 -0.44744,0.6832 -0.67144,1.1189 -0.67144,1.307 0,0.2593 0.19292,0.5645 0.57792,0.9187 0.385,0.3534 0.7098,0.5295 0.97496,0.5295 0.16856,0 0.39648,-0.035 0.68572,-0.1061 0.28868,-0.07 0.48188,-0.1056 0.57792,-0.1056 0.28924,0 0.43316,0.53 0.43316,1.5898 0,1.0128 -0.2352,2.5671 -0.70644,4.6632 -0.61264,-2.4024 -1.26,-3.6039 -1.94264,-3.6039 -0.09464,0 -0.28868,0.071 -0.58296,0.2128 -0.29484,0.1405 -0.5124,0.2111 -0.65352,0.2111 -0.68264,0 -1.295,-0.6236 -1.83708,-1.8726 -1.08332,0.1652 -1.6254,0.7187 -1.6254,1.6615 0,0.4715 0.21756,0.8475 0.65408,1.1298 0.43484,0.2822 0.65352,0.4835 0.65352,0.6006 0,0.6364 -0.93072,1.6139 -2.79132,2.9324 -0.98868,0.7065 -1.67244,1.2009 -2.04848,1.4832 0.32872,-0.4234 0.65856,-0.9764 0.98924,-1.6599 0.37632,-0.777 0.56504,-1.3776 0.56504,-1.802 0,-0.2352 -0.27076,-0.5656 -0.81256,-0.9893 -0.54208,-0.4233 -0.812,-0.8711 -0.812,-1.342 0,-0.3999 0.14056,-0.8941 0.42336,-1.4837 -0.30632,-0.3534 -0.6706,-0.5306 -1.0948,-0.5306 -0.9422,0 -1.4126,0.3068 -1.4126,0.9184 0,-0.424 0,-0.1062 0,0.9536 0.02296,0.7773 -0.5656,1.166 -1.76708,1.166 -0.91812,0 -2.46148,-0.2126 -4.62756,-0.6359 2.44944,-0.6127 3.67388,-1.3191 3.67388,-2.1196 0,0.094 -0.04704,-0.1882 -0.14112,-0.8479 -0.09464,-0.7291 0.42392,-1.389 1.55428,-1.9776 -0.21224,-1.0828 -0.77644,-1.6257 -1.69596,-1.6257 -0.14112,0 -0.40096,0.2475 -0.777,0.7412 -0.37688,0.4959 -0.72996,0.7425 -1.05924,0.7425 -0.5656,0 -1.29612,-0.612 -2.19016,-1.8376 -0.42448,-0.6115 -1.0724,-1.5187 -1.94348,-2.7202 0.54152,0.2834 1.08332,0.5656 1.6254,0.8487 0.70644,0.3293 1.27148,0.4945 1.69596,0.4945 0.32984,0 0.65352,-0.2887 0.97132,-0.8658 0.3178,-0.5771 0.73612,-0.8658 1.25412,-0.8658 0.07112,0 0.54208,0.1412 1.41316,0.4245 0.44688,-0.6829 0.67144,-1.1894 0.67144,-1.5193 0,-0.2828 -0.17108,-0.6064 -0.5124,-0.9718 -0.34188,-0.3649 -0.65352,-0.5474 -0.93632,-0.5474 -0.11816,0 -0.30016,0.035 -0.54796,0.1061 -0.24668,0.07 -0.42924,0.1061 -0.54684,0.1061 -0.42448,0 -0.63644,-0.53 -0.63644,-1.5898 0,-0.2828 0.27132,-1.8956 0.81312,-4.8398 -0.02408,0.3528 0.12908,1.0127 0.45892,1.9779 0.4004,1.1779 0.87108,1.7665 1.41372,1.7665 0.09352,0 0.28224,-0.071 0.56504,-0.2122 0.28224,-0.1412 0.50596,-0.2112 0.67088,-0.2112 0.54152,0 0.98868,0.3064 1.3426,0.9176 l 0.53004,0.9537 c 0.49448,0 0.90664,-0.1761 1.23592,-0.5295 0.32984,-0.3534 0.49504,-0.7776 0.49504,-1.272 0,-0.518 -0.21756,-0.9128 -0.65352,-1.1836 -0.43652,-0.2708 -0.65408,-0.4768 -0.65408,-0.618 0,-0.495 0.77756,-1.3305 2.33184,-2.5082 1.24796,-0.9416 2.06052,-1.4952 2.43796,-1.6604 -1.01276,1.3661 -1.51928,2.3663 -1.51928,3.0027 0,0.3299 0.19964,0.6835 0.6006,1.0598 0.49448,0.4475 0.777,0.7655 0.84756,0.9537 0.2352,0.5426 0.21168,1.2841 -0.07056,2.2257 0.63588,0.448 1.11832,0.6709 1.44872,0.6709 0.68208,0 1.02424,-0.3539 1.02424,-1.0598 0,-0.071 -0.0294,-0.2943 -0.08792,-0.6709 -0.05964,-0.3763 -0.07644,-0.5885 -0.05348,-0.6359 0.09408,-0.3298 0.742,-0.495 1.94292,-0.495 0.75348,0 2.31924,0.2122 4.69868,0.6364 -0.51856,0.1412 -1.29556,0.3528 -2.33128,0.6356 -0.9422,0.2828 -1.41372,0.6006 -1.41372,0.9537 0,0.1652 0.05852,0.4475 0.17668,0.8476 0.1176,0.4009 0.17724,0.6944 0.17724,0.8837 0,0.3292 -0.21224,0.6356 -0.63588,0.9175 l -1.20148,0.8487 c 0.2828,0.5186 0.47096,0.8246 0.5656,0.9181 0.2352,0.2823 0.553,0.4239 0.95368,0.4239 0.2828,0 0.54152,-0.2472 0.777,-0.7414 0.2352,-0.495 0.61264,-0.742 1.13036,-0.742 0.6356,0 1.35464,0.5891 2.15516,1.7671 0.44604,0.6608 1.141,1.6612 2.0832,3.0035 z m -7.84196,-2.0484 c 0,-1.5067 -0.55412,-2.8143 -1.66096,-3.9217 -1.10684,-1.1069 -2.41388,-1.6604 -3.92112,-1.6604 -1.53132,0 -2.8504,0.5479 -3.95668,1.6433 -1.10684,1.0948 -1.67244,2.408 -1.6954,3.9385 -0.02408,1.5072 0.53536,2.8084 1.67776,3.9026 1.1424,1.0954 2.46708,1.6433 3.97404,1.6433 1.60132,0 2.93776,-0.5244 4.00904,-1.5722 1.0724,-1.0472 1.59628,-2.3716 1.57332,-3.9734 z m -0.53004,0 c 0,1.4366 -0.483,2.6266 -1.44872,3.5672 -0.96628,0.9427 -2.1672,1.4137 -3.60332,1.4137 -1.38964,0 -2.57908,-0.4825 -3.56776,-1.4487 -0.98868,-0.9646 -1.48372,-2.1426 -1.48372,-3.5322 0,-1.3656 0.4998,-2.538 1.50052,-3.5149 1.00184,-0.9772 2.18484,-1.4666 3.55096,-1.4666 1.36556,0 2.54912,0.4945 3.5504,1.4843 1.00072,0.9892 1.50164,2.1546 1.50164,3.4972 z"
         inkscape:connector-curvature="0"
         style="fill:#0d0f0f" />
    </g>
    <g
       id="g3198"
       transform="matrix(1.5000001,0,0,1.5000001,-7.5000099,-537.00702)">
      <circle
         transform="matrix(0.28,0,0,0.28,172.60001,999.58832)"
         style="fill:#c1d7e9"
         sodipodi:ry="50"
         sodipodi:rx="50"
         sodipodi:cy="50"
         sodipodi:cx="-370"
         d="m -320,50 c 0,27.614237 -22.38576,50 -50,50 -27.61424,0 -50,-22.385763 -50,-50 0,-27.614237 22.38576,-50 50,-50 27.61424,0 50,22.385763 50,50 z"
         cx="-370"
         cy="50"
         r="50"
         id="circle149-4" />
      <path
         id="path151-9"
         d="m 73.896647,1023.0296 c -1.34036,1.3639 -2.99152,2.046 -4.95264,2.046 -2.20108,0 -3.94744,-0.7532 -5.23908,-2.2604 -1.22052,-1.4356 -1.83036,-3.2654 -1.83036,-5.4897 0,-2.3921 1.04076,-5.1201 3.122,-8.1827 1.69792,-2.5114 3.69572,-4.7124 5.99256,-6.6024 -0.33516,1.5313 -0.50204,2.6194 -0.50204,3.2653 0,1.4837 0.46592,2.9308 1.39888,4.3423 1.14856,1.6744 2.02132,2.9192 2.61996,3.7318 0.93296,1.412 1.39944,2.7874 1.39944,4.1264 5.6e-4,1.986 -0.66948,3.6607 -2.00872,5.0234 z m -0.03612,-7.6613 c -0.35868,-0.8011 -0.77756,-1.3334 -1.25608,-1.5969 0.07168,0.144 0.1078,0.3472 0.1078,0.6104 0,0.5026 -0.14336,1.22 -0.43092,2.153 l -0.46592,1.4355 c 0,0.8372 0.41776,1.2561 1.25552,1.2561 0.8848,0 1.32776,-0.5866 1.32776,-1.7587 0,-0.5975 -0.1792,-1.2969 -0.53816,-2.0994 z"
         inkscape:connector-curvature="0"
         style="fill:#0d0f0f" />
      <path
         style="fill:#009688;fill-opacity:1"
         inkscape:connector-curvature="0"
         d="m 83.000005,999.58832 v 27.99998 H 55.000009 v -27.99998 h 27.999996 m 0,-4 H 55.000009 c -2.21,0 -4,1.79 -4,4 v 27.99998 c 0,2.21 1.79,4 4,4 h 27.999996 c 2.21,0 4,-1.79 4,-4 v -27.99998 c 0,-2.21 -1.79,-4 -4,-4 z"
         id="path3128-4" />
    </g>
    <g
       id="g3188"
       transform="matrix(1.5000001,0,0,1.5000001,-22.50003,-537.00702)">
      <circle
         transform="matrix(0.28,0,0,0.28,215.80002,999.58832)"
         style="fill:#e49977"
         sodipodi:ry="50"
         sodipodi:rx="50"
         sodipodi:cy="50"
         sodipodi:cx="-160"
         d="m -110,50 c 0,27.614237 -22.38576,50 -50,50 -27.61424,0 -50,-22.385763 -50,-50 0,-27.614237 22.38576,-50 50,-50 27.61424,0 50,22.385763 50,50 z"
         cx="-160"
         cy="50"
         r="50"
         id="circle137-4" />
      <path
         id="path139-4"
         d="m 182.75022,1018.2411 c -1.04608,2.4953 -3.1248,3.7427 -6.237,3.7427 -0.57036,0 -1.18888,0.071 -1.85388,0.2134 -0.99792,0.2139 -1.49688,0.5118 -1.49688,0.8921 0,0.1187 0.0826,0.2548 0.24948,0.4096 0.16576,0.1549 0.30912,0.2313 0.42756,0.2313 -0.59444,0 -0.1904,0.018 1.21128,0.053 1.40224,0.036 2.28144,0.054 2.63816,0.054 -2.06724,1.2112 -5.52496,1.7693 -10.37204,1.6746 -1.59264,-0.024 -2.95848,-0.7246 -4.09892,-2.1028 -1.11776,-1.3073 -1.67552,-2.7686 -1.67552,-4.3842 0,-1.7102 0.57596,-3.1662 1.72928,-4.3666 1.15164,-1.199 2.58412,-1.7996 4.29464,-1.7996 0.37996,0 0.8848,0.083 1.5148,0.2495 0.62944,0.1663 1.05168,0.2495 1.26504,0.2495 0.87892,0 1.9726,-0.362 3.27964,-1.0872 1.30648,-0.7247 1.925,-1.0873 1.85388,-1.0873 -0.238,2.4954 -1.0696,4.1709 -2.49592,5.0255 -1.02144,0.5944 -1.53244,1.1762 -1.53244,1.746 0,0.3565 0.21392,0.6421 0.64148,0.856 0.33264,0.1666 0.70056,0.2498 1.1046,0.2498 0.61796,0 1.22388,-0.3797 1.81832,-1.1399 0.59332,-0.7611 0.8554,-1.4496 0.78428,-2.0681 -0.0711,-0.7126 -0.0235,-1.5688 0.1428,-2.5659 0.047,-0.2856 0.21924,-0.6356 0.51632,-1.0511 0.29708,-0.4161 0.56448,-0.6715 0.8022,-0.7667 0,0.2134 -0.077,0.5704 -0.23184,1.0691 -0.15484,0.4986 -0.23128,0.868 -0.23128,1.1051 0,0.5228 0.14224,0.9265 0.42756,1.2113 0.427,-0.1658 0.80724,-0.7006 1.14072,-1.6041 0.28448,-0.6885 0.45052,-1.3541 0.49868,-1.9956 -0.99848,-0.048 -1.95496,-0.4987 -2.86944,-1.3546 -0.91504,-0.856 -1.372,-1.7822 -1.372,-2.7799 0,-0.1663 0.023,-0.3326 0.0717,-0.4992 0.14224,0.2139 0.35588,0.5468 0.64092,0.9979 0.40404,0.5939 0.71316,0.891 0.92764,0.891 0.28448,0 0.427,-0.2971 0.427,-0.891 0,-0.7602 -0.20244,-1.4493 -0.60592,-2.0672 -0.45164,-0.7367 -1.03404,-1.1052 -1.74664,-1.1052 -0.33292,0 -0.83188,0.1784 -1.49632,0.5348 -0.66612,0.3559 -1.27204,0.5348 -1.81776,0.5348 -0.16688,0 -0.90412,-0.2145 -2.2106,-0.642 2.3044,-0.3794 3.45744,-0.7241 3.45744,-1.0335 0,-0.8078 -1.5806,-1.3546 -4.7404,-1.6394 -0.3094,-0.024 -0.87948,-0.071 -1.71108,-0.1428 0.0946,-0.1187 0.77224,-0.2495 2.03224,-0.392 1.06904,-0.1182 1.81776,-0.1784 2.24504,-0.1784 5.65516,0 9.24336,2.7454 10.76404,8.2343 0.26152,-0.2165 0.39256,-0.5785 0.39256,-1.0839 0,-0.6507 -0.1904,-1.47 -0.57036,-2.4576 -0.14336,-0.385 -0.36904,-0.9634 -0.6776,-1.734 1.94796,2.4828 2.92292,4.8356 2.92292,7.0557 0,1.1699 -0.27412,2.2325 -0.8204,3.1867 -0.3556,0.6448 -1.022,1.4683 -1.99556,2.4713 -0.9744,1.0024 -1.63996,1.7785 -1.99668,2.3276 1.30704,-0.3559 2.163,-0.6294 2.56704,-0.8198 0.90244,-0.4032 1.722,-1.0097 2.45924,-1.8178 0,0.3097 -0.13076,0.7734 -0.392,1.3908 z m -15.54056,-14.007 c 0,0.427 -0.238,0.7005 -0.7126,0.8193 l -0.92708,0.1428 c -0.33292,0.1663 -0.81984,0.8198 -1.46132,1.96 -0.0717,-0.3559 -0.17836,-0.8549 -0.32088,-1.4969 -0.21392,0.024 -0.5698,0.2139 -1.06904,0.5703 -0.21392,0.1664 -0.55888,0.4156 -1.03404,0.7482 0.14336,-0.8554 0.61796,-1.7214 1.42632,-2.602 0.8554,-0.9736 1.687,-1.4608 2.4948,-1.4608 1.06904,0 1.60384,0.4402 1.60384,1.3191 z m 6.202,3.2785 c 0,0.404 -0.2198,0.7431 -0.6594,1.0161 -0.4396,0.2736 -0.87332,0.4102 -1.30088,0.4102 -0.57036,0 -1.08164,-0.3209 -1.53244,-0.9626 -0.5474,-0.7843 -1.10516,-1.295 -1.67552,-1.5336 0.11872,-0.1181 0.26152,-0.1778 0.42812,-0.1778 0.21392,0 0.5754,0.1663 1.08668,0.4987 0.51072,0.3329 0.8372,0.4992 0.98056,0.4992 0.11872,0 0.31444,-0.1663 0.588,-0.4992 0.273,-0.3326 0.57596,-0.4987 0.90888,-0.4987 0.784,3e-4 1.176,0.4164 1.176,1.2477 z"
         inkscape:connector-curvature="0"
         style="fill:#0d0f0f" />
      <path
         style="fill:#009688;fill-opacity:1"
         inkscape:connector-curvature="0"
         d="m 185.00002,999.58832 v 27.99998 h -28 v -27.99998 h 28 m 0,-4 h -28 c -2.21,0 -4,1.79 -4,4 v 27.99998 c 0,2.21 1.79,4 4,4 h 28 c 2.21,0 4,-1.79 4,-4 v -27.99998 c 0,-2.21 -1.79,-4 -4,-4 z"
         id="path3128-2" />
    </g>
    <g
       id="g3183"
       transform="matrix(1.5000001,0,0,1.5000001,-30.000031,-537.00702)">
      <path
         style="fill:#a3c095"
         inkscape:connector-curvature="0"
         d="m 236.00002,1013.5878 c 0,7.7322 -6.2678,14.0005 -14.00056,14.0005 -7.73164,0 -13.99944,-6.2683 -13.99944,-14.0005 0,-7.7317 6.2678,-13.99948 13.99944,-13.99948 7.73276,0 14.00056,6.26778 14.00056,13.99948 z"
         id="path131-3" />
      <path
         id="path133-8"
         d="m 234.25338,1015.3313 c 0,0.4671 -0.1806,0.8859 -0.54208,1.2595 -0.36092,0.3729 -0.77559,0.5594 -1.24208,0.5594 -0.74536,0 -1.29444,-0.35 -1.64332,-1.0494 l -1.64388,-0.07 c -0.35056,0 -1.03852,0.152 -2.06388,0.455 -1.09592,0.3029 -1.72592,0.5479 -1.88888,0.7344 -0.25648,0.2794 -0.46592,0.933 -0.62944,1.9589 -0.14056,0.8394 -0.20944,1.4574 -0.20944,1.8539 0,0.6288 0.0986,1.09 0.29708,1.3815 0.19852,0.2915 0.60648,0.5365 1.22388,0.7344 0.6174,0.198 0.99708,0.3091 1.13708,0.3324 0.093,0 0.24444,-0.012 0.455,-0.035 h 0.41944 c 0.3024,0 0.6174,0.048 0.94444,0.14 0.46648,0.14 0.665,0.3265 0.595,0.56 -0.32704,-0.047 -0.89796,0.023 -1.71388,0.21 l 0.97888,0.4894 c 0,0.28 -0.39648,0.4195 -1.18887,0.4195 -0.21056,0 -0.49588,-0.047 -0.85764,-0.1395 -0.36149,-0.094 -0.60061,-0.14 -0.71653,-0.14 h -0.45499 c -0.023,0.233 -0.0935,0.5824 -0.21,1.0489 -0.39704,-0.024 -0.86241,-0.257 -1.39888,-0.6994 -0.53705,-0.4424 -0.87445,-0.6645 -1.01388,-0.6645 -0.14056,0 -0.33908,0.2221 -0.595,0.6645 -0.25705,0.4424 -0.385,0.7459 -0.385,0.9094 -0.30296,-0.1635 -0.55888,-0.467 -0.77,-0.9094 -0.093,-0.3036 -0.19796,-0.6065 -0.31388,-0.9095 -0.23296,0.024 -0.665,0.5135 -1.29388,1.4695 h -0.17556 c -0.0465,-0.071 -0.2226,-0.56 -0.52444,-1.4695 -0.72296,-0.2329 -1.39888,-0.3494 -2.02888,-0.3494 -0.30296,0 -0.76944,0.07 -1.39888,0.2094 l -0.97888,-0.069 c 0.13944,-0.14 0.5474,-0.408 1.22388,-0.8045 0.7924,-0.4664 1.39888,-0.7 1.81888,-0.7 0.0689,0 0.16184,0.012 0.28,0.035 0.11592,0.024 0.21,0.035 0.28,0.035 0.16184,0 0.42504,-0.087 0.78652,-0.2626 0.36148,-0.1744 0.57092,-0.3321 0.62888,-0.4715 0.0591,-0.1411 0.0885,-0.5021 0.0885,-1.085 0,-1.3289 -0.35,-2.3198 -1.05,-2.9728 -0.60704,-0.5829 -1.60888,-1.0024 -3.00832,-1.2594 -0.37296,1.3289 -1.4224,1.9944 -3.1472,1.9944 -0.56,0 -1.11945,-0.3379 -1.67888,-1.0144 -0.55888,-0.6765 -0.83888,-1.2945 -0.83888,-1.8539 0,-0.863 0.36036,-1.5739 1.08332,-2.1344 -0.5824,-0.6054 -0.87388,-1.2234 -0.87388,-1.8528 0,-0.5835 0.18004,-1.0959 0.54208,-1.54 0.36148,-0.4418 0.83356,-0.6989 1.41652,-0.7694 -0.0465,-0.7454 0.19796,-1.2589 0.73444,-1.5389 -0.25648,-0.2559 -0.38444,-0.7104 -0.38444,-1.3633 0,-0.7695 0.25648,-1.411 0.76944,-1.9239 0.5124,-0.513 1.15388,-0.77 1.92332,-0.77 0.84,0 1.52796,0.2926 2.06388,0.875 0.67648,-2.3083 2.13388,-3.4628 4.37164,-3.4628 1.16592,0 2.19184,0.4665 3.07832,1.3995 0.32648,0.3494 0.48944,0.5364 0.48944,0.5588 -0.28,0 -0.13944,-0.053 0.42,-0.157 0.55888,-0.105 0.96684,-0.1577 1.22444,-0.1577 0.90888,0 1.71332,0.338 2.41332,1.0145 0.60592,0.6064 1.02592,1.3753 1.25944,2.3083 0.1624,0.024 0.41944,0.093 0.76944,0.2094 0.5124,0.2576 0.76944,0.6995 0.76944,1.3295 0,0.117 -0.0941,0.3385 -0.28,0.6644 1.49184,0.8394 2.23832,2.0054 2.23832,3.4978 0,0.4194 -0.16296,1.0035 -0.48944,1.7491 0.60648,0.3492 0.90888,0.8627 0.90888,1.5386 z m -14.41076,1.5389 v -0.4544 c 0,-0.536 -0.26208,-1.026 -0.78652,-1.4689 -0.525,-0.443 -1.0556,-0.6645 -1.59151,-0.6645 -0.65352,0 -1.25888,0.1515 -1.81888,0.4539 1.23564,-0.069 2.63507,0.6421 4.19692,2.1339 z m -0.62887,-4.3369 c -0.35001,-0.3971 -0.65297,-0.805 -0.91001,-1.2245 -0.97944,0.2565 -1.46888,0.548 -1.46888,0.8739 0.28,-0.022 0.68796,0.029 1.22389,0.1579 0.53591,0.1286 0.92148,0.1927 1.155,0.1927 z m 2.13387,-1.0845 v -1.5388 c -0.56,-0.093 -0.89908,-0.14 -1.01444,-0.14 v 0.5244 l 1.01444,1.1544 z m 4.54664,-0.9794 c -0.28,-0.1165 -0.805,-0.35 -1.57388,-0.6994 v 3.0077 c 1.09536,-0.63 1.6198,-1.3994 1.57388,-2.3083 z m 1.92276,4.1275 -0.76888,-0.9445 c -0.46592,0.3268 -0.93856,0.6592 -1.41708,0.9971 -0.47852,0.338 -0.89208,0.7177 -1.24096,1.1368 1.04916,-0.5605 2.19212,-0.9559 3.42692,-1.1894 z"
         inkscape:connector-curvature="0"
         style="fill:#0d0f0f" />
      <path
         style="fill:#009688;fill-opacity:1"
         inkscape:connector-curvature="0"
         d="m 236.00002,999.58832 v 27.99998 h -28 v -27.99998 h 28 m 0,-4 h -28 c -2.21,0 -4,1.79 -4,4 v 27.99998 c 0,2.21 1.79,4 4,4 h 28 c 2.21,0 4,-1.79 4,-4 v -27.99998 c 0,-2.21 -1.79,-4 -4,-4 z"
         id="path3128-7" />
    </g>
    <g
       id="g3174"
       transform="matrix(1.5000001,0,0,1.5000001,-45.000062,-537.00702)">
      <path
         transform="matrix(-0.29170632,0.29170632,-0.31269236,-0.31269236,504.99253,805.11211)"
         d="m 701.50646,-43.946968 c 0,17.484725 -15.1939,31.658895 -33.93651,31.658895 -18.74262,0 -33.93652,-14.17417 -33.93652,-31.658895 0,-17.484725 15.1939,-31.658896 33.93652,-31.658896 18.74261,0 33.93651,14.174171 33.93651,31.658896 z"
         sodipodi:ry="31.658895"
         sodipodi:rx="33.936512"
         sodipodi:cy="-43.946968"
         sodipodi:cx="667.56995"
         id="path3146"
         style="fill:url(#linearGradient3249);fill-opacity:1;stroke:none"
         sodipodi:type="arc" />
      <path
         style="fill:#009688;fill-opacity:1"
         inkscape:connector-curvature="0"
         d="m 338.00004,999.58832 v 27.99998 h -28 v -27.99998 h 28 m 0,-4 h -28 c -2.21,0 -4,1.79 -4,4 v 27.99998 c 0,2.21 1.79,4 4,4 h 28 c 2.21,0 4,-1.79 4,-4 v -27.99998 c 0,-2.21 -1.79,-4 -4,-4 z"
         id="path3128-5" />
    </g>
    <g
       id="g3193"
       transform="matrix(1.5000001,0,0,1.5000001,-15.000015,-537.00702)">
      <circle
         transform="matrix(0.28,0,0,0.28,194.20001,999.58886)"
         style="fill:#bab1ab"
         sodipodi:ry="50"
         sodipodi:rx="50"
         sodipodi:cy="49.998001"
         sodipodi:cx="-265"
         d="m -215,49.998001 c 0,27.614238 -22.38576,50 -50,50 -27.61424,0 -50,-22.385762 -50,-50 0,-27.614237 22.38576,-49.9999999 50,-49.9999999 27.61424,0 50,22.3857629 50,49.9999999 z"
         cx="-265"
         cy="49.998001"
         r="50"
         id="circle143-6" />
      <path
         id="path145-6"
         d="m 131.39461,1013.2022 c 0,1.545 -0.56224,2.5987 -1.6856,3.1603 -0.32816,0.1641 -1.358,0.3862 -3.09036,0.6673 -1.12336,0.1876 -1.68504,0.6207 -1.68504,1.2989 v 2.8442 c 0,0.1182 0.035,0.4802 0.105,1.089 l 0.10556,1.1239 c 0,0.3514 -0.082,0.9257 -0.24612,1.7209 -0.44464,0.093 -0.95984,0.1985 -1.54504,0.3169 -0.1876,-0.7031 -0.28112,-1.1827 -0.28112,-1.4409 0,-0.1164 0.0294,-0.2926 0.0876,-0.5269 0.058,-0.2335 0.0885,-0.4091 0.0885,-0.5273 0,-0.1624 -0.1456,-0.6196 -0.43652,-1.3683 h -0.5446 c -0.0722,0.117 -0.0963,0.2691 -0.0728,0.4561 0.0935,0.3982 0.12852,0.7372 0.10556,1.0184 -0.39816,0.2811 -0.94836,0.6554 -1.6506,1.1236 -0.16408,-0.047 -0.22204,-0.07 -0.17612,-0.07 v -2.4931 c -0.0459,-0.1165 -0.16352,-0.1627 -0.35112,-0.1406 h -0.42112 l -0.42112,3.3004 c -0.32872,0.023 -0.72576,0.023 -1.19392,0 -0.16464,-0.7723 -0.45668,-1.9189 -0.8778,-3.4409 h -0.28112 c -0.25816,0.8201 -0.39816,1.2653 -0.42168,1.3353 0,0.093 0.0291,0.2747 0.0879,0.5437 0.058,0.2694 0.0876,0.4506 0.0876,0.5441 0,0.07 -0.0235,0.2455 -0.07,0.5267 l -0.10556,0.8428 c -0.047,0.046 -0.10556,0.07 -0.17556,0.07 -0.70224,0 -1.17096,-0.1756 -1.40448,-0.5262 -0.23408,-0.3516 -0.32816,-0.8433 -0.28112,-1.4758 l 0.28112,-4.2132 c 0,-0.071 0.023,-0.1641 0.07,-0.2811 0.0459,-0.1171 0.07,-0.1991 0.07,-0.2456 0,-0.1876 -0.19908,-0.5622 -0.59668,-1.1239 -0.0694,-0.023 -0.43372,-0.1056 -1.08836,-0.2461 -0.39872,-0.093 -1.183,-0.2571 -2.35256,-0.4917 -1.61588,-0.3035 -2.42312,-1.603 -2.42312,-3.8976 0,-3.418 1.40504,-6.2622 4.21428,-8.533 0.11592,0.6322 0.31556,1.4745 0.59612,2.5281 0.21112,0.048 0.6678,0.1526 1.36948,0.3161 0.14112,0.047 0.85484,0.3047 2.14256,0.7728 -0.65632,-0.3981 -1.51004,-1.0413 -2.56368,-1.9314 -0.39816,-0.4682 -0.59724,-1.2519 -0.59724,-2.352 0,-0.2576 0.4452,-0.5622 1.33504,-0.9139 0.7952,-0.3276 1.393,-0.5141 1.79088,-0.5617 1.26392,-0.163 2.23552,-0.2461 2.9148,-0.2461 2.92572,0 5.28948,0.7498 7.09184,2.2481 -0.58464,0.6793 -1.59152,1.4039 -3.01924,2.1764 0.56224,0.024 1.38152,-0.1979 2.45812,-0.6672 1.07632,-0.4676 1.533,-0.7022 1.36948,-0.7022 0.18704,0 0.56224,0.3752 1.12392,1.1239 0.42112,0.5617 0.7602,1.0659 1.01836,1.5095 0.74872,1.335 1.25188,2.7742 1.51004,4.3192 0,0.5393 0.0115,0.9254 0.035,1.159 v 0.2811 h 5.6e-4 z m -13.44868,0.6322 c 0,-1.0063 -0.43904,-1.9605 -1.31684,-2.8624 -0.87836,-0.9013 -1.82056,-1.3513 -2.82688,-1.3513 -0.88984,0 -1.67356,0.3774 -2.35256,1.1309 -0.67928,0.7541 -1.01836,1.591 -1.01836,2.5097 0,0.8005 0.38612,1.3196 1.15892,1.5548 0.49168,0.1417 1.18132,0.2243 2.07144,0.2472 h 1.93144 c 1.56744,0.024 2.35284,-0.3861 2.35284,-1.2289 z m 3.82704,4.3549 v -1.089 c -0.16352,-0.304 -0.3276,-0.6202 -0.49112,-0.9483 -0.14056,-0.4687 -0.39816,-1.1239 -0.7728,-1.967 l -0.38668,4.1087 c 0,0.3282 -0.07,0.4917 -0.21056,0.4917 -0.0935,0 -0.16352,-0.023 -0.21056,-0.069 -0.16408,-2.4816 -0.24612,-3.5585 -0.24612,-3.2314 v -1.2284 c -0.047,-0.071 -0.105,-0.1061 -0.175,-0.1061 -0.79632,0.8204 -1.19392,2.1425 -1.19392,3.9681 0,1.0069 0.0924,1.6271 0.28056,1.8615 0.1876,-0.047 0.39816,-0.1285 0.63224,-0.2456 0.0935,-0.047 0.3626,-0.071 0.80836,-0.071 0.44352,0 0.9828,0.1405 1.61448,0.4211 0.23408,0 0.35112,-0.6317 0.35112,-1.8953 z m 7.93632,-4.893 c 0,-0.9428 -0.35112,-1.785 -1.05336,-2.527 -0.7028,-0.7415 -1.5106,-1.113 -2.42256,-1.113 -0.98336,0 -1.9026,0.4499 -2.75688,1.3512 -0.85484,0.9014 -1.28184,1.8436 -1.28184,2.8269 0,0.8199 0.3976,1.2289 1.19392,1.2289 h 4.03816 c 1.52124,-0.023 2.28256,-0.612 2.28256,-1.767 z"
         inkscape:connector-curvature="0"
         style="fill:#0d0f0f" />
      <path
         style="fill:#009688;fill-opacity:1"
         inkscape:connector-curvature="0"
         d="m 134.00001,999.58832 v 27.99998 h -28 v -27.99998 h 28 m 0,-4 h -28 c -2.21,0 -4,1.79 -4,4 v 27.99998 c 0,2.21 1.79,4 4,4 h 28 c 2.21,0 4,-1.79 4,-4 v -27.99998 c 0,-2.21 -1.79,-4 -4,-4 z"
         id="path3128-1" />
    </g>
    <g
       id="g3178"
       transform="matrix(1.5000001,0,0,1.5000001,-37.500046,-537.00702)">
      <path
         style="opacity:1;fill:#cac5c0"
         inkscape:connector-curvature="0"
         d="m 287.00003,1013.5878 c 0,7.7322 -6.26724,14.0005 -14,14.0005 -7.73164,0 -14,-6.2683 -14,-14.0005 0,-7.7317 6.26836,-13.99948 14,-13.99948 7.73276,0 14,6.26778 14,13.99948 z"
         id="path161-7" />
      <path
         style="fill:#0d0f0f"
         inkscape:connector-curvature="0"
         d="m 274.85951,1021.9883 v -0.9231 c 1.31684,-0.1459 1.97652,-0.5284 1.97652,-1.143 0,-0.443 -0.17612,-0.8859 -0.52724,-1.3289 l -3.64224,-4.4828 -2.87644,3.3911 c -0.7196,0.8324 -1.08164,1.521 -1.08164,2.0591 0,0.8333 0.65912,1.3359 1.9796,1.5084 v 0.9192 h -7.01428 v -0.9203 c 0.88816,-0.1706 1.64276,-0.4906 2.26856,-0.9565 0.43092,-0.3425 1.01836,-0.9439 1.7598,-1.8027 l 4.32572,-5.0162 -5.00276,-6.0648 c -0.6482,-0.7831 -1.15388,-1.2972 -1.51228,-1.5428 -0.48272,-0.343 -1.15388,-0.5633 -2.01684,-0.661 v -0.9557 h 8.27092 v 0.9198 c -1.24684,0.2456 -1.86928,0.6255 -1.86928,1.1407 0,0.3444 0.16632,0.7241 0.50204,1.1402 l 3.30848,4.0102 2.66224,-3.2735 c 0.47908,-0.5891 0.7196,-1.1035 0.7196,-1.5456 0,-0.7361 -0.5894,-1.2152 -1.76428,-1.4361 v -0.9557 h 6.58336 v 0.9215 c -0.5754,0.1229 -0.97244,0.2335 -1.1844,0.3326 -0.7196,0.3442 -1.81888,1.3634 -3.30316,3.0576 -0.23856,0.2714 -1.24684,1.5101 -3.02092,3.7198 l 5.31356,6.5417 c 1.15164,1.4218 2.3254,2.2319 3.52408,2.4265 v 0.9203 h -8.37872 z"
         id="path165-8" />
      <path
         style="fill:#009688;fill-opacity:1"
         inkscape:connector-curvature="0"
         d="m 287.00003,999.58832 v 27.99998 h -28 v -27.99998 h 28 m 0,-4 h -28 c -2.21,0 -4,1.79 -4,4 v 27.99998 c 0,2.21 1.79,4 4,4 h 28 c 2.21,0 4,-1.79 4,-4 v -27.99998 c 0,-2.21 -1.79,-4 -4,-4 z"
         id="path3128-19" />
    </g>
    <g
       id="g3130"
       transform="matrix(1.5000001,0,0,1.5000001,-10.433787,-526.22812)">
      <path
         transform="matrix(2.0741798,0,0,1.719386,-204.30603,999.7323)"
         d="m 140.66374,-22.874395 c 0,5.299972 -3.56156,9.596449 -7.95495,9.596449 -4.3934,0 -7.95496,-4.296477 -7.95496,-9.596449 0,-5.299973 3.56156,-9.596449 7.95496,-9.596449 4.39339,0 7.95495,4.296476 7.95495,9.596449 z"
         sodipodi:ry="9.5964489"
         sodipodi:rx="7.9549513"
         sodipodi:cy="-22.874395"
         sodipodi:cx="132.70879"
         id="path4818-4"
         style="fill:#1a6ab3;fill-opacity:1"
         sodipodi:type="arc" />
      <path
         style="fill:#009688;fill-opacity:1"
         inkscape:connector-curvature="0"
         d="m 84.955858,942.40238 h -28 c -2.21,0 -4,1.79 -4,4 v 28 c 0,2.21 1.79,4 4,4 h 28 c 2.21,0 4,-1.79 4,-4 v -28 c 0,-2.21 -1.79,-4 -4,-4 z m -18,28 -10,-10 2.83,-2.83 7.17,7.17 15.17,-15.17 2.83,2.83 -18,18 z"
         id="path3117-9" />
    </g>
    <g
       id="g3126"
       transform="matrix(1.5000001,0,0,1.5000001,-22.938495,-521.74114)">
      <path
         transform="matrix(2.0741798,0,0,1.719386,-149.96956,996.74097)"
         d="m 140.66374,-22.874395 c 0,5.299972 -3.56156,9.596449 -7.95495,9.596449 -4.3934,0 -7.95496,-4.296477 -7.95496,-9.596449 0,-5.299973 3.56156,-9.596449 7.95496,-9.596449 4.39339,0 7.95495,4.296476 7.95495,9.596449 z"
         sodipodi:ry="9.5964489"
         sodipodi:rx="7.9549513"
         sodipodi:cy="-22.874395"
         sodipodi:cx="132.70879"
         id="path4818-9"
         style="fill:#282828;fill-opacity:1"
         sodipodi:type="arc" />
      <path
         style="fill:#009688;fill-opacity:1"
         inkscape:connector-curvature="0"
         d="m 139.29233,939.41108 h -28 c -2.21,0 -4,1.79 -4,4 v 28 c 0,2.21 1.79,3.99996 4,3.99996 h 28 c 2.21,0 4,-1.78996 4,-3.99996 v -28 c 0,-2.21 -1.79,-4 -4,-4 z m -18,28 -10,-10 2.83,-2.83 7.17,7.17 15.17,-15.17 2.83,2.83 -18,18 z"
         id="path3117-0" />
    </g>
    <g
       id="g3122"
       transform="matrix(1.5000001,0,0,1.5000001,-27.159556,-523.63953)">
      <path
         transform="matrix(2.0741798,0,0,1.719386,-101.15551,998.00656)"
         d="m 140.66374,-22.874395 c 0,5.299972 -3.56156,9.596449 -7.95495,9.596449 -4.3934,0 -7.95496,-4.296477 -7.95496,-9.596449 0,-5.299973 3.56156,-9.596449 7.95496,-9.596449 4.39339,0 7.95495,4.296476 7.95495,9.596449 z"
         sodipodi:ry="9.5964489"
         sodipodi:rx="7.9549513"
         sodipodi:cy="-22.874395"
         sodipodi:cx="132.70879"
         id="path4818-5"
         style="fill:#ef342f;fill-opacity:1"
         sodipodi:type="arc" />
      <path
         style="fill:#009688;fill-opacity:1"
         inkscape:connector-curvature="0"
         d="m 188.10637,940.67667 h -28 c -2.21,0 -4,1.79 -4,4 v 28 c 0,2.21 1.79,3.99996 4,3.99996 h 28 c 2.21,0 4,-1.78996 4,-3.99996 v -28 c 0,-2.21 -1.79,-4 -4,-4 z m -18,28 -10,-10 2.83,-2.83 7.17,7.17 15.17,-15.17 2.83,2.83 -18,18 z"
         id="path3117-5" />
    </g>
    <g
       id="g3118"
       transform="matrix(1.5000001,0,0,1.5000001,-33.969271,-524.32977)">
      <path
         transform="matrix(2.0741798,0,0,1.719386,-50.615706,998.46673)"
         d="m 140.66374,-22.874395 c 0,5.299972 -3.56156,9.596449 -7.95495,9.596449 -4.3934,0 -7.95496,-4.296477 -7.95496,-9.596449 0,-5.299973 3.56156,-9.596449 7.95496,-9.596449 4.39339,0 7.95495,4.296476 7.95495,9.596449 z"
         sodipodi:ry="9.5964489"
         sodipodi:rx="7.9549513"
         sodipodi:cy="-22.874395"
         sodipodi:cx="132.70879"
         id="path4818"
         style="fill:#39b253;fill-opacity:1"
         sodipodi:type="arc" />
      <path
         style="fill:#009688;fill-opacity:1"
         inkscape:connector-curvature="0"
         d="m 238.64618,941.13683 h -28 c -2.21,0 -4,1.79 -4,4 v 28 c 0,2.21 1.79,3.99996 4,3.99996 h 28 c 2.21,0 4,-1.78996 4,-3.99996 v -28 c 0,-2.21 -1.79,-4 -4,-4 z m -18,28 -10,-10 2.83,-2.83 7.17,7.17 15.17,-15.17 2.83,2.83 -18,18 z"
         id="path3117-7" />
    </g>
    <g
       id="g3162"
       transform="matrix(1.5000001,0,0,1.5000001,-45.000062,-514.50693)">
      <path
         transform="matrix(-0.34432559,0.34432559,-0.36909717,-0.36909717,537.64075,614.50613)"
         d="m 701.50646,-43.946968 c 0,17.484725 -15.1939,31.658895 -33.93651,31.658895 -18.74262,0 -33.93652,-14.17417 -33.93652,-31.658895 0,-17.484725 15.1939,-31.658896 33.93652,-31.658896 18.74261,0 33.93651,14.174171 33.93651,31.658896 z"
         sodipodi:ry="31.658895"
         sodipodi:rx="33.936512"
         sodipodi:cy="-43.946968"
         sodipodi:cx="667.56995"
         id="path3146-1-6"
         style="fill:url(#linearGradient3243);fill-opacity:1;stroke:none"
         sodipodi:type="arc" />
      <path
         style="fill:#80cbc4;fill-opacity:1"
         inkscape:connector-curvature="0"
         d="m 338.00004,842.58827 h -28 c -2.21,0 -4,1.79 -4,4 v 28 c 0,2.21 1.79,3.99996 4,3.99996 h 28 c 2.21,0 4,-1.78996 4,-3.99996 v -28 c 0,-2.21 -1.79,-4 -4,-4 z m -18,28 -10,-10 2.83,-2.83 7.17,7.17 15.17,-15.17 2.83,2.83 -18,18 z"
         id="path3117-07-6-5" />
    </g>
    <g
       id="g3158"
       transform="matrix(1.5000001,0,0,1.5000001,-6.5578636,-509.32968)">
      <path
         transform="matrix(2.0741799,0,0,1.719386,-252.88999,896.46667)"
         d="m 140.66374,-22.874395 c 0,5.299972 -3.56156,9.596449 -7.95495,9.596449 -4.3934,0 -7.95496,-4.296477 -7.95496,-9.596449 0,-5.299973 3.56156,-9.596449 7.95496,-9.596449 4.39339,0 7.95495,4.296476 7.95495,9.596449 z"
         sodipodi:ry="9.5964489"
         sodipodi:rx="7.9549513"
         sodipodi:cy="-22.874395"
         sodipodi:cx="132.70879"
         id="path4818-7-0"
         style="fill:#e4ecc5;fill-opacity:1"
         sodipodi:type="arc" />
      <path
         style="fill:#80cbc4;fill-opacity:1"
         inkscape:connector-curvature="0"
         d="M 36.371909,839.13677 H 8.3719095 c -2.21,0 -3.9999995,1.79 -3.9999995,4 v 28 c 0,2.21 1.7899995,3.99996 3.9999995,3.99996 H 36.371909 c 2.21,0 4,-1.78996 4,-3.99996 v -28 c 0,-2.21 -1.79,-4 -4,-4 z m -18,28 -9.9999995,-10 2.8299995,-2.83 7.17,7.17 15.17,-15.17 2.83,2.83 -18,18 z"
         id="path3117-4" />
    </g>
    <g
       id="g3208"
       transform="matrix(1.5000001,0,0,1.5000001,-4.6497476e-7,-522.00696)">
      <path
         style="fill:#80cbc4;fill-opacity:1"
         inkscape:connector-curvature="0"
         d="m 32.000001,897.58827 v 28 H 4.0000009 v -28 H 32.000001 m 0,-4 H 4.0000009 c -2.21,0 -3.99999997005065,1.79 -3.99999997005065,4 v 28 c 0,2.21 1.78999997005065,4 3.99999997005065,4 H 32.000001 c 2.21,0 4,-1.79 4,-4 v -28 c 0,-2.21 -1.79,-4 -4,-4 z"
         id="path3128-58" />
      <circle
         transform="matrix(0.28,0,0,0.28,151,897.58827)"
         style="fill:#f8f6d8"
         sodipodi:ry="50"
         sodipodi:rx="50"
         sodipodi:cy="50"
         sodipodi:cx="-475"
         d="m -425,50 c 0,27.614237 -22.38576,50 -50,50 -27.61424,0 -50,-22.385763 -50,-50 0,-27.614237 22.38576,-50 50,-50 27.61424,0 50,22.385763 50,50 z"
         cx="-475"
         cy="50"
         r="50"
         id="circle155-0-1" />
      <path
         id="path157-9-2"
         d="m 31.35348,913.56619 c -1.83708,-1.03572 -3.01504,-1.55428 -3.53276,-1.55428 -0.37632,0 -0.6706,0.28896 -0.88312,0.86576 -0.21224,0.57764 -0.6356,0.8652 -1.27148,0.8652 -0.25928,0 -0.78904,-0.0941 -1.58984,-0.28224 -0.44744,0.6832 -0.67144,1.11888 -0.67144,1.30704 0,0.25928 0.19292,0.56448 0.57792,0.91868 0.385,0.35336 0.7098,0.52948 0.97496,0.52948 0.16856,0 0.39648,-0.035 0.68572,-0.10612 0.28868,-0.07 0.48188,-0.10556 0.57792,-0.10556 0.28924,0 0.43316,0.53004 0.43316,1.58984 0,1.01276 -0.2352,2.56704 -0.70644,4.66312 -0.61264,-2.4024 -1.26,-3.60388 -1.94264,-3.60388 -0.09464,0 -0.28868,0.0706 -0.58296,0.2128 -0.29484,0.14056 -0.5124,0.21112 -0.65352,0.21112 -0.68264,0 -1.295,-0.62356 -1.83708,-1.87264 -1.08332,0.1652 -1.6254,0.71876 -1.6254,1.66152 0,0.47152 0.21756,0.84756 0.65408,1.1298 0.43484,0.28224 0.65352,0.48356 0.65352,0.6006 0,0.63644 -0.93072,1.61392 -2.79132,2.93244 -0.98868,0.70644 -1.67244,1.20092 -2.04848,1.48316 0.32872,-0.42336 0.65856,-0.97636 0.98924,-1.65984 0.37632,-0.777 0.56504,-1.3776 0.56504,-1.80208 0,-0.2352 -0.27076,-0.5656 -0.81256,-0.98924 -0.54208,-0.42336 -0.812,-0.87108 -0.812,-1.34204 0,-0.39984 0.14056,-0.89404 0.42336,-1.48372 -0.30632,-0.35336 -0.6706,-0.5306 -1.0948,-0.5306 -0.9422,0 -1.4126,0.30688 -1.4126,0.9184 0,-0.42392 0,-0.10612 0,0.95368 0.02296,0.77728 -0.5656,1.16592 -1.76708,1.16592 -0.91812,0 -2.46148,-0.21252 -4.62756,-0.63588 2.44944,-0.61264 3.67388,-1.31908 3.67388,-2.1196 0,0.0941 -0.04704,-0.18816 -0.14112,-0.84784 -0.09464,-0.72912 0.42392,-1.38908 1.55428,-1.97764 -0.21224,-1.08276 -0.77644,-1.62568 -1.69596,-1.62568 -0.14112,0 -0.40096,0.24752 -0.777,0.74116 -0.37688,0.49588 -0.72996,0.74256 -1.05924,0.74256 -0.5656,0 -1.29612,-0.61208 -2.19016,-1.83764 -0.42448,-0.61152 -1.0724,-1.51872 -1.94348,-2.7202 0.54152,0.28336 1.08332,0.5656 1.6254,0.84868 0.70644,0.32928 1.27148,0.49448 1.69596,0.49448 0.32984,0 0.65352,-0.28868 0.97132,-0.86576 0.3178,-0.57708 0.73612,-0.86576 1.25412,-0.86576 0.07112,0 0.54208,0.14112 1.41316,0.42448 0.44688,-0.68292 0.67144,-1.18944 0.67144,-1.51928 0,-0.2828 -0.17108,-0.60648 -0.5124,-0.97188 -0.34188,-0.36484 -0.65352,-0.5474 -0.93632,-0.5474 -0.11816,0 -0.30016,0.035 -0.54796,0.10612 -0.24668,0.0706 -0.42924,0.10612 -0.54684,0.10612 -0.42448,0 -0.63644,-0.53004 -0.63644,-1.58984 0,-0.2828 0.27132,-1.8956 0.81312,-4.8398 -0.02408,0.3528 0.12908,1.01276 0.45892,1.97792 0.4004,1.17796 0.87108,1.76652 1.41372,1.76652 0.09352,0 0.28224,-0.0706 0.56504,-0.21224 0.28224,-0.14112 0.50596,-0.21112 0.67088,-0.21112 0.54152,0 0.98868,0.30632 1.3426,0.91756 l 0.53004,0.95368 c 0.49448,0 0.90664,-0.17612 1.23592,-0.52948 0.32984,-0.35336 0.49504,-0.77756 0.49504,-1.27204 0,-0.518 -0.21756,-0.9128 -0.65352,-1.18356 -0.43652,-0.27076 -0.65408,-0.47684 -0.65408,-0.61796 0,-0.49504 0.77756,-1.33056 2.33184,-2.50824 1.24796,-0.94164 2.06052,-1.4952 2.43796,-1.6604 -1.01276,1.36612 -1.51928,2.36628 -1.51928,3.00272 0,0.32984 0.19964,0.68348 0.6006,1.0598 0.49448,0.44744 0.777,0.76552 0.84756,0.95368 0.2352,0.54264 0.21168,1.28408 -0.07056,2.22572 0.63588,0.448 1.11832,0.67088 1.44872,0.67088 0.68208,0 1.02424,-0.35392 1.02424,-1.0598 0,-0.0706 -0.0294,-0.29428 -0.08792,-0.67088 -0.05964,-0.37632 -0.07644,-0.58856 -0.05348,-0.63588 0.09408,-0.32984 0.742,-0.49504 1.94292,-0.49504 0.75348,0 2.31924,0.21224 4.69868,0.63644 -0.51856,0.14112 -1.29556,0.3528 -2.33128,0.6356 -0.9422,0.2828 -1.41372,0.6006 -1.41372,0.95368 0,0.1652 0.05852,0.44744 0.17668,0.84756 0.1176,0.40096 0.17724,0.6944 0.17724,0.88368 0,0.32928 -0.21224,0.6356 -0.63588,0.91756 l -1.20148,0.84868 c 0.2828,0.51856 0.47096,0.8246 0.5656,0.91812 0.2352,0.28224 0.553,0.42392 0.95368,0.42392 0.2828,0 0.54152,-0.24724 0.777,-0.74144 0.2352,-0.49504 0.61264,-0.742 1.13036,-0.742 0.6356,0 1.35464,0.58912 2.15516,1.76708 0.44604,0.6608 1.141,1.66124 2.0832,3.00356 z m -7.84196,-2.04848 c 0,-1.50668 -0.55412,-2.81428 -1.66096,-3.92168 -1.10684,-1.10684 -2.41388,-1.6604 -3.92112,-1.6604 -1.53132,0 -2.8504,0.54796 -3.95668,1.64332 -1.10684,1.0948 -1.67244,2.408 -1.6954,3.93848 -0.02408,1.50724 0.53536,2.8084 1.67776,3.90264 1.1424,1.09536 2.46708,1.64332 3.97404,1.64332 1.60132,0 2.93776,-0.52444 4.00904,-1.5722 1.0724,-1.0472 1.59628,-2.3716 1.57332,-3.97348 z m -0.53004,0 c 0,1.43668 -0.483,2.62668 -1.44872,3.5672 -0.96628,0.94276 -2.1672,1.41372 -3.60332,1.41372 -1.38964,0 -2.57908,-0.48244 -3.56776,-1.44872 -0.98868,-0.9646 -1.48372,-2.14256 -1.48372,-3.5322 0,-1.36556 0.4998,-2.53792 1.50052,-3.51484 1.00184,-0.9772 2.18484,-1.46664 3.55096,-1.46664 1.36556,0 2.54912,0.49448 3.5504,1.48428 1.00072,0.98924 1.50164,2.1546 1.50164,3.4972 z"
         inkscape:connector-curvature="0"
         style="fill:#0d0f0f" />
    </g>
    <g
       id="g3213"
       transform="matrix(1.5000001,0,0,1.5000001,-7.5000099,-522.00696)">
      <circle
         transform="matrix(0.28,0,0,0.28,172.60001,897.58827)"
         style="fill:#c1d7e9"
         sodipodi:ry="50"
         sodipodi:rx="50"
         sodipodi:cy="50"
         sodipodi:cx="-370"
         d="m -320,50 c 0,27.614237 -22.38576,50 -50,50 -27.61424,0 -50,-22.385763 -50,-50 0,-27.614237 22.38576,-50 50,-50 27.61424,0 50,22.385763 50,50 z"
         cx="-370"
         cy="50"
         r="50"
         id="circle149-4-9" />
      <path
         id="path151-9-9"
         d="m 73.896647,921.02959 c -1.34036,1.36388 -2.99152,2.04596 -4.95264,2.04596 -2.20108,0 -3.94744,-0.7532 -5.23908,-2.26044 -1.22052,-1.43556 -1.83036,-3.26536 -1.83036,-5.48968 0,-2.39204 1.04076,-5.12008 3.122,-8.18272 1.69792,-2.51132 3.69572,-4.7124 5.99256,-6.6024 -0.33516,1.53132 -0.50204,2.6194 -0.50204,3.26536 0,1.48372 0.46592,2.93076 1.39888,4.34224 1.14856,1.6744 2.02132,2.91928 2.61996,3.73184 0.93296,1.41204 1.39944,2.7874 1.39944,4.12636 5.6e-4,1.98604 -0.66948,3.66072 -2.00872,5.02348 z m -0.03612,-7.66136 c -0.35868,-0.80108 -0.77756,-1.33336 -1.25608,-1.59684 0.07168,0.14392 0.1078,0.3472 0.1078,0.6104 0,0.5026 -0.14336,1.21996 -0.43092,2.15292 l -0.46592,1.43556 c 0,0.8372 0.41776,1.25608 1.25552,1.25608 0.8848,0 1.32776,-0.5866 1.32776,-1.75868 0,-0.59752 -0.1792,-1.29696 -0.53816,-2.09944 z"
         inkscape:connector-curvature="0"
         style="fill:#0d0f0f" />
      <path
         style="fill:#80cbc4;fill-opacity:1"
         inkscape:connector-curvature="0"
         d="m 83.000005,897.58827 v 28 H 55.000009 v -28 h 27.999996 m 0,-4 H 55.000009 c -2.21,0 -4,1.79 -4,4 v 28 c 0,2.21 1.79,4 4,4 h 27.999996 c 2.21,0 4,-1.79 4,-4 v -28 c 0,-2.21 -1.79,-4 -4,-4 z"
         id="path3128-4-0" />
    </g>
    <g
       id="g3223"
       transform="matrix(1.5000001,0,0,1.5000001,-22.50003,-522.00696)">
      <circle
         transform="matrix(0.28,0,0,0.28,215.80002,897.58827)"
         style="fill:#e49977"
         sodipodi:ry="50"
         sodipodi:rx="50"
         sodipodi:cy="50"
         sodipodi:cx="-160"
         d="m -110,50 c 0,27.614237 -22.38576,50 -50,50 -27.61424,0 -50,-22.385763 -50,-50 0,-27.614237 22.38576,-50 50,-50 27.61424,0 50,22.385763 50,50 z"
         cx="-160"
         cy="50"
         r="50"
         id="circle137-4-0" />
      <path
         id="path139-4-5"
         d="m 182.75022,916.24103 c -1.04608,2.49536 -3.1248,3.74276 -6.237,3.74276 -0.57036,0 -1.18888,0.0711 -1.85388,0.21336 -0.99792,0.21392 -1.49688,0.51184 -1.49688,0.89208 0,0.11872 0.0826,0.2548 0.24948,0.40964 0.16576,0.15484 0.30912,0.23128 0.42756,0.23128 -0.59444,0 -0.1904,0.0179 1.21128,0.0535 1.40224,0.0356 2.28144,0.0535 2.63816,0.0535 -2.06724,1.21128 -5.52496,1.76932 -10.37204,1.67468 -1.59264,-0.0235 -2.95848,-0.72464 -4.09892,-2.1028 -1.11776,-1.30732 -1.67552,-2.76864 -1.67552,-4.38424 0,-1.71024 0.57596,-3.16624 1.72928,-4.3666 1.15164,-1.19896 2.58412,-1.79956 4.29464,-1.79956 0.37996,0 0.8848,0.0832 1.5148,0.24948 0.62944,0.16632 1.05168,0.24948 1.26504,0.24948 0.87892,0 1.9726,-0.36204 3.27964,-1.08724 1.30648,-0.72464 1.925,-1.08724 1.85388,-1.08724 -0.238,2.49536 -1.0696,4.17088 -2.49592,5.02544 -1.02144,0.59444 -1.53244,1.17628 -1.53244,1.74608 0,0.35644 0.21392,0.64204 0.64148,0.85596 0.33264,0.1666 0.70056,0.24976 1.1046,0.24976 0.61796,0 1.22388,-0.37968 1.81832,-1.13988 0.59332,-0.76104 0.8554,-1.44956 0.78428,-2.06808 -0.0711,-0.7126 -0.0235,-1.56884 0.1428,-2.56592 0.047,-0.2856 0.21924,-0.6356 0.51632,-1.05112 0.29708,-0.41608 0.56448,-0.67144 0.8022,-0.76664 0,0.21336 -0.077,0.57036 -0.23184,1.06904 -0.15484,0.49868 -0.23128,0.868 -0.23128,1.10516 0,0.52276 0.14224,0.92652 0.42756,1.21128 0.427,-0.16576 0.80724,-0.70056 1.14072,-1.60412 0.28448,-0.68852 0.45052,-1.35408 0.49868,-1.99556 -0.99848,-0.0476 -1.95496,-0.49868 -2.86944,-1.35464 -0.91504,-0.85596 -1.372,-1.7822 -1.372,-2.77984 0,-0.16632 0.023,-0.33264 0.0717,-0.49924 0.14224,0.21392 0.35588,0.54684 0.64092,0.99792 0.40404,0.59388 0.71316,0.89096 0.92764,0.89096 0.28448,0 0.427,-0.29708 0.427,-0.89096 0,-0.7602 -0.20244,-1.44928 -0.60592,-2.06724 -0.45164,-0.73668 -1.03404,-1.10516 -1.74664,-1.10516 -0.33292,0 -0.83188,0.17836 -1.49632,0.5348 -0.66612,0.35588 -1.27204,0.5348 -1.81776,0.5348 -0.16688,0 -0.90412,-0.21448 -2.2106,-0.64204 2.3044,-0.3794 3.45744,-0.72408 3.45744,-1.03348 0,-0.8078 -1.5806,-1.35464 -4.7404,-1.6394 -0.3094,-0.0235 -0.87948,-0.0711 -1.71108,-0.1428 0.0946,-0.11872 0.77224,-0.24948 2.03224,-0.392 1.06904,-0.11816 1.81776,-0.17836 2.24504,-0.17836 5.65516,0 9.24336,2.7454 10.76404,8.23424 0.26152,-0.21644 0.39256,-0.57848 0.39256,-1.08388 0,-0.65072 -0.1904,-1.47 -0.57036,-2.45756 -0.14336,-0.385 -0.36904,-0.96348 -0.6776,-1.73404 1.94796,2.48276 2.92292,4.8356 2.92292,7.05572 0,1.16984 -0.27412,2.23244 -0.8204,3.18668 -0.3556,0.64484 -1.022,1.46832 -1.99556,2.47128 -0.9744,1.0024 -1.63996,1.77856 -1.99668,2.32764 1.30704,-0.35588 2.163,-0.62944 2.56704,-0.81984 0.90244,-0.4032 1.722,-1.00968 2.45924,-1.81776 0,0.30968 -0.13076,0.77336 -0.392,1.39076 z m -15.54056,-14.007 c 0,0.427 -0.238,0.70056 -0.7126,0.81928 l -0.92708,0.1428 c -0.33292,0.16632 -0.81984,0.81984 -1.46132,1.96 -0.0717,-0.35588 -0.17836,-0.85484 -0.32088,-1.49688 -0.21392,0.0241 -0.5698,0.21392 -1.06904,0.57036 -0.21392,0.16632 -0.55888,0.41552 -1.03404,0.74816 0.14336,-0.8554 0.61796,-1.72144 1.42632,-2.60204 0.8554,-0.97356 1.687,-1.46076 2.4948,-1.46076 1.06904,0 1.60384,0.44016 1.60384,1.31908 z m 6.202,3.27852 c 0,0.40404 -0.2198,0.74312 -0.6594,1.01612 -0.4396,0.27356 -0.87332,0.4102 -1.30088,0.4102 -0.57036,0 -1.08164,-0.32088 -1.53244,-0.96264 -0.5474,-0.78428 -1.10516,-1.295 -1.67552,-1.53356 0.11872,-0.11816 0.26152,-0.1778 0.42812,-0.1778 0.21392,0 0.5754,0.16632 1.08668,0.49868 0.51072,0.33292 0.8372,0.49924 0.98056,0.49924 0.11872,0 0.31444,-0.16632 0.588,-0.49924 0.273,-0.33264 0.57596,-0.49868 0.90888,-0.49868 0.784,2.8e-4 1.176,0.41636 1.176,1.24768 z"
         inkscape:connector-curvature="0"
         style="fill:#0d0f0f" />
      <path
         style="fill:#80cbc4;fill-opacity:1"
         inkscape:connector-curvature="0"
         d="m 185.00002,897.58827 v 28 h -28 v -28 h 28 m 0,-4 h -28 c -2.21,0 -4,1.79 -4,4 v 28 c 0,2.21 1.79,4 4,4 h 28 c 2.21,0 4,-1.79 4,-4 v -28 c 0,-2.21 -1.79,-4 -4,-4 z"
         id="path3128-2-0" />
    </g>
    <g
       id="g3228"
       transform="matrix(1.5000001,0,0,1.5000001,-30.000031,-522.00696)">
      <path
         style="fill:#a3c095"
         inkscape:connector-curvature="0"
         d="m 236.00002,911.58771 c 0,7.7322 -6.2678,14.00056 -14.00056,14.00056 -7.73164,0 -13.99944,-6.26836 -13.99944,-14.00056 0,-7.73164 6.2678,-13.99944 13.99944,-13.99944 7.73276,0 14.00056,6.2678 14.00056,13.99944 z"
         id="path131-3-6" />
      <path
         id="path133-8-0"
         d="m 234.25338,913.33127 c 0,0.46704 -0.1806,0.88592 -0.54208,1.25944 -0.36092,0.37296 -0.77559,0.55944 -1.24208,0.55944 -0.74536,0 -1.29444,-0.35 -1.64332,-1.04944 l -1.64388,-0.07 c -0.35056,0 -1.03852,0.15204 -2.06388,0.455 -1.09592,0.30296 -1.72592,0.54796 -1.88888,0.73444 -0.25648,0.27944 -0.46592,0.93296 -0.62944,1.95888 -0.14056,0.83944 -0.20944,1.4574 -0.20944,1.85388 0,0.62888 0.0986,1.09004 0.29708,1.38152 0.19852,0.29148 0.60648,0.53648 1.22388,0.73444 0.6174,0.19796 0.99708,0.30912 1.13708,0.33236 0.093,0 0.24444,-0.0115 0.455,-0.035 h 0.41944 c 0.3024,0 0.6174,0.0476 0.94444,0.14 0.46648,0.14 0.665,0.32648 0.595,0.56 -0.32704,-0.0465 -0.89796,0.0235 -1.71388,0.21 l 0.97888,0.48944 c 0,0.28 -0.39648,0.41944 -1.18887,0.41944 -0.21056,0 -0.49588,-0.0465 -0.85764,-0.13944 -0.36149,-0.0941 -0.60061,-0.14 -0.71653,-0.14 h -0.45499 c -0.023,0.23296 -0.0935,0.5824 -0.21,1.04888 -0.39704,-0.0235 -0.86241,-0.25704 -1.39888,-0.69944 -0.53705,-0.4424 -0.87445,-0.66444 -1.01388,-0.66444 -0.14056,0 -0.33908,0.22204 -0.595,0.66444 -0.25705,0.4424 -0.385,0.74592 -0.385,0.90944 -0.30296,-0.16352 -0.55888,-0.46704 -0.77,-0.90944 -0.093,-0.30352 -0.19796,-0.60648 -0.31388,-0.90944 -0.23296,0.0235 -0.665,0.51352 -1.29388,1.46944 h -0.17556 c -0.0465,-0.0706 -0.2226,-0.56 -0.52444,-1.46944 -0.72296,-0.23296 -1.39888,-0.34944 -2.02888,-0.34944 -0.30296,0 -0.76944,0.07 -1.39888,0.20944 l -0.97888,-0.0694 c 0.13944,-0.14 0.5474,-0.40796 1.22388,-0.80444 0.7924,-0.46648 1.39888,-0.7 1.81888,-0.7 0.0689,0 0.16184,0.012 0.28,0.035 0.11592,0.0241 0.21,0.035 0.28,0.035 0.16184,0 0.42504,-0.0874 0.78652,-0.26264 0.36148,-0.17444 0.57092,-0.33208 0.62888,-0.47152 0.0591,-0.14112 0.0885,-0.50204 0.0885,-1.085 0,-1.32888 -0.35,-2.3198 -1.05,-2.97276 -0.60704,-0.58296 -1.60888,-1.0024 -3.00832,-1.25944 -0.37296,1.32888 -1.4224,1.99444 -3.1472,1.99444 -0.56,0 -1.11945,-0.33796 -1.67888,-1.01444 -0.55888,-0.67648 -0.83888,-1.29444 -0.83888,-1.85388 0,-0.86296 0.36036,-1.57388 1.08332,-2.13444 -0.5824,-0.60536 -0.87388,-1.22332 -0.87388,-1.85276 0,-0.58352 0.18004,-1.09592 0.54208,-1.54 0.36148,-0.44184 0.83356,-0.69888 1.41652,-0.76944 -0.0465,-0.74536 0.19796,-1.25888 0.73444,-1.53888 -0.25648,-0.25592 -0.38444,-0.71036 -0.38444,-1.36332 0,-0.76944 0.25648,-1.41092 0.76944,-1.92388 0.5124,-0.51296 1.15388,-0.77 1.92332,-0.77 0.84,0 1.52796,0.2926 2.06388,0.875 0.67648,-2.30832 2.13388,-3.46276 4.37164,-3.46276 1.16592,0 2.19184,0.46648 3.07832,1.39944 0.32648,0.34944 0.48944,0.53648 0.48944,0.55888 -0.28,0 -0.13944,-0.0526 0.42,-0.15708 0.55888,-0.105 0.96684,-0.15764 1.22444,-0.15764 0.90888,0 1.71332,0.33796 2.41332,1.01444 0.60592,0.60648 1.02592,1.37536 1.25944,2.30832 0.1624,0.0235 0.41944,0.093 0.76944,0.20944 0.5124,0.2576 0.76944,0.69944 0.76944,1.32944 0,0.11704 -0.0941,0.33852 -0.28,0.66444 1.49184,0.83944 2.23832,2.00536 2.23832,3.49776 0,0.41944 -0.16296,1.00352 -0.48944,1.74916 0.60648,0.34916 0.90888,0.86268 0.90888,1.5386 z m -14.41076,1.53888 v -0.45444 c 0,-0.53592 -0.26208,-1.02592 -0.78652,-1.46888 -0.525,-0.44296 -1.0556,-0.66444 -1.59151,-0.66444 -0.65352,0 -1.25888,0.15148 -1.81888,0.45388 1.23564,-0.0694 2.63507,0.64204 4.19692,2.13388 z m -0.62887,-4.33692 c -0.35001,-0.39704 -0.65297,-0.805 -0.91001,-1.22444 -0.97944,0.25648 -1.46888,0.54796 -1.46888,0.87388 0.28,-0.0224 0.68796,0.0294 1.22389,0.15792 0.53591,0.12852 0.92148,0.19264 1.155,0.19264 z m 2.13387,-1.08444 v -1.53888 c -0.56,-0.093 -0.89908,-0.14 -1.01444,-0.14 v 0.52444 l 1.01444,1.15444 z m 4.54664,-0.97944 c -0.28,-0.11648 -0.805,-0.35 -1.57388,-0.69944 v 3.00776 c 1.09536,-0.63 1.6198,-1.39944 1.57388,-2.30832 z m 1.92276,4.12748 -0.76888,-0.94444 c -0.46592,0.32676 -0.93856,0.65912 -1.41708,0.99708 -0.47852,0.33796 -0.89208,0.71764 -1.24096,1.1368 1.04916,-0.56056 2.19212,-0.95592 3.42692,-1.18944 z"
         inkscape:connector-curvature="0"
         style="fill:#0d0f0f" />
      <path
         style="fill:#80cbc4;fill-opacity:1"
         inkscape:connector-curvature="0"
         d="m 236.00002,897.58827 v 28 h -28 v -28 h 28 m 0,-4 h -28 c -2.21,0 -4,1.79 -4,4 v 28 c 0,2.21 1.79,4 4,4 h 28 c 2.21,0 4,-1.79 4,-4 v -28 c 0,-2.21 -1.79,-4 -4,-4 z"
         id="path3128-7-4" />
    </g>
    <g
       id="g3238"
       transform="matrix(1.5000001,0,0,1.5000001,-45.000062,-522.00696)">
      <g
         id="g3166">
        <path
           sodipodi:type="arc"
           style="fill:url(#linearGradient3245);fill-opacity:1;stroke:none"
           id="path3146-8"
           sodipodi:cx="667.56995"
           sodipodi:cy="-43.946968"
           sodipodi:rx="33.936512"
           sodipodi:ry="31.658895"
           d="m 701.50646,-43.946968 c 0,17.484725 -15.1939,31.658895 -33.93651,31.658895 -18.74262,0 -33.93652,-14.17417 -33.93652,-31.658895 0,-17.484725 15.1939,-31.658896 33.93652,-31.658896 18.74261,0 33.93651,14.174171 33.93651,31.658896 z"
           transform="matrix(-0.29170632,0.29170632,-0.31269236,-0.31269236,504.99253,703.11206)" />
        <path
           id="path3128-5-0"
           d="m 338.00004,897.58827 v 28 h -28 v -28 h 28 m 0,-4 h -28 c -2.21,0 -4,1.79 -4,4 v 28 c 0,2.21 1.79,4 4,4 h 28 c 2.21,0 4,-1.79 4,-4 v -28 c 0,-2.21 -1.79,-4 -4,-4 z"
           inkscape:connector-curvature="0"
           style="fill:#80cbc4;fill-opacity:1" />
      </g>
    </g>
    <g
       id="g3218"
       transform="matrix(1.5000001,0,0,1.5000001,-15.000015,-522.00696)">
      <circle
         transform="matrix(0.28,0,0,0.28,194.20001,897.58881)"
         style="fill:#bab1ab"
         sodipodi:ry="50"
         sodipodi:rx="50"
         sodipodi:cy="49.998001"
         sodipodi:cx="-265"
         d="m -215,49.998001 c 0,27.614238 -22.38576,50 -50,50 -27.61424,0 -50,-22.385762 -50,-50 0,-27.614237 22.38576,-49.9999999 50,-49.9999999 27.61424,0 50,22.3857629 50,49.9999999 z"
         cx="-265"
         cy="49.998001"
         r="50"
         id="circle143-6-9" />
      <path
         id="path145-6-3"
         d="m 131.39461,911.20213 c 0,1.54504 -0.56224,2.59868 -1.6856,3.16036 -0.32816,0.16408 -1.358,0.38612 -3.09036,0.66724 -1.12336,0.1876 -1.68504,0.62076 -1.68504,1.29892 v 2.84424 c 0,0.11816 0.035,0.4802 0.105,1.08892 l 0.10556,1.12392 c 0,0.3514 -0.082,0.92568 -0.24612,1.72088 -0.44464,0.0935 -0.95984,0.19852 -1.54504,0.31696 -0.1876,-0.70308 -0.28112,-1.18272 -0.28112,-1.44088 0,-0.11648 0.0294,-0.2926 0.0876,-0.52696 0.058,-0.23352 0.0885,-0.40908 0.0885,-0.52724 0,-0.1624 -0.1456,-0.61964 -0.43652,-1.36836 h -0.5446 c -0.0722,0.11704 -0.0963,0.26908 -0.0728,0.45612 0.0935,0.39816 0.12852,0.73724 0.10556,1.01836 -0.39816,0.28112 -0.94836,0.65548 -1.6506,1.12364 -0.16408,-0.0465 -0.22204,-0.07 -0.17612,-0.07 v -2.49312 c -0.0459,-0.11648 -0.16352,-0.16268 -0.35112,-0.14056 h -0.42112 l -0.42112,3.30036 c -0.32872,0.0235 -0.72576,0.0235 -1.19392,0 -0.16464,-0.77224 -0.45668,-1.91884 -0.8778,-3.44092 h -0.28112 c -0.25816,0.82012 -0.39816,1.26532 -0.42168,1.33532 0,0.0935 0.0291,0.27468 0.0879,0.54376 0.058,0.26936 0.0876,0.45052 0.0876,0.54404 0,0.07 -0.0235,0.24556 -0.07,0.52668 l -0.10556,0.8428 c -0.047,0.0465 -0.10556,0.07 -0.17556,0.07 -0.70224,0 -1.17096,-0.17556 -1.40448,-0.52612 -0.23408,-0.35168 -0.32816,-0.84336 -0.28112,-1.47588 l 0.28112,-4.21316 c 0,-0.0706 0.023,-0.16408 0.07,-0.28112 0.0459,-0.11704 0.07,-0.19908 0.07,-0.24556 0,-0.1876 -0.19908,-0.56224 -0.59668,-1.12392 -0.0694,-0.023 -0.43372,-0.10556 -1.08836,-0.24612 -0.39872,-0.0935 -1.183,-0.25704 -2.35256,-0.49168 -1.61588,-0.30352 -2.42312,-1.603 -2.42312,-3.8976 0,-3.41796 1.40504,-6.2622 4.21428,-8.533 0.11592,0.63224 0.31556,1.47448 0.59612,2.52812 0.21112,0.0476 0.6678,0.1526 1.36948,0.31612 0.14112,0.047 0.85484,0.30464 2.14256,0.7728 -0.65632,-0.39816 -1.51004,-1.04132 -2.56368,-1.93144 -0.39816,-0.46816 -0.59724,-1.25188 -0.59724,-2.352 0,-0.2576 0.4452,-0.56224 1.33504,-0.91392 0.7952,-0.3276 1.393,-0.51408 1.79088,-0.56168 1.26392,-0.16296 2.23552,-0.24612 2.9148,-0.24612 2.92572,0 5.28948,0.74984 7.09184,2.24812 -0.58464,0.67928 -1.59152,1.40392 -3.01924,2.17644 0.56224,0.0235 1.38152,-0.19796 2.45812,-0.66724 1.07632,-0.4676 1.533,-0.70224 1.36948,-0.70224 0.18704,0 0.56224,0.3752 1.12392,1.12392 0.42112,0.56168 0.7602,1.06596 1.01836,1.50948 0.74872,1.33504 1.25188,2.77424 1.51004,4.31928 0,0.53928 0.0115,0.9254 0.035,1.15892 v 0.28112 h 5.6e-4 z m -13.44868,0.63224 c 0,-1.00632 -0.43904,-1.96056 -1.31684,-2.86244 -0.87836,-0.90132 -1.82056,-1.35128 -2.82688,-1.35128 -0.88984,0 -1.67356,0.37744 -2.35256,1.13092 -0.67928,0.75404 -1.01836,1.59096 -1.01836,2.50964 0,0.80052 0.38612,1.31964 1.15892,1.55484 0.49168,0.14168 1.18132,0.22428 2.07144,0.24724 h 1.93144 c 1.56744,0.0235 2.35284,-0.38612 2.35284,-1.22892 z m 3.82704,4.35484 v -1.08892 c -0.16352,-0.30408 -0.3276,-0.6202 -0.49112,-0.94836 -0.14056,-0.46872 -0.39816,-1.12392 -0.7728,-1.967 l -0.38668,4.10872 c 0,0.32816 -0.07,0.49168 -0.21056,0.49168 -0.0935,0 -0.16352,-0.023 -0.21056,-0.0694 -0.16408,-2.48164 -0.24612,-3.55852 -0.24612,-3.23148 v -1.22836 c -0.047,-0.0711 -0.105,-0.10612 -0.175,-0.10612 -0.79632,0.8204 -1.19392,2.14256 -1.19392,3.96816 0,1.00688 0.0924,1.62708 0.28056,1.86144 0.1876,-0.0465 0.39816,-0.12852 0.63224,-0.24556 0.0935,-0.047 0.3626,-0.0706 0.80836,-0.0706 0.44352,0 0.9828,0.14056 1.61448,0.42112 0.23408,0 0.35112,-0.63168 0.35112,-1.89532 z m 7.93632,-4.893 c 0,-0.94276 -0.35112,-1.785 -1.05336,-2.527 -0.7028,-0.74144 -1.5106,-1.113 -2.42256,-1.113 -0.98336,0 -1.9026,0.44996 -2.75688,1.35128 -0.85484,0.90132 -1.28184,1.84352 -1.28184,2.82688 0,0.81984 0.3976,1.22892 1.19392,1.22892 h 4.03816 c 1.52124,-0.023 2.28256,-0.61208 2.28256,-1.76708 z"
         inkscape:connector-curvature="0"
         style="fill:#0d0f0f" />
      <path
         style="fill:#80cbc4;fill-opacity:1"
         inkscape:connector-curvature="0"
         d="m 134.00001,897.58827 v 28 h -28 v -28 h 28 m 0,-4 h -28 c -2.21,0 -4,1.79 -4,4 v 28 c 0,2.21 1.79,4 4,4 h 28 c 2.21,0 4,-1.79 4,-4 v -28 c 0,-2.21 -1.79,-4 -4,-4 z"
         id="path3128-1-5" />
    </g>
    <g
       id="g3233"
       transform="matrix(1.5000001,0,0,1.5000001,-37.500046,-522.00696)">
      <path
         style="opacity:1;fill:#cac5c0"
         inkscape:connector-curvature="0"
         d="m 287.00003,911.58771 c 0,7.7322 -6.26724,14.00056 -14,14.00056 -7.73164,0 -14,-6.26836 -14,-14.00056 0,-7.73164 6.26836,-13.99944 14,-13.99944 7.73276,0 14,6.2678 14,13.99944 z"
         id="path161-7-6" />
      <path
         style="fill:#0d0f0f"
         inkscape:connector-curvature="0"
         d="m 274.85951,919.98827 v -0.92316 c 1.31684,-0.14588 1.97652,-0.52836 1.97652,-1.14296 0,-0.44296 -0.17612,-0.88592 -0.52724,-1.32888 l -3.64224,-4.4828 -2.87644,3.39108 c -0.7196,0.83244 -1.08164,1.52096 -1.08164,2.05912 0,0.83328 0.65912,1.33588 1.9796,1.50836 v 0.91924 h -7.01428 v -0.92036 c 0.88816,-0.17052 1.64276,-0.49056 2.26856,-0.95648 0.43092,-0.34244 1.01836,-0.94388 1.7598,-1.80264 l 4.32572,-5.0162 -5.00276,-6.0648 c -0.6482,-0.78316 -1.15388,-1.29724 -1.51228,-1.5428 -0.48272,-0.343 -1.15388,-0.56336 -2.01684,-0.66108 v -0.95564 h 8.27092 v 0.9198 c -1.24684,0.24556 -1.86928,0.62552 -1.86928,1.14072 0,0.3444 0.16632,0.72408 0.50204,1.14016 l 3.30848,4.01016 2.66224,-3.27348 c 0.47908,-0.58912 0.7196,-1.10348 0.7196,-1.5456 0,-0.73612 -0.5894,-1.2152 -1.76428,-1.43612 v -0.95564 h 6.58336 v 0.92148 c -0.5754,0.12292 -0.97244,0.23352 -1.1844,0.33264 -0.7196,0.34412 -1.81888,1.36332 -3.30316,3.0576 -0.23856,0.27132 -1.24684,1.51004 -3.02092,3.7198 l 5.31356,6.54164 c 1.15164,1.42184 2.3254,2.23188 3.52408,2.42648 v 0.92036 h -8.37872 z"
         id="path165-8-3" />
      <path
         style="fill:#80cbc4;fill-opacity:1"
         inkscape:connector-curvature="0"
         d="m 287.00003,897.58827 v 28 h -28 v -28 h 28 m 0,-4 h -28 c -2.21,0 -4,1.79 -4,4 v 28 c 0,2.21 1.79,4 4,4 h 28 c 2.21,0 4,-1.79 4,-4 v -28 c 0,-2.21 -1.79,-4 -4,-4 z"
         id="path3128-19-9" />
    </g>
    <g
       id="g3154"
       transform="matrix(1.5000001,0,0,1.5000001,-16.301347,-505.18785)">
      <path
         transform="matrix(2.0741799,0,0,1.7193861,-200.39433,893.70545)"
         d="m 140.66374,-22.874395 c 0,5.299972 -3.56156,9.596449 -7.95495,9.596449 -4.3934,0 -7.95496,-4.296477 -7.95496,-9.596449 0,-5.299973 3.56156,-9.596449 7.95496,-9.596449 4.39339,0 7.95495,4.296476 7.95495,9.596449 z"
         sodipodi:ry="9.5964489"
         sodipodi:rx="7.9549513"
         sodipodi:cy="-22.874395"
         sodipodi:cx="132.70879"
         id="path4818-4-7"
         style="fill:#1a6ab3;fill-opacity:1"
         sodipodi:type="arc" />
      <path
         style="fill:#80cbc4;fill-opacity:1"
         inkscape:connector-curvature="0"
         d="m 88.867565,836.37553 h -28 c -2.21,0 -4,1.79 -4,4 v 28 c 0,2.21 1.79,4 4,4 h 28 c 2.21,0 4,-1.79 4,-4 v -28 c 0,-2.21 -1.79,-4 -4,-4 z m -18,28 -10,-10 2.83,-2.83 7.17,7.17 15.17,-15.17 2.83,2.83 -18,18 z"
         id="path3117-9-0" />
    </g>
    <g
       id="g3150"
       transform="matrix(1.5000001,0,0,1.5000001,-21.040155,-507.43137)">
      <path
         transform="matrix(2.0741799,0,0,1.7193861,-151.23512,895.20113)"
         d="m 140.66374,-22.874395 c 0,5.299972 -3.56156,9.596449 -7.95495,9.596449 -4.3934,0 -7.95496,-4.296477 -7.95496,-9.596449 0,-5.299973 3.56156,-9.596449 7.95496,-9.596449 4.39339,0 7.95495,4.296476 7.95495,9.596449 z"
         sodipodi:ry="9.5964489"
         sodipodi:rx="7.9549513"
         sodipodi:cy="-22.874395"
         sodipodi:cx="132.70879"
         id="path4818-9-4"
         style="fill:#282828;fill-opacity:1"
         sodipodi:type="arc" />
      <path
         style="fill:#80cbc4;fill-opacity:1"
         inkscape:connector-curvature="0"
         d="m 138.02677,837.87123 h -28 c -2.21,0 -4,1.79 -4,4 v 28 c 0,2.21 1.79,3.99996 4,3.99996 h 28 c 2.21,0 4,-1.78996 4,-3.99996 v -28 c 0,-2.21 -1.79,-4 -4,-4 z m -18,28 -10,-10 2.83,-2.83 7.17,7.17 15.17,-15.17 2.83,2.83 -18,18 z"
         id="path3117-0-6" />
    </g>
    <g
       id="g3146"
       transform="matrix(1.5000001,0,0,1.5000001,-28.540156,-508.29423)">
      <path
         transform="matrix(2.0741799,0,0,1.7193861,-100.23512,895.77637)"
         d="m 140.66374,-22.874395 c 0,5.299972 -3.56156,9.596449 -7.95495,9.596449 -4.3934,0 -7.95496,-4.296477 -7.95496,-9.596449 0,-5.299973 3.56156,-9.596449 7.95496,-9.596449 4.39339,0 7.95495,4.296476 7.95495,9.596449 z"
         sodipodi:ry="9.5964489"
         sodipodi:rx="7.9549513"
         sodipodi:cy="-22.874395"
         sodipodi:cx="132.70879"
         id="path4818-5-0"
         style="fill:#ef342f;fill-opacity:1"
         sodipodi:type="arc" />
      <path
         style="fill:#80cbc4;fill-opacity:1"
         inkscape:connector-curvature="0"
         d="m 189.02677,838.44647 h -28 c -2.21,0 -4,1.79 -4,4 v 28 c 0,2.21 1.79,3.99996 4,3.99996 h 28 c 2.21,0 4,-1.78996 4,-3.99996 v -28 c 0,-2.21 -1.79,-4 -4,-4 z m -18,28 -10,-10 2.83,-2.83 7.17,7.17 15.17,-15.17 2.83,2.83 -18,18 z"
         id="path3117-5-6" />
    </g>
    <g
       id="g3142"
       transform="matrix(1.5000001,0,0,1.5000001,-32.588671,-508.29424)">
      <path
         transform="matrix(2.0741799,0,0,1.7193861,-51.536117,895.77638)"
         d="m 140.66374,-22.874395 c 0,5.299972 -3.56156,9.596449 -7.95495,9.596449 -4.3934,0 -7.95496,-4.296477 -7.95496,-9.596449 0,-5.299973 3.56156,-9.596449 7.95496,-9.596449 4.39339,0 7.95495,4.296476 7.95495,9.596449 z"
         sodipodi:ry="9.5964489"
         sodipodi:rx="7.9549513"
         sodipodi:cy="-22.874395"
         sodipodi:cx="132.70879"
         id="path4818-99"
         style="fill:#39b253;fill-opacity:1"
         sodipodi:type="arc" />
      <path
         style="fill:#80cbc4;fill-opacity:1"
         inkscape:connector-curvature="0"
         d="m 237.72578,838.44648 h -28 c -2.21,0 -4,1.79 -4,4 v 28 c 0,2.21 1.79,3.99996 4,3.99996 h 28 c 2.21,0 4,-1.78996 4,-3.99996 v -28 c 0,-2.21 -1.79,-4 -4,-4 z m -18,28 -10,-10 2.83,-2.83 7.17,7.17 15.17,-15.17 2.83,2.83 -18,18 z"
         id="path3117-7-4" />
    </g>
  </g>
</svg>
