<?xml version="1.0" encoding="UTF-8" standalone="no"?>
<!-- Created with Inkscape (http://www.inkscape.org/) -->

<svg
   xmlns:dc="http://purl.org/dc/elements/1.1/"
   xmlns:cc="http://creativecommons.org/ns#"
   xmlns:rdf="http://www.w3.org/1999/02/22-rdf-syntax-ns#"
   xmlns:svg="http://www.w3.org/2000/svg"
   xmlns="http://www.w3.org/2000/svg"
   xmlns:xlink="http://www.w3.org/1999/xlink"
   xmlns:sodipodi="http://sodipodi.sourceforge.net/DTD/sodipodi-0.dtd"
   xmlns:inkscape="http://www.inkscape.org/namespaces/inkscape"
   width="77.600006"
   height="298.39999"
   id="svg3107"
   version="1.1"
   inkscape:version="0.92.1 r"
   sodipodi:docname="material_checkboxes.svg"
   inkscape:export-filename="C:\Users\Adam\Desktop\checkboxes.png"
   inkscape:export-xdpi="90"
   inkscape:export-ydpi="90"
   viewBox="0 0 72.750003 279.74999">
  <defs
     id="defs3109">
    <linearGradient
       id="RainbowGradient">
      <stop
         id="red"
         offset="0"
         style="stop-color:#ff0000;stop-opacity:1;" />
      <stop
         id="yellow"
         offset="0.2"
         style="stop-color:#ffff00;stop-opacity:1;" />
      <stop
         id="green"
         offset="0.4"
         style="stop-color:#00ff00;stop-opacity:1;" />
      <stop
         id="cyan"
         offset="0.6"
         style="stop-color:#00ffff;stop-opacity:1;" />
      <stop
         id="blue"
         offset="0.8"
         style="stop-color:#0000ff;stop-opacity:1;" />
      <stop
         id="magenta"
         style="stop-color:#ff00ff;stop-opacity:1;"
         offset="1" />
    </linearGradient>
    <linearGradient
       id="RainbowGradient-2">
      <stop
         id="red-9"
         offset="0"
         style="stop-color:#ff0000;stop-opacity:1;" />
      <stop
         id="yellow-4"
         offset="0.2"
         style="stop-color:#ffff00;stop-opacity:1;" />
      <stop
         id="green-2"
         offset="0.4"
         style="stop-color:#00ff00;stop-opacity:1;" />
      <stop
         id="cyan-2"
         offset="0.6"
         style="stop-color:#00ffff;stop-opacity:1;" />
      <stop
         id="blue-5"
         offset="0.8"
         style="stop-color:#0000ff;stop-opacity:1;" />
      <stop
         id="magenta-3"
         style="stop-color:#ff00ff;stop-opacity:1;"
         offset="1" />
    </linearGradient>
    <linearGradient
       id="RainbowGradient-9">
      <stop
         id="red-8"
         offset="0"
         style="stop-color:#ff0000;stop-opacity:1;" />
      <stop
         id="yellow-7"
         offset="0.2"
         style="stop-color:#ffff00;stop-opacity:1;" />
      <stop
         id="green-9"
         offset="0.4"
         style="stop-color:#00ff00;stop-opacity:1;" />
      <stop
         id="cyan-26"
         offset="0.6"
         style="stop-color:#00ffff;stop-opacity:1;" />
      <stop
         id="blue-4"
         offset="0.8"
         style="stop-color:#0000ff;stop-opacity:1;" />
      <stop
         id="magenta-5"
         style="stop-color:#ff00ff;stop-opacity:1;"
         offset="1" />
    </linearGradient>
    <linearGradient
       id="RainbowGradient-2-3">
      <stop
         id="red-9-7"
         offset="0"
         style="stop-color:#ff0000;stop-opacity:1;" />
      <stop
         id="yellow-4-9"
         offset="0.2"
         style="stop-color:#ffff00;stop-opacity:1;" />
      <stop
         id="green-2-2"
         offset="0.4"
         style="stop-color:#00ff00;stop-opacity:1;" />
      <stop
         id="cyan-2-6"
         offset="0.6"
         style="stop-color:#00ffff;stop-opacity:1;" />
      <stop
         id="blue-5-3"
         offset="0.8"
         style="stop-color:#0000ff;stop-opacity:1;" />
      <stop
         id="magenta-3-2"
         style="stop-color:#ff00ff;stop-opacity:1;"
         offset="1" />
    </linearGradient>
    <linearGradient
       inkscape:collect="always"
       xlink:href="#RainbowGradient-2-3"
       id="linearGradient3243"
       gradientUnits="userSpaceOnUse"
       x1="633.63342"
       y1="-43.946968"
       x2="701.50647"
       y2="-43.946968" />
    <linearGradient
       inkscape:collect="always"
       xlink:href="#RainbowGradient-9"
       id="linearGradient3245"
       gradientUnits="userSpaceOnUse"
       x1="633.63342"
       y1="-43.946968"
       x2="701.50647"
       y2="-43.946968" />
    <linearGradient
       inkscape:collect="always"
       xlink:href="#RainbowGradient-2"
       id="linearGradient3247"
       gradientUnits="userSpaceOnUse"
       x1="633.63342"
       y1="-43.946968"
       x2="701.50647"
       y2="-43.946968" />
    <linearGradient
       inkscape:collect="always"
       xlink:href="#RainbowGradient"
       id="linearGradient3249"
       gradientUnits="userSpaceOnUse"
       x1="633.63342"
       y1="-43.946968"
       x2="701.50647"
       y2="-43.946968" />
  </defs>
  <sodipodi:namedview
     id="base"
     pagecolor="#ffffff"
     bordercolor="#666666"
     borderopacity="1.0"
     inkscape:pageopacity="0.0"
     inkscape:pageshadow="2"
     inkscape:zoom="2.154647"
     inkscape:cx="-147.18474"
     inkscape:cy="114.76437"
     inkscape:document-units="px"
     inkscape:current-layer="layer1"
     showgrid="false"
     fit-margin-top="10"
     fit-margin-left="10"
     fit-margin-right="10"
     fit-margin-bottom="10"
     inkscape:window-width="1916"
     inkscape:window-height="1041"
     inkscape:window-x="0"
     inkscape:window-y="18"
     inkscape:window-maximized="0" />
  <metadata
     id="metadata3112">
    <rdf:RDF>
      <cc:Work
         rdf:about="">
        <dc:format>image/svg+xml</dc:format>
        <dc:type
           rdf:resource="http://purl.org/dc/dcmitype/StillImage" />
        <dc:title></dc:title>
      </cc:Work>
    </rdf:RDF>
  </metadata>
  <g
     inkscape:label="Layer 1"
     inkscape:groupmode="layer"
     id="layer1"
     transform="translate(-404.62503,-740.00056)">
    <g
       id="g3170"
       transform="matrix(1.5000001,0,0,1.5000001,-45.000062,-529.507)">
      <ellipse
         transform="matrix(-0.34432559,0.34432559,-0.36909717,-0.36909717,537.64075,716.50618)"
         id="path3146-1"
         style="fill:url(#linearGradient3247);fill-opacity:1;stroke:none"
         cx="667.56995"
         cy="-43.946968"
         rx="33.936512"
         ry="31.658895" />
      <path
         style="fill:#009688;fill-opacity:1"
         inkscape:connector-curvature="0"
         d="m 338.00004,944.58832 h -28 c -2.21,0 -4,1.79 -4,4 v 28 c 0,2.21 1.79,3.99996 4,3.99996 h 28 c 2.21,0 4,-1.78996 4,-3.99996 v -28 c 0,-2.21 -1.79,-4 -4,-4 z m -18,28 -10,-10 2.83,-2.83 7.17,7.17 15.17,-15.17 2.83,2.83 z"
         id="path3117-07-6" />
    </g>
    <g
       id="g3174"
       transform="matrix(1.5000001,0,0,1.5000001,-45.000062,-537.00702)">
      <ellipse
         transform="matrix(-0.29170632,0.29170632,-0.31269236,-0.31269236,504.99253,805.11211)"
         id="path3146"
         style="fill:url(#linearGradient3249);fill-opacity:1;stroke:none"
         cx="667.56995"
         cy="-43.946968"
         rx="33.936512"
         ry="31.658895" />
      <path
         style="fill:#009688;fill-opacity:1"
         inkscape:connector-curvature="0"
         d="m 338.00004,999.58832 v 27.99998 h -28 v -27.99998 h 28 m 0,-4 h -28 c -2.21,0 -4,1.79 -4,4 v 27.99998 c 0,2.21 1.79,4 4,4 h 28 c 2.21,0 4,-1.79 4,-4 v -27.99998 c 0,-2.21 -1.79,-4 -4,-4 z"
         id="path3128-5" />
    </g>
    <g
       id="g3162"
       transform="matrix(1.5000001,0,0,1.5000001,-45.000062,-514.50693)">
      <ellipse
         transform="matrix(-0.34432559,0.34432559,-0.36909717,-0.36909717,537.64075,614.50613)"
         id="path3146-1-6"
         style="fill:url(#linearGradient3243);fill-opacity:1;stroke:none"
         cx="667.56995"
         cy="-43.946968"
         rx="33.936512"
         ry="31.658895" />
      <path
         style="fill:#80cbc4;fill-opacity:1"
         inkscape:connector-curvature="0"
         d="m 338.00004,842.58827 h -28 c -2.21,0 -4,1.79 -4,4 v 28 c 0,2.21 1.79,3.99996 4,3.99996 h 28 c 2.21,0 4,-1.78996 4,-3.99996 v -28 c 0,-2.21 -1.79,-4 -4,-4 z m -18,28 -10,-10 2.83,-2.83 7.17,7.17 15.17,-15.17 2.83,2.83 z"
         id="path3117-07-6-5" />
    </g>
    <g
       id="g3238"
       transform="matrix(1.5000001,0,0,1.5000001,-45.000062,-522.00696)">
      <g
         id="g3166">
        <ellipse
           style="fill:url(#linearGradient3245);fill-opacity:1;stroke:none"
           id="path3146-8"
           transform="matrix(-0.29170632,0.29170632,-0.31269236,-0.31269236,504.99253,703.11206)"
           cx="667.56995"
           cy="-43.946968"
           rx="33.936512"
           ry="31.658895" />
        <path
           id="path3128-5-0"
           d="m 338.00004,897.58827 v 28 h -28 v -28 h 28 m 0,-4 h -28 c -2.21,0 -4,1.79 -4,4 v 28 c 0,2.21 1.79,4 4,4 h 28 c 2.21,0 4,-1.79 4,-4 v -28 c 0,-2.21 -1.79,-4 -4,-4 z"
           inkscape:connector-curvature="0"
           style="fill:#80cbc4;fill-opacity:1" />
      </g>
    </g>
  </g>
</svg>
