<?xml version="1.0" encoding="UTF-8" standalone="no"?>
<svg
   height="512"
   width="512"
   id="svg2"
   version="1.1"
   inkscape:version="1.1.1 (3bf5ae0d25, 2021-09-20)"
   sodipodi:docname="mtgfam-icon-material_no-shadow.svg"
   inkscape:export-filename="C:\Users\Adam Feinstein\Desktop\ic_launcher.png"
   inkscape:export-xdpi="33.75"
   inkscape:export-ydpi="33.75"
   xmlns:inkscape="http://www.inkscape.org/namespaces/inkscape"
   xmlns:sodipodi="http://sodipodi.sourceforge.net/DTD/sodipodi-0.dtd"
   xmlns:xlink="http://www.w3.org/1999/xlink"
   xmlns="http://www.w3.org/2000/svg"
   xmlns:svg="http://www.w3.org/2000/svg"
   xmlns:rdf="http://www.w3.org/1999/02/22-rdf-syntax-ns#"
   xmlns:cc="http://creativecommons.org/ns#"
   xmlns:dc="http://purl.org/dc/elements/1.1/">
  <metadata
     id="metadata10">
    <rdf:RDF>
      <cc:Work
         rdf:about="">
        <dc:format>image/svg+xml</dc:format>
        <dc:type
           rdf:resource="http://purl.org/dc/dcmitype/StillImage" />
      </cc:Work>
    </rdf:RDF>
  </metadata>
  <defs
     id="defs8">
    <linearGradient
       id="linearGradient3885">
      <stop
         style="stop-color:#ffffff;stop-opacity:0.10196079;"
         offset="0"
         id="stop3887" />
      <stop
         style="stop-color:#ffffff;stop-opacity:0;"
         offset="1"
         id="stop3889" />
    </linearGradient>
    <linearGradient
       id="linearGradient3840">
      <stop
         style="stop-color:#ffffff;stop-opacity:0.10196079;"
         offset="0"
         id="stop3842" />
      <stop
         style="stop-color:#ffffff;stop-opacity:0;"
         offset="1"
         id="stop3844" />
    </linearGradient>
    <linearGradient
       id="linearGradient3778">
      <stop
         style="stop-color:#000000;stop-opacity:0.3137255;"
         offset="0"
         id="stop3780" />
      <stop
         id="stop3788"
         offset="0.3611111"
         style="stop-color:#000000;stop-opacity:0.3137255;" />
      <stop
         style="stop-color:#000000;stop-opacity:0;"
         offset="1"
         id="stop3782" />
    </linearGradient>
    <clipPath
       id="presentation_clip_path"
       clipPathUnits="userSpaceOnUse">
      <rect
         x="0"
         y="0"
         width="14183"
         height="14356"
         id="rect4277" />
    </clipPath>
    <g
       id="bullet-char-template57356"
       transform="scale(4.8828125e-4,-4.8828125e-4)">
      <path
         d="M 580,1141 1163,571 580,0 -4,571 580,1141 z"
         id="path4284"
         inkscape:connector-curvature="0" />
    </g>
    <g
       id="bullet-char-template57354"
       transform="scale(4.8828125e-4,-4.8828125e-4)">
      <path
         d="m 8,1128 1129,0 L 1137,0 8,0 8,1128 z"
         id="path4287"
         inkscape:connector-curvature="0" />
    </g>
    <g
       id="bullet-char-template10146"
       transform="scale(4.8828125e-4,-4.8828125e-4)">
      <path
         d="M 174,0 602,739 174,1481 1456,739 174,0 z m 1184,739 -1049,607 350,-607 699,0 z"
         id="path4290"
         inkscape:connector-curvature="0" />
    </g>
    <g
       id="bullet-char-template10132"
       transform="scale(4.8828125e-4,-4.8828125e-4)">
      <path
         d="M 2015,739 1276,0 717,0 l 543,543 -1086,0 0,393 1086,0 -543,545 557,0 741,-742 z"
         id="path4293"
         inkscape:connector-curvature="0" />
    </g>
    <g
       id="bullet-char-template10007"
       transform="scale(4.8828125e-4,-4.8828125e-4)">
      <path
         d="m 0,-2 c -7,16 -16,29 -25,39 l 381,530 c -94,256 -141,385 -141,387 0,25 13,38 40,38 9,0 21,-2 34,-5 21,4 42,12 65,25 l 27,-13 111,-251 280,301 64,-25 24,25 c 21,-10 41,-24 62,-43 C 886,937 835,863 770,784 769,783 710,716 594,584 L 774,223 c 0,-27 -21,-55 -63,-84 l 16,-20 C 717,90 699,76 672,76 641,76 570,178 457,381 L 164,-76 c -22,-34 -53,-51 -92,-51 -42,0 -63,17 -64,51 -7,9 -10,24 -10,44 0,9 1,19 2,30 z"
         id="path4296"
         inkscape:connector-curvature="0" />
    </g>
    <g
       id="bullet-char-template10004"
       transform="scale(4.8828125e-4,-4.8828125e-4)">
      <path
         d="M 285,-33 C 182,-33 111,30 74,156 52,228 41,333 41,471 c 0,78 14,145 41,201 34,71 87,106 158,106 53,0 88,-31 106,-94 l 23,-176 c 8,-64 28,-97 59,-98 l 735,706 c 11,11 33,17 66,17 42,0 63,-15 63,-46 l 0,-122 c 0,-36 -10,-64 -30,-84 L 442,47 C 390,-6 338,-33 285,-33 z"
         id="path4299"
         inkscape:connector-curvature="0" />
    </g>
    <g
       id="bullet-char-template9679"
       transform="scale(4.8828125e-4,-4.8828125e-4)">
      <path
         d="M 813,0 C 632,0 489,54 383,161 276,268 223,411 223,592 c 0,181 53,324 160,431 106,107 249,161 430,161 179,0 323,-54 432,-161 108,-107 162,-251 162,-431 0,-180 -54,-324 -162,-431 C 1136,54 992,0 813,0 z"
         id="path4302"
         inkscape:connector-curvature="0" />
    </g>
    <g
       id="bullet-char-template8226"
       transform="scale(4.8828125e-4,-4.8828125e-4)">
      <path
         d="m 346,457 c -73,0 -137,26 -191,78 -54,51 -81,114 -81,188 0,73 27,136 81,188 54,52 118,78 191,78 73,0 134,-26 185,-79 51,-51 77,-114 77,-187 0,-75 -25,-137 -76,-188 -50,-52 -112,-78 -186,-78 z"
         id="path4305"
         inkscape:connector-curvature="0" />
    </g>
    <g
       id="bullet-char-template8211"
       transform="scale(4.8828125e-4,-4.8828125e-4)">
      <path
         d="m -4,459 1139,0 0,147 -1139,0 0,-147 z"
         id="path4308"
         inkscape:connector-curvature="0" />
    </g>
    <linearGradient
       inkscape:collect="always"
       xlink:href="#linearGradient3778"
       id="linearGradient3784"
       x1="40.300671"
       y1="27.162119"
       x2="318.17331"
       y2="305.03476"
       gradientUnits="userSpaceOnUse" />
    <filter
       id="filter3824"
       inkscape:label="Drop shadow"
       width="1.237579"
       height="1.3338948"
       x="-0.11878948"
       y="-0.13816336">
      <feGaussianBlur
         id="feGaussianBlur3826"
         in="SourceAlpha"
         stdDeviation="6"
         result="blur" />
      <feColorMatrix
         id="feColorMatrix3828"
         result="bluralpha"
         type="matrix"
         values="1 0 0 0 0 0 1 0 0 0 0 0 1 0 0 0 0 0 0.2 0 " />
      <feOffset
         id="feOffset3830"
         in="bluralpha"
         dx="0"
         dy="6"
         result="offsetBlur" />
      <feMerge
         id="feMerge3832">
        <feMergeNode
           id="feMergeNode3834"
           in="offsetBlur" />
        <feMergeNode
           id="feMergeNode3836"
           in="SourceGraphic" />
      </feMerge>
    </filter>
    <radialGradient
       inkscape:collect="always"
       xlink:href="#linearGradient3840"
       id="radialGradient3846"
       cx="164.84543"
       cy="157.00168"
       fx="164.84543"
       fy="157.00168"
       r="169.16553"
       gradientUnits="userSpaceOnUse"
       gradientTransform="matrix(2,0,0,2,-334.01097,-326.16722)" />
    <radialGradient
       inkscape:collect="always"
       xlink:href="#linearGradient3840"
       id="radialGradient3865"
       gradientUnits="userSpaceOnUse"
       gradientTransform="matrix(4.2518593e-6,1.9909904,-1.9938284,4.271034e-6,330.18415,64.266274)"
       cx="-3.7923853"
       cy="326.15503"
       fx="-3.7923853"
       fy="326.15503"
       r="169.16553" />
    <radialGradient
       inkscape:collect="always"
       xlink:href="#linearGradient3840"
       id="radialGradient3890"
       gradientUnits="userSpaceOnUse"
       gradientTransform="matrix(4.2518593e-6,1.9909904,-1.9938284,4.271034e-6,646.50477,-4.0869164)"
       cx="-3.7923853"
       cy="326.15503"
       fx="-3.7923853"
       fy="326.15503"
       r="169.16553" />
    <radialGradient
       inkscape:collect="always"
       xlink:href="#linearGradient3885"
       id="radialGradient3891"
       cx="-214.36087"
       cy="325.83517"
       fx="-214.36087"
       fy="325.83517"
       r="80.788612"
       gradientTransform="matrix(-0.00435929,3.7980729,-3.7832203,-0.00434224,1242.9456,818.90313)"
       gradientUnits="userSpaceOnUse" />
  </defs>
  <sodipodi:namedview
     pagecolor="#ffffff"
     bordercolor="#666666"
     borderopacity="1"
     objecttolerance="10"
     gridtolerance="10"
     guidetolerance="10"
     inkscape:pageopacity="0"
     inkscape:pageshadow="2"
     inkscape:window-width="1857"
     inkscape:window-height="1177"
     id="namedview6"
     showgrid="false"
     inkscape:zoom="1.3244442"
     inkscape:cx="108.72486"
     inkscape:cy="304.6561"
     inkscape:window-x="55"
     inkscape:window-y="-8"
     inkscape:window-maximized="1"
     inkscape:current-layer="g3796"
     fit-margin-top="5"
     fit-margin-left="5"
     fit-margin-right="5"
     fit-margin-bottom="5"
     showguides="true"
     inkscape:guide-bbox="true"
     inkscape:object-nodes="false"
     inkscape:snap-global="true"
     inkscape:snap-nodes="true"
     inkscape:snap-to-guides="true"
     inkscape:pagecheckerboard="0" />
  <g
     id="g3806"
     transform="matrix(0.54557123,0,0,0.54557123,6.0650732,330.3444)">
    <g
       id="g3796"
       transform="matrix(2.7738095,0,0,2.7738096,0.86619392,-571.76171)">
      <g
         id="g3816">
        <path
           id="path5084"
           d="m 164.84374,310.9654 c -28.34479,0 -52.43462,-6.45885 -76.982682,-20.62038 C 63.313012,276.16172 45.682052,258.53076 31.498744,233.98271 17.337219,209.43465 10.878372,185.34484 10.878372,157.00002 c 0,-28.34482 6.458847,-52.43464 20.620372,-76.982692 C 45.682052,55.469275 63.313012,37.838313 87.861058,23.655004 112.40912,9.4935034 136.49895,3.034635 164.84374,3.034635 c 28.34484,0 52.43464,6.4588684 76.98271,20.620369 24.54804,14.183309 42.179,31.814271 56.36231,56.362324 14.16151,24.548052 20.62037,48.637872 20.62037,76.982692 0,28.34482 -6.45886,52.43463 -20.62037,76.98269 -14.18331,24.54805 -31.81427,42.17901 -56.36231,56.36231 -24.54807,14.16153 -48.63787,20.62038 -76.98271,20.62038 l 0,0 z"
           inkscape:connector-curvature="0"
           style="fill:#e0e0e0;fill-opacity:1;stroke:none" />
        <path
           style="fill:#212121;fill-opacity:0.10196078;stroke:none"
           d="m 10.933047,153.50079 c -0.02257,1.16666 -0.05459,2.31811 -0.05459,3.49922 0,28.34481 6.451027,52.43462 20.612552,76.98268 14.183308,24.54805 31.822088,42.18683 56.370134,56.37014 24.547977,14.16152 48.637807,20.61255 76.982597,20.61255 28.34484,0 52.43463,-6.45103 76.98269,-20.61255 24.54805,-14.18331 42.18683,-31.82209 56.37013,-56.37014 14.16151,-24.54806 20.61256,-48.63787 20.61256,-76.98268 0,-1.18111 -0.0322,-2.33256 -0.0546,-3.49922 -0.5179,26.83174 -6.98646,49.9583 -20.55788,73.48348 -14.18339,24.54804 -31.82217,42.18682 -56.37022,56.37013 -24.54806,14.16153 -48.63785,20.61255 -76.98269,20.61255 -28.34479,0 -52.43462,-6.45102 -76.982684,-20.61255 C 63.313012,269.17109 45.674231,251.53231 31.490924,226.98427 17.919488,203.45909 11.450948,180.33253 10.933047,153.50079 z"
           id="path5086"
           inkscape:connector-curvature="0" />
        <path
           style="fill:#ffffff;fill-opacity:0.4;stroke:none"
           d="m 164.84374,3.034635 c -28.34479,0 -52.43462,6.4510511 -76.982682,20.612552 C 63.313012,37.830496 45.674231,55.469268 31.490924,80.017321 17.329399,104.56537 10.878372,128.65518 10.878372,157.00001 c 0,1.18109 0.03219,2.33255 0.05459,3.49921 0.517901,-26.83174 6.986441,-49.95831 20.557876,-73.483473 C 45.674231,62.467694 63.313012,44.828922 87.861058,30.645613 112.40912,16.484112 136.49895,10.033061 164.84374,10.033061 c 28.34484,0 52.43463,6.451051 76.98269,20.612552 24.54805,14.183309 42.18683,31.822081 56.37013,56.370134 13.57142,23.525163 20.03998,46.651733 20.55788,73.483473 0.0225,-1.16666 0.0547,-2.31812 0.0547,-3.49921 0,-28.34483 -6.45105,-52.43464 -20.61256,-76.982689 C 284.01326,55.469268 266.37448,37.830496 241.82643,23.647187 217.27837,9.4856861 193.18858,3.034635 164.84374,3.034635 z"
           id="path5088"
           inkscape:connector-curvature="0" />
      </g>
      <g
         id="g3799">
        <path
           inkscape:connector-curvature="0"
           style="fill:#616161;fill-opacity:1;stroke:none;filter:url(#filter3824)"
           d="m 164.71875,163.65625 a 3.4995629,3.4995629 0 0 0 -2.625,1.4375 l -70.625,97.21875 a 3.4995629,3.4995629 0 0 0 2.8125,5.5625 h 141.25 a 3.4995629,3.4995629 0 0 0 2.8125,-5.5625 L 167.75,165.09375 a 3.4995629,3.4995629 0 0 0 -3.03125,-1.4375 z"
           id="path5092" />
        <path
           inkscape:connector-curvature="0"
           style="fill:#1976d2;fill-opacity:1;stroke:none;filter:url(#filter3824)"
           d="m 292.46875,119.375 a 3.4995629,3.4995629 0 0 0 -0.34375,0.0312 3.4995629,3.4995629 0 0 0 -0.6875,0.15625 L 177.15625,156.7187 a 3.4995629,3.4995629 0 0 0 -1.75,5.375 l 70.625,97.1875 a 3.4995629,3.4995629 0 0 0 6.15625,-0.96875 L 295.84375,123.9687 a 3.4995629,3.4995629 0 0 0 -3.375,-4.59375 z"
           id="path5094" />
        <path
           inkscape:connector-curvature="0"
           style="fill:#fafafa;fill-opacity:1;stroke:none;filter:url(#filter3824)"
           d="m 172.8125,21.6875 a 3.4995629,3.4995629 0 0 0 -3.25,3.46875 V 145.3125 a 3.4995629,3.4995629 0 0 0 4.59375,3.3125 l 114.25,-37.125 a 3.4995629,3.4995629 0 0 0 0.96875,-6.15625 l -114.25,-83 a 3.4995629,3.4995629 0 0 0 -2.3125,-0.65625 z"
           id="path5096" />
        <path
           inkscape:connector-curvature="0"
           style="fill:#4caf50;fill-opacity:1;stroke:none;filter:url(#filter3824)"
           d="m 157.03125,21.65625 a 3.4995629,3.4995629 0 0 0 -0.34375,0.03125 3.4995629,3.4995629 0 0 0 -1.59375,0.65625 l -114.25,83 A 3.4995629,3.4995629 0 0 0 41.8125,111.5 l 114.25,37.125 a 3.4995629,3.4995629 0 0 0 4.5625,-3.3125 V 25.15625 a 3.4995629,3.4995629 0 0 0 -3.59375,-3.5 z"
           id="path5098" />
        <path
           inkscape:connector-curvature="0"
           style="fill:#f44336;fill-opacity:1;stroke:none;filter:url(#filter3824)"
           d="m 37,119.40625 a 3.4995629,3.4995629 0 0 0 -3.03125,4.5625 L 77.625,258.3125 a 3.4995629,3.4995629 0 0 0 6.15625,0.96875 l 70.625,-97.1875 a 3.4995629,3.4995629 0 0 0 -1.75,-5.375 L 38.375,119.5625 A 3.4995629,3.4995629 0 0 0 37,119.40625 Z"
           id="path5100" />
      </g>
      <path
         style="fill:url(#radialGradient3891);fill-opacity:1;stroke:none"
         id="path3863"
         cx="164.84375"
         cy="157.00002"
         rx="153.96707"
         ry="153.96706" />
    </g>
  </g>
</svg>
