<?xml version="1.0" encoding="UTF-8" standalone="no"?>
<svg
   xmlns:dc="http://purl.org/dc/elements/1.1/"
   xmlns:cc="http://creativecommons.org/ns#"
   xmlns:rdf="http://www.w3.org/1999/02/22-rdf-syntax-ns#"
   xmlns:svg="http://www.w3.org/2000/svg"
   xmlns="http://www.w3.org/2000/svg"
   xmlns:sodipodi="http://sodipodi.sourceforge.net/DTD/sodipodi-0.dtd"
   xmlns:inkscape="http://www.inkscape.org/namespaces/inkscape"
   height="314"
   width="329.6875"
   id="svg2"
   version="1.1"
   inkscape:version="0.48.5 r10040"
   sodipodi:docname="mtgfam-icon-material.svg"
   inkscape:export-filename="/home/mfshick/mtgfam-material-example.png"
   inkscape:export-xdpi="279.53745"
   inkscape:export-ydpi="279.53745">
  <metadata
     id="metadata10">
    <rdf:RDF>
      <cc:Work
         rdf:about="">
        <dc:format>image/svg+xml</dc:format>
        <dc:type
           rdf:resource="http://purl.org/dc/dcmitype/StillImage" />
        <dc:title></dc:title>
      </cc:Work>
    </rdf:RDF>
  </metadata>
  <defs
     id="defs8">
    <clipPath
       id="presentation_clip_path"
       clipPathUnits="userSpaceOnUse">
      <rect
         x="0"
         y="0"
         width="14183"
         height="14356"
         id="rect4277" />
    </clipPath>
    <g
       id="bullet-char-template57356"
       transform="scale(0.00048828125,-0.00048828125)">
      <path
         d="M 580,1141 L 1163,571 580,0 -4,571 580,1141 Z"
         id="path4284" />
    </g>
    <g
       id="bullet-char-template57354"
       transform="scale(0.00048828125,-0.00048828125)">
      <path
         d="M 8,1128 L 1137,1128 1137,0 8,0 8,1128 Z"
         id="path4287" />
    </g>
    <g
       id="bullet-char-template10146"
       transform="scale(0.00048828125,-0.00048828125)">
      <path
         d="M 174,0 L 602,739 174,1481 1456,739 174,0 Z M 1358,739 L 309,1346 659,739 1358,739 Z"
         id="path4290" />
    </g>
    <g
       id="bullet-char-template10132"
       transform="scale(0.00048828125,-0.00048828125)">
      <path
         d="M 2015,739 L 1276,0 717,0 1260,543 174,543 174,936 1260,936 717,1481 1274,1481 2015,739 Z"
         id="path4293" />
    </g>
    <g
       id="bullet-char-template10007"
       transform="scale(0.00048828125,-0.00048828125)">
      <path
         d="M 0,-2 C -7,14 -16,27 -25,37 L 356,567 C 262,823 215,952 215,954 215,979 228,992 255,992 264,992 276,990 289,987 310,991 331,999 354,1012 L 381,999 492,748 772,1049 836,1024 860,1049 C 881,1039 901,1025 922,1006 886,937 835,863 770,784 769,783 710,716 594,584 L 774,223 C 774,196 753,168 711,139 L 727,119 C 717,90 699,76 672,76 641,76 570,178 457,381 L 164,-76 C 142,-110 111,-127 72,-127 30,-127 9,-110 8,-76 1,-67 -2,-52 -2,-32 -2,-23 -1,-13 0,-2 Z"
         id="path4296" />
    </g>
    <g
       id="bullet-char-template10004"
       transform="scale(0.00048828125,-0.00048828125)">
      <path
         d="M 285,-33 C 182,-33 111,30 74,156 52,228 41,333 41,471 41,549 55,616 82,672 116,743 169,778 240,778 293,778 328,747 346,684 L 369,508 C 377,444 397,411 428,410 L 1163,1116 C 1174,1127 1196,1133 1229,1133 1271,1133 1292,1118 1292,1087 L 1292,965 C 1292,929 1282,901 1262,881 L 442,47 C 390,-6 338,-33 285,-33 Z"
         id="path4299" />
    </g>
    <g
       id="bullet-char-template9679"
       transform="scale(0.00048828125,-0.00048828125)">
      <path
         d="M 813,0 C 632,0 489,54 383,161 276,268 223,411 223,592 223,773 276,916 383,1023 489,1130 632,1184 813,1184 992,1184 1136,1130 1245,1023 1353,916 1407,772 1407,592 1407,412 1353,268 1245,161 1136,54 992,0 813,0 Z"
         id="path4302" />
    </g>
    <g
       id="bullet-char-template8226"
       transform="scale(0.00048828125,-0.00048828125)">
      <path
         d="M 346,457 C 273,457 209,483 155,535 101,586 74,649 74,723 74,796 101,859 155,911 209,963 273,989 346,989 419,989 480,963 531,910 582,859 608,796 608,723 608,648 583,586 532,535 482,483 420,457 346,457 Z"
         id="path4305" />
    </g>
    <g
       id="bullet-char-template8211"
       transform="scale(0.00048828125,-0.00048828125)">
      <path
         d="M -4,459 L 1135,459 1135,606 -4,606 -4,459 Z"
         id="path4308" />
    </g>
  </defs>
  <sodipodi:namedview
     pagecolor="#ffffff"
     bordercolor="#666666"
     borderopacity="1"
     objecttolerance="10"
     gridtolerance="10"
     guidetolerance="10"
     inkscape:pageopacity="0"
     inkscape:pageshadow="2"
     inkscape:window-width="1855"
     inkscape:window-height="1056"
     id="namedview6"
     showgrid="false"
     inkscape:zoom="1.2127575"
     inkscape:cx="111.62031"
     inkscape:cy="156.862"
     inkscape:window-x="65"
     inkscape:window-y="24"
     inkscape:window-maximized="1"
     inkscape:current-layer="svg2"
     fit-margin-top="5"
     fit-margin-left="5"
     fit-margin-right="5"
     fit-margin-bottom="5"
     showguides="true"
     inkscape:guide-bbox="true"
     inkscape:object-nodes="false"
     inkscape:snap-global="true"
     inkscape:snap-nodes="true"
     inkscape:snap-to-guides="true" />
  <path
     style="fill:#e0e0e0;fill-opacity:1;stroke:none"
     inkscape:connector-curvature="0"
     d="m 164.84374,310.9654 c -28.34479,0 -52.43462,-6.45885 -76.982682,-20.62038 C 63.313012,276.16172 45.682052,258.53076 31.498744,233.98271 17.337219,209.43465 10.878372,185.34484 10.878372,157.00002 c 0,-28.34482 6.458847,-52.43464 20.620372,-76.982692 C 45.682052,55.469275 63.313012,37.838313 87.861058,23.655004 112.40912,9.4935034 136.49895,3.034635 164.84374,3.034635 c 28.34484,0 52.43464,6.4588684 76.98271,20.620369 24.54804,14.183309 42.179,31.814271 56.36231,56.362324 14.16151,24.548052 20.62037,48.637872 20.62037,76.982692 0,28.34482 -6.45886,52.43463 -20.62037,76.98269 -14.18331,24.54805 -31.81427,42.17901 -56.36231,56.36231 -24.54807,14.16153 -48.63787,20.62038 -76.98271,20.62038 l 0,0 z"
     id="path5084" />
  <path
     inkscape:connector-curvature="0"
     id="path5086"
     d="m 10.933047,153.50079 c -0.02257,1.16666 -0.05459,2.31811 -0.05459,3.49922 0,28.34481 6.451027,52.43462 20.612552,76.98268 14.183308,24.54805 31.822088,42.18683 56.370134,56.37014 24.547975,14.16152 48.637805,20.61255 76.982595,20.61255 28.34484,0 52.43463,-6.45103 76.98269,-20.61255 24.54805,-14.18331 42.18683,-31.82209 56.37013,-56.37014 14.16151,-24.54806 20.61256,-48.63787 20.61256,-76.98268 0,-1.18111 -0.0322,-2.33256 -0.0546,-3.49922 -0.5179,26.83174 -6.98646,49.9583 -20.55788,73.48348 -14.18339,24.54804 -31.82217,42.18682 -56.37022,56.37013 -24.54806,14.16153 -48.63785,20.61255 -76.98269,20.61255 -28.34479,0 -52.43462,-6.45102 -76.982682,-20.61255 C 63.313012,269.17109 45.674231,251.53231 31.490924,226.98427 17.919488,203.45909 11.450948,180.33253 10.933047,153.50079 z"
     style="fill:#212121;fill-opacity:0.10196078;stroke:none" />
  <path
     inkscape:connector-curvature="0"
     id="path5088"
     d="m 164.84374,3.034635 c -28.34479,0 -52.43462,6.4510511 -76.982682,20.612552 C 63.313012,37.830496 45.674231,55.469268 31.490924,80.017321 17.329399,104.56537 10.878372,128.65518 10.878372,157.00001 c 0,1.18109 0.03219,2.33255 0.05459,3.49921 0.517901,-26.83174 6.986441,-49.95831 20.557876,-73.483473 C 45.674231,62.467694 63.313012,44.828922 87.861058,30.645613 112.40912,16.484112 136.49895,10.033061 164.84374,10.033061 c 28.34484,0 52.43463,6.451051 76.98269,20.612552 24.54805,14.183309 42.18683,31.822081 56.37013,56.370134 13.57142,23.525163 20.03998,46.651733 20.55788,73.483473 0.0225,-1.16666 0.0547,-2.31812 0.0547,-3.49921 0,-28.34483 -6.45105,-52.43464 -20.61256,-76.982689 C 284.01326,55.469268 266.37448,37.830496 241.82643,23.647187 217.27837,9.4856861 193.18858,3.034635 164.84374,3.034635 z"
     style="fill:#ffffff;fill-opacity:0.4;stroke:none" />
  <path
     style="fill:#212121;stroke:none;stroke-width:1px;stroke-linecap:butt;stroke-linejoin:miter;stroke-opacity:1;fill-opacity:0.10196079"
     d="M 159.34375 22.5 L 40.1875 110.4375 L 125.3125 195.5625 L 78.03125 259.28125 L 114.4375 295.6875 L 124.625 305.875 C 137.35616 309.31772 150.55356 310.96875 164.84375 310.96875 C 193.18859 310.96875 217.26443 304.50528 241.8125 290.34375 C 266.36054 276.16045 284.00419 258.5168 298.1875 233.96875 C 312.34901 209.42069 318.8125 185.34482 318.8125 157 C 318.8125 148.63494 318.21953 140.65128 317.0625 132.90625 L 289.78125 105.625 L 253.46875 116.65625 L 159.34375 22.5 z "
     id="path5160" />
  <path
     style="fill:#616161;fill-opacity:1;stroke:none;stroke-width:6.99842595999999961;stroke-linejoin:round;stroke-miterlimit:4;stroke-opacity:1;stroke-dasharray:none"
     d="M 164.71875 163.65625 A 3.4995629 3.4995629 0 0 0 162.09375 165.09375 L 91.46875 262.3125 A 3.4995629 3.4995629 0 0 0 94.28125 267.875 L 235.53125 267.875 A 3.4995629 3.4995629 0 0 0 238.34375 262.3125 L 167.75 165.09375 A 3.4995629 3.4995629 0 0 0 164.71875 163.65625 z "
     id="path5092" />
  <path
     style="fill:#1976d2;fill-opacity:1;stroke:none;stroke-width:6.99842595999999961;stroke-linejoin:round;stroke-miterlimit:4;stroke-opacity:1;stroke-dasharray:none"
     d="M 292.46875 119.375 A 3.4995629 3.4995629 0 0 0 292.125 119.40625 A 3.4995629 3.4995629 0 0 0 291.4375 119.5625 L 177.15625 156.71875 A 3.4995629 3.4995629 0 0 0 175.40625 162.09375 L 246.03125 259.28125 A 3.4995629 3.4995629 0 0 0 252.1875 258.3125 L 295.84375 123.96875 A 3.4995629 3.4995629 0 0 0 292.46875 119.375 z "
     id="path5094" />
  <path
     style="fill:#fafafa;fill-opacity:1;stroke:none;stroke-width:6.99842595999999961;stroke-linejoin:round;stroke-miterlimit:4;stroke-opacity:1;stroke-dasharray:none"
     d="M 172.8125 21.6875 A 3.4995629 3.4995629 0 0 0 169.5625 25.15625 L 169.5625 145.3125 A 3.4995629 3.4995629 0 0 0 174.15625 148.625 L 288.40625 111.5 A 3.4995629 3.4995629 0 0 0 289.375 105.34375 L 175.125 22.34375 A 3.4995629 3.4995629 0 0 0 172.8125 21.6875 z "
     id="path5096" />
  <path
     style="fill:#4caf50;fill-opacity:1;stroke:none;stroke-width:6.99842595999999961;stroke-linejoin:round;stroke-miterlimit:4;stroke-opacity:1;stroke-dasharray:none"
     d="M 157.03125 21.65625 A 3.4995629 3.4995629 0 0 0 156.6875 21.6875 A 3.4995629 3.4995629 0 0 0 155.09375 22.34375 L 40.84375 105.34375 A 3.4995629 3.4995629 0 0 0 41.8125 111.5 L 156.0625 148.625 A 3.4995629 3.4995629 0 0 0 160.625 145.3125 L 160.625 25.15625 A 3.4995629 3.4995629 0 0 0 157.03125 21.65625 z "
     id="path5098" />
  <path
     style="fill:#f44336;fill-opacity:1;stroke:none;stroke-width:6.99842595999999961;stroke-linejoin:round;stroke-miterlimit:4;stroke-opacity:1;stroke-dasharray:none"
     d="M 37 119.40625 A 3.4995629 3.4995629 0 0 0 33.96875 123.96875 L 77.625 258.3125 A 3.4995629 3.4995629 0 0 0 83.78125 259.28125 L 154.40625 162.09375 A 3.4995629 3.4995629 0 0 0 152.65625 156.71875 L 38.375 119.5625 A 3.4995629 3.4995629 0 0 0 37 119.40625 z "
     id="path5100" />
</svg>
