<?xml version="1.0" encoding="UTF-8" standalone="no"?>
<!--
  ~ Copyright 2017 Adam Feinstein
  ~
  ~ This file is part of MTG Familiar.
  ~
  ~ MTG Familiar is free software: you can redistribute it and/or modify
  ~ it under the terms of the GNU General Public License as published by
  ~ the Free Software Foundation, either version 3 of the License, or
  ~ (at your option) any later version.
  ~
  ~ MTG Familiar is distributed in the hope that it will be useful,
  ~ but WITHOUT ANY WARRANTY; without even the implied warranty of
  ~ MERCHANTABILITY or FITNESS FOR A PARTICULAR PURPOSE.  See the
  ~ GNU General Public License for more details.
  ~
  ~ You should have received a copy of the GNU General Public License
  ~ along with MTG Familiar.  If not, see <http://www.gnu.org/licenses/>.
  -->

<svg
   height="108"
   width="108"
   id="svg2"
   version="1.1"
   inkscape:version="1.3.2 (091e20e, 2023-11-25, custom)"
   sodipodi:docname="mtgfam-icon-material-monochrome.svg"
   inkscape:export-filename="..\..\..\Desktop\ic_launcher_monochrome.png"
   inkscape:export-xdpi="96"
   inkscape:export-ydpi="96"
   xml:space="preserve"
   xmlns:inkscape="http://www.inkscape.org/namespaces/inkscape"
   xmlns:sodipodi="http://sodipodi.sourceforge.net/DTD/sodipodi-0.dtd"
   xmlns:xlink="http://www.w3.org/1999/xlink"
   xmlns="http://www.w3.org/2000/svg"
   xmlns:svg="http://www.w3.org/2000/svg"
   xmlns:rdf="http://www.w3.org/1999/02/22-rdf-syntax-ns#"
   xmlns:cc="http://creativecommons.org/ns#"
   xmlns:dc="http://purl.org/dc/elements/1.1/"><metadata
     id="metadata10"><rdf:RDF><cc:Work
         rdf:about=""><dc:format>image/svg+xml</dc:format><dc:type
           rdf:resource="http://purl.org/dc/dcmitype/StillImage" /></cc:Work></rdf:RDF></metadata><defs
     id="defs8"><linearGradient
       id="linearGradient3778-7"><stop
         id="stop4813"
         offset="0"
         style="stop-color:#000000;stop-opacity:0.3137255;" /><stop
         style="stop-color:#000000;stop-opacity:0.3137255;"
         offset="0.3611111"
         id="stop4815" /><stop
         id="stop4817"
         offset="1"
         style="stop-color:#000000;stop-opacity:0;" /></linearGradient><linearGradient
       id="linearGradient3778"><stop
         id="stop4806"
         offset="0"
         style="stop-color:#000000;stop-opacity:0.3137255;" /><stop
         style="stop-color:#000000;stop-opacity:0.3137255;"
         offset="0.3611111"
         id="stop4808" /><stop
         id="stop4810"
         offset="1"
         style="stop-color:#000000;stop-opacity:0;" /></linearGradient><linearGradient
       id="linearGradient3885"><stop
         style="stop-color:#ffffff;stop-opacity:0.10196079;"
         offset="0"
         id="stop3887" /><stop
         style="stop-color:#ffffff;stop-opacity:0;"
         offset="1"
         id="stop3889" /></linearGradient><linearGradient
       id="linearGradient3840"><stop
         style="stop-color:#ffffff;stop-opacity:0.10196079;"
         offset="0"
         id="stop3842" /><stop
         style="stop-color:#ffffff;stop-opacity:0;"
         offset="1"
         id="stop3844" /></linearGradient><linearGradient
       id="linearGradient3778-7-3"><stop
         style="stop-color:#000000;stop-opacity:0.3137255;"
         offset="0"
         id="stop3780" /><stop
         id="stop3788"
         offset="0.3611111"
         style="stop-color:#000000;stop-opacity:0.3137255;" /><stop
         style="stop-color:#000000;stop-opacity:0;"
         offset="1"
         id="stop3782" /></linearGradient><clipPath
       id="presentation_clip_path"
       clipPathUnits="userSpaceOnUse"><rect
         x="0"
         y="0"
         width="14183"
         height="14356"
         id="rect4277" /></clipPath><g
       id="bullet-char-template57356"
       transform="matrix(4.8828125e-4,0,0,-4.8828125e-4,0,0)"><path
         d="M 580,1141 1163,571 580,0 -4,571 Z"
         id="path4284"
         inkscape:connector-curvature="0" /></g><g
       id="bullet-char-template57354"
       transform="matrix(4.8828125e-4,0,0,-4.8828125e-4,0,0)"><path
         d="M 8,1128 H 1137 V 0 H 8 Z"
         id="path4287"
         inkscape:connector-curvature="0" /></g><g
       id="bullet-char-template10146"
       transform="matrix(4.8828125e-4,0,0,-4.8828125e-4,0,0)"><path
         d="M 174,0 602,739 174,1481 1456,739 Z M 1358,739 309,1346 659,739 Z"
         id="path4290"
         inkscape:connector-curvature="0" /></g><g
       id="bullet-char-template10132"
       transform="matrix(4.8828125e-4,0,0,-4.8828125e-4,0,0)"><path
         d="M 2015,739 1276,0 H 717 L 1260,543 H 174 V 936 H 1260 L 717,1481 H 1274 Z"
         id="path4293"
         inkscape:connector-curvature="0" /></g><g
       id="bullet-char-template10007"
       transform="matrix(4.8828125e-4,0,0,-4.8828125e-4,0,0)"><path
         d="M 0,-2 C -7,14 -16,27 -25,37 L 356,567 C 262,823 215,952 215,954 215,979 228,992 255,992 264,992 276,990 289,987 310,991 331,999 354,1012 L 381,999 492,748 772,1049 836,1024 860,1049 C 881,1039 901,1025 922,1006 886,937 835,863 770,784 769,783 710,716 594,584 L 774,223 C 774,196 753,168 711,139 L 727,119 C 717,90 699,76 672,76 641,76 570,178 457,381 L 164,-76 C 142,-110 111,-127 72,-127 30,-127 9,-110 8,-76 1,-67 -2,-52 -2,-32 -2,-23 -1,-13 0,-2 Z"
         id="path4296"
         inkscape:connector-curvature="0" /></g><g
       id="bullet-char-template10004"
       transform="matrix(4.8828125e-4,0,0,-4.8828125e-4,0,0)"><path
         d="M 285,-33 C 182,-33 111,30 74,156 52,228 41,333 41,471 41,549 55,616 82,672 116,743 169,778 240,778 293,778 328,747 346,684 L 369,508 C 377,444 397,411 428,410 L 1163,1116 C 1174,1127 1196,1133 1229,1133 1271,1133 1292,1118 1292,1087 V 965 C 1292,929 1282,901 1262,881 L 442,47 C 390,-6 338,-33 285,-33 Z"
         id="path4299"
         inkscape:connector-curvature="0" /></g><g
       id="bullet-char-template9679"
       transform="matrix(4.8828125e-4,0,0,-4.8828125e-4,0,0)"><path
         d="M 813,0 C 632,0 489,54 383,161 276,268 223,411 223,592 223,773 276,916 383,1023 489,1130 632,1184 813,1184 992,1184 1136,1130 1245,1023 1353,916 1407,772 1407,592 1407,412 1353,268 1245,161 1136,54 992,0 813,0 Z"
         id="path4302"
         inkscape:connector-curvature="0" /></g><g
       id="bullet-char-template8226"
       transform="matrix(4.8828125e-4,0,0,-4.8828125e-4,0,0)"><path
         d="M 346,457 C 273,457 209,483 155,535 101,586 74,649 74,723 74,796 101,859 155,911 209,963 273,989 346,989 419,989 480,963 531,910 582,859 608,796 608,723 608,648 583,586 532,535 482,483 420,457 346,457 Z"
         id="path4305"
         inkscape:connector-curvature="0" /></g><g
       id="bullet-char-template8211"
       transform="matrix(4.8828125e-4,0,0,-4.8828125e-4,0,0)"><path
         d="M -4,459 H 1135 V 606 H -4 Z"
         id="path4308"
         inkscape:connector-curvature="0" /></g><linearGradient
       inkscape:collect="always"
       xlink:href="#linearGradient3778-7-3"
       id="linearGradient3784"
       x1="40.30067062"
       y1="27.16211891"
       x2="318.1733093"
       y2="305.0347595"
       gradientUnits="userSpaceOnUse" /><filter
       id="filter3824"
       inkscape:label="Drop shadow"
       width="1.1098314"
       height="1.141337"
       x="-0.054915717"
       y="-0.058484278"><feGaussianBlur
         id="feGaussianBlur3826"
         in="SourceAlpha"
         stdDeviation="6"
         result="blur" /><feColorMatrix
         id="feColorMatrix3828"
         result="bluralpha"
         type="matrix"
         values="1 0 0 0 0 0 1 0 0 0 0 0 1 0 0 0 0 0 0.2 0 " /><feOffset
         id="feOffset3830"
         in="bluralpha"
         dx="0"
         dy="6"
         result="offsetBlur" /><feMerge
         id="feMerge3832"><feMergeNode
           id="feMergeNode3834"
           in="offsetBlur" /><feMergeNode
           id="feMergeNode3836"
           in="SourceGraphic" /></feMerge></filter><radialGradient
       inkscape:collect="always"
       xlink:href="#linearGradient3840"
       id="radialGradient3846"
       cx="164.8454285"
       cy="157.0016785"
       fx="164.8454285"
       fy="157.0016785"
       r="169.1655273"
       gradientUnits="userSpaceOnUse"
       gradientTransform="matrix(2,0,0,2,-334.01097,-326.16722)" /><radialGradient
       inkscape:collect="always"
       xlink:href="#linearGradient3840"
       id="radialGradient3865"
       gradientUnits="userSpaceOnUse"
       gradientTransform="matrix(4.2518593e-6,1.9909904,-1.9938284,4.271034e-6,330.18415,64.266274)"
       cx="-3.79238534"
       cy="326.1550293"
       fx="-3.79238534"
       fy="326.1550293"
       r="169.1655273" /><radialGradient
       inkscape:collect="always"
       xlink:href="#linearGradient3840"
       id="radialGradient3890"
       gradientUnits="userSpaceOnUse"
       gradientTransform="matrix(4.2518593e-6,1.9909904,-1.9938284,4.271034e-6,646.50477,-4.0869164)"
       cx="-3.79238534"
       cy="326.1550293"
       fx="-3.79238534"
       fy="326.1550293"
       r="169.1655273" /></defs><sodipodi:namedview
     pagecolor="#ffffff"
     bordercolor="#666666"
     borderopacity="1"
     objecttolerance="10"
     gridtolerance="10"
     guidetolerance="10"
     inkscape:pageopacity="0"
     inkscape:pageshadow="2"
     inkscape:window-width="1538"
     inkscape:window-height="1120"
     id="namedview6"
     showgrid="false"
     inkscape:zoom="5.6568542"
     inkscape:cx="31.908194"
     inkscape:cy="54.447223"
     inkscape:window-x="373"
     inkscape:window-y="0"
     inkscape:window-maximized="0"
     inkscape:current-layer="g3796"
     fit-margin-top="5"
     fit-margin-left="5"
     fit-margin-right="5"
     fit-margin-bottom="5"
     showguides="true"
     inkscape:guide-bbox="true"
     inkscape:object-nodes="false"
     inkscape:snap-global="true"
     inkscape:snap-nodes="true"
     inkscape:snap-to-guides="true"
     inkscape:pagecheckerboard="0"
     inkscape:showpageshadow="2"
     inkscape:deskcolor="#d1d1d1" /><g
     id="g3806"
     transform="matrix(0.54557123,0,0,0.54557123,6.0650732,-73.6556)"><g
       id="g3796"
       transform="matrix(2.7738095,0,0,2.7738096,0.86619392,-571.76171)"><path
         id="path5092-1"
         style="color:#000000;fill:#000000;stroke:none;stroke-width:5.94732;stroke-linecap:round;stroke-linejoin:round;stroke-dasharray:none"
         d="m 30.290707,272.40921 a 0.47623425,0.47623425 0 0 0 -0.04646,0.004 0.47623425,0.47623425 0 0 0 -0.216829,0.09 l -15.547822,11.29437 a 0.47623425,0.47623425 0 0 0 0.132615,0.83731 l 15.546849,5.05289 a 0.47623425,0.47623425 0 0 0 0.621448,-0.45108 v -16.35124 a 0.47623425,0.47623425 0 0 0 -0.489801,-0.47625 z m 2.147964,0.004 a 0.47623425,0.47623425 0 0 0 -0.44237,0.47238 v 16.35124 a 0.47623425,0.47623425 0 0 0 0.62532,0.45108 l 15.547817,-5.05289 a 0.47623425,0.47623425 0 0 0 0.131647,-0.83731 L 32.753267,272.50213 a 0.47623425,0.47623425 0 0 0 -0.314596,-0.089 z m 2.531288,5.37523 7.617095,5.53399 -7.617095,2.47514 z m -7.163109,0.003 v 8.00526 l -7.613223,-2.47417 z m 20.915309,7.91621 a 0.47623425,0.47623425 0 0 0 -0.04646,0.004 0.47623425,0.47623425 0 0 0 -0.0939,0.0213 l -15.55169,5.05676 a 0.47623425,0.47623425 0 0 0 -0.238125,0.73084 l 9.610182,13.22561 a 0.47623425,0.47623425 0 0 0 0.838277,-0.13164 l 5.94054,-18.28142 a 0.47623425,0.47623425 0 0 0 -0.458826,-0.62532 z m -34.765276,0.004 a 0.47623425,0.47623425 0 0 0 -0.412363,0.62048 l 5.94054,18.28239 a 0.47623425,0.47623425 0 0 0 0.838278,0.13164 l 9.610181,-13.22561 a 0.47623425,0.47623425 0 0 0 -0.238125,-0.7312 l -15.551689,-5.05676 a 0.47623425,0.47623425 0 0 0 -0.186822,-0.0213 z m 3.930997,4.36563 7.619031,2.47707 -4.708292,6.47971 z m 26.949745,0 -2.910739,8.95678 -4.708292,-6.47971 z m -13.500524,1.65622 a 0.47623425,0.47623425 0 0 0 -0.357187,0.19553 l -9.61115,13.22949 a 0.47623425,0.47623425 0 0 0 0.383323,0.75697 h 19.221331 a 0.47623425,0.47623425 0 0 0 0.383323,-0.75697 l -9.607277,-13.22949 a 0.47623425,0.47623425 0 0 0 -0.412363,-0.19553 z m 0.0271,4.72571 4.707323,6.48262 h -9.416583 z" /></g></g></svg>
