<?xml version="1.0" encoding="UTF-8" standalone="no"?>
<svg
   height="768"
   width="768"
   id="svg2"
   version="1.1"
   inkscape:version="1.1.1 (3bf5ae0d25, 2021-09-20)"
   sodipodi:docname="mtgfam-icon-material_nothing.svg"
   inkscape:export-filename="C:\Users\Adam Feinstein\Desktop\ic_launcher.png"
   inkscape:export-xdpi="33.75"
   inkscape:export-ydpi="33.75"
   xmlns:inkscape="http://www.inkscape.org/namespaces/inkscape"
   xmlns:sodipodi="http://sodipodi.sourceforge.net/DTD/sodipodi-0.dtd"
   xmlns:xlink="http://www.w3.org/1999/xlink"
   xmlns="http://www.w3.org/2000/svg"
   xmlns:svg="http://www.w3.org/2000/svg"
   xmlns:rdf="http://www.w3.org/1999/02/22-rdf-syntax-ns#"
   xmlns:cc="http://creativecommons.org/ns#"
   xmlns:dc="http://purl.org/dc/elements/1.1/">
  <metadata
     id="metadata10">
    <rdf:RDF>
      <cc:Work
         rdf:about="">
        <dc:format>image/svg+xml</dc:format>
        <dc:type
           rdf:resource="http://purl.org/dc/dcmitype/StillImage" />
      </cc:Work>
    </rdf:RDF>
  </metadata>
  <defs
     id="defs8">
    <linearGradient
       id="linearGradient3885">
      <stop
         style="stop-color:#ffffff;stop-opacity:0.10196079;"
         offset="0"
         id="stop3887" />
      <stop
         style="stop-color:#ffffff;stop-opacity:0;"
         offset="1"
         id="stop3889" />
    </linearGradient>
    <linearGradient
       id="linearGradient3840">
      <stop
         style="stop-color:#ffffff;stop-opacity:0.10196079;"
         offset="0"
         id="stop3842" />
      <stop
         style="stop-color:#ffffff;stop-opacity:0;"
         offset="1"
         id="stop3844" />
    </linearGradient>
    <linearGradient
       id="linearGradient3778">
      <stop
         style="stop-color:#000000;stop-opacity:0.3137255;"
         offset="0"
         id="stop3780" />
      <stop
         id="stop3788"
         offset="0.3611111"
         style="stop-color:#000000;stop-opacity:0.3137255;" />
      <stop
         style="stop-color:#000000;stop-opacity:0;"
         offset="1"
         id="stop3782" />
    </linearGradient>
    <clipPath
       id="presentation_clip_path"
       clipPathUnits="userSpaceOnUse">
      <rect
         x="0"
         y="0"
         width="14183"
         height="14356"
         id="rect4277" />
    </clipPath>
    <g
       id="bullet-char-template57356"
       transform="matrix(4.8828125e-4,0,0,-4.8828125e-4,0,0)">
      <path
         d="M 580,1141 1163,571 580,0 -4,571 Z"
         id="path4284"
         inkscape:connector-curvature="0" />
    </g>
    <g
       id="bullet-char-template57354"
       transform="matrix(4.8828125e-4,0,0,-4.8828125e-4,0,0)">
      <path
         d="M 8,1128 H 1137 V 0 H 8 Z"
         id="path4287"
         inkscape:connector-curvature="0" />
    </g>
    <g
       id="bullet-char-template10146"
       transform="matrix(4.8828125e-4,0,0,-4.8828125e-4,0,0)">
      <path
         d="M 174,0 602,739 174,1481 1456,739 Z M 1358,739 309,1346 659,739 Z"
         id="path4290"
         inkscape:connector-curvature="0" />
    </g>
    <g
       id="bullet-char-template10132"
       transform="matrix(4.8828125e-4,0,0,-4.8828125e-4,0,0)">
      <path
         d="M 2015,739 1276,0 H 717 l 543,543 H 174 v 393 h 1086 l -543,545 h 557 z"
         id="path4293"
         inkscape:connector-curvature="0" />
    </g>
    <g
       id="bullet-char-template10007"
       transform="matrix(4.8828125e-4,0,0,-4.8828125e-4,0,0)">
      <path
         d="m 0,-2 c -7,16 -16,29 -25,39 l 381,530 c -94,256 -141,385 -141,387 0,25 13,38 40,38 9,0 21,-2 34,-5 21,4 42,12 65,25 l 27,-13 111,-251 280,301 64,-25 24,25 c 21,-10 41,-24 62,-43 C 886,937 835,863 770,784 769,783 710,716 594,584 L 774,223 c 0,-27 -21,-55 -63,-84 l 16,-20 C 717,90 699,76 672,76 641,76 570,178 457,381 L 164,-76 c -22,-34 -53,-51 -92,-51 -42,0 -63,17 -64,51 -7,9 -10,24 -10,44 0,9 1,19 2,30 z"
         id="path4296"
         inkscape:connector-curvature="0" />
    </g>
    <g
       id="bullet-char-template10004"
       transform="matrix(4.8828125e-4,0,0,-4.8828125e-4,0,0)">
      <path
         d="M 285,-33 C 182,-33 111,30 74,156 52,228 41,333 41,471 c 0,78 14,145 41,201 34,71 87,106 158,106 53,0 88,-31 106,-94 l 23,-176 c 8,-64 28,-97 59,-98 l 735,706 c 11,11 33,17 66,17 42,0 63,-15 63,-46 V 965 c 0,-36 -10,-64 -30,-84 L 442,47 C 390,-6 338,-33 285,-33 Z"
         id="path4299"
         inkscape:connector-curvature="0" />
    </g>
    <g
       id="bullet-char-template9679"
       transform="matrix(4.8828125e-4,0,0,-4.8828125e-4,0,0)">
      <path
         d="M 813,0 C 632,0 489,54 383,161 276,268 223,411 223,592 c 0,181 53,324 160,431 106,107 249,161 430,161 179,0 323,-54 432,-161 108,-107 162,-251 162,-431 0,-180 -54,-324 -162,-431 C 1136,54 992,0 813,0 Z"
         id="path4302"
         inkscape:connector-curvature="0" />
    </g>
    <g
       id="bullet-char-template8226"
       transform="matrix(4.8828125e-4,0,0,-4.8828125e-4,0,0)">
      <path
         d="m 346,457 c -73,0 -137,26 -191,78 -54,51 -81,114 -81,188 0,73 27,136 81,188 54,52 118,78 191,78 73,0 134,-26 185,-79 51,-51 77,-114 77,-187 0,-75 -25,-137 -76,-188 -50,-52 -112,-78 -186,-78 z"
         id="path4305"
         inkscape:connector-curvature="0" />
    </g>
    <g
       id="bullet-char-template8211"
       transform="matrix(4.8828125e-4,0,0,-4.8828125e-4,0,0)">
      <path
         d="M -4,459 H 1135 V 606 H -4 Z"
         id="path4308"
         inkscape:connector-curvature="0" />
    </g>
    <linearGradient
       inkscape:collect="always"
       xlink:href="#linearGradient3778"
       id="linearGradient3784"
       x1="40.300671"
       y1="27.162119"
       x2="318.17331"
       y2="305.03476"
       gradientUnits="userSpaceOnUse" />
    <filter
       id="filter3824"
       inkscape:label="Drop shadow"
       width="1.237579"
       height="1.3338948"
       x="-0.11878948"
       y="-0.13816336">
      <feGaussianBlur
         id="feGaussianBlur3826"
         in="SourceAlpha"
         stdDeviation="6"
         result="blur" />
      <feColorMatrix
         id="feColorMatrix3828"
         result="bluralpha"
         type="matrix"
         values="1 0 0 0 0 0 1 0 0 0 0 0 1 0 0 0 0 0 0.2 0 " />
      <feOffset
         id="feOffset3830"
         in="bluralpha"
         dx="0"
         dy="6"
         result="offsetBlur" />
      <feMerge
         id="feMerge3832">
        <feMergeNode
           id="feMergeNode3834"
           in="offsetBlur" />
        <feMergeNode
           id="feMergeNode3836"
           in="SourceGraphic" />
      </feMerge>
    </filter>
    <radialGradient
       inkscape:collect="always"
       xlink:href="#linearGradient3840"
       id="radialGradient3846"
       cx="164.84543"
       cy="157.00168"
       fx="164.84543"
       fy="157.00168"
       r="169.16553"
       gradientUnits="userSpaceOnUse"
       gradientTransform="matrix(2,0,0,2,-334.01097,-326.16722)" />
    <radialGradient
       inkscape:collect="always"
       xlink:href="#linearGradient3840"
       id="radialGradient3865"
       gradientUnits="userSpaceOnUse"
       gradientTransform="matrix(4.2518593e-6,1.9909904,-1.9938284,4.271034e-6,330.18415,64.266274)"
       cx="-3.7923853"
       cy="326.15503"
       fx="-3.7923853"
       fy="326.15503"
       r="169.16553" />
    <radialGradient
       inkscape:collect="always"
       xlink:href="#linearGradient3840"
       id="radialGradient3890"
       gradientUnits="userSpaceOnUse"
       gradientTransform="matrix(4.2518593e-6,1.9909904,-1.9938284,4.271034e-6,646.50477,-4.0869164)"
       cx="-3.7923853"
       cy="326.15503"
       fx="-3.7923853"
       fy="326.15503"
       r="169.16553" />
    <filter
       id="filter3824-2"
       inkscape:label="Drop shadow"
       width="1.237579"
       height="1.3338948"
       x="-0.11878948"
       y="-0.13816336">
      <feGaussianBlur
         id="feGaussianBlur3826-7"
         in="SourceAlpha"
         stdDeviation="6"
         result="blur" />
      <feColorMatrix
         id="feColorMatrix3828-4"
         result="bluralpha"
         type="matrix"
         values="1 0 0 0 0 0 1 0 0 0 0 0 1 0 0 0 0 0 0.2 0 " />
      <feOffset
         id="feOffset3830-7"
         in="bluralpha"
         dx="0"
         dy="6"
         result="offsetBlur" />
      <feMerge
         id="feMerge3832-8">
        <feMergeNode
           id="feMergeNode3834-9"
           in="offsetBlur" />
        <feMergeNode
           id="feMergeNode3836-7"
           in="SourceGraphic" />
      </feMerge>
    </filter>
    <filter
       id="filter905"
       inkscape:label="Drop shadow"
       width="1.237579"
       height="1.3338948"
       x="-0.11878948"
       y="-0.13816336">
      <feGaussianBlur
         id="feGaussianBlur893"
         in="SourceAlpha"
         stdDeviation="6"
         result="blur" />
      <feColorMatrix
         id="feColorMatrix895"
         result="bluralpha"
         type="matrix"
         values="1 0 0 0 0 0 1 0 0 0 0 0 1 0 0 0 0 0 0.2 0 " />
      <feOffset
         id="feOffset897"
         in="bluralpha"
         dx="0"
         dy="6"
         result="offsetBlur" />
      <feMerge
         id="feMerge903">
        <feMergeNode
           id="feMergeNode899"
           in="offsetBlur" />
        <feMergeNode
           id="feMergeNode901"
           in="SourceGraphic" />
      </feMerge>
    </filter>
    <filter
       id="filter919"
       inkscape:label="Drop shadow"
       width="1.237579"
       height="1.3338948"
       x="-0.11878948"
       y="-0.13816336">
      <feGaussianBlur
         id="feGaussianBlur907"
         in="SourceAlpha"
         stdDeviation="6"
         result="blur" />
      <feColorMatrix
         id="feColorMatrix909"
         result="bluralpha"
         type="matrix"
         values="1 0 0 0 0 0 1 0 0 0 0 0 1 0 0 0 0 0 0.2 0 " />
      <feOffset
         id="feOffset911"
         in="bluralpha"
         dx="0"
         dy="6"
         result="offsetBlur" />
      <feMerge
         id="feMerge917">
        <feMergeNode
           id="feMergeNode913"
           in="offsetBlur" />
        <feMergeNode
           id="feMergeNode915"
           in="SourceGraphic" />
      </feMerge>
    </filter>
    <filter
       id="filter933"
       inkscape:label="Drop shadow"
       width="1.237579"
       height="1.3338948"
       x="-0.11878948"
       y="-0.13816336">
      <feGaussianBlur
         id="feGaussianBlur921"
         in="SourceAlpha"
         stdDeviation="6"
         result="blur" />
      <feColorMatrix
         id="feColorMatrix923"
         result="bluralpha"
         type="matrix"
         values="1 0 0 0 0 0 1 0 0 0 0 0 1 0 0 0 0 0 0.2 0 " />
      <feOffset
         id="feOffset925"
         in="bluralpha"
         dx="0"
         dy="6"
         result="offsetBlur" />
      <feMerge
         id="feMerge931">
        <feMergeNode
           id="feMergeNode927"
           in="offsetBlur" />
        <feMergeNode
           id="feMergeNode929"
           in="SourceGraphic" />
      </feMerge>
    </filter>
    <filter
       id="filter947"
       inkscape:label="Drop shadow"
       width="1.237579"
       height="1.3338948"
       x="-0.11878948"
       y="-0.13816336">
      <feGaussianBlur
         id="feGaussianBlur935"
         in="SourceAlpha"
         stdDeviation="6"
         result="blur" />
      <feColorMatrix
         id="feColorMatrix937"
         result="bluralpha"
         type="matrix"
         values="1 0 0 0 0 0 1 0 0 0 0 0 1 0 0 0 0 0 0.2 0 " />
      <feOffset
         id="feOffset939"
         in="bluralpha"
         dx="0"
         dy="6"
         result="offsetBlur" />
      <feMerge
         id="feMerge945">
        <feMergeNode
           id="feMergeNode941"
           in="offsetBlur" />
        <feMergeNode
           id="feMergeNode943"
           in="SourceGraphic" />
      </feMerge>
    </filter>
  </defs>
  <sodipodi:namedview
     pagecolor="#ffffff"
     bordercolor="#666666"
     borderopacity="1"
     objecttolerance="10"
     gridtolerance="10"
     guidetolerance="10"
     inkscape:pageopacity="0"
     inkscape:pageshadow="2"
     inkscape:window-width="1857"
     inkscape:window-height="1177"
     id="namedview6"
     showgrid="false"
     inkscape:zoom="0.93652348"
     inkscape:cx="233.84358"
     inkscape:cy="272.81751"
     inkscape:window-x="55"
     inkscape:window-y="-8"
     inkscape:window-maximized="1"
     inkscape:current-layer="g3796"
     fit-margin-top="0"
     fit-margin-left="0"
     fit-margin-right="0"
     fit-margin-bottom="0"
     showguides="true"
     inkscape:guide-bbox="true"
     inkscape:object-nodes="false"
     inkscape:snap-global="true"
     inkscape:snap-nodes="true"
     inkscape:snap-to-guides="true"
     inkscape:pagecheckerboard="0" />
  <g
     id="g3806"
     transform="matrix(0.54557123,0,0,0.54557123,-67.785094,285.65337)">
    <g
       id="g3796"
       transform="matrix(2.7738095,0,0,2.7738096,0.86619392,-571.76171)">
      <g
         id="g1109"
         transform="translate(84.582764,84.582749)">
        <path
           id="path5084"
           d="m 213.64582,355.6992 c -31.14311,0 -57.6112,-7.0965 -84.58275,-22.65612 -26.97154,-15.58353 -46.343107,-34.9551 -61.926655,-61.92665 -15.559614,-26.97155 -22.656108,-53.43962 -22.656108,-84.58276 0,-31.14315 7.096494,-57.61123 22.656108,-84.58278 15.583548,-26.971543 34.955115,-46.343113 61.926655,-61.926662 26.97155,-15.559588 53.43964,-22.656105 84.58275,-22.656105 31.14317,0 57.61123,7.096517 84.58279,22.656105 26.97154,15.583549 46.34312,34.955119 61.92667,61.926662 15.55959,26.97155 22.65609,53.43963 22.65609,84.58278 0,31.14314 -7.09651,57.61121 -22.65609,84.58276 -15.58355,26.97155 -34.95513,46.34312 -61.92667,61.92665 -26.97156,15.55962 -53.43962,22.65612 -84.58279,22.65612 z"
           inkscape:connector-curvature="0"
           style="fill:#e0e0e0;fill-opacity:1;stroke:none;stroke-width:1.09872" />
        <g
           id="g1100">
          <path
             inkscape:connector-curvature="0"
             style="fill:#616161;fill-opacity:1;stroke:none;stroke-width:1.09872"
             d="m 213.50849,193.84703 a 3.8450555,3.8450555 0 0 0 -2.88415,1.57942 l -77.59742,106.81662 a 3.8450555,3.8450555 0 0 0 3.09017,6.11165 h 155.19484 a 3.8450555,3.8450555 0 0 0 3.09017,-6.11165 L 216.839,195.42645 a 3.8450555,3.8450555 0 0 0 -3.33051,-1.57942 z"
             id="path5092-9" />
          <path
             inkscape:connector-curvature="0"
             style="fill:#1976d2;fill-opacity:1;stroke:none;stroke-width:1.09872"
             d="m 353.87056,145.19413 a 3.8450555,3.8450555 0 0 0 -0.37769,0.0343 3.8450555,3.8450555 0 0 0 -0.75537,0.17168 l -125.56362,40.82448 a 3.8450555,3.8450555 0 0 0 -1.92277,5.90565 l 77.59743,106.78228 a 3.8450555,3.8450555 0 0 0 6.76402,-1.06438 l 47.9662,-147.60677 a 3.8450555,3.8450555 0 0 0 -3.7082,-5.04727 z"
             id="path5094-3" />
          <path
             inkscape:connector-curvature="0"
             style="fill:#fafafa;fill-opacity:1;stroke:none;stroke-width:1.09872"
             d="m 222.4013,37.862483 a 3.8450555,3.8450555 0 0 0 -3.57086,3.811201 V 173.6923 a 3.8450555,3.8450555 0 0 0 5.04727,3.63953 l 125.52928,-40.79015 a 3.8450555,3.8450555 0 0 0 1.06439,-6.76402 L 224.9421,38.583521 a 3.8450555,3.8450555 0 0 0 -2.5408,-0.721038 z"
             id="path5096-0" />
          <path
             inkscape:connector-curvature="0"
             style="fill:#4caf50;fill-opacity:1;stroke:none;stroke-width:1.09872"
             d="m 205.06205,37.828148 a 3.8450555,3.8450555 0 0 0 -0.37769,0.03433 3.8450555,3.8450555 0 0 0 -1.75109,0.721038 L 77.404002,129.77766 a 3.8450555,3.8450555 0 0 0 1.06439,6.76402 l 125.529268,40.79015 a 3.8450555,3.8450555 0 0 0 5.01293,-3.63953 V 41.673684 a 3.8450555,3.8450555 0 0 0 -3.94854,-3.845536 z"
             id="path5098-9" />
          <path
             inkscape:connector-curvature="0"
             style="fill:#f44336;fill-opacity:1;stroke:none;stroke-width:1.09872"
             d="m 73.18078,145.22847 a 3.8450555,3.8450555 0 0 0 -3.330509,5.01293 l 47.966189,147.60677 a 3.8450555,3.8450555 0 0 0 6.76402,1.06439 L 202.1779,192.13027 a 3.8450555,3.8450555 0 0 0 -1.92277,-5.90564 L 74.691526,145.40015 a 3.8450555,3.8450555 0 0 0 -1.510746,-0.17168 z"
             id="path5100-8" />
        </g>
      </g>
    </g>
  </g>
</svg>
