<?xml version="1.0" encoding="UTF-8" standalone="no"?>
<!-- Created with Inkscape (http://www.inkscape.org/) -->

<svg
   xmlns:dc="http://purl.org/dc/elements/1.1/"
   xmlns:cc="http://creativecommons.org/ns#"
   xmlns:rdf="http://www.w3.org/1999/02/22-rdf-syntax-ns#"
   xmlns:svg="http://www.w3.org/2000/svg"
   xmlns="http://www.w3.org/2000/svg"
   xmlns:sodipodi="http://sodipodi.sourceforge.net/DTD/sodipodi-0.dtd"
   xmlns:inkscape="http://www.inkscape.org/namespaces/inkscape"
   width="180"
   height="120"
   id="svg3230"
   version="1.1"
   inkscape:version="0.48.2 r9819"
   sodipodi:docname="Promo-Graphic.svg"
   inkscape:export-filename="C:\Users\Adam Feinstein\Desktop\Promo-Graphic.png"
   inkscape:export-xdpi="90"
   inkscape:export-ydpi="90">
  <defs
     id="defs3232" />
  <sodipodi:namedview
     id="base"
     pagecolor="#ffffff"
     bordercolor="#666666"
     borderopacity="1.0"
     inkscape:pageopacity="0.0"
     inkscape:pageshadow="2"
     inkscape:zoom="5.6509617"
     inkscape:cx="71.301477"
     inkscape:cy="58.869399"
     inkscape:document-units="px"
     inkscape:current-layer="layer1"
     showgrid="false"
     inkscape:window-width="1856"
     inkscape:window-height="1178"
     inkscape:window-x="1432"
     inkscape:window-y="-8"
     inkscape:window-maximized="1" />
  <metadata
     id="metadata3235">
    <rdf:RDF>
      <cc:Work
         rdf:about="">
        <dc:format>image/svg+xml</dc:format>
        <dc:type
           rdf:resource="http://purl.org/dc/dcmitype/StillImage" />
        <dc:title></dc:title>
      </cc:Work>
    </rdf:RDF>
  </metadata>
  <g
     inkscape:label="Layer 1"
     inkscape:groupmode="layer"
     id="layer1"
     transform="translate(0,-932.36218)">
    <g
       transform="matrix(0.26588465,0,0,0.26588465,-110.00244,955.31037)"
       id="g3785">
      <path
         inkscape:connector-curvature="0"
         style="fill:#282828;fill-opacity:1"
         d="m 582.96875,209.8125 -93.625,128.875 187.25,0 -93.625,-128.875 z"
         id="path4-7" />
      <path
         inkscape:connector-curvature="0"
         style="fill:#1a6ab3;fill-opacity:1"
         d="m 742.8125,154.53125 -151.5,49.25 93.625,128.84375 57.875,-178.09375 z"
         id="path4-1-4" />
      <path
         inkscape:connector-curvature="0"
         style="fill:#e4ecc5;fill-opacity:1"
         d="m 588.125,34.6875 0,159.28125 L 739.59375,144.75 588.125,34.6875 z"
         id="path4-1-7-09" />
      <path
         inkscape:connector-curvature="0"
         style="fill:#39b253;fill-opacity:1"
         d="M 577.8125,34.6875 426.34375,144.75 l 151.46875,49.21875 0,-159.28125 z"
         id="path4-1-7-0-4" />
      <path
         inkscape:connector-curvature="0"
         style="fill:#ef342f;fill-opacity:1"
         d="M 423.125,154.53125 481,332.625 l 93.625,-128.84375 -151.5,-49.25 z"
         id="path4-1-7-0-9-8" />
    </g>
    <g
       id="g3475"
       transform="matrix(0.65210241,0,0,0.65210241,22.949788,378.47529)">
      <path
         id="path9742-3"
         d="m 148.4725,913.52686 c -3.63548,0 -6.69535,3.01723 -6.69535,6.6527 l 0,69.89608 c 0,3.63548 3.05987,6.65271 6.69535,6.65271 l 16.54648,0 -11.81282,-6.82329 -4.60572,0 0,-2.81461 c -3.78191,-3.05316 -4.94052,-8.53199 -2.4308,-12.87896 l 2.4308,-4.22191 0,-49.63943 28.65781,0 3.8381,-6.65271 c 0.036,-0.0624 0.0907,-0.10931 0.12787,-0.17058 l -32.75179,0 z"
         style="font-size:medium;font-style:normal;font-variant:normal;font-weight:normal;font-stretch:normal;text-indent:0;text-align:start;text-decoration:none;line-height:normal;letter-spacing:normal;word-spacing:normal;text-transform:none;direction:ltr;block-progression:tb;writing-mode:lr-tb;text-anchor:start;baseline-shift:baseline;color:#000000;fill:#a3a3a3;fill-opacity:1;stroke:none;stroke-width:5.00000048;marker:none;visibility:visible;display:inline;overflow:visible;enable-background:accumulate;font-family:Sans;-inkscape-font-specification:Sans"
         inkscape:connector-curvature="0" />
      <path
         id="path9810-3"
         d="m 138.36569,919.98585 -28.40194,16.3759 c -3.14842,1.81774 -4.24854,5.93509 -2.4308,9.0835 l 34.92672,60.55675 c 1.81773,3.1484 5.97774,4.2058 9.12615,2.3881 l 14.32891,-8.2732 -13.60394,0 -4.00868,2.3028 -1.40731,-2.43077 c -4.78648,-0.76604 -8.52911,-4.92886 -8.52911,-9.93642 l 0,-4.81895 -24.86236,-43.02937 24.86236,-14.37155 0,-7.67621 c 0,-0.0577 -9.8e-4,-0.11313 0,-0.17058 z"
         style="font-size:medium;font-style:normal;font-variant:normal;font-weight:normal;font-stretch:normal;text-indent:0;text-align:start;text-decoration:none;line-height:normal;letter-spacing:normal;word-spacing:normal;text-transform:none;direction:ltr;block-progression:tb;writing-mode:lr-tb;text-anchor:start;baseline-shift:baseline;color:#000000;fill:#a3a3a3;fill-opacity:1;stroke:none;stroke-width:5.00000048;marker:none;visibility:visible;display:inline;overflow:visible;enable-background:accumulate;font-family:Sans;-inkscape-font-specification:Sans"
         inkscape:connector-curvature="0" />
      <path
         inkscape:connector-curvature="0"
         id="path10409"
         d="m 193.18602,912.98419 c -3.14841,-1.81774 -7.30696,-0.73468 -9.1247,2.41374 l -34.94803,60.53176 c -1.81774,3.14842 -0.67642,7.29136 2.47198,9.10909 l 40.47763,23.36982 c 3.14841,1.8177 7.30696,0.7346 9.1247,-2.4138 l 34.94805,-60.53175 c 1.81773,-3.14842 0.67642,-7.29136 -2.472,-9.10909 l -40.47763,-23.36977 z m -3.3009,5.97306 40.25603,23.24184 -34.77746,60.23631 -40.25603,-23.24181 34.77746,-60.23634 z"
         style="font-size:medium;font-style:normal;font-variant:normal;font-weight:normal;font-stretch:normal;text-indent:0;text-align:start;text-decoration:none;line-height:normal;letter-spacing:normal;word-spacing:normal;text-transform:none;direction:ltr;block-progression:tb;writing-mode:lr-tb;text-anchor:start;baseline-shift:baseline;color:#000000;fill:#a3a3a3;fill-opacity:1;stroke:none;stroke-width:5.00000048;marker:none;visibility:visible;display:inline;overflow:visible;enable-background:accumulate;font-family:Sans;-inkscape-font-specification:Sans"
         inkscape:transform-center-y="-30.484375" />
    </g>
    <text
       xml:space="preserve"
       style="font-size:26.64931679px;font-style:normal;font-variant:normal;font-weight:normal;font-stretch:normal;line-height:125%;letter-spacing:0px;word-spacing:0px;fill:#000000;fill-opacity:1;stroke:none;font-family:Roboto;-inkscape-font-specification:Roboto"
       x="7.9310346"
       y="958.08893"
       id="text3480"
       sodipodi:linespacing="125%"><tspan
         sodipodi:role="line"
         id="tspan3482"
         x="7.9310346"
         y="958.08893">MTG Familiar</tspan></text>
  </g>
</svg>
